G04 #@! TF.GenerationSoftware,KiCad,Pcbnew,5.1.6-c6e7f7d~87~ubuntu18.04.1*
G04 #@! TF.CreationDate,2021-04-28T11:05:25+02:00*
G04 #@! TF.ProjectId,MSS,4d53532e-6b69-4636-9164-5f7063625858,2.0*
G04 #@! TF.SameCoordinates,Original*
G04 #@! TF.FileFunction,Copper,L1,Top*
G04 #@! TF.FilePolarity,Positive*
%FSLAX46Y46*%
G04 Gerber Fmt 4.6, Leading zero omitted, Abs format (unit mm)*
G04 Created by KiCad (PCBNEW 5.1.6-c6e7f7d~87~ubuntu18.04.1) date 2021-04-28 11:05:25*
%MOMM*%
%LPD*%
G01*
G04 APERTURE LIST*
G04 #@! TA.AperFunction,ComponentPad*
%ADD10C,1.524000*%
G04 #@! TD*
G04 #@! TA.AperFunction,ComponentPad*
%ADD11R,1.524000X1.524000*%
G04 #@! TD*
G04 #@! TA.AperFunction,SMDPad,CuDef*
%ADD12C,2.700000*%
G04 #@! TD*
G04 #@! TA.AperFunction,ComponentPad*
%ADD13C,1.700000*%
G04 #@! TD*
G04 #@! TA.AperFunction,ComponentPad*
%ADD14O,1.700000X1.700000*%
G04 #@! TD*
G04 #@! TA.AperFunction,ComponentPad*
%ADD15R,1.700000X1.700000*%
G04 #@! TD*
G04 #@! TA.AperFunction,SMDPad,CuDef*
%ADD16R,0.250000X1.100000*%
G04 #@! TD*
G04 #@! TA.AperFunction,SMDPad,CuDef*
%ADD17R,0.600000X0.450000*%
G04 #@! TD*
G04 #@! TA.AperFunction,ViaPad*
%ADD18C,0.800000*%
G04 #@! TD*
G04 #@! TA.AperFunction,Conductor*
%ADD19C,0.250000*%
G04 #@! TD*
G04 #@! TA.AperFunction,Conductor*
%ADD20C,0.500000*%
G04 #@! TD*
G04 #@! TA.AperFunction,Conductor*
%ADD21C,1.000000*%
G04 #@! TD*
G04 #@! TA.AperFunction,Conductor*
%ADD22C,0.200000*%
G04 #@! TD*
G04 APERTURE END LIST*
G04 #@! TA.AperFunction,SMDPad,CuDef*
G36*
G01*
X96558000Y-106100000D02*
X94298000Y-106100000D01*
G75*
G02*
X93853000Y-105655000I0J445000D01*
G01*
X93853000Y-104765000D01*
G75*
G02*
X94298000Y-104320000I445000J0D01*
G01*
X96558000Y-104320000D01*
G75*
G02*
X97003000Y-104765000I0J-445000D01*
G01*
X97003000Y-105655000D01*
G75*
G02*
X96558000Y-106100000I-445000J0D01*
G01*
G37*
G04 #@! TD.AperFunction*
G04 #@! TA.AperFunction,SMDPad,CuDef*
G36*
G01*
X96558000Y-110930000D02*
X94298000Y-110930000D01*
G75*
G02*
X93853000Y-110485000I0J445000D01*
G01*
X93853000Y-109595000D01*
G75*
G02*
X94298000Y-109150000I445000J0D01*
G01*
X96558000Y-109150000D01*
G75*
G02*
X97003000Y-109595000I0J-445000D01*
G01*
X97003000Y-110485000D01*
G75*
G02*
X96558000Y-110930000I-445000J0D01*
G01*
G37*
G04 #@! TD.AperFunction*
G04 #@! TA.AperFunction,SMDPad,CuDef*
G36*
G01*
X161748000Y-98614000D02*
X161748000Y-97314000D01*
G75*
G02*
X162098000Y-96964000I350000J0D01*
G01*
X162798000Y-96964000D01*
G75*
G02*
X163148000Y-97314000I0J-350000D01*
G01*
X163148000Y-98614000D01*
G75*
G02*
X162798000Y-98964000I-350000J0D01*
G01*
X162098000Y-98964000D01*
G75*
G02*
X161748000Y-98614000I0J350000D01*
G01*
G37*
G04 #@! TD.AperFunction*
G04 #@! TA.AperFunction,SMDPad,CuDef*
G36*
G01*
X161748000Y-107014000D02*
X161748000Y-105714000D01*
G75*
G02*
X162098000Y-105364000I350000J0D01*
G01*
X162798000Y-105364000D01*
G75*
G02*
X163148000Y-105714000I0J-350000D01*
G01*
X163148000Y-107014000D01*
G75*
G02*
X162798000Y-107364000I-350000J0D01*
G01*
X162098000Y-107364000D01*
G75*
G02*
X161748000Y-107014000I0J350000D01*
G01*
G37*
G04 #@! TD.AperFunction*
G04 #@! TA.AperFunction,SMDPad,CuDef*
G36*
G01*
X157248000Y-98614000D02*
X157248000Y-97314000D01*
G75*
G02*
X157598000Y-96964000I350000J0D01*
G01*
X158298000Y-96964000D01*
G75*
G02*
X158648000Y-97314000I0J-350000D01*
G01*
X158648000Y-98614000D01*
G75*
G02*
X158298000Y-98964000I-350000J0D01*
G01*
X157598000Y-98964000D01*
G75*
G02*
X157248000Y-98614000I0J350000D01*
G01*
G37*
G04 #@! TD.AperFunction*
G04 #@! TA.AperFunction,SMDPad,CuDef*
G36*
G01*
X157248000Y-107014000D02*
X157248000Y-105714000D01*
G75*
G02*
X157598000Y-105364000I350000J0D01*
G01*
X158298000Y-105364000D01*
G75*
G02*
X158648000Y-105714000I0J-350000D01*
G01*
X158648000Y-107014000D01*
G75*
G02*
X158298000Y-107364000I-350000J0D01*
G01*
X157598000Y-107364000D01*
G75*
G02*
X157248000Y-107014000I0J350000D01*
G01*
G37*
G04 #@! TD.AperFunction*
G04 #@! TA.AperFunction,SMDPad,CuDef*
G36*
G01*
X99230000Y-83680000D02*
X99230000Y-83180000D01*
G75*
G02*
X99480000Y-82930000I250000J0D01*
G01*
X99980000Y-82930000D01*
G75*
G02*
X100230000Y-83180000I0J-250000D01*
G01*
X100230000Y-83680000D01*
G75*
G02*
X99980000Y-83930000I-250000J0D01*
G01*
X99480000Y-83930000D01*
G75*
G02*
X99230000Y-83680000I0J250000D01*
G01*
G37*
G04 #@! TD.AperFunction*
G04 #@! TA.AperFunction,SMDPad,CuDef*
G36*
G01*
X99230000Y-85080000D02*
X99230000Y-84580000D01*
G75*
G02*
X99480000Y-84330000I250000J0D01*
G01*
X99980000Y-84330000D01*
G75*
G02*
X100230000Y-84580000I0J-250000D01*
G01*
X100230000Y-85080000D01*
G75*
G02*
X99980000Y-85330000I-250000J0D01*
G01*
X99480000Y-85330000D01*
G75*
G02*
X99230000Y-85080000I0J250000D01*
G01*
G37*
G04 #@! TD.AperFunction*
G04 #@! TA.AperFunction,SMDPad,CuDef*
G36*
G01*
X97230000Y-85080000D02*
X97230000Y-84580000D01*
G75*
G02*
X97480000Y-84330000I250000J0D01*
G01*
X97980000Y-84330000D01*
G75*
G02*
X98230000Y-84580000I0J-250000D01*
G01*
X98230000Y-85080000D01*
G75*
G02*
X97980000Y-85330000I-250000J0D01*
G01*
X97480000Y-85330000D01*
G75*
G02*
X97230000Y-85080000I0J250000D01*
G01*
G37*
G04 #@! TD.AperFunction*
G04 #@! TA.AperFunction,SMDPad,CuDef*
G36*
G01*
X97230000Y-83680000D02*
X97230000Y-83180000D01*
G75*
G02*
X97480000Y-82930000I250000J0D01*
G01*
X97980000Y-82930000D01*
G75*
G02*
X98230000Y-83180000I0J-250000D01*
G01*
X98230000Y-83680000D01*
G75*
G02*
X97980000Y-83930000I-250000J0D01*
G01*
X97480000Y-83930000D01*
G75*
G02*
X97230000Y-83680000I0J250000D01*
G01*
G37*
G04 #@! TD.AperFunction*
G04 #@! TA.AperFunction,SMDPad,CuDef*
G36*
G01*
X99230000Y-70980000D02*
X99230000Y-70480000D01*
G75*
G02*
X99480000Y-70230000I250000J0D01*
G01*
X99980000Y-70230000D01*
G75*
G02*
X100230000Y-70480000I0J-250000D01*
G01*
X100230000Y-70980000D01*
G75*
G02*
X99980000Y-71230000I-250000J0D01*
G01*
X99480000Y-71230000D01*
G75*
G02*
X99230000Y-70980000I0J250000D01*
G01*
G37*
G04 #@! TD.AperFunction*
G04 #@! TA.AperFunction,SMDPad,CuDef*
G36*
G01*
X99230000Y-72380000D02*
X99230000Y-71880000D01*
G75*
G02*
X99480000Y-71630000I250000J0D01*
G01*
X99980000Y-71630000D01*
G75*
G02*
X100230000Y-71880000I0J-250000D01*
G01*
X100230000Y-72380000D01*
G75*
G02*
X99980000Y-72630000I-250000J0D01*
G01*
X99480000Y-72630000D01*
G75*
G02*
X99230000Y-72380000I0J250000D01*
G01*
G37*
G04 #@! TD.AperFunction*
G04 #@! TA.AperFunction,SMDPad,CuDef*
G36*
G01*
X97230000Y-72380000D02*
X97230000Y-71880000D01*
G75*
G02*
X97480000Y-71630000I250000J0D01*
G01*
X97980000Y-71630000D01*
G75*
G02*
X98230000Y-71880000I0J-250000D01*
G01*
X98230000Y-72380000D01*
G75*
G02*
X97980000Y-72630000I-250000J0D01*
G01*
X97480000Y-72630000D01*
G75*
G02*
X97230000Y-72380000I0J250000D01*
G01*
G37*
G04 #@! TD.AperFunction*
G04 #@! TA.AperFunction,SMDPad,CuDef*
G36*
G01*
X97230000Y-70980000D02*
X97230000Y-70480000D01*
G75*
G02*
X97480000Y-70230000I250000J0D01*
G01*
X97980000Y-70230000D01*
G75*
G02*
X98230000Y-70480000I0J-250000D01*
G01*
X98230000Y-70980000D01*
G75*
G02*
X97980000Y-71230000I-250000J0D01*
G01*
X97480000Y-71230000D01*
G75*
G02*
X97230000Y-70980000I0J250000D01*
G01*
G37*
G04 #@! TD.AperFunction*
G04 #@! TA.AperFunction,SMDPad,CuDef*
G36*
G01*
X99230000Y-77330000D02*
X99230000Y-76830000D01*
G75*
G02*
X99480000Y-76580000I250000J0D01*
G01*
X99980000Y-76580000D01*
G75*
G02*
X100230000Y-76830000I0J-250000D01*
G01*
X100230000Y-77330000D01*
G75*
G02*
X99980000Y-77580000I-250000J0D01*
G01*
X99480000Y-77580000D01*
G75*
G02*
X99230000Y-77330000I0J250000D01*
G01*
G37*
G04 #@! TD.AperFunction*
G04 #@! TA.AperFunction,SMDPad,CuDef*
G36*
G01*
X99230000Y-78730000D02*
X99230000Y-78230000D01*
G75*
G02*
X99480000Y-77980000I250000J0D01*
G01*
X99980000Y-77980000D01*
G75*
G02*
X100230000Y-78230000I0J-250000D01*
G01*
X100230000Y-78730000D01*
G75*
G02*
X99980000Y-78980000I-250000J0D01*
G01*
X99480000Y-78980000D01*
G75*
G02*
X99230000Y-78730000I0J250000D01*
G01*
G37*
G04 #@! TD.AperFunction*
G04 #@! TA.AperFunction,SMDPad,CuDef*
G36*
G01*
X97230000Y-78730000D02*
X97230000Y-78230000D01*
G75*
G02*
X97480000Y-77980000I250000J0D01*
G01*
X97980000Y-77980000D01*
G75*
G02*
X98230000Y-78230000I0J-250000D01*
G01*
X98230000Y-78730000D01*
G75*
G02*
X97980000Y-78980000I-250000J0D01*
G01*
X97480000Y-78980000D01*
G75*
G02*
X97230000Y-78730000I0J250000D01*
G01*
G37*
G04 #@! TD.AperFunction*
G04 #@! TA.AperFunction,SMDPad,CuDef*
G36*
G01*
X97230000Y-77330000D02*
X97230000Y-76830000D01*
G75*
G02*
X97480000Y-76580000I250000J0D01*
G01*
X97980000Y-76580000D01*
G75*
G02*
X98230000Y-76830000I0J-250000D01*
G01*
X98230000Y-77330000D01*
G75*
G02*
X97980000Y-77580000I-250000J0D01*
G01*
X97480000Y-77580000D01*
G75*
G02*
X97230000Y-77330000I0J250000D01*
G01*
G37*
G04 #@! TD.AperFunction*
G04 #@! TA.AperFunction,SMDPad,CuDef*
G36*
G01*
X99230000Y-90030000D02*
X99230000Y-89530000D01*
G75*
G02*
X99480000Y-89280000I250000J0D01*
G01*
X99980000Y-89280000D01*
G75*
G02*
X100230000Y-89530000I0J-250000D01*
G01*
X100230000Y-90030000D01*
G75*
G02*
X99980000Y-90280000I-250000J0D01*
G01*
X99480000Y-90280000D01*
G75*
G02*
X99230000Y-90030000I0J250000D01*
G01*
G37*
G04 #@! TD.AperFunction*
G04 #@! TA.AperFunction,SMDPad,CuDef*
G36*
G01*
X99230000Y-91430000D02*
X99230000Y-90930000D01*
G75*
G02*
X99480000Y-90680000I250000J0D01*
G01*
X99980000Y-90680000D01*
G75*
G02*
X100230000Y-90930000I0J-250000D01*
G01*
X100230000Y-91430000D01*
G75*
G02*
X99980000Y-91680000I-250000J0D01*
G01*
X99480000Y-91680000D01*
G75*
G02*
X99230000Y-91430000I0J250000D01*
G01*
G37*
G04 #@! TD.AperFunction*
G04 #@! TA.AperFunction,SMDPad,CuDef*
G36*
G01*
X97230000Y-91430000D02*
X97230000Y-90930000D01*
G75*
G02*
X97480000Y-90680000I250000J0D01*
G01*
X97980000Y-90680000D01*
G75*
G02*
X98230000Y-90930000I0J-250000D01*
G01*
X98230000Y-91430000D01*
G75*
G02*
X97980000Y-91680000I-250000J0D01*
G01*
X97480000Y-91680000D01*
G75*
G02*
X97230000Y-91430000I0J250000D01*
G01*
G37*
G04 #@! TD.AperFunction*
G04 #@! TA.AperFunction,SMDPad,CuDef*
G36*
G01*
X97230000Y-90030000D02*
X97230000Y-89530000D01*
G75*
G02*
X97480000Y-89280000I250000J0D01*
G01*
X97980000Y-89280000D01*
G75*
G02*
X98230000Y-89530000I0J-250000D01*
G01*
X98230000Y-90030000D01*
G75*
G02*
X97980000Y-90280000I-250000J0D01*
G01*
X97480000Y-90280000D01*
G75*
G02*
X97230000Y-90030000I0J250000D01*
G01*
G37*
G04 #@! TD.AperFunction*
D10*
X90348000Y-102545000D03*
X90348000Y-105085000D03*
X90348000Y-107625000D03*
D11*
X90348000Y-110165000D03*
D10*
X153594000Y-64318000D03*
D11*
X151054000Y-64318000D03*
D10*
X141148000Y-64191000D03*
D11*
X138608000Y-64191000D03*
D10*
X128702000Y-64064000D03*
D11*
X126162000Y-64064000D03*
D12*
X161500000Y-112500000D03*
X103500000Y-112500000D03*
X161500000Y-63500000D03*
X103500000Y-63500000D03*
G04 #@! TA.AperFunction,SMDPad,CuDef*
G36*
G01*
X161029000Y-72648250D02*
X161029000Y-71735750D01*
G75*
G02*
X161272750Y-71492000I243750J0D01*
G01*
X161760250Y-71492000D01*
G75*
G02*
X162004000Y-71735750I0J-243750D01*
G01*
X162004000Y-72648250D01*
G75*
G02*
X161760250Y-72892000I-243750J0D01*
G01*
X161272750Y-72892000D01*
G75*
G02*
X161029000Y-72648250I0J243750D01*
G01*
G37*
G04 #@! TD.AperFunction*
G04 #@! TA.AperFunction,SMDPad,CuDef*
G36*
G01*
X159154000Y-72648250D02*
X159154000Y-71735750D01*
G75*
G02*
X159397750Y-71492000I243750J0D01*
G01*
X159885250Y-71492000D01*
G75*
G02*
X160129000Y-71735750I0J-243750D01*
G01*
X160129000Y-72648250D01*
G75*
G02*
X159885250Y-72892000I-243750J0D01*
G01*
X159397750Y-72892000D01*
G75*
G02*
X159154000Y-72648250I0J243750D01*
G01*
G37*
G04 #@! TD.AperFunction*
G04 #@! TA.AperFunction,SMDPad,CuDef*
G36*
G01*
X152012000Y-83951250D02*
X152012000Y-83038750D01*
G75*
G02*
X152255750Y-82795000I243750J0D01*
G01*
X152743250Y-82795000D01*
G75*
G02*
X152987000Y-83038750I0J-243750D01*
G01*
X152987000Y-83951250D01*
G75*
G02*
X152743250Y-84195000I-243750J0D01*
G01*
X152255750Y-84195000D01*
G75*
G02*
X152012000Y-83951250I0J243750D01*
G01*
G37*
G04 #@! TD.AperFunction*
G04 #@! TA.AperFunction,SMDPad,CuDef*
G36*
G01*
X150137000Y-83951250D02*
X150137000Y-83038750D01*
G75*
G02*
X150380750Y-82795000I243750J0D01*
G01*
X150868250Y-82795000D01*
G75*
G02*
X151112000Y-83038750I0J-243750D01*
G01*
X151112000Y-83951250D01*
G75*
G02*
X150868250Y-84195000I-243750J0D01*
G01*
X150380750Y-84195000D01*
G75*
G02*
X150137000Y-83951250I0J243750D01*
G01*
G37*
G04 #@! TD.AperFunction*
G04 #@! TA.AperFunction,SMDPad,CuDef*
G36*
G01*
X151955000Y-74157750D02*
X151955000Y-75070250D01*
G75*
G02*
X151711250Y-75314000I-243750J0D01*
G01*
X151223750Y-75314000D01*
G75*
G02*
X150980000Y-75070250I0J243750D01*
G01*
X150980000Y-74157750D01*
G75*
G02*
X151223750Y-73914000I243750J0D01*
G01*
X151711250Y-73914000D01*
G75*
G02*
X151955000Y-74157750I0J-243750D01*
G01*
G37*
G04 #@! TD.AperFunction*
G04 #@! TA.AperFunction,SMDPad,CuDef*
G36*
G01*
X153830000Y-74157750D02*
X153830000Y-75070250D01*
G75*
G02*
X153586250Y-75314000I-243750J0D01*
G01*
X153098750Y-75314000D01*
G75*
G02*
X152855000Y-75070250I0J243750D01*
G01*
X152855000Y-74157750D01*
G75*
G02*
X153098750Y-73914000I243750J0D01*
G01*
X153586250Y-73914000D01*
G75*
G02*
X153830000Y-74157750I0J-243750D01*
G01*
G37*
G04 #@! TD.AperFunction*
G04 #@! TA.AperFunction,SMDPad,CuDef*
G36*
G01*
X139566000Y-83951250D02*
X139566000Y-83038750D01*
G75*
G02*
X139809750Y-82795000I243750J0D01*
G01*
X140297250Y-82795000D01*
G75*
G02*
X140541000Y-83038750I0J-243750D01*
G01*
X140541000Y-83951250D01*
G75*
G02*
X140297250Y-84195000I-243750J0D01*
G01*
X139809750Y-84195000D01*
G75*
G02*
X139566000Y-83951250I0J243750D01*
G01*
G37*
G04 #@! TD.AperFunction*
G04 #@! TA.AperFunction,SMDPad,CuDef*
G36*
G01*
X137691000Y-83951250D02*
X137691000Y-83038750D01*
G75*
G02*
X137934750Y-82795000I243750J0D01*
G01*
X138422250Y-82795000D01*
G75*
G02*
X138666000Y-83038750I0J-243750D01*
G01*
X138666000Y-83951250D01*
G75*
G02*
X138422250Y-84195000I-243750J0D01*
G01*
X137934750Y-84195000D01*
G75*
G02*
X137691000Y-83951250I0J243750D01*
G01*
G37*
G04 #@! TD.AperFunction*
G04 #@! TA.AperFunction,SMDPad,CuDef*
G36*
G01*
X139455000Y-74157750D02*
X139455000Y-75070250D01*
G75*
G02*
X139211250Y-75314000I-243750J0D01*
G01*
X138723750Y-75314000D01*
G75*
G02*
X138480000Y-75070250I0J243750D01*
G01*
X138480000Y-74157750D01*
G75*
G02*
X138723750Y-73914000I243750J0D01*
G01*
X139211250Y-73914000D01*
G75*
G02*
X139455000Y-74157750I0J-243750D01*
G01*
G37*
G04 #@! TD.AperFunction*
G04 #@! TA.AperFunction,SMDPad,CuDef*
G36*
G01*
X141330000Y-74157750D02*
X141330000Y-75070250D01*
G75*
G02*
X141086250Y-75314000I-243750J0D01*
G01*
X140598750Y-75314000D01*
G75*
G02*
X140355000Y-75070250I0J243750D01*
G01*
X140355000Y-74157750D01*
G75*
G02*
X140598750Y-73914000I243750J0D01*
G01*
X141086250Y-73914000D01*
G75*
G02*
X141330000Y-74157750I0J-243750D01*
G01*
G37*
G04 #@! TD.AperFunction*
G04 #@! TA.AperFunction,SMDPad,CuDef*
G36*
G01*
X127120000Y-83951250D02*
X127120000Y-83038750D01*
G75*
G02*
X127363750Y-82795000I243750J0D01*
G01*
X127851250Y-82795000D01*
G75*
G02*
X128095000Y-83038750I0J-243750D01*
G01*
X128095000Y-83951250D01*
G75*
G02*
X127851250Y-84195000I-243750J0D01*
G01*
X127363750Y-84195000D01*
G75*
G02*
X127120000Y-83951250I0J243750D01*
G01*
G37*
G04 #@! TD.AperFunction*
G04 #@! TA.AperFunction,SMDPad,CuDef*
G36*
G01*
X125245000Y-83951250D02*
X125245000Y-83038750D01*
G75*
G02*
X125488750Y-82795000I243750J0D01*
G01*
X125976250Y-82795000D01*
G75*
G02*
X126220000Y-83038750I0J-243750D01*
G01*
X126220000Y-83951250D01*
G75*
G02*
X125976250Y-84195000I-243750J0D01*
G01*
X125488750Y-84195000D01*
G75*
G02*
X125245000Y-83951250I0J243750D01*
G01*
G37*
G04 #@! TD.AperFunction*
G04 #@! TA.AperFunction,SMDPad,CuDef*
G36*
G01*
X126955000Y-74157750D02*
X126955000Y-75070250D01*
G75*
G02*
X126711250Y-75314000I-243750J0D01*
G01*
X126223750Y-75314000D01*
G75*
G02*
X125980000Y-75070250I0J243750D01*
G01*
X125980000Y-74157750D01*
G75*
G02*
X126223750Y-73914000I243750J0D01*
G01*
X126711250Y-73914000D01*
G75*
G02*
X126955000Y-74157750I0J-243750D01*
G01*
G37*
G04 #@! TD.AperFunction*
G04 #@! TA.AperFunction,SMDPad,CuDef*
G36*
G01*
X128830000Y-74157750D02*
X128830000Y-75070250D01*
G75*
G02*
X128586250Y-75314000I-243750J0D01*
G01*
X128098750Y-75314000D01*
G75*
G02*
X127855000Y-75070250I0J243750D01*
G01*
X127855000Y-74157750D01*
G75*
G02*
X128098750Y-73914000I243750J0D01*
G01*
X128586250Y-73914000D01*
G75*
G02*
X128830000Y-74157750I0J-243750D01*
G01*
G37*
G04 #@! TD.AperFunction*
G04 #@! TA.AperFunction,SMDPad,CuDef*
G36*
G01*
X160129000Y-76307750D02*
X160129000Y-77220250D01*
G75*
G02*
X159885250Y-77464000I-243750J0D01*
G01*
X159397750Y-77464000D01*
G75*
G02*
X159154000Y-77220250I0J243750D01*
G01*
X159154000Y-76307750D01*
G75*
G02*
X159397750Y-76064000I243750J0D01*
G01*
X159885250Y-76064000D01*
G75*
G02*
X160129000Y-76307750I0J-243750D01*
G01*
G37*
G04 #@! TD.AperFunction*
G04 #@! TA.AperFunction,SMDPad,CuDef*
G36*
G01*
X162004000Y-76307750D02*
X162004000Y-77220250D01*
G75*
G02*
X161760250Y-77464000I-243750J0D01*
G01*
X161272750Y-77464000D01*
G75*
G02*
X161029000Y-77220250I0J243750D01*
G01*
X161029000Y-76307750D01*
G75*
G02*
X161272750Y-76064000I243750J0D01*
G01*
X161760250Y-76064000D01*
G75*
G02*
X162004000Y-76307750I0J-243750D01*
G01*
G37*
G04 #@! TD.AperFunction*
G04 #@! TA.AperFunction,SMDPad,CuDef*
G36*
G01*
X150494250Y-78981000D02*
X149581750Y-78981000D01*
G75*
G02*
X149338000Y-78737250I0J243750D01*
G01*
X149338000Y-78249750D01*
G75*
G02*
X149581750Y-78006000I243750J0D01*
G01*
X150494250Y-78006000D01*
G75*
G02*
X150738000Y-78249750I0J-243750D01*
G01*
X150738000Y-78737250D01*
G75*
G02*
X150494250Y-78981000I-243750J0D01*
G01*
G37*
G04 #@! TD.AperFunction*
G04 #@! TA.AperFunction,SMDPad,CuDef*
G36*
G01*
X150494250Y-80856000D02*
X149581750Y-80856000D01*
G75*
G02*
X149338000Y-80612250I0J243750D01*
G01*
X149338000Y-80124750D01*
G75*
G02*
X149581750Y-79881000I243750J0D01*
G01*
X150494250Y-79881000D01*
G75*
G02*
X150738000Y-80124750I0J-243750D01*
G01*
X150738000Y-80612250D01*
G75*
G02*
X150494250Y-80856000I-243750J0D01*
G01*
G37*
G04 #@! TD.AperFunction*
G04 #@! TA.AperFunction,SMDPad,CuDef*
G36*
G01*
X154552000Y-69854250D02*
X154552000Y-68941750D01*
G75*
G02*
X154795750Y-68698000I243750J0D01*
G01*
X155283250Y-68698000D01*
G75*
G02*
X155527000Y-68941750I0J-243750D01*
G01*
X155527000Y-69854250D01*
G75*
G02*
X155283250Y-70098000I-243750J0D01*
G01*
X154795750Y-70098000D01*
G75*
G02*
X154552000Y-69854250I0J243750D01*
G01*
G37*
G04 #@! TD.AperFunction*
G04 #@! TA.AperFunction,SMDPad,CuDef*
G36*
G01*
X152677000Y-69854250D02*
X152677000Y-68941750D01*
G75*
G02*
X152920750Y-68698000I243750J0D01*
G01*
X153408250Y-68698000D01*
G75*
G02*
X153652000Y-68941750I0J-243750D01*
G01*
X153652000Y-69854250D01*
G75*
G02*
X153408250Y-70098000I-243750J0D01*
G01*
X152920750Y-70098000D01*
G75*
G02*
X152677000Y-69854250I0J243750D01*
G01*
G37*
G04 #@! TD.AperFunction*
G04 #@! TA.AperFunction,SMDPad,CuDef*
G36*
G01*
X150223000Y-68941750D02*
X150223000Y-69854250D01*
G75*
G02*
X149979250Y-70098000I-243750J0D01*
G01*
X149491750Y-70098000D01*
G75*
G02*
X149248000Y-69854250I0J243750D01*
G01*
X149248000Y-68941750D01*
G75*
G02*
X149491750Y-68698000I243750J0D01*
G01*
X149979250Y-68698000D01*
G75*
G02*
X150223000Y-68941750I0J-243750D01*
G01*
G37*
G04 #@! TD.AperFunction*
G04 #@! TA.AperFunction,SMDPad,CuDef*
G36*
G01*
X152098000Y-68941750D02*
X152098000Y-69854250D01*
G75*
G02*
X151854250Y-70098000I-243750J0D01*
G01*
X151366750Y-70098000D01*
G75*
G02*
X151123000Y-69854250I0J243750D01*
G01*
X151123000Y-68941750D01*
G75*
G02*
X151366750Y-68698000I243750J0D01*
G01*
X151854250Y-68698000D01*
G75*
G02*
X152098000Y-68941750I0J-243750D01*
G01*
G37*
G04 #@! TD.AperFunction*
G04 #@! TA.AperFunction,SMDPad,CuDef*
G36*
G01*
X155161250Y-71664000D02*
X154248750Y-71664000D01*
G75*
G02*
X154005000Y-71420250I0J243750D01*
G01*
X154005000Y-70932750D01*
G75*
G02*
X154248750Y-70689000I243750J0D01*
G01*
X155161250Y-70689000D01*
G75*
G02*
X155405000Y-70932750I0J-243750D01*
G01*
X155405000Y-71420250D01*
G75*
G02*
X155161250Y-71664000I-243750J0D01*
G01*
G37*
G04 #@! TD.AperFunction*
G04 #@! TA.AperFunction,SMDPad,CuDef*
G36*
G01*
X155161250Y-73539000D02*
X154248750Y-73539000D01*
G75*
G02*
X154005000Y-73295250I0J243750D01*
G01*
X154005000Y-72807750D01*
G75*
G02*
X154248750Y-72564000I243750J0D01*
G01*
X155161250Y-72564000D01*
G75*
G02*
X155405000Y-72807750I0J-243750D01*
G01*
X155405000Y-73295250D01*
G75*
G02*
X155161250Y-73539000I-243750J0D01*
G01*
G37*
G04 #@! TD.AperFunction*
G04 #@! TA.AperFunction,SMDPad,CuDef*
G36*
G01*
X150561250Y-71664000D02*
X149648750Y-71664000D01*
G75*
G02*
X149405000Y-71420250I0J243750D01*
G01*
X149405000Y-70932750D01*
G75*
G02*
X149648750Y-70689000I243750J0D01*
G01*
X150561250Y-70689000D01*
G75*
G02*
X150805000Y-70932750I0J-243750D01*
G01*
X150805000Y-71420250D01*
G75*
G02*
X150561250Y-71664000I-243750J0D01*
G01*
G37*
G04 #@! TD.AperFunction*
G04 #@! TA.AperFunction,SMDPad,CuDef*
G36*
G01*
X150561250Y-73539000D02*
X149648750Y-73539000D01*
G75*
G02*
X149405000Y-73295250I0J243750D01*
G01*
X149405000Y-72807750D01*
G75*
G02*
X149648750Y-72564000I243750J0D01*
G01*
X150561250Y-72564000D01*
G75*
G02*
X150805000Y-72807750I0J-243750D01*
G01*
X150805000Y-73295250D01*
G75*
G02*
X150561250Y-73539000I-243750J0D01*
G01*
G37*
G04 #@! TD.AperFunction*
G04 #@! TA.AperFunction,SMDPad,CuDef*
G36*
G01*
X138048250Y-78981000D02*
X137135750Y-78981000D01*
G75*
G02*
X136892000Y-78737250I0J243750D01*
G01*
X136892000Y-78249750D01*
G75*
G02*
X137135750Y-78006000I243750J0D01*
G01*
X138048250Y-78006000D01*
G75*
G02*
X138292000Y-78249750I0J-243750D01*
G01*
X138292000Y-78737250D01*
G75*
G02*
X138048250Y-78981000I-243750J0D01*
G01*
G37*
G04 #@! TD.AperFunction*
G04 #@! TA.AperFunction,SMDPad,CuDef*
G36*
G01*
X138048250Y-80856000D02*
X137135750Y-80856000D01*
G75*
G02*
X136892000Y-80612250I0J243750D01*
G01*
X136892000Y-80124750D01*
G75*
G02*
X137135750Y-79881000I243750J0D01*
G01*
X138048250Y-79881000D01*
G75*
G02*
X138292000Y-80124750I0J-243750D01*
G01*
X138292000Y-80612250D01*
G75*
G02*
X138048250Y-80856000I-243750J0D01*
G01*
G37*
G04 #@! TD.AperFunction*
G04 #@! TA.AperFunction,SMDPad,CuDef*
G36*
G01*
X142106000Y-69854250D02*
X142106000Y-68941750D01*
G75*
G02*
X142349750Y-68698000I243750J0D01*
G01*
X142837250Y-68698000D01*
G75*
G02*
X143081000Y-68941750I0J-243750D01*
G01*
X143081000Y-69854250D01*
G75*
G02*
X142837250Y-70098000I-243750J0D01*
G01*
X142349750Y-70098000D01*
G75*
G02*
X142106000Y-69854250I0J243750D01*
G01*
G37*
G04 #@! TD.AperFunction*
G04 #@! TA.AperFunction,SMDPad,CuDef*
G36*
G01*
X140231000Y-69854250D02*
X140231000Y-68941750D01*
G75*
G02*
X140474750Y-68698000I243750J0D01*
G01*
X140962250Y-68698000D01*
G75*
G02*
X141206000Y-68941750I0J-243750D01*
G01*
X141206000Y-69854250D01*
G75*
G02*
X140962250Y-70098000I-243750J0D01*
G01*
X140474750Y-70098000D01*
G75*
G02*
X140231000Y-69854250I0J243750D01*
G01*
G37*
G04 #@! TD.AperFunction*
G04 #@! TA.AperFunction,SMDPad,CuDef*
G36*
G01*
X137777000Y-68941750D02*
X137777000Y-69854250D01*
G75*
G02*
X137533250Y-70098000I-243750J0D01*
G01*
X137045750Y-70098000D01*
G75*
G02*
X136802000Y-69854250I0J243750D01*
G01*
X136802000Y-68941750D01*
G75*
G02*
X137045750Y-68698000I243750J0D01*
G01*
X137533250Y-68698000D01*
G75*
G02*
X137777000Y-68941750I0J-243750D01*
G01*
G37*
G04 #@! TD.AperFunction*
G04 #@! TA.AperFunction,SMDPad,CuDef*
G36*
G01*
X139652000Y-68941750D02*
X139652000Y-69854250D01*
G75*
G02*
X139408250Y-70098000I-243750J0D01*
G01*
X138920750Y-70098000D01*
G75*
G02*
X138677000Y-69854250I0J243750D01*
G01*
X138677000Y-68941750D01*
G75*
G02*
X138920750Y-68698000I243750J0D01*
G01*
X139408250Y-68698000D01*
G75*
G02*
X139652000Y-68941750I0J-243750D01*
G01*
G37*
G04 #@! TD.AperFunction*
G04 #@! TA.AperFunction,SMDPad,CuDef*
G36*
G01*
X142661250Y-71664000D02*
X141748750Y-71664000D01*
G75*
G02*
X141505000Y-71420250I0J243750D01*
G01*
X141505000Y-70932750D01*
G75*
G02*
X141748750Y-70689000I243750J0D01*
G01*
X142661250Y-70689000D01*
G75*
G02*
X142905000Y-70932750I0J-243750D01*
G01*
X142905000Y-71420250D01*
G75*
G02*
X142661250Y-71664000I-243750J0D01*
G01*
G37*
G04 #@! TD.AperFunction*
G04 #@! TA.AperFunction,SMDPad,CuDef*
G36*
G01*
X142661250Y-73539000D02*
X141748750Y-73539000D01*
G75*
G02*
X141505000Y-73295250I0J243750D01*
G01*
X141505000Y-72807750D01*
G75*
G02*
X141748750Y-72564000I243750J0D01*
G01*
X142661250Y-72564000D01*
G75*
G02*
X142905000Y-72807750I0J-243750D01*
G01*
X142905000Y-73295250D01*
G75*
G02*
X142661250Y-73539000I-243750J0D01*
G01*
G37*
G04 #@! TD.AperFunction*
G04 #@! TA.AperFunction,SMDPad,CuDef*
G36*
G01*
X138061250Y-71664000D02*
X137148750Y-71664000D01*
G75*
G02*
X136905000Y-71420250I0J243750D01*
G01*
X136905000Y-70932750D01*
G75*
G02*
X137148750Y-70689000I243750J0D01*
G01*
X138061250Y-70689000D01*
G75*
G02*
X138305000Y-70932750I0J-243750D01*
G01*
X138305000Y-71420250D01*
G75*
G02*
X138061250Y-71664000I-243750J0D01*
G01*
G37*
G04 #@! TD.AperFunction*
G04 #@! TA.AperFunction,SMDPad,CuDef*
G36*
G01*
X138061250Y-73539000D02*
X137148750Y-73539000D01*
G75*
G02*
X136905000Y-73295250I0J243750D01*
G01*
X136905000Y-72807750D01*
G75*
G02*
X137148750Y-72564000I243750J0D01*
G01*
X138061250Y-72564000D01*
G75*
G02*
X138305000Y-72807750I0J-243750D01*
G01*
X138305000Y-73295250D01*
G75*
G02*
X138061250Y-73539000I-243750J0D01*
G01*
G37*
G04 #@! TD.AperFunction*
G04 #@! TA.AperFunction,SMDPad,CuDef*
G36*
G01*
X125602250Y-78981000D02*
X124689750Y-78981000D01*
G75*
G02*
X124446000Y-78737250I0J243750D01*
G01*
X124446000Y-78249750D01*
G75*
G02*
X124689750Y-78006000I243750J0D01*
G01*
X125602250Y-78006000D01*
G75*
G02*
X125846000Y-78249750I0J-243750D01*
G01*
X125846000Y-78737250D01*
G75*
G02*
X125602250Y-78981000I-243750J0D01*
G01*
G37*
G04 #@! TD.AperFunction*
G04 #@! TA.AperFunction,SMDPad,CuDef*
G36*
G01*
X125602250Y-80856000D02*
X124689750Y-80856000D01*
G75*
G02*
X124446000Y-80612250I0J243750D01*
G01*
X124446000Y-80124750D01*
G75*
G02*
X124689750Y-79881000I243750J0D01*
G01*
X125602250Y-79881000D01*
G75*
G02*
X125846000Y-80124750I0J-243750D01*
G01*
X125846000Y-80612250D01*
G75*
G02*
X125602250Y-80856000I-243750J0D01*
G01*
G37*
G04 #@! TD.AperFunction*
G04 #@! TA.AperFunction,SMDPad,CuDef*
G36*
G01*
X129533000Y-69870250D02*
X129533000Y-68957750D01*
G75*
G02*
X129776750Y-68714000I243750J0D01*
G01*
X130264250Y-68714000D01*
G75*
G02*
X130508000Y-68957750I0J-243750D01*
G01*
X130508000Y-69870250D01*
G75*
G02*
X130264250Y-70114000I-243750J0D01*
G01*
X129776750Y-70114000D01*
G75*
G02*
X129533000Y-69870250I0J243750D01*
G01*
G37*
G04 #@! TD.AperFunction*
G04 #@! TA.AperFunction,SMDPad,CuDef*
G36*
G01*
X127658000Y-69870250D02*
X127658000Y-68957750D01*
G75*
G02*
X127901750Y-68714000I243750J0D01*
G01*
X128389250Y-68714000D01*
G75*
G02*
X128633000Y-68957750I0J-243750D01*
G01*
X128633000Y-69870250D01*
G75*
G02*
X128389250Y-70114000I-243750J0D01*
G01*
X127901750Y-70114000D01*
G75*
G02*
X127658000Y-69870250I0J243750D01*
G01*
G37*
G04 #@! TD.AperFunction*
G04 #@! TA.AperFunction,SMDPad,CuDef*
G36*
G01*
X125204000Y-68957750D02*
X125204000Y-69870250D01*
G75*
G02*
X124960250Y-70114000I-243750J0D01*
G01*
X124472750Y-70114000D01*
G75*
G02*
X124229000Y-69870250I0J243750D01*
G01*
X124229000Y-68957750D01*
G75*
G02*
X124472750Y-68714000I243750J0D01*
G01*
X124960250Y-68714000D01*
G75*
G02*
X125204000Y-68957750I0J-243750D01*
G01*
G37*
G04 #@! TD.AperFunction*
G04 #@! TA.AperFunction,SMDPad,CuDef*
G36*
G01*
X127079000Y-68957750D02*
X127079000Y-69870250D01*
G75*
G02*
X126835250Y-70114000I-243750J0D01*
G01*
X126347750Y-70114000D01*
G75*
G02*
X126104000Y-69870250I0J243750D01*
G01*
X126104000Y-68957750D01*
G75*
G02*
X126347750Y-68714000I243750J0D01*
G01*
X126835250Y-68714000D01*
G75*
G02*
X127079000Y-68957750I0J-243750D01*
G01*
G37*
G04 #@! TD.AperFunction*
G04 #@! TA.AperFunction,SMDPad,CuDef*
G36*
G01*
X130161250Y-71664000D02*
X129248750Y-71664000D01*
G75*
G02*
X129005000Y-71420250I0J243750D01*
G01*
X129005000Y-70932750D01*
G75*
G02*
X129248750Y-70689000I243750J0D01*
G01*
X130161250Y-70689000D01*
G75*
G02*
X130405000Y-70932750I0J-243750D01*
G01*
X130405000Y-71420250D01*
G75*
G02*
X130161250Y-71664000I-243750J0D01*
G01*
G37*
G04 #@! TD.AperFunction*
G04 #@! TA.AperFunction,SMDPad,CuDef*
G36*
G01*
X130161250Y-73539000D02*
X129248750Y-73539000D01*
G75*
G02*
X129005000Y-73295250I0J243750D01*
G01*
X129005000Y-72807750D01*
G75*
G02*
X129248750Y-72564000I243750J0D01*
G01*
X130161250Y-72564000D01*
G75*
G02*
X130405000Y-72807750I0J-243750D01*
G01*
X130405000Y-73295250D01*
G75*
G02*
X130161250Y-73539000I-243750J0D01*
G01*
G37*
G04 #@! TD.AperFunction*
G04 #@! TA.AperFunction,SMDPad,CuDef*
G36*
G01*
X125561250Y-71664000D02*
X124648750Y-71664000D01*
G75*
G02*
X124405000Y-71420250I0J243750D01*
G01*
X124405000Y-70932750D01*
G75*
G02*
X124648750Y-70689000I243750J0D01*
G01*
X125561250Y-70689000D01*
G75*
G02*
X125805000Y-70932750I0J-243750D01*
G01*
X125805000Y-71420250D01*
G75*
G02*
X125561250Y-71664000I-243750J0D01*
G01*
G37*
G04 #@! TD.AperFunction*
G04 #@! TA.AperFunction,SMDPad,CuDef*
G36*
G01*
X125561250Y-73539000D02*
X124648750Y-73539000D01*
G75*
G02*
X124405000Y-73295250I0J243750D01*
G01*
X124405000Y-72807750D01*
G75*
G02*
X124648750Y-72564000I243750J0D01*
G01*
X125561250Y-72564000D01*
G75*
G02*
X125805000Y-72807750I0J-243750D01*
G01*
X125805000Y-73295250D01*
G75*
G02*
X125561250Y-73539000I-243750J0D01*
G01*
G37*
G04 #@! TD.AperFunction*
G04 #@! TA.AperFunction,SMDPad,CuDef*
G36*
G01*
X102725000Y-82403750D02*
X102725000Y-83316250D01*
G75*
G02*
X102481250Y-83560000I-243750J0D01*
G01*
X101993750Y-83560000D01*
G75*
G02*
X101750000Y-83316250I0J243750D01*
G01*
X101750000Y-82403750D01*
G75*
G02*
X101993750Y-82160000I243750J0D01*
G01*
X102481250Y-82160000D01*
G75*
G02*
X102725000Y-82403750I0J-243750D01*
G01*
G37*
G04 #@! TD.AperFunction*
G04 #@! TA.AperFunction,SMDPad,CuDef*
G36*
G01*
X104600000Y-82403750D02*
X104600000Y-83316250D01*
G75*
G02*
X104356250Y-83560000I-243750J0D01*
G01*
X103868750Y-83560000D01*
G75*
G02*
X103625000Y-83316250I0J243750D01*
G01*
X103625000Y-82403750D01*
G75*
G02*
X103868750Y-82160000I243750J0D01*
G01*
X104356250Y-82160000D01*
G75*
G02*
X104600000Y-82403750I0J-243750D01*
G01*
G37*
G04 #@! TD.AperFunction*
G04 #@! TA.AperFunction,SMDPad,CuDef*
G36*
G01*
X102725000Y-84943750D02*
X102725000Y-85856250D01*
G75*
G02*
X102481250Y-86100000I-243750J0D01*
G01*
X101993750Y-86100000D01*
G75*
G02*
X101750000Y-85856250I0J243750D01*
G01*
X101750000Y-84943750D01*
G75*
G02*
X101993750Y-84700000I243750J0D01*
G01*
X102481250Y-84700000D01*
G75*
G02*
X102725000Y-84943750I0J-243750D01*
G01*
G37*
G04 #@! TD.AperFunction*
G04 #@! TA.AperFunction,SMDPad,CuDef*
G36*
G01*
X104600000Y-84943750D02*
X104600000Y-85856250D01*
G75*
G02*
X104356250Y-86100000I-243750J0D01*
G01*
X103868750Y-86100000D01*
G75*
G02*
X103625000Y-85856250I0J243750D01*
G01*
X103625000Y-84943750D01*
G75*
G02*
X103868750Y-84700000I243750J0D01*
G01*
X104356250Y-84700000D01*
G75*
G02*
X104600000Y-84943750I0J-243750D01*
G01*
G37*
G04 #@! TD.AperFunction*
G04 #@! TA.AperFunction,SMDPad,CuDef*
G36*
G01*
X102725000Y-69703750D02*
X102725000Y-70616250D01*
G75*
G02*
X102481250Y-70860000I-243750J0D01*
G01*
X101993750Y-70860000D01*
G75*
G02*
X101750000Y-70616250I0J243750D01*
G01*
X101750000Y-69703750D01*
G75*
G02*
X101993750Y-69460000I243750J0D01*
G01*
X102481250Y-69460000D01*
G75*
G02*
X102725000Y-69703750I0J-243750D01*
G01*
G37*
G04 #@! TD.AperFunction*
G04 #@! TA.AperFunction,SMDPad,CuDef*
G36*
G01*
X104600000Y-69703750D02*
X104600000Y-70616250D01*
G75*
G02*
X104356250Y-70860000I-243750J0D01*
G01*
X103868750Y-70860000D01*
G75*
G02*
X103625000Y-70616250I0J243750D01*
G01*
X103625000Y-69703750D01*
G75*
G02*
X103868750Y-69460000I243750J0D01*
G01*
X104356250Y-69460000D01*
G75*
G02*
X104600000Y-69703750I0J-243750D01*
G01*
G37*
G04 #@! TD.AperFunction*
G04 #@! TA.AperFunction,SMDPad,CuDef*
G36*
G01*
X102725000Y-72243750D02*
X102725000Y-73156250D01*
G75*
G02*
X102481250Y-73400000I-243750J0D01*
G01*
X101993750Y-73400000D01*
G75*
G02*
X101750000Y-73156250I0J243750D01*
G01*
X101750000Y-72243750D01*
G75*
G02*
X101993750Y-72000000I243750J0D01*
G01*
X102481250Y-72000000D01*
G75*
G02*
X102725000Y-72243750I0J-243750D01*
G01*
G37*
G04 #@! TD.AperFunction*
G04 #@! TA.AperFunction,SMDPad,CuDef*
G36*
G01*
X104600000Y-72243750D02*
X104600000Y-73156250D01*
G75*
G02*
X104356250Y-73400000I-243750J0D01*
G01*
X103868750Y-73400000D01*
G75*
G02*
X103625000Y-73156250I0J243750D01*
G01*
X103625000Y-72243750D01*
G75*
G02*
X103868750Y-72000000I243750J0D01*
G01*
X104356250Y-72000000D01*
G75*
G02*
X104600000Y-72243750I0J-243750D01*
G01*
G37*
G04 #@! TD.AperFunction*
G04 #@! TA.AperFunction,SMDPad,CuDef*
G36*
G01*
X102725000Y-76053750D02*
X102725000Y-76966250D01*
G75*
G02*
X102481250Y-77210000I-243750J0D01*
G01*
X101993750Y-77210000D01*
G75*
G02*
X101750000Y-76966250I0J243750D01*
G01*
X101750000Y-76053750D01*
G75*
G02*
X101993750Y-75810000I243750J0D01*
G01*
X102481250Y-75810000D01*
G75*
G02*
X102725000Y-76053750I0J-243750D01*
G01*
G37*
G04 #@! TD.AperFunction*
G04 #@! TA.AperFunction,SMDPad,CuDef*
G36*
G01*
X104600000Y-76053750D02*
X104600000Y-76966250D01*
G75*
G02*
X104356250Y-77210000I-243750J0D01*
G01*
X103868750Y-77210000D01*
G75*
G02*
X103625000Y-76966250I0J243750D01*
G01*
X103625000Y-76053750D01*
G75*
G02*
X103868750Y-75810000I243750J0D01*
G01*
X104356250Y-75810000D01*
G75*
G02*
X104600000Y-76053750I0J-243750D01*
G01*
G37*
G04 #@! TD.AperFunction*
G04 #@! TA.AperFunction,SMDPad,CuDef*
G36*
G01*
X102725000Y-78593750D02*
X102725000Y-79506250D01*
G75*
G02*
X102481250Y-79750000I-243750J0D01*
G01*
X101993750Y-79750000D01*
G75*
G02*
X101750000Y-79506250I0J243750D01*
G01*
X101750000Y-78593750D01*
G75*
G02*
X101993750Y-78350000I243750J0D01*
G01*
X102481250Y-78350000D01*
G75*
G02*
X102725000Y-78593750I0J-243750D01*
G01*
G37*
G04 #@! TD.AperFunction*
G04 #@! TA.AperFunction,SMDPad,CuDef*
G36*
G01*
X104600000Y-78593750D02*
X104600000Y-79506250D01*
G75*
G02*
X104356250Y-79750000I-243750J0D01*
G01*
X103868750Y-79750000D01*
G75*
G02*
X103625000Y-79506250I0J243750D01*
G01*
X103625000Y-78593750D01*
G75*
G02*
X103868750Y-78350000I243750J0D01*
G01*
X104356250Y-78350000D01*
G75*
G02*
X104600000Y-78593750I0J-243750D01*
G01*
G37*
G04 #@! TD.AperFunction*
G04 #@! TA.AperFunction,SMDPad,CuDef*
G36*
G01*
X102725000Y-88753750D02*
X102725000Y-89666250D01*
G75*
G02*
X102481250Y-89910000I-243750J0D01*
G01*
X101993750Y-89910000D01*
G75*
G02*
X101750000Y-89666250I0J243750D01*
G01*
X101750000Y-88753750D01*
G75*
G02*
X101993750Y-88510000I243750J0D01*
G01*
X102481250Y-88510000D01*
G75*
G02*
X102725000Y-88753750I0J-243750D01*
G01*
G37*
G04 #@! TD.AperFunction*
G04 #@! TA.AperFunction,SMDPad,CuDef*
G36*
G01*
X104600000Y-88753750D02*
X104600000Y-89666250D01*
G75*
G02*
X104356250Y-89910000I-243750J0D01*
G01*
X103868750Y-89910000D01*
G75*
G02*
X103625000Y-89666250I0J243750D01*
G01*
X103625000Y-88753750D01*
G75*
G02*
X103868750Y-88510000I243750J0D01*
G01*
X104356250Y-88510000D01*
G75*
G02*
X104600000Y-88753750I0J-243750D01*
G01*
G37*
G04 #@! TD.AperFunction*
G04 #@! TA.AperFunction,SMDPad,CuDef*
G36*
G01*
X102725000Y-91293750D02*
X102725000Y-92206250D01*
G75*
G02*
X102481250Y-92450000I-243750J0D01*
G01*
X101993750Y-92450000D01*
G75*
G02*
X101750000Y-92206250I0J243750D01*
G01*
X101750000Y-91293750D01*
G75*
G02*
X101993750Y-91050000I243750J0D01*
G01*
X102481250Y-91050000D01*
G75*
G02*
X102725000Y-91293750I0J-243750D01*
G01*
G37*
G04 #@! TD.AperFunction*
G04 #@! TA.AperFunction,SMDPad,CuDef*
G36*
G01*
X104600000Y-91293750D02*
X104600000Y-92206250D01*
G75*
G02*
X104356250Y-92450000I-243750J0D01*
G01*
X103868750Y-92450000D01*
G75*
G02*
X103625000Y-92206250I0J243750D01*
G01*
X103625000Y-91293750D01*
G75*
G02*
X103868750Y-91050000I243750J0D01*
G01*
X104356250Y-91050000D01*
G75*
G02*
X104600000Y-91293750I0J-243750D01*
G01*
G37*
G04 #@! TD.AperFunction*
G04 #@! TA.AperFunction,SMDPad,CuDef*
G36*
G01*
X112885000Y-103358750D02*
X112885000Y-104271250D01*
G75*
G02*
X112641250Y-104515000I-243750J0D01*
G01*
X112153750Y-104515000D01*
G75*
G02*
X111910000Y-104271250I0J243750D01*
G01*
X111910000Y-103358750D01*
G75*
G02*
X112153750Y-103115000I243750J0D01*
G01*
X112641250Y-103115000D01*
G75*
G02*
X112885000Y-103358750I0J-243750D01*
G01*
G37*
G04 #@! TD.AperFunction*
G04 #@! TA.AperFunction,SMDPad,CuDef*
G36*
G01*
X114760000Y-103358750D02*
X114760000Y-104271250D01*
G75*
G02*
X114516250Y-104515000I-243750J0D01*
G01*
X114028750Y-104515000D01*
G75*
G02*
X113785000Y-104271250I0J243750D01*
G01*
X113785000Y-103358750D01*
G75*
G02*
X114028750Y-103115000I243750J0D01*
G01*
X114516250Y-103115000D01*
G75*
G02*
X114760000Y-103358750I0J-243750D01*
G01*
G37*
G04 #@! TD.AperFunction*
G04 #@! TA.AperFunction,SMDPad,CuDef*
G36*
G01*
X109703750Y-105535000D02*
X110616250Y-105535000D01*
G75*
G02*
X110860000Y-105778750I0J-243750D01*
G01*
X110860000Y-106266250D01*
G75*
G02*
X110616250Y-106510000I-243750J0D01*
G01*
X109703750Y-106510000D01*
G75*
G02*
X109460000Y-106266250I0J243750D01*
G01*
X109460000Y-105778750D01*
G75*
G02*
X109703750Y-105535000I243750J0D01*
G01*
G37*
G04 #@! TD.AperFunction*
G04 #@! TA.AperFunction,SMDPad,CuDef*
G36*
G01*
X109703750Y-103660000D02*
X110616250Y-103660000D01*
G75*
G02*
X110860000Y-103903750I0J-243750D01*
G01*
X110860000Y-104391250D01*
G75*
G02*
X110616250Y-104635000I-243750J0D01*
G01*
X109703750Y-104635000D01*
G75*
G02*
X109460000Y-104391250I0J243750D01*
G01*
X109460000Y-103903750D01*
G75*
G02*
X109703750Y-103660000I243750J0D01*
G01*
G37*
G04 #@! TD.AperFunction*
D13*
X108370000Y-111230000D03*
D14*
X108370000Y-113770000D03*
X110910000Y-111230000D03*
X110910000Y-113770000D03*
X113450000Y-111230000D03*
X113450000Y-113770000D03*
X115990000Y-111230000D03*
X115990000Y-113770000D03*
X118530000Y-111230000D03*
X118530000Y-113770000D03*
X121070000Y-111230000D03*
X121070000Y-113770000D03*
X123610000Y-111230000D03*
X123610000Y-113770000D03*
X126150000Y-111230000D03*
X126150000Y-113770000D03*
X128690000Y-111230000D03*
X128690000Y-113770000D03*
X131230000Y-111230000D03*
X131230000Y-113770000D03*
X133770000Y-111230000D03*
X133770000Y-113770000D03*
X136310000Y-111230000D03*
X136310000Y-113770000D03*
X138850000Y-111230000D03*
X138850000Y-113770000D03*
X141390000Y-111230000D03*
X141390000Y-113770000D03*
X143930000Y-111230000D03*
X143930000Y-113770000D03*
X146470000Y-111230000D03*
X146470000Y-113770000D03*
X149010000Y-111230000D03*
X149010000Y-113770000D03*
X151550000Y-111230000D03*
X151550000Y-113770000D03*
X154090000Y-111230000D03*
X154090000Y-113770000D03*
D15*
X156630000Y-111230000D03*
D14*
X156630000Y-113770000D03*
D16*
X154105000Y-77199000D03*
X153605000Y-77199000D03*
X153105000Y-77199000D03*
X152605000Y-77199000D03*
X152105000Y-77199000D03*
X152105000Y-81499000D03*
X152605000Y-81499000D03*
X153105000Y-81499000D03*
X153605000Y-81499000D03*
X154105000Y-81499000D03*
X141605000Y-77199000D03*
X141105000Y-77199000D03*
X140605000Y-77199000D03*
X140105000Y-77199000D03*
X139605000Y-77199000D03*
X139605000Y-81499000D03*
X140105000Y-81499000D03*
X140605000Y-81499000D03*
X141105000Y-81499000D03*
X141605000Y-81499000D03*
X129105000Y-81499000D03*
X128605000Y-81499000D03*
X128105000Y-81499000D03*
X127605000Y-81499000D03*
X127105000Y-81499000D03*
X127105000Y-77199000D03*
X127605000Y-77199000D03*
X128105000Y-77199000D03*
X128605000Y-77199000D03*
X129105000Y-77199000D03*
G04 #@! TA.AperFunction,SMDPad,CuDef*
G36*
G01*
X106596000Y-106192500D02*
X106596000Y-106517500D01*
G75*
G02*
X106433500Y-106680000I-162500J0D01*
G01*
X105008500Y-106680000D01*
G75*
G02*
X104846000Y-106517500I0J162500D01*
G01*
X104846000Y-106192500D01*
G75*
G02*
X105008500Y-106030000I162500J0D01*
G01*
X106433500Y-106030000D01*
G75*
G02*
X106596000Y-106192500I0J-162500D01*
G01*
G37*
G04 #@! TD.AperFunction*
G04 #@! TA.AperFunction,SMDPad,CuDef*
G36*
G01*
X106596000Y-104922500D02*
X106596000Y-105247500D01*
G75*
G02*
X106433500Y-105410000I-162500J0D01*
G01*
X105008500Y-105410000D01*
G75*
G02*
X104846000Y-105247500I0J162500D01*
G01*
X104846000Y-104922500D01*
G75*
G02*
X105008500Y-104760000I162500J0D01*
G01*
X106433500Y-104760000D01*
G75*
G02*
X106596000Y-104922500I0J-162500D01*
G01*
G37*
G04 #@! TD.AperFunction*
G04 #@! TA.AperFunction,SMDPad,CuDef*
G36*
G01*
X106596000Y-103652500D02*
X106596000Y-103977500D01*
G75*
G02*
X106433500Y-104140000I-162500J0D01*
G01*
X105008500Y-104140000D01*
G75*
G02*
X104846000Y-103977500I0J162500D01*
G01*
X104846000Y-103652500D01*
G75*
G02*
X105008500Y-103490000I162500J0D01*
G01*
X106433500Y-103490000D01*
G75*
G02*
X106596000Y-103652500I0J-162500D01*
G01*
G37*
G04 #@! TD.AperFunction*
G04 #@! TA.AperFunction,SMDPad,CuDef*
G36*
G01*
X106596000Y-102382500D02*
X106596000Y-102707500D01*
G75*
G02*
X106433500Y-102870000I-162500J0D01*
G01*
X105008500Y-102870000D01*
G75*
G02*
X104846000Y-102707500I0J162500D01*
G01*
X104846000Y-102382500D01*
G75*
G02*
X105008500Y-102220000I162500J0D01*
G01*
X106433500Y-102220000D01*
G75*
G02*
X106596000Y-102382500I0J-162500D01*
G01*
G37*
G04 #@! TD.AperFunction*
G04 #@! TA.AperFunction,SMDPad,CuDef*
G36*
G01*
X100996000Y-102382500D02*
X100996000Y-102707500D01*
G75*
G02*
X100833500Y-102870000I-162500J0D01*
G01*
X99408500Y-102870000D01*
G75*
G02*
X99246000Y-102707500I0J162500D01*
G01*
X99246000Y-102382500D01*
G75*
G02*
X99408500Y-102220000I162500J0D01*
G01*
X100833500Y-102220000D01*
G75*
G02*
X100996000Y-102382500I0J-162500D01*
G01*
G37*
G04 #@! TD.AperFunction*
G04 #@! TA.AperFunction,SMDPad,CuDef*
G36*
G01*
X100996000Y-103652500D02*
X100996000Y-103977500D01*
G75*
G02*
X100833500Y-104140000I-162500J0D01*
G01*
X99408500Y-104140000D01*
G75*
G02*
X99246000Y-103977500I0J162500D01*
G01*
X99246000Y-103652500D01*
G75*
G02*
X99408500Y-103490000I162500J0D01*
G01*
X100833500Y-103490000D01*
G75*
G02*
X100996000Y-103652500I0J-162500D01*
G01*
G37*
G04 #@! TD.AperFunction*
G04 #@! TA.AperFunction,SMDPad,CuDef*
G36*
G01*
X100996000Y-104922500D02*
X100996000Y-105247500D01*
G75*
G02*
X100833500Y-105410000I-162500J0D01*
G01*
X99408500Y-105410000D01*
G75*
G02*
X99246000Y-105247500I0J162500D01*
G01*
X99246000Y-104922500D01*
G75*
G02*
X99408500Y-104760000I162500J0D01*
G01*
X100833500Y-104760000D01*
G75*
G02*
X100996000Y-104922500I0J-162500D01*
G01*
G37*
G04 #@! TD.AperFunction*
G04 #@! TA.AperFunction,SMDPad,CuDef*
G36*
G01*
X100996000Y-106192500D02*
X100996000Y-106517500D01*
G75*
G02*
X100833500Y-106680000I-162500J0D01*
G01*
X99408500Y-106680000D01*
G75*
G02*
X99246000Y-106517500I0J162500D01*
G01*
X99246000Y-106192500D01*
G75*
G02*
X99408500Y-106030000I162500J0D01*
G01*
X100833500Y-106030000D01*
G75*
G02*
X100996000Y-106192500I0J-162500D01*
G01*
G37*
G04 #@! TD.AperFunction*
D17*
X159529000Y-74478000D03*
X161629000Y-74478000D03*
D18*
X129972000Y-76002000D03*
X142037000Y-76002000D03*
X154737000Y-76002000D03*
X124384000Y-83495000D03*
X136830000Y-83495000D03*
X149276000Y-83495000D03*
X162738000Y-72319000D03*
X97587000Y-69652000D03*
X97587000Y-73462000D03*
X97587000Y-76002000D03*
X97587000Y-79812000D03*
X97587000Y-82352000D03*
X97587000Y-86162000D03*
X97587000Y-88702000D03*
X97587000Y-92512000D03*
X114810010Y-107207127D03*
X107747000Y-102037000D03*
X162484000Y-95560000D03*
X160833000Y-106355000D03*
X162738000Y-74478000D03*
X152106990Y-106482000D03*
X155372000Y-106482000D03*
X109271000Y-107371000D03*
X110287000Y-107371000D03*
X111303000Y-107371000D03*
X111303000Y-108387000D03*
X110287000Y-108387000D03*
X109271000Y-108387000D03*
X153086000Y-88321000D03*
X153182542Y-86122223D03*
X141148000Y-87305000D03*
X141003105Y-85372181D03*
X152832000Y-109022000D03*
X143307000Y-77272000D03*
X127432000Y-85019000D03*
X139878000Y-85019000D03*
X152324000Y-85019000D03*
X124892000Y-81717000D03*
X137338000Y-81717000D03*
X150038000Y-81717000D03*
X161595000Y-78415000D03*
X135052000Y-85527000D03*
X135052000Y-89337010D03*
X143942000Y-84892000D03*
X142672000Y-90607000D03*
X139905000Y-70914000D03*
X152405000Y-70914000D03*
X127405000Y-70914000D03*
X158547000Y-72192000D03*
D19*
X128502000Y-76002000D02*
X129972000Y-76002000D01*
X128105000Y-77199000D02*
X128105000Y-76399000D01*
X128105000Y-76399000D02*
X128502000Y-76002000D01*
X129105000Y-76869000D02*
X129972000Y-76002000D01*
X129105000Y-77199000D02*
X129105000Y-76869000D01*
X141002000Y-76002000D02*
X142037000Y-76002000D01*
X140605000Y-77199000D02*
X140605000Y-76399000D01*
X140605000Y-76399000D02*
X141002000Y-76002000D01*
X153502000Y-76002000D02*
X154737000Y-76002000D01*
X153105000Y-77199000D02*
X153105000Y-76399000D01*
X153105000Y-76399000D02*
X153502000Y-76002000D01*
X125732500Y-83495000D02*
X124384000Y-83495000D01*
X138178500Y-83495000D02*
X136830000Y-83495000D01*
X150624500Y-83495000D02*
X149276000Y-83495000D01*
D20*
X161516500Y-72192000D02*
X162611000Y-72192000D01*
X162611000Y-72192000D02*
X162738000Y-72319000D01*
D19*
X97730000Y-70730000D02*
X97730000Y-69795000D01*
X97730000Y-69795000D02*
X97587000Y-69652000D01*
X97730000Y-72130000D02*
X97730000Y-73319000D01*
X97730000Y-73319000D02*
X97587000Y-73462000D01*
X97730000Y-77080000D02*
X97730000Y-76145000D01*
X97730000Y-76145000D02*
X97587000Y-76002000D01*
X97730000Y-78480000D02*
X97730000Y-79669000D01*
X97730000Y-79669000D02*
X97587000Y-79812000D01*
X97730000Y-83430000D02*
X97730000Y-82495000D01*
X97730000Y-82495000D02*
X97587000Y-82352000D01*
X97730000Y-84830000D02*
X97730000Y-86019000D01*
X97730000Y-86019000D02*
X97587000Y-86162000D01*
X97730000Y-89780000D02*
X97730000Y-88845000D01*
X97730000Y-88845000D02*
X97587000Y-88702000D01*
X97730000Y-91180000D02*
X97730000Y-92369000D01*
X97730000Y-92369000D02*
X97587000Y-92512000D01*
D21*
X114272500Y-103815000D02*
X114272500Y-106669617D01*
X114272500Y-106669617D02*
X114810010Y-107207127D01*
X105496000Y-102545000D02*
X107239000Y-102545000D01*
X107239000Y-102545000D02*
X107747000Y-102037000D01*
D19*
X162448000Y-97964000D02*
X162448000Y-95596000D01*
X162448000Y-95596000D02*
X162484000Y-95560000D01*
X162448000Y-106364000D02*
X160842000Y-106364000D01*
X160842000Y-106364000D02*
X160833000Y-106355000D01*
D20*
X161629000Y-74478000D02*
X162738000Y-74478000D01*
D19*
X124410998Y-111230000D02*
X123610000Y-111230000D01*
X149010000Y-111230000D02*
X152106990Y-108133010D01*
X152106990Y-108133010D02*
X152106990Y-106482000D01*
X155476000Y-106378000D02*
X155372000Y-106482000D01*
X157830000Y-106482000D02*
X157948000Y-106364000D01*
X155372000Y-106482000D02*
X157830000Y-106482000D01*
X157948000Y-106364000D02*
X157948000Y-97964000D01*
X154102000Y-81502000D02*
X154105000Y-81499000D01*
X154105000Y-87556000D02*
X154105000Y-81499000D01*
X154105000Y-87556000D02*
X154105000Y-87308000D01*
X154105000Y-88070000D02*
X154105000Y-87556000D01*
X145326993Y-86854989D02*
X145015004Y-86543000D01*
X154105000Y-88070000D02*
X152889989Y-86854989D01*
X152889989Y-86854989D02*
X145326993Y-86854989D01*
X141605000Y-84968000D02*
X143180000Y-86543000D01*
X141605000Y-81499000D02*
X141605000Y-84968000D01*
X145015004Y-86543000D02*
X143180000Y-86543000D01*
X143180000Y-86543000D02*
X135873824Y-86543000D01*
X135873824Y-86543000D02*
X135772801Y-86441977D01*
X135772801Y-86441977D02*
X133247977Y-86441977D01*
X129105000Y-82299000D02*
X129105000Y-81499000D01*
X133247977Y-86441977D02*
X129105000Y-82299000D01*
X154105000Y-108822002D02*
X154105000Y-88070000D01*
X151550000Y-111230000D02*
X151697002Y-111230000D01*
X151697002Y-111230000D02*
X154105000Y-108822002D01*
X153605000Y-79649000D02*
X153605000Y-80249000D01*
X153605000Y-80249000D02*
X153605000Y-81499000D01*
X154105000Y-79149000D02*
X153605000Y-79649000D01*
X154105000Y-77199000D02*
X154105000Y-79149000D01*
X153594000Y-81510000D02*
X153605000Y-81499000D01*
X153605000Y-81499000D02*
X153605000Y-85699765D01*
X153605000Y-85699765D02*
X153182542Y-86122223D01*
X152070000Y-87305000D02*
X141148000Y-87305000D01*
X153086000Y-88321000D02*
X152070000Y-87305000D01*
X141105000Y-81499000D02*
X141105000Y-85270286D01*
X141105000Y-85270286D02*
X141003105Y-85372181D01*
X131082988Y-86891988D02*
X128605000Y-84414000D01*
X135586401Y-86891988D02*
X131082988Y-86891988D01*
X141148000Y-87305000D02*
X135999413Y-87305000D01*
X128605000Y-84414000D02*
X128605000Y-81499000D01*
X135999413Y-87305000D02*
X135586401Y-86891988D01*
X153467000Y-88702000D02*
X153086000Y-88321000D01*
X152832000Y-109022000D02*
X153467000Y-108387000D01*
X153467000Y-108387000D02*
X153467000Y-88702000D01*
X141605000Y-77199000D02*
X143234000Y-77199000D01*
X143234000Y-77199000D02*
X143307000Y-77272000D01*
X127607500Y-83495000D02*
X127607500Y-84843500D01*
X127607500Y-84843500D02*
X127432000Y-85019000D01*
X140053500Y-83495000D02*
X140053500Y-84843500D01*
X140053500Y-84843500D02*
X139878000Y-85019000D01*
X152499500Y-83495000D02*
X152499500Y-84843500D01*
X152499500Y-84843500D02*
X152324000Y-85019000D01*
X125146000Y-80368500D02*
X125146000Y-81463000D01*
X125146000Y-81463000D02*
X124892000Y-81717000D01*
X137592000Y-80368500D02*
X137592000Y-81463000D01*
X137592000Y-81463000D02*
X137338000Y-81717000D01*
X150038000Y-80368500D02*
X150038000Y-81717000D01*
X140605000Y-82943500D02*
X140605000Y-81499000D01*
X140053500Y-83495000D02*
X140605000Y-82943500D01*
X153105000Y-82889500D02*
X153105000Y-81499000D01*
X152499500Y-83495000D02*
X153105000Y-82889500D01*
X128105000Y-82997500D02*
X128105000Y-81499000D01*
X127607500Y-83495000D02*
X128105000Y-82997500D01*
D20*
X161563500Y-78383500D02*
X161595000Y-78415000D01*
X161516500Y-78336500D02*
X161595000Y-78415000D01*
X161516500Y-76764000D02*
X161516500Y-78336500D01*
D19*
X128605000Y-77959002D02*
X128605000Y-77199000D01*
X128070502Y-78493500D02*
X128605000Y-77959002D01*
X125146000Y-78493500D02*
X128070502Y-78493500D01*
X125146000Y-78493500D02*
X123622000Y-80017500D01*
X123622000Y-80017500D02*
X123622000Y-83999682D01*
X123622000Y-83999682D02*
X127689318Y-88067000D01*
X127689318Y-88067000D02*
X142038411Y-88067000D01*
X142038411Y-88067000D02*
X144779999Y-90808588D01*
X144779999Y-110380001D02*
X143930000Y-111230000D01*
X144779999Y-90808588D02*
X144779999Y-110380001D01*
X141105000Y-77959002D02*
X141105000Y-77199000D01*
X140570502Y-78493500D02*
X141105000Y-77959002D01*
X137592000Y-78493500D02*
X140570502Y-78493500D01*
X137592000Y-78493500D02*
X135052000Y-81033500D01*
X135052000Y-81033500D02*
X135052000Y-85527000D01*
X142672010Y-89337010D02*
X135052000Y-89337010D01*
X143942000Y-108678000D02*
X143942000Y-90607000D01*
X141390000Y-111230000D02*
X143942000Y-108678000D01*
X143942000Y-90607000D02*
X142672010Y-89337010D01*
X153605000Y-77959002D02*
X153605000Y-77199000D01*
X153070502Y-78493500D02*
X153605000Y-77959002D01*
X150038000Y-78493500D02*
X153070502Y-78493500D01*
X149012990Y-79821010D02*
X143942000Y-84892000D01*
X150038000Y-78493500D02*
X149012990Y-79518510D01*
X149012990Y-79518510D02*
X149012990Y-79821010D01*
X143307000Y-91242000D02*
X142672000Y-90607000D01*
X138850000Y-111230000D02*
X143307000Y-106773000D01*
X143307000Y-106773000D02*
X143307000Y-91242000D01*
D20*
X159549000Y-72605000D02*
X159599000Y-72555000D01*
X128055000Y-69414000D02*
X127405000Y-69414000D01*
X127405000Y-69414000D02*
X126755000Y-69414000D01*
X127405000Y-70914000D02*
X127405000Y-69414000D01*
X140555000Y-69414000D02*
X139905000Y-69414000D01*
X139905000Y-69414000D02*
X139255000Y-69414000D01*
X139905000Y-70914000D02*
X139905000Y-70348315D01*
X139905000Y-70348315D02*
X139905000Y-69414000D01*
X152405000Y-69414000D02*
X151755000Y-69414000D01*
X153055000Y-69414000D02*
X152405000Y-69414000D01*
X152405000Y-69414000D02*
X152405000Y-70914000D01*
X159563000Y-72270500D02*
X159641500Y-72192000D01*
X159641500Y-72192000D02*
X158547000Y-72192000D01*
X159561500Y-74510500D02*
X159529000Y-74478000D01*
X159641500Y-74365500D02*
X159529000Y-74478000D01*
X159641500Y-72192000D02*
X159641500Y-74365500D01*
X159641500Y-74590500D02*
X159529000Y-74478000D01*
X159641500Y-76764000D02*
X159641500Y-74590500D01*
X125105000Y-73064000D02*
X125105000Y-73314000D01*
X125105000Y-73314000D02*
X126405000Y-74614000D01*
D19*
X127105000Y-75251500D02*
X126467500Y-74614000D01*
X127105000Y-77199000D02*
X127105000Y-75251500D01*
X128405000Y-74614000D02*
X128305000Y-74614000D01*
D20*
X129705000Y-73064000D02*
X129705000Y-73314000D01*
X129705000Y-73314000D02*
X128405000Y-74614000D01*
D19*
X127654990Y-75301510D02*
X128342500Y-74614000D01*
X127654990Y-76760010D02*
X127654990Y-75301510D01*
X127605000Y-76810000D02*
X127654990Y-76760010D01*
X127605000Y-77199000D02*
X127605000Y-76810000D01*
X153405000Y-74614000D02*
X153305000Y-74614000D01*
D20*
X154705000Y-73064000D02*
X154705000Y-73314000D01*
X154705000Y-73314000D02*
X153405000Y-74614000D01*
D19*
X152654990Y-76814010D02*
X152654990Y-75301510D01*
X152605000Y-76864000D02*
X152654990Y-76814010D01*
X152654990Y-75301510D02*
X153342500Y-74614000D01*
X152605000Y-77199000D02*
X152605000Y-76864000D01*
X140905000Y-74614000D02*
X140805000Y-74614000D01*
X140105000Y-76749000D02*
X140105000Y-77199000D01*
D20*
X142205000Y-73064000D02*
X142205000Y-73314000D01*
X142205000Y-73314000D02*
X140905000Y-74614000D01*
D19*
X140105000Y-75351500D02*
X140842500Y-74614000D01*
X140105000Y-77199000D02*
X140105000Y-75351500D01*
D20*
X137605000Y-73064000D02*
X137605000Y-73314000D01*
X137605000Y-73314000D02*
X138905000Y-74614000D01*
D19*
X139605000Y-75251500D02*
X138967500Y-74614000D01*
X139605000Y-77199000D02*
X139605000Y-75251500D01*
D20*
X150105000Y-73064000D02*
X150105000Y-73314000D01*
X150105000Y-73314000D02*
X151405000Y-74614000D01*
D19*
X152105000Y-75251500D02*
X151467500Y-74614000D01*
X152105000Y-77199000D02*
X152105000Y-75251500D01*
D21*
X95353000Y-110165000D02*
X95428000Y-110240000D01*
X90348000Y-110165000D02*
X95353000Y-110165000D01*
X92813000Y-107625000D02*
X95428000Y-110240000D01*
X90348000Y-107625000D02*
X92813000Y-107625000D01*
D20*
X154955000Y-69414000D02*
X154955000Y-70914000D01*
X154955000Y-70914000D02*
X154705000Y-71164000D01*
X154942500Y-65666500D02*
X153594000Y-64318000D01*
X154942500Y-69414000D02*
X154942500Y-65666500D01*
X142455000Y-69414000D02*
X142455000Y-70914000D01*
X142455000Y-70914000D02*
X142205000Y-71164000D01*
X142442500Y-65485500D02*
X141148000Y-64191000D01*
X142442500Y-69414000D02*
X142442500Y-65485500D01*
X129955000Y-69414000D02*
X129955000Y-70914000D01*
X129955000Y-70914000D02*
X129705000Y-71164000D01*
X129942500Y-65304500D02*
X128702000Y-64064000D01*
X129942500Y-69414000D02*
X129942500Y-65304500D01*
X149855000Y-69414000D02*
X149855000Y-70914000D01*
X149855000Y-70914000D02*
X150105000Y-71164000D01*
X149867500Y-65504500D02*
X151054000Y-64318000D01*
X149867500Y-69414000D02*
X149867500Y-65504500D01*
X137355000Y-69414000D02*
X137355000Y-70914000D01*
X137355000Y-70914000D02*
X137605000Y-71164000D01*
X137367500Y-65431500D02*
X138608000Y-64191000D01*
X137367500Y-69414000D02*
X137367500Y-65431500D01*
X124855000Y-69414000D02*
X124855000Y-70914000D01*
X124855000Y-70914000D02*
X125105000Y-71164000D01*
X124867500Y-65358500D02*
X126162000Y-64064000D01*
X124867500Y-69414000D02*
X124867500Y-65358500D01*
D19*
X104112500Y-91750000D02*
X116510000Y-91750000D01*
X118530000Y-93770000D02*
X118530000Y-111230000D01*
X116510000Y-91750000D02*
X118530000Y-93770000D01*
X104112500Y-89210000D02*
X114606411Y-89210000D01*
X118980011Y-93583600D02*
X118980011Y-109140011D01*
X114606411Y-89210000D02*
X118980011Y-93583600D01*
X118980011Y-109140011D02*
X120220001Y-110380001D01*
X120220001Y-110380001D02*
X121070000Y-111230000D01*
X119430022Y-99112199D02*
X121982020Y-101664199D01*
X121982020Y-101664199D02*
X121982020Y-103269520D01*
X104112500Y-85400000D02*
X111432822Y-85400000D01*
X111432822Y-85400000D02*
X119430022Y-93397200D01*
X119430022Y-93397200D02*
X119430022Y-99112199D01*
X124974999Y-106262499D02*
X124974999Y-112594999D01*
X124974999Y-112594999D02*
X126150000Y-113770000D01*
X121982020Y-103269520D02*
X124974999Y-106262499D01*
X119880033Y-98627533D02*
X127325001Y-106072501D01*
X127325001Y-106072501D02*
X127325001Y-112405001D01*
X119880033Y-93210800D02*
X119880033Y-98627533D01*
X109529233Y-82860000D02*
X119880033Y-93210800D01*
X127325001Y-112405001D02*
X128690000Y-113770000D01*
X104112500Y-82860000D02*
X109529233Y-82860000D01*
X128690000Y-110027919D02*
X128690000Y-111230000D01*
X128690000Y-103139999D02*
X128690000Y-110027919D01*
X120330044Y-93024400D02*
X120330044Y-94780043D01*
X120330044Y-94780043D02*
X128690000Y-103139999D01*
X106355644Y-79050000D02*
X120330044Y-93024400D01*
X104112500Y-79050000D02*
X106355644Y-79050000D01*
X104112500Y-76510000D02*
X104600000Y-76510000D01*
X104600000Y-76510000D02*
X131230000Y-103140000D01*
X131230000Y-110027919D02*
X131230000Y-111230000D01*
X131230000Y-103140000D02*
X131230000Y-110027919D01*
X133770000Y-102357500D02*
X133770000Y-111230000D01*
X104112500Y-72700000D02*
X133770000Y-102357500D01*
X135134999Y-112594999D02*
X136310000Y-113770000D01*
X135134999Y-101182499D02*
X135134999Y-112594999D01*
X104112500Y-70160000D02*
X135134999Y-101182499D01*
D21*
X112065000Y-104147500D02*
X112397500Y-103815000D01*
X110160000Y-104147500D02*
X112065000Y-104147500D01*
D19*
X100300000Y-70160000D02*
X99730000Y-70730000D01*
X102237500Y-70160000D02*
X100300000Y-70160000D01*
X100300000Y-72700000D02*
X99730000Y-72130000D01*
X102237500Y-72700000D02*
X100300000Y-72700000D01*
X100300000Y-76510000D02*
X99730000Y-77080000D01*
X102237500Y-76510000D02*
X100300000Y-76510000D01*
X100300000Y-79050000D02*
X99730000Y-78480000D01*
X102237500Y-79050000D02*
X100300000Y-79050000D01*
X100300000Y-82860000D02*
X99730000Y-83430000D01*
X102237500Y-82860000D02*
X100300000Y-82860000D01*
X100300000Y-85400000D02*
X99730000Y-84830000D01*
X102237500Y-85400000D02*
X100300000Y-85400000D01*
X100300000Y-89210000D02*
X99730000Y-89780000D01*
X102237500Y-89210000D02*
X100300000Y-89210000D01*
X100300000Y-91750000D02*
X99730000Y-91180000D01*
X102237500Y-91750000D02*
X100300000Y-91750000D01*
D22*
G36*
X101932000Y-107017000D02*
G01*
X95147000Y-107017000D01*
X95147000Y-106680000D01*
X98944548Y-106680000D01*
X98950340Y-106738810D01*
X98967495Y-106795361D01*
X98995352Y-106847478D01*
X99032841Y-106893159D01*
X99078522Y-106930648D01*
X99130639Y-106958505D01*
X99187190Y-106975660D01*
X99246000Y-106981452D01*
X99892000Y-106980000D01*
X99967000Y-106905000D01*
X99967000Y-106509000D01*
X100275000Y-106509000D01*
X100275000Y-106905000D01*
X100350000Y-106980000D01*
X100996000Y-106981452D01*
X101054810Y-106975660D01*
X101111361Y-106958505D01*
X101163478Y-106930648D01*
X101209159Y-106893159D01*
X101246648Y-106847478D01*
X101274505Y-106795361D01*
X101291660Y-106738810D01*
X101297452Y-106680000D01*
X101296000Y-106584000D01*
X101221000Y-106509000D01*
X100275000Y-106509000D01*
X99967000Y-106509000D01*
X99021000Y-106509000D01*
X98946000Y-106584000D01*
X98944548Y-106680000D01*
X95147000Y-106680000D01*
X95147000Y-106400056D01*
X95199000Y-106400000D01*
X95274000Y-106325000D01*
X95274000Y-105364000D01*
X95582000Y-105364000D01*
X95582000Y-106325000D01*
X95657000Y-106400000D01*
X97003000Y-106401452D01*
X97061810Y-106395660D01*
X97118361Y-106378505D01*
X97170478Y-106350648D01*
X97216159Y-106313159D01*
X97253648Y-106267478D01*
X97281505Y-106215361D01*
X97298660Y-106158810D01*
X97304452Y-106100000D01*
X97304299Y-106030000D01*
X98944548Y-106030000D01*
X98946000Y-106126000D01*
X99021000Y-106201000D01*
X99967000Y-106201000D01*
X99967000Y-105805000D01*
X100275000Y-105805000D01*
X100275000Y-106201000D01*
X101221000Y-106201000D01*
X101296000Y-106126000D01*
X101297452Y-106030000D01*
X101291660Y-105971190D01*
X101274505Y-105914639D01*
X101246648Y-105862522D01*
X101209159Y-105816841D01*
X101163478Y-105779352D01*
X101111361Y-105751495D01*
X101054810Y-105734340D01*
X100996000Y-105728548D01*
X100350000Y-105730000D01*
X100275000Y-105805000D01*
X99967000Y-105805000D01*
X99892000Y-105730000D01*
X99246000Y-105728548D01*
X99187190Y-105734340D01*
X99130639Y-105751495D01*
X99078522Y-105779352D01*
X99032841Y-105816841D01*
X98995352Y-105862522D01*
X98967495Y-105914639D01*
X98950340Y-105971190D01*
X98944548Y-106030000D01*
X97304299Y-106030000D01*
X97303000Y-105439000D01*
X97274000Y-105410000D01*
X98944548Y-105410000D01*
X98950340Y-105468810D01*
X98967495Y-105525361D01*
X98995352Y-105577478D01*
X99032841Y-105623159D01*
X99078522Y-105660648D01*
X99130639Y-105688505D01*
X99187190Y-105705660D01*
X99246000Y-105711452D01*
X99892000Y-105710000D01*
X99967000Y-105635000D01*
X99967000Y-105239000D01*
X100275000Y-105239000D01*
X100275000Y-105635000D01*
X100350000Y-105710000D01*
X100996000Y-105711452D01*
X101054810Y-105705660D01*
X101111361Y-105688505D01*
X101163478Y-105660648D01*
X101209159Y-105623159D01*
X101246648Y-105577478D01*
X101274505Y-105525361D01*
X101291660Y-105468810D01*
X101297452Y-105410000D01*
X101296000Y-105314000D01*
X101221000Y-105239000D01*
X100275000Y-105239000D01*
X99967000Y-105239000D01*
X99021000Y-105239000D01*
X98946000Y-105314000D01*
X98944548Y-105410000D01*
X97274000Y-105410000D01*
X97228000Y-105364000D01*
X95582000Y-105364000D01*
X95274000Y-105364000D01*
X95254000Y-105364000D01*
X95254000Y-105056000D01*
X95274000Y-105056000D01*
X95274000Y-104095000D01*
X95582000Y-104095000D01*
X95582000Y-105056000D01*
X97228000Y-105056000D01*
X97303000Y-104981000D01*
X97303485Y-104760000D01*
X98944548Y-104760000D01*
X98946000Y-104856000D01*
X99021000Y-104931000D01*
X99967000Y-104931000D01*
X99967000Y-104535000D01*
X100275000Y-104535000D01*
X100275000Y-104931000D01*
X101221000Y-104931000D01*
X101296000Y-104856000D01*
X101297452Y-104760000D01*
X101291660Y-104701190D01*
X101274505Y-104644639D01*
X101246648Y-104592522D01*
X101209159Y-104546841D01*
X101163478Y-104509352D01*
X101111361Y-104481495D01*
X101054810Y-104464340D01*
X100996000Y-104458548D01*
X100350000Y-104460000D01*
X100275000Y-104535000D01*
X99967000Y-104535000D01*
X99892000Y-104460000D01*
X99246000Y-104458548D01*
X99187190Y-104464340D01*
X99130639Y-104481495D01*
X99078522Y-104509352D01*
X99032841Y-104546841D01*
X98995352Y-104592522D01*
X98967495Y-104644639D01*
X98950340Y-104701190D01*
X98944548Y-104760000D01*
X97303485Y-104760000D01*
X97304452Y-104320000D01*
X97298660Y-104261190D01*
X97281505Y-104204639D01*
X97253648Y-104152522D01*
X97243372Y-104140000D01*
X98944548Y-104140000D01*
X98950340Y-104198810D01*
X98967495Y-104255361D01*
X98995352Y-104307478D01*
X99032841Y-104353159D01*
X99078522Y-104390648D01*
X99130639Y-104418505D01*
X99187190Y-104435660D01*
X99246000Y-104441452D01*
X99892000Y-104440000D01*
X99967000Y-104365000D01*
X99967000Y-103969000D01*
X100275000Y-103969000D01*
X100275000Y-104365000D01*
X100350000Y-104440000D01*
X100996000Y-104441452D01*
X101054810Y-104435660D01*
X101111361Y-104418505D01*
X101163478Y-104390648D01*
X101209159Y-104353159D01*
X101246648Y-104307478D01*
X101274505Y-104255361D01*
X101291660Y-104198810D01*
X101297452Y-104140000D01*
X101296000Y-104044000D01*
X101221000Y-103969000D01*
X100275000Y-103969000D01*
X99967000Y-103969000D01*
X99021000Y-103969000D01*
X98946000Y-104044000D01*
X98944548Y-104140000D01*
X97243372Y-104140000D01*
X97216159Y-104106841D01*
X97170478Y-104069352D01*
X97118361Y-104041495D01*
X97061810Y-104024340D01*
X97003000Y-104018548D01*
X95657000Y-104020000D01*
X95582000Y-104095000D01*
X95274000Y-104095000D01*
X95199000Y-104020000D01*
X95147000Y-104019944D01*
X95147000Y-103490000D01*
X98944548Y-103490000D01*
X98946000Y-103586000D01*
X99021000Y-103661000D01*
X99967000Y-103661000D01*
X99967000Y-103265000D01*
X100275000Y-103265000D01*
X100275000Y-103661000D01*
X101221000Y-103661000D01*
X101296000Y-103586000D01*
X101297452Y-103490000D01*
X101291660Y-103431190D01*
X101274505Y-103374639D01*
X101246648Y-103322522D01*
X101209159Y-103276841D01*
X101163478Y-103239352D01*
X101111361Y-103211495D01*
X101054810Y-103194340D01*
X100996000Y-103188548D01*
X100350000Y-103190000D01*
X100275000Y-103265000D01*
X99967000Y-103265000D01*
X99892000Y-103190000D01*
X99246000Y-103188548D01*
X99187190Y-103194340D01*
X99130639Y-103211495D01*
X99078522Y-103239352D01*
X99032841Y-103276841D01*
X98995352Y-103322522D01*
X98967495Y-103374639D01*
X98950340Y-103431190D01*
X98944548Y-103490000D01*
X95147000Y-103490000D01*
X95147000Y-102870000D01*
X98944548Y-102870000D01*
X98950340Y-102928810D01*
X98967495Y-102985361D01*
X98995352Y-103037478D01*
X99032841Y-103083159D01*
X99078522Y-103120648D01*
X99130639Y-103148505D01*
X99187190Y-103165660D01*
X99246000Y-103171452D01*
X99892000Y-103170000D01*
X99967000Y-103095000D01*
X99967000Y-102699000D01*
X100275000Y-102699000D01*
X100275000Y-103095000D01*
X100350000Y-103170000D01*
X100996000Y-103171452D01*
X101054810Y-103165660D01*
X101111361Y-103148505D01*
X101163478Y-103120648D01*
X101209159Y-103083159D01*
X101246648Y-103037478D01*
X101274505Y-102985361D01*
X101291660Y-102928810D01*
X101297452Y-102870000D01*
X101296000Y-102774000D01*
X101221000Y-102699000D01*
X100275000Y-102699000D01*
X99967000Y-102699000D01*
X99021000Y-102699000D01*
X98946000Y-102774000D01*
X98944548Y-102870000D01*
X95147000Y-102870000D01*
X95147000Y-102220000D01*
X98944548Y-102220000D01*
X98946000Y-102316000D01*
X99021000Y-102391000D01*
X99967000Y-102391000D01*
X99967000Y-101995000D01*
X100275000Y-101995000D01*
X100275000Y-102391000D01*
X101221000Y-102391000D01*
X101296000Y-102316000D01*
X101297452Y-102220000D01*
X101291660Y-102161190D01*
X101274505Y-102104639D01*
X101246648Y-102052522D01*
X101209159Y-102006841D01*
X101163478Y-101969352D01*
X101111361Y-101941495D01*
X101054810Y-101924340D01*
X100996000Y-101918548D01*
X100350000Y-101920000D01*
X100275000Y-101995000D01*
X99967000Y-101995000D01*
X99892000Y-101920000D01*
X99246000Y-101918548D01*
X99187190Y-101924340D01*
X99130639Y-101941495D01*
X99078522Y-101969352D01*
X99032841Y-102006841D01*
X98995352Y-102052522D01*
X98967495Y-102104639D01*
X98950340Y-102161190D01*
X98944548Y-102220000D01*
X95147000Y-102220000D01*
X95147000Y-101502000D01*
X101932000Y-101502000D01*
X101932000Y-107017000D01*
G37*
X101932000Y-107017000D02*
X95147000Y-107017000D01*
X95147000Y-106680000D01*
X98944548Y-106680000D01*
X98950340Y-106738810D01*
X98967495Y-106795361D01*
X98995352Y-106847478D01*
X99032841Y-106893159D01*
X99078522Y-106930648D01*
X99130639Y-106958505D01*
X99187190Y-106975660D01*
X99246000Y-106981452D01*
X99892000Y-106980000D01*
X99967000Y-106905000D01*
X99967000Y-106509000D01*
X100275000Y-106509000D01*
X100275000Y-106905000D01*
X100350000Y-106980000D01*
X100996000Y-106981452D01*
X101054810Y-106975660D01*
X101111361Y-106958505D01*
X101163478Y-106930648D01*
X101209159Y-106893159D01*
X101246648Y-106847478D01*
X101274505Y-106795361D01*
X101291660Y-106738810D01*
X101297452Y-106680000D01*
X101296000Y-106584000D01*
X101221000Y-106509000D01*
X100275000Y-106509000D01*
X99967000Y-106509000D01*
X99021000Y-106509000D01*
X98946000Y-106584000D01*
X98944548Y-106680000D01*
X95147000Y-106680000D01*
X95147000Y-106400056D01*
X95199000Y-106400000D01*
X95274000Y-106325000D01*
X95274000Y-105364000D01*
X95582000Y-105364000D01*
X95582000Y-106325000D01*
X95657000Y-106400000D01*
X97003000Y-106401452D01*
X97061810Y-106395660D01*
X97118361Y-106378505D01*
X97170478Y-106350648D01*
X97216159Y-106313159D01*
X97253648Y-106267478D01*
X97281505Y-106215361D01*
X97298660Y-106158810D01*
X97304452Y-106100000D01*
X97304299Y-106030000D01*
X98944548Y-106030000D01*
X98946000Y-106126000D01*
X99021000Y-106201000D01*
X99967000Y-106201000D01*
X99967000Y-105805000D01*
X100275000Y-105805000D01*
X100275000Y-106201000D01*
X101221000Y-106201000D01*
X101296000Y-106126000D01*
X101297452Y-106030000D01*
X101291660Y-105971190D01*
X101274505Y-105914639D01*
X101246648Y-105862522D01*
X101209159Y-105816841D01*
X101163478Y-105779352D01*
X101111361Y-105751495D01*
X101054810Y-105734340D01*
X100996000Y-105728548D01*
X100350000Y-105730000D01*
X100275000Y-105805000D01*
X99967000Y-105805000D01*
X99892000Y-105730000D01*
X99246000Y-105728548D01*
X99187190Y-105734340D01*
X99130639Y-105751495D01*
X99078522Y-105779352D01*
X99032841Y-105816841D01*
X98995352Y-105862522D01*
X98967495Y-105914639D01*
X98950340Y-105971190D01*
X98944548Y-106030000D01*
X97304299Y-106030000D01*
X97303000Y-105439000D01*
X97274000Y-105410000D01*
X98944548Y-105410000D01*
X98950340Y-105468810D01*
X98967495Y-105525361D01*
X98995352Y-105577478D01*
X99032841Y-105623159D01*
X99078522Y-105660648D01*
X99130639Y-105688505D01*
X99187190Y-105705660D01*
X99246000Y-105711452D01*
X99892000Y-105710000D01*
X99967000Y-105635000D01*
X99967000Y-105239000D01*
X100275000Y-105239000D01*
X100275000Y-105635000D01*
X100350000Y-105710000D01*
X100996000Y-105711452D01*
X101054810Y-105705660D01*
X101111361Y-105688505D01*
X101163478Y-105660648D01*
X101209159Y-105623159D01*
X101246648Y-105577478D01*
X101274505Y-105525361D01*
X101291660Y-105468810D01*
X101297452Y-105410000D01*
X101296000Y-105314000D01*
X101221000Y-105239000D01*
X100275000Y-105239000D01*
X99967000Y-105239000D01*
X99021000Y-105239000D01*
X98946000Y-105314000D01*
X98944548Y-105410000D01*
X97274000Y-105410000D01*
X97228000Y-105364000D01*
X95582000Y-105364000D01*
X95274000Y-105364000D01*
X95254000Y-105364000D01*
X95254000Y-105056000D01*
X95274000Y-105056000D01*
X95274000Y-104095000D01*
X95582000Y-104095000D01*
X95582000Y-105056000D01*
X97228000Y-105056000D01*
X97303000Y-104981000D01*
X97303485Y-104760000D01*
X98944548Y-104760000D01*
X98946000Y-104856000D01*
X99021000Y-104931000D01*
X99967000Y-104931000D01*
X99967000Y-104535000D01*
X100275000Y-104535000D01*
X100275000Y-104931000D01*
X101221000Y-104931000D01*
X101296000Y-104856000D01*
X101297452Y-104760000D01*
X101291660Y-104701190D01*
X101274505Y-104644639D01*
X101246648Y-104592522D01*
X101209159Y-104546841D01*
X101163478Y-104509352D01*
X101111361Y-104481495D01*
X101054810Y-104464340D01*
X100996000Y-104458548D01*
X100350000Y-104460000D01*
X100275000Y-104535000D01*
X99967000Y-104535000D01*
X99892000Y-104460000D01*
X99246000Y-104458548D01*
X99187190Y-104464340D01*
X99130639Y-104481495D01*
X99078522Y-104509352D01*
X99032841Y-104546841D01*
X98995352Y-104592522D01*
X98967495Y-104644639D01*
X98950340Y-104701190D01*
X98944548Y-104760000D01*
X97303485Y-104760000D01*
X97304452Y-104320000D01*
X97298660Y-104261190D01*
X97281505Y-104204639D01*
X97253648Y-104152522D01*
X97243372Y-104140000D01*
X98944548Y-104140000D01*
X98950340Y-104198810D01*
X98967495Y-104255361D01*
X98995352Y-104307478D01*
X99032841Y-104353159D01*
X99078522Y-104390648D01*
X99130639Y-104418505D01*
X99187190Y-104435660D01*
X99246000Y-104441452D01*
X99892000Y-104440000D01*
X99967000Y-104365000D01*
X99967000Y-103969000D01*
X100275000Y-103969000D01*
X100275000Y-104365000D01*
X100350000Y-104440000D01*
X100996000Y-104441452D01*
X101054810Y-104435660D01*
X101111361Y-104418505D01*
X101163478Y-104390648D01*
X101209159Y-104353159D01*
X101246648Y-104307478D01*
X101274505Y-104255361D01*
X101291660Y-104198810D01*
X101297452Y-104140000D01*
X101296000Y-104044000D01*
X101221000Y-103969000D01*
X100275000Y-103969000D01*
X99967000Y-103969000D01*
X99021000Y-103969000D01*
X98946000Y-104044000D01*
X98944548Y-104140000D01*
X97243372Y-104140000D01*
X97216159Y-104106841D01*
X97170478Y-104069352D01*
X97118361Y-104041495D01*
X97061810Y-104024340D01*
X97003000Y-104018548D01*
X95657000Y-104020000D01*
X95582000Y-104095000D01*
X95274000Y-104095000D01*
X95199000Y-104020000D01*
X95147000Y-104019944D01*
X95147000Y-103490000D01*
X98944548Y-103490000D01*
X98946000Y-103586000D01*
X99021000Y-103661000D01*
X99967000Y-103661000D01*
X99967000Y-103265000D01*
X100275000Y-103265000D01*
X100275000Y-103661000D01*
X101221000Y-103661000D01*
X101296000Y-103586000D01*
X101297452Y-103490000D01*
X101291660Y-103431190D01*
X101274505Y-103374639D01*
X101246648Y-103322522D01*
X101209159Y-103276841D01*
X101163478Y-103239352D01*
X101111361Y-103211495D01*
X101054810Y-103194340D01*
X100996000Y-103188548D01*
X100350000Y-103190000D01*
X100275000Y-103265000D01*
X99967000Y-103265000D01*
X99892000Y-103190000D01*
X99246000Y-103188548D01*
X99187190Y-103194340D01*
X99130639Y-103211495D01*
X99078522Y-103239352D01*
X99032841Y-103276841D01*
X98995352Y-103322522D01*
X98967495Y-103374639D01*
X98950340Y-103431190D01*
X98944548Y-103490000D01*
X95147000Y-103490000D01*
X95147000Y-102870000D01*
X98944548Y-102870000D01*
X98950340Y-102928810D01*
X98967495Y-102985361D01*
X98995352Y-103037478D01*
X99032841Y-103083159D01*
X99078522Y-103120648D01*
X99130639Y-103148505D01*
X99187190Y-103165660D01*
X99246000Y-103171452D01*
X99892000Y-103170000D01*
X99967000Y-103095000D01*
X99967000Y-102699000D01*
X100275000Y-102699000D01*
X100275000Y-103095000D01*
X100350000Y-103170000D01*
X100996000Y-103171452D01*
X101054810Y-103165660D01*
X101111361Y-103148505D01*
X101163478Y-103120648D01*
X101209159Y-103083159D01*
X101246648Y-103037478D01*
X101274505Y-102985361D01*
X101291660Y-102928810D01*
X101297452Y-102870000D01*
X101296000Y-102774000D01*
X101221000Y-102699000D01*
X100275000Y-102699000D01*
X99967000Y-102699000D01*
X99021000Y-102699000D01*
X98946000Y-102774000D01*
X98944548Y-102870000D01*
X95147000Y-102870000D01*
X95147000Y-102220000D01*
X98944548Y-102220000D01*
X98946000Y-102316000D01*
X99021000Y-102391000D01*
X99967000Y-102391000D01*
X99967000Y-101995000D01*
X100275000Y-101995000D01*
X100275000Y-102391000D01*
X101221000Y-102391000D01*
X101296000Y-102316000D01*
X101297452Y-102220000D01*
X101291660Y-102161190D01*
X101274505Y-102104639D01*
X101246648Y-102052522D01*
X101209159Y-102006841D01*
X101163478Y-101969352D01*
X101111361Y-101941495D01*
X101054810Y-101924340D01*
X100996000Y-101918548D01*
X100350000Y-101920000D01*
X100275000Y-101995000D01*
X99967000Y-101995000D01*
X99892000Y-101920000D01*
X99246000Y-101918548D01*
X99187190Y-101924340D01*
X99130639Y-101941495D01*
X99078522Y-101969352D01*
X99032841Y-102006841D01*
X98995352Y-102052522D01*
X98967495Y-102104639D01*
X98950340Y-102161190D01*
X98944548Y-102220000D01*
X95147000Y-102220000D01*
X95147000Y-101502000D01*
X101932000Y-101502000D01*
X101932000Y-107017000D01*
G36*
X108917000Y-105847000D02*
G01*
X108918921Y-105866509D01*
X108924612Y-105885268D01*
X108933853Y-105902557D01*
X108946289Y-105917711D01*
X108961443Y-105930147D01*
X108978732Y-105939388D01*
X108997491Y-105945079D01*
X109017000Y-105947000D01*
X112219000Y-105947000D01*
X112219000Y-109303000D01*
X105058357Y-109303000D01*
X104535497Y-109086424D01*
X103849644Y-108950000D01*
X103402000Y-108950000D01*
X103402000Y-106680000D01*
X104544548Y-106680000D01*
X104550340Y-106738810D01*
X104567495Y-106795361D01*
X104595352Y-106847478D01*
X104632841Y-106893159D01*
X104678522Y-106930648D01*
X104730639Y-106958505D01*
X104787190Y-106975660D01*
X104846000Y-106981452D01*
X105492000Y-106980000D01*
X105567000Y-106905000D01*
X105567000Y-106509000D01*
X105875000Y-106509000D01*
X105875000Y-106905000D01*
X105950000Y-106980000D01*
X106596000Y-106981452D01*
X106654810Y-106975660D01*
X106711361Y-106958505D01*
X106763478Y-106930648D01*
X106809159Y-106893159D01*
X106846648Y-106847478D01*
X106874505Y-106795361D01*
X106891660Y-106738810D01*
X106897452Y-106680000D01*
X106896000Y-106584000D01*
X106822000Y-106510000D01*
X109158548Y-106510000D01*
X109164340Y-106568810D01*
X109181495Y-106625361D01*
X109209352Y-106677478D01*
X109246841Y-106723159D01*
X109292522Y-106760648D01*
X109344639Y-106788505D01*
X109401190Y-106805660D01*
X109460000Y-106811452D01*
X109931000Y-106810000D01*
X110006000Y-106735000D01*
X110006000Y-106176500D01*
X110314000Y-106176500D01*
X110314000Y-106735000D01*
X110389000Y-106810000D01*
X110860000Y-106811452D01*
X110918810Y-106805660D01*
X110975361Y-106788505D01*
X111027478Y-106760648D01*
X111073159Y-106723159D01*
X111110648Y-106677478D01*
X111138505Y-106625361D01*
X111155660Y-106568810D01*
X111161452Y-106510000D01*
X111160000Y-106251500D01*
X111085000Y-106176500D01*
X110314000Y-106176500D01*
X110006000Y-106176500D01*
X109235000Y-106176500D01*
X109160000Y-106251500D01*
X109158548Y-106510000D01*
X106822000Y-106510000D01*
X106821000Y-106509000D01*
X105875000Y-106509000D01*
X105567000Y-106509000D01*
X104621000Y-106509000D01*
X104546000Y-106584000D01*
X104544548Y-106680000D01*
X103402000Y-106680000D01*
X103402000Y-106030000D01*
X104544548Y-106030000D01*
X104546000Y-106126000D01*
X104621000Y-106201000D01*
X105567000Y-106201000D01*
X105567000Y-105805000D01*
X105875000Y-105805000D01*
X105875000Y-106201000D01*
X106821000Y-106201000D01*
X106896000Y-106126000D01*
X106897452Y-106030000D01*
X106891660Y-105971190D01*
X106874505Y-105914639D01*
X106846648Y-105862522D01*
X106809159Y-105816841D01*
X106763478Y-105779352D01*
X106711361Y-105751495D01*
X106654810Y-105734340D01*
X106596000Y-105728548D01*
X105950000Y-105730000D01*
X105875000Y-105805000D01*
X105567000Y-105805000D01*
X105492000Y-105730000D01*
X104846000Y-105728548D01*
X104787190Y-105734340D01*
X104730639Y-105751495D01*
X104678522Y-105779352D01*
X104632841Y-105816841D01*
X104595352Y-105862522D01*
X104567495Y-105914639D01*
X104550340Y-105971190D01*
X104544548Y-106030000D01*
X103402000Y-106030000D01*
X103402000Y-105410000D01*
X104544548Y-105410000D01*
X104550340Y-105468810D01*
X104567495Y-105525361D01*
X104595352Y-105577478D01*
X104632841Y-105623159D01*
X104678522Y-105660648D01*
X104730639Y-105688505D01*
X104787190Y-105705660D01*
X104846000Y-105711452D01*
X105492000Y-105710000D01*
X105567000Y-105635000D01*
X105567000Y-105239000D01*
X105875000Y-105239000D01*
X105875000Y-105635000D01*
X105950000Y-105710000D01*
X106596000Y-105711452D01*
X106654810Y-105705660D01*
X106711361Y-105688505D01*
X106763478Y-105660648D01*
X106809159Y-105623159D01*
X106846648Y-105577478D01*
X106874505Y-105525361D01*
X106891660Y-105468810D01*
X106897452Y-105410000D01*
X106896000Y-105314000D01*
X106821000Y-105239000D01*
X105875000Y-105239000D01*
X105567000Y-105239000D01*
X104621000Y-105239000D01*
X104546000Y-105314000D01*
X104544548Y-105410000D01*
X103402000Y-105410000D01*
X103402000Y-104760000D01*
X104544548Y-104760000D01*
X104546000Y-104856000D01*
X104621000Y-104931000D01*
X105567000Y-104931000D01*
X105567000Y-104535000D01*
X105875000Y-104535000D01*
X105875000Y-104931000D01*
X106821000Y-104931000D01*
X106896000Y-104856000D01*
X106897452Y-104760000D01*
X106891660Y-104701190D01*
X106874505Y-104644639D01*
X106846648Y-104592522D01*
X106809159Y-104546841D01*
X106763478Y-104509352D01*
X106711361Y-104481495D01*
X106654810Y-104464340D01*
X106596000Y-104458548D01*
X105950000Y-104460000D01*
X105875000Y-104535000D01*
X105567000Y-104535000D01*
X105492000Y-104460000D01*
X104846000Y-104458548D01*
X104787190Y-104464340D01*
X104730639Y-104481495D01*
X104678522Y-104509352D01*
X104632841Y-104546841D01*
X104595352Y-104592522D01*
X104567495Y-104644639D01*
X104550340Y-104701190D01*
X104544548Y-104760000D01*
X103402000Y-104760000D01*
X103402000Y-104140000D01*
X104544548Y-104140000D01*
X104550340Y-104198810D01*
X104567495Y-104255361D01*
X104595352Y-104307478D01*
X104632841Y-104353159D01*
X104678522Y-104390648D01*
X104730639Y-104418505D01*
X104787190Y-104435660D01*
X104846000Y-104441452D01*
X105492000Y-104440000D01*
X105567000Y-104365000D01*
X105567000Y-103969000D01*
X105875000Y-103969000D01*
X105875000Y-104365000D01*
X105950000Y-104440000D01*
X106596000Y-104441452D01*
X106654810Y-104435660D01*
X106711361Y-104418505D01*
X106763478Y-104390648D01*
X106809159Y-104353159D01*
X106846648Y-104307478D01*
X106874505Y-104255361D01*
X106891660Y-104198810D01*
X106897452Y-104140000D01*
X106896000Y-104044000D01*
X106821000Y-103969000D01*
X105875000Y-103969000D01*
X105567000Y-103969000D01*
X104621000Y-103969000D01*
X104546000Y-104044000D01*
X104544548Y-104140000D01*
X103402000Y-104140000D01*
X103402000Y-103661000D01*
X108917000Y-103661000D01*
X108917000Y-105847000D01*
G37*
X108917000Y-105847000D02*
X108918921Y-105866509D01*
X108924612Y-105885268D01*
X108933853Y-105902557D01*
X108946289Y-105917711D01*
X108961443Y-105930147D01*
X108978732Y-105939388D01*
X108997491Y-105945079D01*
X109017000Y-105947000D01*
X112219000Y-105947000D01*
X112219000Y-109303000D01*
X105058357Y-109303000D01*
X104535497Y-109086424D01*
X103849644Y-108950000D01*
X103402000Y-108950000D01*
X103402000Y-106680000D01*
X104544548Y-106680000D01*
X104550340Y-106738810D01*
X104567495Y-106795361D01*
X104595352Y-106847478D01*
X104632841Y-106893159D01*
X104678522Y-106930648D01*
X104730639Y-106958505D01*
X104787190Y-106975660D01*
X104846000Y-106981452D01*
X105492000Y-106980000D01*
X105567000Y-106905000D01*
X105567000Y-106509000D01*
X105875000Y-106509000D01*
X105875000Y-106905000D01*
X105950000Y-106980000D01*
X106596000Y-106981452D01*
X106654810Y-106975660D01*
X106711361Y-106958505D01*
X106763478Y-106930648D01*
X106809159Y-106893159D01*
X106846648Y-106847478D01*
X106874505Y-106795361D01*
X106891660Y-106738810D01*
X106897452Y-106680000D01*
X106896000Y-106584000D01*
X106822000Y-106510000D01*
X109158548Y-106510000D01*
X109164340Y-106568810D01*
X109181495Y-106625361D01*
X109209352Y-106677478D01*
X109246841Y-106723159D01*
X109292522Y-106760648D01*
X109344639Y-106788505D01*
X109401190Y-106805660D01*
X109460000Y-106811452D01*
X109931000Y-106810000D01*
X110006000Y-106735000D01*
X110006000Y-106176500D01*
X110314000Y-106176500D01*
X110314000Y-106735000D01*
X110389000Y-106810000D01*
X110860000Y-106811452D01*
X110918810Y-106805660D01*
X110975361Y-106788505D01*
X111027478Y-106760648D01*
X111073159Y-106723159D01*
X111110648Y-106677478D01*
X111138505Y-106625361D01*
X111155660Y-106568810D01*
X111161452Y-106510000D01*
X111160000Y-106251500D01*
X111085000Y-106176500D01*
X110314000Y-106176500D01*
X110006000Y-106176500D01*
X109235000Y-106176500D01*
X109160000Y-106251500D01*
X109158548Y-106510000D01*
X106822000Y-106510000D01*
X106821000Y-106509000D01*
X105875000Y-106509000D01*
X105567000Y-106509000D01*
X104621000Y-106509000D01*
X104546000Y-106584000D01*
X104544548Y-106680000D01*
X103402000Y-106680000D01*
X103402000Y-106030000D01*
X104544548Y-106030000D01*
X104546000Y-106126000D01*
X104621000Y-106201000D01*
X105567000Y-106201000D01*
X105567000Y-105805000D01*
X105875000Y-105805000D01*
X105875000Y-106201000D01*
X106821000Y-106201000D01*
X106896000Y-106126000D01*
X106897452Y-106030000D01*
X106891660Y-105971190D01*
X106874505Y-105914639D01*
X106846648Y-105862522D01*
X106809159Y-105816841D01*
X106763478Y-105779352D01*
X106711361Y-105751495D01*
X106654810Y-105734340D01*
X106596000Y-105728548D01*
X105950000Y-105730000D01*
X105875000Y-105805000D01*
X105567000Y-105805000D01*
X105492000Y-105730000D01*
X104846000Y-105728548D01*
X104787190Y-105734340D01*
X104730639Y-105751495D01*
X104678522Y-105779352D01*
X104632841Y-105816841D01*
X104595352Y-105862522D01*
X104567495Y-105914639D01*
X104550340Y-105971190D01*
X104544548Y-106030000D01*
X103402000Y-106030000D01*
X103402000Y-105410000D01*
X104544548Y-105410000D01*
X104550340Y-105468810D01*
X104567495Y-105525361D01*
X104595352Y-105577478D01*
X104632841Y-105623159D01*
X104678522Y-105660648D01*
X104730639Y-105688505D01*
X104787190Y-105705660D01*
X104846000Y-105711452D01*
X105492000Y-105710000D01*
X105567000Y-105635000D01*
X105567000Y-105239000D01*
X105875000Y-105239000D01*
X105875000Y-105635000D01*
X105950000Y-105710000D01*
X106596000Y-105711452D01*
X106654810Y-105705660D01*
X106711361Y-105688505D01*
X106763478Y-105660648D01*
X106809159Y-105623159D01*
X106846648Y-105577478D01*
X106874505Y-105525361D01*
X106891660Y-105468810D01*
X106897452Y-105410000D01*
X106896000Y-105314000D01*
X106821000Y-105239000D01*
X105875000Y-105239000D01*
X105567000Y-105239000D01*
X104621000Y-105239000D01*
X104546000Y-105314000D01*
X104544548Y-105410000D01*
X103402000Y-105410000D01*
X103402000Y-104760000D01*
X104544548Y-104760000D01*
X104546000Y-104856000D01*
X104621000Y-104931000D01*
X105567000Y-104931000D01*
X105567000Y-104535000D01*
X105875000Y-104535000D01*
X105875000Y-104931000D01*
X106821000Y-104931000D01*
X106896000Y-104856000D01*
X106897452Y-104760000D01*
X106891660Y-104701190D01*
X106874505Y-104644639D01*
X106846648Y-104592522D01*
X106809159Y-104546841D01*
X106763478Y-104509352D01*
X106711361Y-104481495D01*
X106654810Y-104464340D01*
X106596000Y-104458548D01*
X105950000Y-104460000D01*
X105875000Y-104535000D01*
X105567000Y-104535000D01*
X105492000Y-104460000D01*
X104846000Y-104458548D01*
X104787190Y-104464340D01*
X104730639Y-104481495D01*
X104678522Y-104509352D01*
X104632841Y-104546841D01*
X104595352Y-104592522D01*
X104567495Y-104644639D01*
X104550340Y-104701190D01*
X104544548Y-104760000D01*
X103402000Y-104760000D01*
X103402000Y-104140000D01*
X104544548Y-104140000D01*
X104550340Y-104198810D01*
X104567495Y-104255361D01*
X104595352Y-104307478D01*
X104632841Y-104353159D01*
X104678522Y-104390648D01*
X104730639Y-104418505D01*
X104787190Y-104435660D01*
X104846000Y-104441452D01*
X105492000Y-104440000D01*
X105567000Y-104365000D01*
X105567000Y-103969000D01*
X105875000Y-103969000D01*
X105875000Y-104365000D01*
X105950000Y-104440000D01*
X106596000Y-104441452D01*
X106654810Y-104435660D01*
X106711361Y-104418505D01*
X106763478Y-104390648D01*
X106809159Y-104353159D01*
X106846648Y-104307478D01*
X106874505Y-104255361D01*
X106891660Y-104198810D01*
X106897452Y-104140000D01*
X106896000Y-104044000D01*
X106821000Y-103969000D01*
X105875000Y-103969000D01*
X105567000Y-103969000D01*
X104621000Y-103969000D01*
X104546000Y-104044000D01*
X104544548Y-104140000D01*
X103402000Y-104140000D01*
X103402000Y-103661000D01*
X108917000Y-103661000D01*
X108917000Y-105847000D01*
M02*
