G04 #@! TF.GenerationSoftware,KiCad,Pcbnew,5.1.6-c6e7f7d~87~ubuntu18.04.1*
G04 #@! TF.CreationDate,2021-04-28T11:05:25+02:00*
G04 #@! TF.ProjectId,MSS,4d53532e-6b69-4636-9164-5f7063625858,2.0*
G04 #@! TF.SameCoordinates,Original*
G04 #@! TF.FileFunction,Soldermask,Bot*
G04 #@! TF.FilePolarity,Negative*
%FSLAX46Y46*%
G04 Gerber Fmt 4.6, Leading zero omitted, Abs format (unit mm)*
G04 Created by KiCad (PCBNEW 5.1.6-c6e7f7d~87~ubuntu18.04.1) date 2021-04-28 11:05:25*
%MOMM*%
%LPD*%
G01*
G04 APERTURE LIST*
%ADD10C,0.100000*%
G04 APERTURE END LIST*
D10*
G36*
X162477158Y-109278738D02*
G01*
X163086818Y-109531268D01*
X163086820Y-109531269D01*
X163635500Y-109897885D01*
X164102115Y-110364500D01*
X164468732Y-110913182D01*
X164721262Y-111522842D01*
X164850000Y-112170052D01*
X164850000Y-112829948D01*
X164721262Y-113477158D01*
X164485182Y-114047104D01*
X164468731Y-114086820D01*
X164102115Y-114635500D01*
X163635500Y-115102115D01*
X163086820Y-115468731D01*
X163086819Y-115468732D01*
X163086818Y-115468732D01*
X162477158Y-115721262D01*
X161829948Y-115850000D01*
X161170052Y-115850000D01*
X160522842Y-115721262D01*
X159913182Y-115468732D01*
X159913181Y-115468732D01*
X159913180Y-115468731D01*
X159364500Y-115102115D01*
X158897885Y-114635500D01*
X158531269Y-114086820D01*
X158514818Y-114047104D01*
X158278738Y-113477158D01*
X158150000Y-112829948D01*
X158150000Y-112170052D01*
X158278738Y-111522842D01*
X158531268Y-110913182D01*
X158897885Y-110364500D01*
X159364500Y-109897885D01*
X159913180Y-109531269D01*
X159913182Y-109531268D01*
X160522842Y-109278738D01*
X161170052Y-109150000D01*
X161829948Y-109150000D01*
X162477158Y-109278738D01*
G37*
G36*
X104477158Y-109278738D02*
G01*
X105086818Y-109531268D01*
X105086820Y-109531269D01*
X105635500Y-109897885D01*
X106102115Y-110364500D01*
X106468732Y-110913182D01*
X106721262Y-111522842D01*
X106850000Y-112170052D01*
X106850000Y-112829948D01*
X106721262Y-113477158D01*
X106485182Y-114047104D01*
X106468731Y-114086820D01*
X106102115Y-114635500D01*
X105635500Y-115102115D01*
X105086820Y-115468731D01*
X105086819Y-115468732D01*
X105086818Y-115468732D01*
X104477158Y-115721262D01*
X103829948Y-115850000D01*
X103170052Y-115850000D01*
X102522842Y-115721262D01*
X101913182Y-115468732D01*
X101913181Y-115468732D01*
X101913180Y-115468731D01*
X101364500Y-115102115D01*
X100897885Y-114635500D01*
X100531269Y-114086820D01*
X100514818Y-114047104D01*
X100278738Y-113477158D01*
X100150000Y-112829948D01*
X100150000Y-112170052D01*
X100278738Y-111522842D01*
X100531268Y-110913182D01*
X100897885Y-110364500D01*
X101364500Y-109897885D01*
X101913180Y-109531269D01*
X101913182Y-109531268D01*
X102522842Y-109278738D01*
X103170052Y-109150000D01*
X103829948Y-109150000D01*
X104477158Y-109278738D01*
G37*
G36*
X138993569Y-112829946D02*
G01*
X139127105Y-112856508D01*
X139299994Y-112928121D01*
X139455590Y-113032087D01*
X139587913Y-113164410D01*
X139691879Y-113320006D01*
X139763492Y-113492895D01*
X139800000Y-113676433D01*
X139800000Y-113863567D01*
X139763492Y-114047105D01*
X139691879Y-114219994D01*
X139587913Y-114375590D01*
X139455590Y-114507913D01*
X139299994Y-114611879D01*
X139127105Y-114683492D01*
X139035336Y-114701746D01*
X138943568Y-114720000D01*
X138756432Y-114720000D01*
X138664664Y-114701746D01*
X138572895Y-114683492D01*
X138400006Y-114611879D01*
X138244410Y-114507913D01*
X138112087Y-114375590D01*
X138008121Y-114219994D01*
X137936508Y-114047105D01*
X137900000Y-113863567D01*
X137900000Y-113676433D01*
X137936508Y-113492895D01*
X138008121Y-113320006D01*
X138112087Y-113164410D01*
X138244410Y-113032087D01*
X138400006Y-112928121D01*
X138572895Y-112856508D01*
X138706431Y-112829946D01*
X138756432Y-112820000D01*
X138943568Y-112820000D01*
X138993569Y-112829946D01*
G37*
G36*
X151693569Y-112829946D02*
G01*
X151827105Y-112856508D01*
X151999994Y-112928121D01*
X152155590Y-113032087D01*
X152287913Y-113164410D01*
X152391879Y-113320006D01*
X152463492Y-113492895D01*
X152500000Y-113676433D01*
X152500000Y-113863567D01*
X152463492Y-114047105D01*
X152391879Y-114219994D01*
X152287913Y-114375590D01*
X152155590Y-114507913D01*
X151999994Y-114611879D01*
X151827105Y-114683492D01*
X151735336Y-114701746D01*
X151643568Y-114720000D01*
X151456432Y-114720000D01*
X151364664Y-114701746D01*
X151272895Y-114683492D01*
X151100006Y-114611879D01*
X150944410Y-114507913D01*
X150812087Y-114375590D01*
X150708121Y-114219994D01*
X150636508Y-114047105D01*
X150600000Y-113863567D01*
X150600000Y-113676433D01*
X150636508Y-113492895D01*
X150708121Y-113320006D01*
X150812087Y-113164410D01*
X150944410Y-113032087D01*
X151100006Y-112928121D01*
X151272895Y-112856508D01*
X151406431Y-112829946D01*
X151456432Y-112820000D01*
X151643568Y-112820000D01*
X151693569Y-112829946D01*
G37*
G36*
X149153569Y-112829946D02*
G01*
X149287105Y-112856508D01*
X149459994Y-112928121D01*
X149615590Y-113032087D01*
X149747913Y-113164410D01*
X149851879Y-113320006D01*
X149923492Y-113492895D01*
X149960000Y-113676433D01*
X149960000Y-113863567D01*
X149923492Y-114047105D01*
X149851879Y-114219994D01*
X149747913Y-114375590D01*
X149615590Y-114507913D01*
X149459994Y-114611879D01*
X149287105Y-114683492D01*
X149195336Y-114701746D01*
X149103568Y-114720000D01*
X148916432Y-114720000D01*
X148824664Y-114701746D01*
X148732895Y-114683492D01*
X148560006Y-114611879D01*
X148404410Y-114507913D01*
X148272087Y-114375590D01*
X148168121Y-114219994D01*
X148096508Y-114047105D01*
X148060000Y-113863567D01*
X148060000Y-113676433D01*
X148096508Y-113492895D01*
X148168121Y-113320006D01*
X148272087Y-113164410D01*
X148404410Y-113032087D01*
X148560006Y-112928121D01*
X148732895Y-112856508D01*
X148866431Y-112829946D01*
X148916432Y-112820000D01*
X149103568Y-112820000D01*
X149153569Y-112829946D01*
G37*
G36*
X146613569Y-112829946D02*
G01*
X146747105Y-112856508D01*
X146919994Y-112928121D01*
X147075590Y-113032087D01*
X147207913Y-113164410D01*
X147311879Y-113320006D01*
X147383492Y-113492895D01*
X147420000Y-113676433D01*
X147420000Y-113863567D01*
X147383492Y-114047105D01*
X147311879Y-114219994D01*
X147207913Y-114375590D01*
X147075590Y-114507913D01*
X146919994Y-114611879D01*
X146747105Y-114683492D01*
X146655336Y-114701746D01*
X146563568Y-114720000D01*
X146376432Y-114720000D01*
X146284664Y-114701746D01*
X146192895Y-114683492D01*
X146020006Y-114611879D01*
X145864410Y-114507913D01*
X145732087Y-114375590D01*
X145628121Y-114219994D01*
X145556508Y-114047105D01*
X145520000Y-113863567D01*
X145520000Y-113676433D01*
X145556508Y-113492895D01*
X145628121Y-113320006D01*
X145732087Y-113164410D01*
X145864410Y-113032087D01*
X146020006Y-112928121D01*
X146192895Y-112856508D01*
X146326431Y-112829946D01*
X146376432Y-112820000D01*
X146563568Y-112820000D01*
X146613569Y-112829946D01*
G37*
G36*
X144073569Y-112829946D02*
G01*
X144207105Y-112856508D01*
X144379994Y-112928121D01*
X144535590Y-113032087D01*
X144667913Y-113164410D01*
X144771879Y-113320006D01*
X144843492Y-113492895D01*
X144880000Y-113676433D01*
X144880000Y-113863567D01*
X144843492Y-114047105D01*
X144771879Y-114219994D01*
X144667913Y-114375590D01*
X144535590Y-114507913D01*
X144379994Y-114611879D01*
X144207105Y-114683492D01*
X144115336Y-114701746D01*
X144023568Y-114720000D01*
X143836432Y-114720000D01*
X143744664Y-114701746D01*
X143652895Y-114683492D01*
X143480006Y-114611879D01*
X143324410Y-114507913D01*
X143192087Y-114375590D01*
X143088121Y-114219994D01*
X143016508Y-114047105D01*
X142980000Y-113863567D01*
X142980000Y-113676433D01*
X143016508Y-113492895D01*
X143088121Y-113320006D01*
X143192087Y-113164410D01*
X143324410Y-113032087D01*
X143480006Y-112928121D01*
X143652895Y-112856508D01*
X143786431Y-112829946D01*
X143836432Y-112820000D01*
X144023568Y-112820000D01*
X144073569Y-112829946D01*
G37*
G36*
X141533569Y-112829946D02*
G01*
X141667105Y-112856508D01*
X141839994Y-112928121D01*
X141995590Y-113032087D01*
X142127913Y-113164410D01*
X142231879Y-113320006D01*
X142303492Y-113492895D01*
X142340000Y-113676433D01*
X142340000Y-113863567D01*
X142303492Y-114047105D01*
X142231879Y-114219994D01*
X142127913Y-114375590D01*
X141995590Y-114507913D01*
X141839994Y-114611879D01*
X141667105Y-114683492D01*
X141575336Y-114701746D01*
X141483568Y-114720000D01*
X141296432Y-114720000D01*
X141204664Y-114701746D01*
X141112895Y-114683492D01*
X140940006Y-114611879D01*
X140784410Y-114507913D01*
X140652087Y-114375590D01*
X140548121Y-114219994D01*
X140476508Y-114047105D01*
X140440000Y-113863567D01*
X140440000Y-113676433D01*
X140476508Y-113492895D01*
X140548121Y-113320006D01*
X140652087Y-113164410D01*
X140784410Y-113032087D01*
X140940006Y-112928121D01*
X141112895Y-112856508D01*
X141246431Y-112829946D01*
X141296432Y-112820000D01*
X141483568Y-112820000D01*
X141533569Y-112829946D01*
G37*
G36*
X136453569Y-112829946D02*
G01*
X136587105Y-112856508D01*
X136759994Y-112928121D01*
X136915590Y-113032087D01*
X137047913Y-113164410D01*
X137151879Y-113320006D01*
X137223492Y-113492895D01*
X137260000Y-113676433D01*
X137260000Y-113863567D01*
X137223492Y-114047105D01*
X137151879Y-114219994D01*
X137047913Y-114375590D01*
X136915590Y-114507913D01*
X136759994Y-114611879D01*
X136587105Y-114683492D01*
X136495336Y-114701746D01*
X136403568Y-114720000D01*
X136216432Y-114720000D01*
X136124664Y-114701746D01*
X136032895Y-114683492D01*
X135860006Y-114611879D01*
X135704410Y-114507913D01*
X135572087Y-114375590D01*
X135468121Y-114219994D01*
X135396508Y-114047105D01*
X135360000Y-113863567D01*
X135360000Y-113676433D01*
X135396508Y-113492895D01*
X135468121Y-113320006D01*
X135572087Y-113164410D01*
X135704410Y-113032087D01*
X135860006Y-112928121D01*
X136032895Y-112856508D01*
X136166431Y-112829946D01*
X136216432Y-112820000D01*
X136403568Y-112820000D01*
X136453569Y-112829946D01*
G37*
G36*
X133913569Y-112829946D02*
G01*
X134047105Y-112856508D01*
X134219994Y-112928121D01*
X134375590Y-113032087D01*
X134507913Y-113164410D01*
X134611879Y-113320006D01*
X134683492Y-113492895D01*
X134720000Y-113676433D01*
X134720000Y-113863567D01*
X134683492Y-114047105D01*
X134611879Y-114219994D01*
X134507913Y-114375590D01*
X134375590Y-114507913D01*
X134219994Y-114611879D01*
X134047105Y-114683492D01*
X133955336Y-114701746D01*
X133863568Y-114720000D01*
X133676432Y-114720000D01*
X133584664Y-114701746D01*
X133492895Y-114683492D01*
X133320006Y-114611879D01*
X133164410Y-114507913D01*
X133032087Y-114375590D01*
X132928121Y-114219994D01*
X132856508Y-114047105D01*
X132820000Y-113863567D01*
X132820000Y-113676433D01*
X132856508Y-113492895D01*
X132928121Y-113320006D01*
X133032087Y-113164410D01*
X133164410Y-113032087D01*
X133320006Y-112928121D01*
X133492895Y-112856508D01*
X133626431Y-112829946D01*
X133676432Y-112820000D01*
X133863568Y-112820000D01*
X133913569Y-112829946D01*
G37*
G36*
X131373569Y-112829946D02*
G01*
X131507105Y-112856508D01*
X131679994Y-112928121D01*
X131835590Y-113032087D01*
X131967913Y-113164410D01*
X132071879Y-113320006D01*
X132143492Y-113492895D01*
X132180000Y-113676433D01*
X132180000Y-113863567D01*
X132143492Y-114047105D01*
X132071879Y-114219994D01*
X131967913Y-114375590D01*
X131835590Y-114507913D01*
X131679994Y-114611879D01*
X131507105Y-114683492D01*
X131415336Y-114701746D01*
X131323568Y-114720000D01*
X131136432Y-114720000D01*
X131044664Y-114701746D01*
X130952895Y-114683492D01*
X130780006Y-114611879D01*
X130624410Y-114507913D01*
X130492087Y-114375590D01*
X130388121Y-114219994D01*
X130316508Y-114047105D01*
X130280000Y-113863567D01*
X130280000Y-113676433D01*
X130316508Y-113492895D01*
X130388121Y-113320006D01*
X130492087Y-113164410D01*
X130624410Y-113032087D01*
X130780006Y-112928121D01*
X130952895Y-112856508D01*
X131086431Y-112829946D01*
X131136432Y-112820000D01*
X131323568Y-112820000D01*
X131373569Y-112829946D01*
G37*
G36*
X154233569Y-112829946D02*
G01*
X154367105Y-112856508D01*
X154539994Y-112928121D01*
X154695590Y-113032087D01*
X154827913Y-113164410D01*
X154931879Y-113320006D01*
X155003492Y-113492895D01*
X155040000Y-113676433D01*
X155040000Y-113863567D01*
X155003492Y-114047105D01*
X154931879Y-114219994D01*
X154827913Y-114375590D01*
X154695590Y-114507913D01*
X154539994Y-114611879D01*
X154367105Y-114683492D01*
X154275336Y-114701746D01*
X154183568Y-114720000D01*
X153996432Y-114720000D01*
X153904664Y-114701746D01*
X153812895Y-114683492D01*
X153640006Y-114611879D01*
X153484410Y-114507913D01*
X153352087Y-114375590D01*
X153248121Y-114219994D01*
X153176508Y-114047105D01*
X153140000Y-113863567D01*
X153140000Y-113676433D01*
X153176508Y-113492895D01*
X153248121Y-113320006D01*
X153352087Y-113164410D01*
X153484410Y-113032087D01*
X153640006Y-112928121D01*
X153812895Y-112856508D01*
X153946431Y-112829946D01*
X153996432Y-112820000D01*
X154183568Y-112820000D01*
X154233569Y-112829946D01*
G37*
G36*
X123753569Y-112829946D02*
G01*
X123887105Y-112856508D01*
X124059994Y-112928121D01*
X124215590Y-113032087D01*
X124347913Y-113164410D01*
X124451879Y-113320006D01*
X124523492Y-113492895D01*
X124560000Y-113676433D01*
X124560000Y-113863567D01*
X124523492Y-114047105D01*
X124451879Y-114219994D01*
X124347913Y-114375590D01*
X124215590Y-114507913D01*
X124059994Y-114611879D01*
X123887105Y-114683492D01*
X123795336Y-114701746D01*
X123703568Y-114720000D01*
X123516432Y-114720000D01*
X123424664Y-114701746D01*
X123332895Y-114683492D01*
X123160006Y-114611879D01*
X123004410Y-114507913D01*
X122872087Y-114375590D01*
X122768121Y-114219994D01*
X122696508Y-114047105D01*
X122660000Y-113863567D01*
X122660000Y-113676433D01*
X122696508Y-113492895D01*
X122768121Y-113320006D01*
X122872087Y-113164410D01*
X123004410Y-113032087D01*
X123160006Y-112928121D01*
X123332895Y-112856508D01*
X123466431Y-112829946D01*
X123516432Y-112820000D01*
X123703568Y-112820000D01*
X123753569Y-112829946D01*
G37*
G36*
X121213569Y-112829946D02*
G01*
X121347105Y-112856508D01*
X121519994Y-112928121D01*
X121675590Y-113032087D01*
X121807913Y-113164410D01*
X121911879Y-113320006D01*
X121983492Y-113492895D01*
X122020000Y-113676433D01*
X122020000Y-113863567D01*
X121983492Y-114047105D01*
X121911879Y-114219994D01*
X121807913Y-114375590D01*
X121675590Y-114507913D01*
X121519994Y-114611879D01*
X121347105Y-114683492D01*
X121255336Y-114701746D01*
X121163568Y-114720000D01*
X120976432Y-114720000D01*
X120884664Y-114701746D01*
X120792895Y-114683492D01*
X120620006Y-114611879D01*
X120464410Y-114507913D01*
X120332087Y-114375590D01*
X120228121Y-114219994D01*
X120156508Y-114047105D01*
X120120000Y-113863567D01*
X120120000Y-113676433D01*
X120156508Y-113492895D01*
X120228121Y-113320006D01*
X120332087Y-113164410D01*
X120464410Y-113032087D01*
X120620006Y-112928121D01*
X120792895Y-112856508D01*
X120926431Y-112829946D01*
X120976432Y-112820000D01*
X121163568Y-112820000D01*
X121213569Y-112829946D01*
G37*
G36*
X118673569Y-112829946D02*
G01*
X118807105Y-112856508D01*
X118979994Y-112928121D01*
X119135590Y-113032087D01*
X119267913Y-113164410D01*
X119371879Y-113320006D01*
X119443492Y-113492895D01*
X119480000Y-113676433D01*
X119480000Y-113863567D01*
X119443492Y-114047105D01*
X119371879Y-114219994D01*
X119267913Y-114375590D01*
X119135590Y-114507913D01*
X118979994Y-114611879D01*
X118807105Y-114683492D01*
X118715336Y-114701746D01*
X118623568Y-114720000D01*
X118436432Y-114720000D01*
X118344664Y-114701746D01*
X118252895Y-114683492D01*
X118080006Y-114611879D01*
X117924410Y-114507913D01*
X117792087Y-114375590D01*
X117688121Y-114219994D01*
X117616508Y-114047105D01*
X117580000Y-113863567D01*
X117580000Y-113676433D01*
X117616508Y-113492895D01*
X117688121Y-113320006D01*
X117792087Y-113164410D01*
X117924410Y-113032087D01*
X118080006Y-112928121D01*
X118252895Y-112856508D01*
X118386431Y-112829946D01*
X118436432Y-112820000D01*
X118623568Y-112820000D01*
X118673569Y-112829946D01*
G37*
G36*
X126293569Y-112829946D02*
G01*
X126427105Y-112856508D01*
X126599994Y-112928121D01*
X126755590Y-113032087D01*
X126887913Y-113164410D01*
X126991879Y-113320006D01*
X127063492Y-113492895D01*
X127100000Y-113676433D01*
X127100000Y-113863567D01*
X127063492Y-114047105D01*
X126991879Y-114219994D01*
X126887913Y-114375590D01*
X126755590Y-114507913D01*
X126599994Y-114611879D01*
X126427105Y-114683492D01*
X126335336Y-114701746D01*
X126243568Y-114720000D01*
X126056432Y-114720000D01*
X125964664Y-114701746D01*
X125872895Y-114683492D01*
X125700006Y-114611879D01*
X125544410Y-114507913D01*
X125412087Y-114375590D01*
X125308121Y-114219994D01*
X125236508Y-114047105D01*
X125200000Y-113863567D01*
X125200000Y-113676433D01*
X125236508Y-113492895D01*
X125308121Y-113320006D01*
X125412087Y-113164410D01*
X125544410Y-113032087D01*
X125700006Y-112928121D01*
X125872895Y-112856508D01*
X126006431Y-112829946D01*
X126056432Y-112820000D01*
X126243568Y-112820000D01*
X126293569Y-112829946D01*
G37*
G36*
X116133569Y-112829946D02*
G01*
X116267105Y-112856508D01*
X116439994Y-112928121D01*
X116595590Y-113032087D01*
X116727913Y-113164410D01*
X116831879Y-113320006D01*
X116903492Y-113492895D01*
X116940000Y-113676433D01*
X116940000Y-113863567D01*
X116903492Y-114047105D01*
X116831879Y-114219994D01*
X116727913Y-114375590D01*
X116595590Y-114507913D01*
X116439994Y-114611879D01*
X116267105Y-114683492D01*
X116175336Y-114701746D01*
X116083568Y-114720000D01*
X115896432Y-114720000D01*
X115804664Y-114701746D01*
X115712895Y-114683492D01*
X115540006Y-114611879D01*
X115384410Y-114507913D01*
X115252087Y-114375590D01*
X115148121Y-114219994D01*
X115076508Y-114047105D01*
X115040000Y-113863567D01*
X115040000Y-113676433D01*
X115076508Y-113492895D01*
X115148121Y-113320006D01*
X115252087Y-113164410D01*
X115384410Y-113032087D01*
X115540006Y-112928121D01*
X115712895Y-112856508D01*
X115846431Y-112829946D01*
X115896432Y-112820000D01*
X116083568Y-112820000D01*
X116133569Y-112829946D01*
G37*
G36*
X113593569Y-112829946D02*
G01*
X113727105Y-112856508D01*
X113899994Y-112928121D01*
X114055590Y-113032087D01*
X114187913Y-113164410D01*
X114291879Y-113320006D01*
X114363492Y-113492895D01*
X114400000Y-113676433D01*
X114400000Y-113863567D01*
X114363492Y-114047105D01*
X114291879Y-114219994D01*
X114187913Y-114375590D01*
X114055590Y-114507913D01*
X113899994Y-114611879D01*
X113727105Y-114683492D01*
X113635336Y-114701746D01*
X113543568Y-114720000D01*
X113356432Y-114720000D01*
X113264664Y-114701746D01*
X113172895Y-114683492D01*
X113000006Y-114611879D01*
X112844410Y-114507913D01*
X112712087Y-114375590D01*
X112608121Y-114219994D01*
X112536508Y-114047105D01*
X112500000Y-113863567D01*
X112500000Y-113676433D01*
X112536508Y-113492895D01*
X112608121Y-113320006D01*
X112712087Y-113164410D01*
X112844410Y-113032087D01*
X113000006Y-112928121D01*
X113172895Y-112856508D01*
X113306431Y-112829946D01*
X113356432Y-112820000D01*
X113543568Y-112820000D01*
X113593569Y-112829946D01*
G37*
G36*
X111053569Y-112829946D02*
G01*
X111187105Y-112856508D01*
X111359994Y-112928121D01*
X111515590Y-113032087D01*
X111647913Y-113164410D01*
X111751879Y-113320006D01*
X111823492Y-113492895D01*
X111860000Y-113676433D01*
X111860000Y-113863567D01*
X111823492Y-114047105D01*
X111751879Y-114219994D01*
X111647913Y-114375590D01*
X111515590Y-114507913D01*
X111359994Y-114611879D01*
X111187105Y-114683492D01*
X111095336Y-114701746D01*
X111003568Y-114720000D01*
X110816432Y-114720000D01*
X110724664Y-114701746D01*
X110632895Y-114683492D01*
X110460006Y-114611879D01*
X110304410Y-114507913D01*
X110172087Y-114375590D01*
X110068121Y-114219994D01*
X109996508Y-114047105D01*
X109960000Y-113863567D01*
X109960000Y-113676433D01*
X109996508Y-113492895D01*
X110068121Y-113320006D01*
X110172087Y-113164410D01*
X110304410Y-113032087D01*
X110460006Y-112928121D01*
X110632895Y-112856508D01*
X110766431Y-112829946D01*
X110816432Y-112820000D01*
X111003568Y-112820000D01*
X111053569Y-112829946D01*
G37*
G36*
X108513569Y-112829946D02*
G01*
X108647105Y-112856508D01*
X108819994Y-112928121D01*
X108975590Y-113032087D01*
X109107913Y-113164410D01*
X109211879Y-113320006D01*
X109283492Y-113492895D01*
X109320000Y-113676433D01*
X109320000Y-113863567D01*
X109283492Y-114047105D01*
X109211879Y-114219994D01*
X109107913Y-114375590D01*
X108975590Y-114507913D01*
X108819994Y-114611879D01*
X108647105Y-114683492D01*
X108555336Y-114701746D01*
X108463568Y-114720000D01*
X108276432Y-114720000D01*
X108184664Y-114701746D01*
X108092895Y-114683492D01*
X107920006Y-114611879D01*
X107764410Y-114507913D01*
X107632087Y-114375590D01*
X107528121Y-114219994D01*
X107456508Y-114047105D01*
X107420000Y-113863567D01*
X107420000Y-113676433D01*
X107456508Y-113492895D01*
X107528121Y-113320006D01*
X107632087Y-113164410D01*
X107764410Y-113032087D01*
X107920006Y-112928121D01*
X108092895Y-112856508D01*
X108226431Y-112829946D01*
X108276432Y-112820000D01*
X108463568Y-112820000D01*
X108513569Y-112829946D01*
G37*
G36*
X156773569Y-112829946D02*
G01*
X156907105Y-112856508D01*
X157079994Y-112928121D01*
X157235590Y-113032087D01*
X157367913Y-113164410D01*
X157471879Y-113320006D01*
X157543492Y-113492895D01*
X157580000Y-113676433D01*
X157580000Y-113863567D01*
X157543492Y-114047105D01*
X157471879Y-114219994D01*
X157367913Y-114375590D01*
X157235590Y-114507913D01*
X157079994Y-114611879D01*
X156907105Y-114683492D01*
X156815336Y-114701746D01*
X156723568Y-114720000D01*
X156536432Y-114720000D01*
X156444664Y-114701746D01*
X156352895Y-114683492D01*
X156180006Y-114611879D01*
X156024410Y-114507913D01*
X155892087Y-114375590D01*
X155788121Y-114219994D01*
X155716508Y-114047105D01*
X155680000Y-113863567D01*
X155680000Y-113676433D01*
X155716508Y-113492895D01*
X155788121Y-113320006D01*
X155892087Y-113164410D01*
X156024410Y-113032087D01*
X156180006Y-112928121D01*
X156352895Y-112856508D01*
X156486431Y-112829946D01*
X156536432Y-112820000D01*
X156723568Y-112820000D01*
X156773569Y-112829946D01*
G37*
G36*
X128833569Y-112829946D02*
G01*
X128967105Y-112856508D01*
X129139994Y-112928121D01*
X129295590Y-113032087D01*
X129427913Y-113164410D01*
X129531879Y-113320006D01*
X129603492Y-113492895D01*
X129640000Y-113676433D01*
X129640000Y-113863567D01*
X129603492Y-114047105D01*
X129531879Y-114219994D01*
X129427913Y-114375590D01*
X129295590Y-114507913D01*
X129139994Y-114611879D01*
X128967105Y-114683492D01*
X128875336Y-114701746D01*
X128783568Y-114720000D01*
X128596432Y-114720000D01*
X128504664Y-114701746D01*
X128412895Y-114683492D01*
X128240006Y-114611879D01*
X128084410Y-114507913D01*
X127952087Y-114375590D01*
X127848121Y-114219994D01*
X127776508Y-114047105D01*
X127740000Y-113863567D01*
X127740000Y-113676433D01*
X127776508Y-113492895D01*
X127848121Y-113320006D01*
X127952087Y-113164410D01*
X128084410Y-113032087D01*
X128240006Y-112928121D01*
X128412895Y-112856508D01*
X128546431Y-112829946D01*
X128596432Y-112820000D01*
X128783568Y-112820000D01*
X128833569Y-112829946D01*
G37*
G36*
X131415336Y-110298254D02*
G01*
X131507105Y-110316508D01*
X131679994Y-110388121D01*
X131835590Y-110492087D01*
X131967913Y-110624410D01*
X132071879Y-110780006D01*
X132143492Y-110952895D01*
X132180000Y-111136433D01*
X132180000Y-111323567D01*
X132143492Y-111507105D01*
X132071879Y-111679994D01*
X131967913Y-111835590D01*
X131835590Y-111967913D01*
X131679994Y-112071879D01*
X131507105Y-112143492D01*
X131415336Y-112161746D01*
X131323568Y-112180000D01*
X131136432Y-112180000D01*
X131044664Y-112161746D01*
X130952895Y-112143492D01*
X130780006Y-112071879D01*
X130624410Y-111967913D01*
X130492087Y-111835590D01*
X130388121Y-111679994D01*
X130316508Y-111507105D01*
X130280000Y-111323567D01*
X130280000Y-111136433D01*
X130316508Y-110952895D01*
X130388121Y-110780006D01*
X130492087Y-110624410D01*
X130624410Y-110492087D01*
X130780006Y-110388121D01*
X130952895Y-110316508D01*
X131044664Y-110298254D01*
X131136432Y-110280000D01*
X131323568Y-110280000D01*
X131415336Y-110298254D01*
G37*
G36*
X136495336Y-110298254D02*
G01*
X136587105Y-110316508D01*
X136759994Y-110388121D01*
X136915590Y-110492087D01*
X137047913Y-110624410D01*
X137151879Y-110780006D01*
X137223492Y-110952895D01*
X137260000Y-111136433D01*
X137260000Y-111323567D01*
X137223492Y-111507105D01*
X137151879Y-111679994D01*
X137047913Y-111835590D01*
X136915590Y-111967913D01*
X136759994Y-112071879D01*
X136587105Y-112143492D01*
X136495336Y-112161746D01*
X136403568Y-112180000D01*
X136216432Y-112180000D01*
X136124664Y-112161746D01*
X136032895Y-112143492D01*
X135860006Y-112071879D01*
X135704410Y-111967913D01*
X135572087Y-111835590D01*
X135468121Y-111679994D01*
X135396508Y-111507105D01*
X135360000Y-111323567D01*
X135360000Y-111136433D01*
X135396508Y-110952895D01*
X135468121Y-110780006D01*
X135572087Y-110624410D01*
X135704410Y-110492087D01*
X135860006Y-110388121D01*
X136032895Y-110316508D01*
X136124664Y-110298254D01*
X136216432Y-110280000D01*
X136403568Y-110280000D01*
X136495336Y-110298254D01*
G37*
G36*
X121255336Y-110298254D02*
G01*
X121347105Y-110316508D01*
X121519994Y-110388121D01*
X121675590Y-110492087D01*
X121807913Y-110624410D01*
X121911879Y-110780006D01*
X121983492Y-110952895D01*
X122020000Y-111136433D01*
X122020000Y-111323567D01*
X121983492Y-111507105D01*
X121911879Y-111679994D01*
X121807913Y-111835590D01*
X121675590Y-111967913D01*
X121519994Y-112071879D01*
X121347105Y-112143492D01*
X121255336Y-112161746D01*
X121163568Y-112180000D01*
X120976432Y-112180000D01*
X120884664Y-112161746D01*
X120792895Y-112143492D01*
X120620006Y-112071879D01*
X120464410Y-111967913D01*
X120332087Y-111835590D01*
X120228121Y-111679994D01*
X120156508Y-111507105D01*
X120120000Y-111323567D01*
X120120000Y-111136433D01*
X120156508Y-110952895D01*
X120228121Y-110780006D01*
X120332087Y-110624410D01*
X120464410Y-110492087D01*
X120620006Y-110388121D01*
X120792895Y-110316508D01*
X120884664Y-110298254D01*
X120976432Y-110280000D01*
X121163568Y-110280000D01*
X121255336Y-110298254D01*
G37*
G36*
X151735336Y-110298254D02*
G01*
X151827105Y-110316508D01*
X151999994Y-110388121D01*
X152155590Y-110492087D01*
X152287913Y-110624410D01*
X152391879Y-110780006D01*
X152463492Y-110952895D01*
X152500000Y-111136433D01*
X152500000Y-111323567D01*
X152463492Y-111507105D01*
X152391879Y-111679994D01*
X152287913Y-111835590D01*
X152155590Y-111967913D01*
X151999994Y-112071879D01*
X151827105Y-112143492D01*
X151735336Y-112161746D01*
X151643568Y-112180000D01*
X151456432Y-112180000D01*
X151364664Y-112161746D01*
X151272895Y-112143492D01*
X151100006Y-112071879D01*
X150944410Y-111967913D01*
X150812087Y-111835590D01*
X150708121Y-111679994D01*
X150636508Y-111507105D01*
X150600000Y-111323567D01*
X150600000Y-111136433D01*
X150636508Y-110952895D01*
X150708121Y-110780006D01*
X150812087Y-110624410D01*
X150944410Y-110492087D01*
X151100006Y-110388121D01*
X151272895Y-110316508D01*
X151364664Y-110298254D01*
X151456432Y-110280000D01*
X151643568Y-110280000D01*
X151735336Y-110298254D01*
G37*
G36*
X123795336Y-110298254D02*
G01*
X123887105Y-110316508D01*
X124059994Y-110388121D01*
X124215590Y-110492087D01*
X124347913Y-110624410D01*
X124451879Y-110780006D01*
X124523492Y-110952895D01*
X124560000Y-111136433D01*
X124560000Y-111323567D01*
X124523492Y-111507105D01*
X124451879Y-111679994D01*
X124347913Y-111835590D01*
X124215590Y-111967913D01*
X124059994Y-112071879D01*
X123887105Y-112143492D01*
X123795336Y-112161746D01*
X123703568Y-112180000D01*
X123516432Y-112180000D01*
X123424664Y-112161746D01*
X123332895Y-112143492D01*
X123160006Y-112071879D01*
X123004410Y-111967913D01*
X122872087Y-111835590D01*
X122768121Y-111679994D01*
X122696508Y-111507105D01*
X122660000Y-111323567D01*
X122660000Y-111136433D01*
X122696508Y-110952895D01*
X122768121Y-110780006D01*
X122872087Y-110624410D01*
X123004410Y-110492087D01*
X123160006Y-110388121D01*
X123332895Y-110316508D01*
X123424664Y-110298254D01*
X123516432Y-110280000D01*
X123703568Y-110280000D01*
X123795336Y-110298254D01*
G37*
G36*
X133955336Y-110298254D02*
G01*
X134047105Y-110316508D01*
X134219994Y-110388121D01*
X134375590Y-110492087D01*
X134507913Y-110624410D01*
X134611879Y-110780006D01*
X134683492Y-110952895D01*
X134720000Y-111136433D01*
X134720000Y-111323567D01*
X134683492Y-111507105D01*
X134611879Y-111679994D01*
X134507913Y-111835590D01*
X134375590Y-111967913D01*
X134219994Y-112071879D01*
X134047105Y-112143492D01*
X133955336Y-112161746D01*
X133863568Y-112180000D01*
X133676432Y-112180000D01*
X133584664Y-112161746D01*
X133492895Y-112143492D01*
X133320006Y-112071879D01*
X133164410Y-111967913D01*
X133032087Y-111835590D01*
X132928121Y-111679994D01*
X132856508Y-111507105D01*
X132820000Y-111323567D01*
X132820000Y-111136433D01*
X132856508Y-110952895D01*
X132928121Y-110780006D01*
X133032087Y-110624410D01*
X133164410Y-110492087D01*
X133320006Y-110388121D01*
X133492895Y-110316508D01*
X133584664Y-110298254D01*
X133676432Y-110280000D01*
X133863568Y-110280000D01*
X133955336Y-110298254D01*
G37*
G36*
X126335336Y-110298254D02*
G01*
X126427105Y-110316508D01*
X126599994Y-110388121D01*
X126755590Y-110492087D01*
X126887913Y-110624410D01*
X126991879Y-110780006D01*
X127063492Y-110952895D01*
X127100000Y-111136433D01*
X127100000Y-111323567D01*
X127063492Y-111507105D01*
X126991879Y-111679994D01*
X126887913Y-111835590D01*
X126755590Y-111967913D01*
X126599994Y-112071879D01*
X126427105Y-112143492D01*
X126335336Y-112161746D01*
X126243568Y-112180000D01*
X126056432Y-112180000D01*
X125964664Y-112161746D01*
X125872895Y-112143492D01*
X125700006Y-112071879D01*
X125544410Y-111967913D01*
X125412087Y-111835590D01*
X125308121Y-111679994D01*
X125236508Y-111507105D01*
X125200000Y-111323567D01*
X125200000Y-111136433D01*
X125236508Y-110952895D01*
X125308121Y-110780006D01*
X125412087Y-110624410D01*
X125544410Y-110492087D01*
X125700006Y-110388121D01*
X125872895Y-110316508D01*
X125964664Y-110298254D01*
X126056432Y-110280000D01*
X126243568Y-110280000D01*
X126335336Y-110298254D01*
G37*
G36*
X128875336Y-110298254D02*
G01*
X128967105Y-110316508D01*
X129139994Y-110388121D01*
X129295590Y-110492087D01*
X129427913Y-110624410D01*
X129531879Y-110780006D01*
X129603492Y-110952895D01*
X129640000Y-111136433D01*
X129640000Y-111323567D01*
X129603492Y-111507105D01*
X129531879Y-111679994D01*
X129427913Y-111835590D01*
X129295590Y-111967913D01*
X129139994Y-112071879D01*
X128967105Y-112143492D01*
X128875336Y-112161746D01*
X128783568Y-112180000D01*
X128596432Y-112180000D01*
X128504664Y-112161746D01*
X128412895Y-112143492D01*
X128240006Y-112071879D01*
X128084410Y-111967913D01*
X127952087Y-111835590D01*
X127848121Y-111679994D01*
X127776508Y-111507105D01*
X127740000Y-111323567D01*
X127740000Y-111136433D01*
X127776508Y-110952895D01*
X127848121Y-110780006D01*
X127952087Y-110624410D01*
X128084410Y-110492087D01*
X128240006Y-110388121D01*
X128412895Y-110316508D01*
X128504664Y-110298254D01*
X128596432Y-110280000D01*
X128783568Y-110280000D01*
X128875336Y-110298254D01*
G37*
G36*
X146655336Y-110298254D02*
G01*
X146747105Y-110316508D01*
X146919994Y-110388121D01*
X147075590Y-110492087D01*
X147207913Y-110624410D01*
X147311879Y-110780006D01*
X147383492Y-110952895D01*
X147420000Y-111136433D01*
X147420000Y-111323567D01*
X147383492Y-111507105D01*
X147311879Y-111679994D01*
X147207913Y-111835590D01*
X147075590Y-111967913D01*
X146919994Y-112071879D01*
X146747105Y-112143492D01*
X146655336Y-112161746D01*
X146563568Y-112180000D01*
X146376432Y-112180000D01*
X146284664Y-112161746D01*
X146192895Y-112143492D01*
X146020006Y-112071879D01*
X145864410Y-111967913D01*
X145732087Y-111835590D01*
X145628121Y-111679994D01*
X145556508Y-111507105D01*
X145520000Y-111323567D01*
X145520000Y-111136433D01*
X145556508Y-110952895D01*
X145628121Y-110780006D01*
X145732087Y-110624410D01*
X145864410Y-110492087D01*
X146020006Y-110388121D01*
X146192895Y-110316508D01*
X146284664Y-110298254D01*
X146376432Y-110280000D01*
X146563568Y-110280000D01*
X146655336Y-110298254D01*
G37*
G36*
X111095336Y-110298254D02*
G01*
X111187105Y-110316508D01*
X111359994Y-110388121D01*
X111515590Y-110492087D01*
X111647913Y-110624410D01*
X111751879Y-110780006D01*
X111823492Y-110952895D01*
X111860000Y-111136433D01*
X111860000Y-111323567D01*
X111823492Y-111507105D01*
X111751879Y-111679994D01*
X111647913Y-111835590D01*
X111515590Y-111967913D01*
X111359994Y-112071879D01*
X111187105Y-112143492D01*
X111095336Y-112161746D01*
X111003568Y-112180000D01*
X110816432Y-112180000D01*
X110724664Y-112161746D01*
X110632895Y-112143492D01*
X110460006Y-112071879D01*
X110304410Y-111967913D01*
X110172087Y-111835590D01*
X110068121Y-111679994D01*
X109996508Y-111507105D01*
X109960000Y-111323567D01*
X109960000Y-111136433D01*
X109996508Y-110952895D01*
X110068121Y-110780006D01*
X110172087Y-110624410D01*
X110304410Y-110492087D01*
X110460006Y-110388121D01*
X110632895Y-110316508D01*
X110724664Y-110298254D01*
X110816432Y-110280000D01*
X111003568Y-110280000D01*
X111095336Y-110298254D01*
G37*
G36*
X116175336Y-110298254D02*
G01*
X116267105Y-110316508D01*
X116439994Y-110388121D01*
X116595590Y-110492087D01*
X116727913Y-110624410D01*
X116831879Y-110780006D01*
X116903492Y-110952895D01*
X116940000Y-111136433D01*
X116940000Y-111323567D01*
X116903492Y-111507105D01*
X116831879Y-111679994D01*
X116727913Y-111835590D01*
X116595590Y-111967913D01*
X116439994Y-112071879D01*
X116267105Y-112143492D01*
X116175336Y-112161746D01*
X116083568Y-112180000D01*
X115896432Y-112180000D01*
X115804664Y-112161746D01*
X115712895Y-112143492D01*
X115540006Y-112071879D01*
X115384410Y-111967913D01*
X115252087Y-111835590D01*
X115148121Y-111679994D01*
X115076508Y-111507105D01*
X115040000Y-111323567D01*
X115040000Y-111136433D01*
X115076508Y-110952895D01*
X115148121Y-110780006D01*
X115252087Y-110624410D01*
X115384410Y-110492087D01*
X115540006Y-110388121D01*
X115712895Y-110316508D01*
X115804664Y-110298254D01*
X115896432Y-110280000D01*
X116083568Y-110280000D01*
X116175336Y-110298254D01*
G37*
G36*
X144115336Y-110298254D02*
G01*
X144207105Y-110316508D01*
X144379994Y-110388121D01*
X144535590Y-110492087D01*
X144667913Y-110624410D01*
X144771879Y-110780006D01*
X144843492Y-110952895D01*
X144880000Y-111136433D01*
X144880000Y-111323567D01*
X144843492Y-111507105D01*
X144771879Y-111679994D01*
X144667913Y-111835590D01*
X144535590Y-111967913D01*
X144379994Y-112071879D01*
X144207105Y-112143492D01*
X144115336Y-112161746D01*
X144023568Y-112180000D01*
X143836432Y-112180000D01*
X143744664Y-112161746D01*
X143652895Y-112143492D01*
X143480006Y-112071879D01*
X143324410Y-111967913D01*
X143192087Y-111835590D01*
X143088121Y-111679994D01*
X143016508Y-111507105D01*
X142980000Y-111323567D01*
X142980000Y-111136433D01*
X143016508Y-110952895D01*
X143088121Y-110780006D01*
X143192087Y-110624410D01*
X143324410Y-110492087D01*
X143480006Y-110388121D01*
X143652895Y-110316508D01*
X143744664Y-110298254D01*
X143836432Y-110280000D01*
X144023568Y-110280000D01*
X144115336Y-110298254D01*
G37*
G36*
X113635336Y-110298254D02*
G01*
X113727105Y-110316508D01*
X113899994Y-110388121D01*
X114055590Y-110492087D01*
X114187913Y-110624410D01*
X114291879Y-110780006D01*
X114363492Y-110952895D01*
X114400000Y-111136433D01*
X114400000Y-111323567D01*
X114363492Y-111507105D01*
X114291879Y-111679994D01*
X114187913Y-111835590D01*
X114055590Y-111967913D01*
X113899994Y-112071879D01*
X113727105Y-112143492D01*
X113635336Y-112161746D01*
X113543568Y-112180000D01*
X113356432Y-112180000D01*
X113264664Y-112161746D01*
X113172895Y-112143492D01*
X113000006Y-112071879D01*
X112844410Y-111967913D01*
X112712087Y-111835590D01*
X112608121Y-111679994D01*
X112536508Y-111507105D01*
X112500000Y-111323567D01*
X112500000Y-111136433D01*
X112536508Y-110952895D01*
X112608121Y-110780006D01*
X112712087Y-110624410D01*
X112844410Y-110492087D01*
X113000006Y-110388121D01*
X113172895Y-110316508D01*
X113264664Y-110298254D01*
X113356432Y-110280000D01*
X113543568Y-110280000D01*
X113635336Y-110298254D01*
G37*
G36*
X157580000Y-112180000D02*
G01*
X155680000Y-112180000D01*
X155680000Y-110280000D01*
X157580000Y-110280000D01*
X157580000Y-112180000D01*
G37*
G36*
X149195336Y-110298254D02*
G01*
X149287105Y-110316508D01*
X149459994Y-110388121D01*
X149615590Y-110492087D01*
X149747913Y-110624410D01*
X149851879Y-110780006D01*
X149923492Y-110952895D01*
X149960000Y-111136433D01*
X149960000Y-111323567D01*
X149923492Y-111507105D01*
X149851879Y-111679994D01*
X149747913Y-111835590D01*
X149615590Y-111967913D01*
X149459994Y-112071879D01*
X149287105Y-112143492D01*
X149195336Y-112161746D01*
X149103568Y-112180000D01*
X148916432Y-112180000D01*
X148824664Y-112161746D01*
X148732895Y-112143492D01*
X148560006Y-112071879D01*
X148404410Y-111967913D01*
X148272087Y-111835590D01*
X148168121Y-111679994D01*
X148096508Y-111507105D01*
X148060000Y-111323567D01*
X148060000Y-111136433D01*
X148096508Y-110952895D01*
X148168121Y-110780006D01*
X148272087Y-110624410D01*
X148404410Y-110492087D01*
X148560006Y-110388121D01*
X148732895Y-110316508D01*
X148824664Y-110298254D01*
X148916432Y-110280000D01*
X149103568Y-110280000D01*
X149195336Y-110298254D01*
G37*
G36*
X108555336Y-110298254D02*
G01*
X108647105Y-110316508D01*
X108819994Y-110388121D01*
X108975590Y-110492087D01*
X109107913Y-110624410D01*
X109211879Y-110780006D01*
X109283492Y-110952895D01*
X109320000Y-111136433D01*
X109320000Y-111323567D01*
X109283492Y-111507105D01*
X109211879Y-111679994D01*
X109107913Y-111835590D01*
X108975590Y-111967913D01*
X108819994Y-112071879D01*
X108647105Y-112143492D01*
X108555336Y-112161746D01*
X108463568Y-112180000D01*
X108276432Y-112180000D01*
X108184664Y-112161746D01*
X108092895Y-112143492D01*
X107920006Y-112071879D01*
X107764410Y-111967913D01*
X107632087Y-111835590D01*
X107528121Y-111679994D01*
X107456508Y-111507105D01*
X107420000Y-111323567D01*
X107420000Y-111136433D01*
X107456508Y-110952895D01*
X107528121Y-110780006D01*
X107632087Y-110624410D01*
X107764410Y-110492087D01*
X107920006Y-110388121D01*
X108092895Y-110316508D01*
X108184664Y-110298254D01*
X108276432Y-110280000D01*
X108463568Y-110280000D01*
X108555336Y-110298254D01*
G37*
G36*
X139035336Y-110298254D02*
G01*
X139127105Y-110316508D01*
X139299994Y-110388121D01*
X139455590Y-110492087D01*
X139587913Y-110624410D01*
X139691879Y-110780006D01*
X139763492Y-110952895D01*
X139800000Y-111136433D01*
X139800000Y-111323567D01*
X139763492Y-111507105D01*
X139691879Y-111679994D01*
X139587913Y-111835590D01*
X139455590Y-111967913D01*
X139299994Y-112071879D01*
X139127105Y-112143492D01*
X139035336Y-112161746D01*
X138943568Y-112180000D01*
X138756432Y-112180000D01*
X138664664Y-112161746D01*
X138572895Y-112143492D01*
X138400006Y-112071879D01*
X138244410Y-111967913D01*
X138112087Y-111835590D01*
X138008121Y-111679994D01*
X137936508Y-111507105D01*
X137900000Y-111323567D01*
X137900000Y-111136433D01*
X137936508Y-110952895D01*
X138008121Y-110780006D01*
X138112087Y-110624410D01*
X138244410Y-110492087D01*
X138400006Y-110388121D01*
X138572895Y-110316508D01*
X138664664Y-110298254D01*
X138756432Y-110280000D01*
X138943568Y-110280000D01*
X139035336Y-110298254D01*
G37*
G36*
X141575336Y-110298254D02*
G01*
X141667105Y-110316508D01*
X141839994Y-110388121D01*
X141995590Y-110492087D01*
X142127913Y-110624410D01*
X142231879Y-110780006D01*
X142303492Y-110952895D01*
X142340000Y-111136433D01*
X142340000Y-111323567D01*
X142303492Y-111507105D01*
X142231879Y-111679994D01*
X142127913Y-111835590D01*
X141995590Y-111967913D01*
X141839994Y-112071879D01*
X141667105Y-112143492D01*
X141575336Y-112161746D01*
X141483568Y-112180000D01*
X141296432Y-112180000D01*
X141204664Y-112161746D01*
X141112895Y-112143492D01*
X140940006Y-112071879D01*
X140784410Y-111967913D01*
X140652087Y-111835590D01*
X140548121Y-111679994D01*
X140476508Y-111507105D01*
X140440000Y-111323567D01*
X140440000Y-111136433D01*
X140476508Y-110952895D01*
X140548121Y-110780006D01*
X140652087Y-110624410D01*
X140784410Y-110492087D01*
X140940006Y-110388121D01*
X141112895Y-110316508D01*
X141204664Y-110298254D01*
X141296432Y-110280000D01*
X141483568Y-110280000D01*
X141575336Y-110298254D01*
G37*
G36*
X118715336Y-110298254D02*
G01*
X118807105Y-110316508D01*
X118979994Y-110388121D01*
X119135590Y-110492087D01*
X119267913Y-110624410D01*
X119371879Y-110780006D01*
X119443492Y-110952895D01*
X119480000Y-111136433D01*
X119480000Y-111323567D01*
X119443492Y-111507105D01*
X119371879Y-111679994D01*
X119267913Y-111835590D01*
X119135590Y-111967913D01*
X118979994Y-112071879D01*
X118807105Y-112143492D01*
X118715336Y-112161746D01*
X118623568Y-112180000D01*
X118436432Y-112180000D01*
X118344664Y-112161746D01*
X118252895Y-112143492D01*
X118080006Y-112071879D01*
X117924410Y-111967913D01*
X117792087Y-111835590D01*
X117688121Y-111679994D01*
X117616508Y-111507105D01*
X117580000Y-111323567D01*
X117580000Y-111136433D01*
X117616508Y-110952895D01*
X117688121Y-110780006D01*
X117792087Y-110624410D01*
X117924410Y-110492087D01*
X118080006Y-110388121D01*
X118252895Y-110316508D01*
X118344664Y-110298254D01*
X118436432Y-110280000D01*
X118623568Y-110280000D01*
X118715336Y-110298254D01*
G37*
G36*
X154275336Y-110298254D02*
G01*
X154367105Y-110316508D01*
X154539994Y-110388121D01*
X154695590Y-110492087D01*
X154827913Y-110624410D01*
X154931879Y-110780006D01*
X155003492Y-110952895D01*
X155040000Y-111136433D01*
X155040000Y-111323567D01*
X155003492Y-111507105D01*
X154931879Y-111679994D01*
X154827913Y-111835590D01*
X154695590Y-111967913D01*
X154539994Y-112071879D01*
X154367105Y-112143492D01*
X154275336Y-112161746D01*
X154183568Y-112180000D01*
X153996432Y-112180000D01*
X153904664Y-112161746D01*
X153812895Y-112143492D01*
X153640006Y-112071879D01*
X153484410Y-111967913D01*
X153352087Y-111835590D01*
X153248121Y-111679994D01*
X153176508Y-111507105D01*
X153140000Y-111323567D01*
X153140000Y-111136433D01*
X153176508Y-110952895D01*
X153248121Y-110780006D01*
X153352087Y-110624410D01*
X153484410Y-110492087D01*
X153640006Y-110388121D01*
X153812895Y-110316508D01*
X153904664Y-110298254D01*
X153996432Y-110280000D01*
X154183568Y-110280000D01*
X154275336Y-110298254D01*
G37*
G36*
X91210000Y-111027000D02*
G01*
X89486000Y-111027000D01*
X89486000Y-109303000D01*
X91210000Y-109303000D01*
X91210000Y-111027000D01*
G37*
G36*
X90599433Y-106796125D02*
G01*
X90599435Y-106796126D01*
X90599436Y-106796126D01*
X90756310Y-106861105D01*
X90897493Y-106955441D01*
X91017559Y-107075507D01*
X91111895Y-107216690D01*
X91176874Y-107373564D01*
X91210000Y-107540100D01*
X91210000Y-107709900D01*
X91176874Y-107876436D01*
X91111895Y-108033310D01*
X91017559Y-108174493D01*
X90897493Y-108294559D01*
X90756310Y-108388895D01*
X90599436Y-108453874D01*
X90599435Y-108453874D01*
X90599433Y-108453875D01*
X90432901Y-108487000D01*
X90263099Y-108487000D01*
X90096567Y-108453875D01*
X90096565Y-108453874D01*
X90096564Y-108453874D01*
X89939690Y-108388895D01*
X89798507Y-108294559D01*
X89678441Y-108174493D01*
X89584105Y-108033310D01*
X89519126Y-107876436D01*
X89486000Y-107709900D01*
X89486000Y-107540100D01*
X89519126Y-107373564D01*
X89584105Y-107216690D01*
X89678441Y-107075507D01*
X89798507Y-106955441D01*
X89939690Y-106861105D01*
X90096564Y-106796126D01*
X90096565Y-106796126D01*
X90096567Y-106796125D01*
X90263099Y-106763000D01*
X90432901Y-106763000D01*
X90599433Y-106796125D01*
G37*
G36*
X90599433Y-104256125D02*
G01*
X90599435Y-104256126D01*
X90599436Y-104256126D01*
X90756310Y-104321105D01*
X90897493Y-104415441D01*
X91017559Y-104535507D01*
X91111895Y-104676690D01*
X91176874Y-104833564D01*
X91210000Y-105000100D01*
X91210000Y-105169900D01*
X91176874Y-105336436D01*
X91111895Y-105493310D01*
X91017559Y-105634493D01*
X90897493Y-105754559D01*
X90756310Y-105848895D01*
X90599436Y-105913874D01*
X90599435Y-105913874D01*
X90599433Y-105913875D01*
X90432901Y-105947000D01*
X90263099Y-105947000D01*
X90096567Y-105913875D01*
X90096565Y-105913874D01*
X90096564Y-105913874D01*
X89939690Y-105848895D01*
X89798507Y-105754559D01*
X89678441Y-105634493D01*
X89584105Y-105493310D01*
X89519126Y-105336436D01*
X89486000Y-105169900D01*
X89486000Y-105000100D01*
X89519126Y-104833564D01*
X89584105Y-104676690D01*
X89678441Y-104535507D01*
X89798507Y-104415441D01*
X89939690Y-104321105D01*
X90096564Y-104256126D01*
X90096565Y-104256126D01*
X90096567Y-104256125D01*
X90263099Y-104223000D01*
X90432901Y-104223000D01*
X90599433Y-104256125D01*
G37*
G36*
X90599433Y-101716125D02*
G01*
X90599435Y-101716126D01*
X90599436Y-101716126D01*
X90756310Y-101781105D01*
X90897493Y-101875441D01*
X91017559Y-101995507D01*
X91111895Y-102136690D01*
X91176874Y-102293564D01*
X91210000Y-102460100D01*
X91210000Y-102629900D01*
X91176874Y-102796436D01*
X91111895Y-102953310D01*
X91017559Y-103094493D01*
X90897493Y-103214559D01*
X90756310Y-103308895D01*
X90599436Y-103373874D01*
X90599435Y-103373874D01*
X90599433Y-103373875D01*
X90432901Y-103407000D01*
X90263099Y-103407000D01*
X90096567Y-103373875D01*
X90096565Y-103373874D01*
X90096564Y-103373874D01*
X89939690Y-103308895D01*
X89798507Y-103214559D01*
X89678441Y-103094493D01*
X89584105Y-102953310D01*
X89519126Y-102796436D01*
X89486000Y-102629900D01*
X89486000Y-102460100D01*
X89519126Y-102293564D01*
X89584105Y-102136690D01*
X89678441Y-101995507D01*
X89798507Y-101875441D01*
X89939690Y-101781105D01*
X90096564Y-101716126D01*
X90096565Y-101716126D01*
X90096567Y-101716125D01*
X90263099Y-101683000D01*
X90432901Y-101683000D01*
X90599433Y-101716125D01*
G37*
G36*
X104477158Y-60278738D02*
G01*
X105086818Y-60531268D01*
X105086820Y-60531269D01*
X105635500Y-60897885D01*
X106102115Y-61364500D01*
X106468732Y-61913182D01*
X106721262Y-62522842D01*
X106850000Y-63170052D01*
X106850000Y-63829948D01*
X106721262Y-64477158D01*
X106470771Y-65081895D01*
X106468731Y-65086820D01*
X106102115Y-65635500D01*
X105635500Y-66102115D01*
X105086820Y-66468731D01*
X105086819Y-66468732D01*
X105086818Y-66468732D01*
X104477158Y-66721262D01*
X103829948Y-66850000D01*
X103170052Y-66850000D01*
X102522842Y-66721262D01*
X101913182Y-66468732D01*
X101913181Y-66468732D01*
X101913180Y-66468731D01*
X101364500Y-66102115D01*
X100897885Y-65635500D01*
X100531269Y-65086820D01*
X100529229Y-65081895D01*
X100278738Y-64477158D01*
X100150000Y-63829948D01*
X100150000Y-63170052D01*
X100278738Y-62522842D01*
X100531268Y-61913182D01*
X100897885Y-61364500D01*
X101364500Y-60897885D01*
X101913180Y-60531269D01*
X101913182Y-60531268D01*
X102522842Y-60278738D01*
X103170052Y-60150000D01*
X103829948Y-60150000D01*
X104477158Y-60278738D01*
G37*
G36*
X162477158Y-60278738D02*
G01*
X163086818Y-60531268D01*
X163086820Y-60531269D01*
X163635500Y-60897885D01*
X164102115Y-61364500D01*
X164468732Y-61913182D01*
X164721262Y-62522842D01*
X164850000Y-63170052D01*
X164850000Y-63829948D01*
X164721262Y-64477158D01*
X164470771Y-65081895D01*
X164468731Y-65086820D01*
X164102115Y-65635500D01*
X163635500Y-66102115D01*
X163086820Y-66468731D01*
X163086819Y-66468732D01*
X163086818Y-66468732D01*
X162477158Y-66721262D01*
X161829948Y-66850000D01*
X161170052Y-66850000D01*
X160522842Y-66721262D01*
X159913182Y-66468732D01*
X159913181Y-66468732D01*
X159913180Y-66468731D01*
X159364500Y-66102115D01*
X158897885Y-65635500D01*
X158531269Y-65086820D01*
X158529229Y-65081895D01*
X158278738Y-64477158D01*
X158150000Y-63829948D01*
X158150000Y-63170052D01*
X158278738Y-62522842D01*
X158531268Y-61913182D01*
X158897885Y-61364500D01*
X159364500Y-60897885D01*
X159913180Y-60531269D01*
X159913182Y-60531268D01*
X160522842Y-60278738D01*
X161170052Y-60150000D01*
X161829948Y-60150000D01*
X162477158Y-60278738D01*
G37*
G36*
X151916000Y-65180000D02*
G01*
X150192000Y-65180000D01*
X150192000Y-63456000D01*
X151916000Y-63456000D01*
X151916000Y-65180000D01*
G37*
G36*
X153845433Y-63489125D02*
G01*
X153845435Y-63489126D01*
X153845436Y-63489126D01*
X154002310Y-63554105D01*
X154143493Y-63648441D01*
X154263559Y-63768507D01*
X154357895Y-63909690D01*
X154386645Y-63979100D01*
X154422875Y-64066567D01*
X154456000Y-64233099D01*
X154456000Y-64402901D01*
X154448137Y-64442433D01*
X154422874Y-64569436D01*
X154357895Y-64726310D01*
X154263559Y-64867493D01*
X154143493Y-64987559D01*
X154002310Y-65081895D01*
X153845436Y-65146874D01*
X153845435Y-65146874D01*
X153845433Y-65146875D01*
X153678901Y-65180000D01*
X153509099Y-65180000D01*
X153342567Y-65146875D01*
X153342565Y-65146874D01*
X153342564Y-65146874D01*
X153185690Y-65081895D01*
X153044507Y-64987559D01*
X152924441Y-64867493D01*
X152830105Y-64726310D01*
X152765126Y-64569436D01*
X152739864Y-64442433D01*
X152732000Y-64402901D01*
X152732000Y-64233099D01*
X152765125Y-64066567D01*
X152801355Y-63979100D01*
X152830105Y-63909690D01*
X152924441Y-63768507D01*
X153044507Y-63648441D01*
X153185690Y-63554105D01*
X153342564Y-63489126D01*
X153342565Y-63489126D01*
X153342567Y-63489125D01*
X153509099Y-63456000D01*
X153678901Y-63456000D01*
X153845433Y-63489125D01*
G37*
G36*
X139470000Y-65053000D02*
G01*
X137746000Y-65053000D01*
X137746000Y-63329000D01*
X139470000Y-63329000D01*
X139470000Y-65053000D01*
G37*
G36*
X141399433Y-63362125D02*
G01*
X141399435Y-63362126D01*
X141399436Y-63362126D01*
X141556310Y-63427105D01*
X141697493Y-63521441D01*
X141817559Y-63641507D01*
X141911895Y-63782690D01*
X141976874Y-63939564D01*
X141976875Y-63939567D01*
X142010000Y-64106099D01*
X142010000Y-64275901D01*
X141977308Y-64440258D01*
X141976874Y-64442436D01*
X141911895Y-64599310D01*
X141817559Y-64740493D01*
X141697493Y-64860559D01*
X141556310Y-64954895D01*
X141399436Y-65019874D01*
X141399435Y-65019874D01*
X141399433Y-65019875D01*
X141232901Y-65053000D01*
X141063099Y-65053000D01*
X140896567Y-65019875D01*
X140896565Y-65019874D01*
X140896564Y-65019874D01*
X140739690Y-64954895D01*
X140598507Y-64860559D01*
X140478441Y-64740493D01*
X140384105Y-64599310D01*
X140319126Y-64442436D01*
X140318693Y-64440258D01*
X140286000Y-64275901D01*
X140286000Y-64106099D01*
X140319125Y-63939567D01*
X140319126Y-63939564D01*
X140384105Y-63782690D01*
X140478441Y-63641507D01*
X140598507Y-63521441D01*
X140739690Y-63427105D01*
X140896564Y-63362126D01*
X140896565Y-63362126D01*
X140896567Y-63362125D01*
X141063099Y-63329000D01*
X141232901Y-63329000D01*
X141399433Y-63362125D01*
G37*
G36*
X128953433Y-63235125D02*
G01*
X128953435Y-63235126D01*
X128953436Y-63235126D01*
X129110310Y-63300105D01*
X129251493Y-63394441D01*
X129371559Y-63514507D01*
X129465895Y-63655690D01*
X129530874Y-63812564D01*
X129530875Y-63812567D01*
X129564000Y-63979099D01*
X129564000Y-64148901D01*
X129538739Y-64275900D01*
X129530874Y-64315436D01*
X129465895Y-64472310D01*
X129371559Y-64613493D01*
X129251493Y-64733559D01*
X129110310Y-64827895D01*
X128953436Y-64892874D01*
X128953435Y-64892874D01*
X128953433Y-64892875D01*
X128786901Y-64926000D01*
X128617099Y-64926000D01*
X128450567Y-64892875D01*
X128450565Y-64892874D01*
X128450564Y-64892874D01*
X128293690Y-64827895D01*
X128152507Y-64733559D01*
X128032441Y-64613493D01*
X127938105Y-64472310D01*
X127873126Y-64315436D01*
X127865262Y-64275900D01*
X127840000Y-64148901D01*
X127840000Y-63979099D01*
X127873125Y-63812567D01*
X127873126Y-63812564D01*
X127938105Y-63655690D01*
X128032441Y-63514507D01*
X128152507Y-63394441D01*
X128293690Y-63300105D01*
X128450564Y-63235126D01*
X128450565Y-63235126D01*
X128450567Y-63235125D01*
X128617099Y-63202000D01*
X128786901Y-63202000D01*
X128953433Y-63235125D01*
G37*
G36*
X127024000Y-64926000D02*
G01*
X125300000Y-64926000D01*
X125300000Y-63202000D01*
X127024000Y-63202000D01*
X127024000Y-64926000D01*
G37*
M02*
