G04 #@! TF.GenerationSoftware,KiCad,Pcbnew,5.1.6-c6e7f7d~87~ubuntu18.04.1*
G04 #@! TF.CreationDate,2021-04-28T11:05:25+02:00*
G04 #@! TF.ProjectId,MSS,4d53532e-6b69-4636-9164-5f7063625858,2.0*
G04 #@! TF.SameCoordinates,Original*
G04 #@! TF.FileFunction,Paste,Top*
G04 #@! TF.FilePolarity,Positive*
%FSLAX46Y46*%
G04 Gerber Fmt 4.6, Leading zero omitted, Abs format (unit mm)*
G04 Created by KiCad (PCBNEW 5.1.6-c6e7f7d~87~ubuntu18.04.1) date 2021-04-28 11:05:25*
%MOMM*%
%LPD*%
G01*
G04 APERTURE LIST*
%ADD10R,0.250000X1.100000*%
%ADD11R,0.600000X0.450000*%
G04 APERTURE END LIST*
G36*
G01*
X96558000Y-106100000D02*
X94298000Y-106100000D01*
G75*
G02*
X93853000Y-105655000I0J445000D01*
G01*
X93853000Y-104765000D01*
G75*
G02*
X94298000Y-104320000I445000J0D01*
G01*
X96558000Y-104320000D01*
G75*
G02*
X97003000Y-104765000I0J-445000D01*
G01*
X97003000Y-105655000D01*
G75*
G02*
X96558000Y-106100000I-445000J0D01*
G01*
G37*
G36*
G01*
X96558000Y-110930000D02*
X94298000Y-110930000D01*
G75*
G02*
X93853000Y-110485000I0J445000D01*
G01*
X93853000Y-109595000D01*
G75*
G02*
X94298000Y-109150000I445000J0D01*
G01*
X96558000Y-109150000D01*
G75*
G02*
X97003000Y-109595000I0J-445000D01*
G01*
X97003000Y-110485000D01*
G75*
G02*
X96558000Y-110930000I-445000J0D01*
G01*
G37*
G36*
G01*
X161748000Y-98614000D02*
X161748000Y-97314000D01*
G75*
G02*
X162098000Y-96964000I350000J0D01*
G01*
X162798000Y-96964000D01*
G75*
G02*
X163148000Y-97314000I0J-350000D01*
G01*
X163148000Y-98614000D01*
G75*
G02*
X162798000Y-98964000I-350000J0D01*
G01*
X162098000Y-98964000D01*
G75*
G02*
X161748000Y-98614000I0J350000D01*
G01*
G37*
G36*
G01*
X161748000Y-107014000D02*
X161748000Y-105714000D01*
G75*
G02*
X162098000Y-105364000I350000J0D01*
G01*
X162798000Y-105364000D01*
G75*
G02*
X163148000Y-105714000I0J-350000D01*
G01*
X163148000Y-107014000D01*
G75*
G02*
X162798000Y-107364000I-350000J0D01*
G01*
X162098000Y-107364000D01*
G75*
G02*
X161748000Y-107014000I0J350000D01*
G01*
G37*
G36*
G01*
X157248000Y-98614000D02*
X157248000Y-97314000D01*
G75*
G02*
X157598000Y-96964000I350000J0D01*
G01*
X158298000Y-96964000D01*
G75*
G02*
X158648000Y-97314000I0J-350000D01*
G01*
X158648000Y-98614000D01*
G75*
G02*
X158298000Y-98964000I-350000J0D01*
G01*
X157598000Y-98964000D01*
G75*
G02*
X157248000Y-98614000I0J350000D01*
G01*
G37*
G36*
G01*
X157248000Y-107014000D02*
X157248000Y-105714000D01*
G75*
G02*
X157598000Y-105364000I350000J0D01*
G01*
X158298000Y-105364000D01*
G75*
G02*
X158648000Y-105714000I0J-350000D01*
G01*
X158648000Y-107014000D01*
G75*
G02*
X158298000Y-107364000I-350000J0D01*
G01*
X157598000Y-107364000D01*
G75*
G02*
X157248000Y-107014000I0J350000D01*
G01*
G37*
G36*
G01*
X99230000Y-83680000D02*
X99230000Y-83180000D01*
G75*
G02*
X99480000Y-82930000I250000J0D01*
G01*
X99980000Y-82930000D01*
G75*
G02*
X100230000Y-83180000I0J-250000D01*
G01*
X100230000Y-83680000D01*
G75*
G02*
X99980000Y-83930000I-250000J0D01*
G01*
X99480000Y-83930000D01*
G75*
G02*
X99230000Y-83680000I0J250000D01*
G01*
G37*
G36*
G01*
X99230000Y-85080000D02*
X99230000Y-84580000D01*
G75*
G02*
X99480000Y-84330000I250000J0D01*
G01*
X99980000Y-84330000D01*
G75*
G02*
X100230000Y-84580000I0J-250000D01*
G01*
X100230000Y-85080000D01*
G75*
G02*
X99980000Y-85330000I-250000J0D01*
G01*
X99480000Y-85330000D01*
G75*
G02*
X99230000Y-85080000I0J250000D01*
G01*
G37*
G36*
G01*
X97230000Y-85080000D02*
X97230000Y-84580000D01*
G75*
G02*
X97480000Y-84330000I250000J0D01*
G01*
X97980000Y-84330000D01*
G75*
G02*
X98230000Y-84580000I0J-250000D01*
G01*
X98230000Y-85080000D01*
G75*
G02*
X97980000Y-85330000I-250000J0D01*
G01*
X97480000Y-85330000D01*
G75*
G02*
X97230000Y-85080000I0J250000D01*
G01*
G37*
G36*
G01*
X97230000Y-83680000D02*
X97230000Y-83180000D01*
G75*
G02*
X97480000Y-82930000I250000J0D01*
G01*
X97980000Y-82930000D01*
G75*
G02*
X98230000Y-83180000I0J-250000D01*
G01*
X98230000Y-83680000D01*
G75*
G02*
X97980000Y-83930000I-250000J0D01*
G01*
X97480000Y-83930000D01*
G75*
G02*
X97230000Y-83680000I0J250000D01*
G01*
G37*
G36*
G01*
X99230000Y-70980000D02*
X99230000Y-70480000D01*
G75*
G02*
X99480000Y-70230000I250000J0D01*
G01*
X99980000Y-70230000D01*
G75*
G02*
X100230000Y-70480000I0J-250000D01*
G01*
X100230000Y-70980000D01*
G75*
G02*
X99980000Y-71230000I-250000J0D01*
G01*
X99480000Y-71230000D01*
G75*
G02*
X99230000Y-70980000I0J250000D01*
G01*
G37*
G36*
G01*
X99230000Y-72380000D02*
X99230000Y-71880000D01*
G75*
G02*
X99480000Y-71630000I250000J0D01*
G01*
X99980000Y-71630000D01*
G75*
G02*
X100230000Y-71880000I0J-250000D01*
G01*
X100230000Y-72380000D01*
G75*
G02*
X99980000Y-72630000I-250000J0D01*
G01*
X99480000Y-72630000D01*
G75*
G02*
X99230000Y-72380000I0J250000D01*
G01*
G37*
G36*
G01*
X97230000Y-72380000D02*
X97230000Y-71880000D01*
G75*
G02*
X97480000Y-71630000I250000J0D01*
G01*
X97980000Y-71630000D01*
G75*
G02*
X98230000Y-71880000I0J-250000D01*
G01*
X98230000Y-72380000D01*
G75*
G02*
X97980000Y-72630000I-250000J0D01*
G01*
X97480000Y-72630000D01*
G75*
G02*
X97230000Y-72380000I0J250000D01*
G01*
G37*
G36*
G01*
X97230000Y-70980000D02*
X97230000Y-70480000D01*
G75*
G02*
X97480000Y-70230000I250000J0D01*
G01*
X97980000Y-70230000D01*
G75*
G02*
X98230000Y-70480000I0J-250000D01*
G01*
X98230000Y-70980000D01*
G75*
G02*
X97980000Y-71230000I-250000J0D01*
G01*
X97480000Y-71230000D01*
G75*
G02*
X97230000Y-70980000I0J250000D01*
G01*
G37*
G36*
G01*
X99230000Y-77330000D02*
X99230000Y-76830000D01*
G75*
G02*
X99480000Y-76580000I250000J0D01*
G01*
X99980000Y-76580000D01*
G75*
G02*
X100230000Y-76830000I0J-250000D01*
G01*
X100230000Y-77330000D01*
G75*
G02*
X99980000Y-77580000I-250000J0D01*
G01*
X99480000Y-77580000D01*
G75*
G02*
X99230000Y-77330000I0J250000D01*
G01*
G37*
G36*
G01*
X99230000Y-78730000D02*
X99230000Y-78230000D01*
G75*
G02*
X99480000Y-77980000I250000J0D01*
G01*
X99980000Y-77980000D01*
G75*
G02*
X100230000Y-78230000I0J-250000D01*
G01*
X100230000Y-78730000D01*
G75*
G02*
X99980000Y-78980000I-250000J0D01*
G01*
X99480000Y-78980000D01*
G75*
G02*
X99230000Y-78730000I0J250000D01*
G01*
G37*
G36*
G01*
X97230000Y-78730000D02*
X97230000Y-78230000D01*
G75*
G02*
X97480000Y-77980000I250000J0D01*
G01*
X97980000Y-77980000D01*
G75*
G02*
X98230000Y-78230000I0J-250000D01*
G01*
X98230000Y-78730000D01*
G75*
G02*
X97980000Y-78980000I-250000J0D01*
G01*
X97480000Y-78980000D01*
G75*
G02*
X97230000Y-78730000I0J250000D01*
G01*
G37*
G36*
G01*
X97230000Y-77330000D02*
X97230000Y-76830000D01*
G75*
G02*
X97480000Y-76580000I250000J0D01*
G01*
X97980000Y-76580000D01*
G75*
G02*
X98230000Y-76830000I0J-250000D01*
G01*
X98230000Y-77330000D01*
G75*
G02*
X97980000Y-77580000I-250000J0D01*
G01*
X97480000Y-77580000D01*
G75*
G02*
X97230000Y-77330000I0J250000D01*
G01*
G37*
G36*
G01*
X99230000Y-90030000D02*
X99230000Y-89530000D01*
G75*
G02*
X99480000Y-89280000I250000J0D01*
G01*
X99980000Y-89280000D01*
G75*
G02*
X100230000Y-89530000I0J-250000D01*
G01*
X100230000Y-90030000D01*
G75*
G02*
X99980000Y-90280000I-250000J0D01*
G01*
X99480000Y-90280000D01*
G75*
G02*
X99230000Y-90030000I0J250000D01*
G01*
G37*
G36*
G01*
X99230000Y-91430000D02*
X99230000Y-90930000D01*
G75*
G02*
X99480000Y-90680000I250000J0D01*
G01*
X99980000Y-90680000D01*
G75*
G02*
X100230000Y-90930000I0J-250000D01*
G01*
X100230000Y-91430000D01*
G75*
G02*
X99980000Y-91680000I-250000J0D01*
G01*
X99480000Y-91680000D01*
G75*
G02*
X99230000Y-91430000I0J250000D01*
G01*
G37*
G36*
G01*
X97230000Y-91430000D02*
X97230000Y-90930000D01*
G75*
G02*
X97480000Y-90680000I250000J0D01*
G01*
X97980000Y-90680000D01*
G75*
G02*
X98230000Y-90930000I0J-250000D01*
G01*
X98230000Y-91430000D01*
G75*
G02*
X97980000Y-91680000I-250000J0D01*
G01*
X97480000Y-91680000D01*
G75*
G02*
X97230000Y-91430000I0J250000D01*
G01*
G37*
G36*
G01*
X97230000Y-90030000D02*
X97230000Y-89530000D01*
G75*
G02*
X97480000Y-89280000I250000J0D01*
G01*
X97980000Y-89280000D01*
G75*
G02*
X98230000Y-89530000I0J-250000D01*
G01*
X98230000Y-90030000D01*
G75*
G02*
X97980000Y-90280000I-250000J0D01*
G01*
X97480000Y-90280000D01*
G75*
G02*
X97230000Y-90030000I0J250000D01*
G01*
G37*
G36*
G01*
X161029000Y-72648250D02*
X161029000Y-71735750D01*
G75*
G02*
X161272750Y-71492000I243750J0D01*
G01*
X161760250Y-71492000D01*
G75*
G02*
X162004000Y-71735750I0J-243750D01*
G01*
X162004000Y-72648250D01*
G75*
G02*
X161760250Y-72892000I-243750J0D01*
G01*
X161272750Y-72892000D01*
G75*
G02*
X161029000Y-72648250I0J243750D01*
G01*
G37*
G36*
G01*
X159154000Y-72648250D02*
X159154000Y-71735750D01*
G75*
G02*
X159397750Y-71492000I243750J0D01*
G01*
X159885250Y-71492000D01*
G75*
G02*
X160129000Y-71735750I0J-243750D01*
G01*
X160129000Y-72648250D01*
G75*
G02*
X159885250Y-72892000I-243750J0D01*
G01*
X159397750Y-72892000D01*
G75*
G02*
X159154000Y-72648250I0J243750D01*
G01*
G37*
G36*
G01*
X152012000Y-83951250D02*
X152012000Y-83038750D01*
G75*
G02*
X152255750Y-82795000I243750J0D01*
G01*
X152743250Y-82795000D01*
G75*
G02*
X152987000Y-83038750I0J-243750D01*
G01*
X152987000Y-83951250D01*
G75*
G02*
X152743250Y-84195000I-243750J0D01*
G01*
X152255750Y-84195000D01*
G75*
G02*
X152012000Y-83951250I0J243750D01*
G01*
G37*
G36*
G01*
X150137000Y-83951250D02*
X150137000Y-83038750D01*
G75*
G02*
X150380750Y-82795000I243750J0D01*
G01*
X150868250Y-82795000D01*
G75*
G02*
X151112000Y-83038750I0J-243750D01*
G01*
X151112000Y-83951250D01*
G75*
G02*
X150868250Y-84195000I-243750J0D01*
G01*
X150380750Y-84195000D01*
G75*
G02*
X150137000Y-83951250I0J243750D01*
G01*
G37*
G36*
G01*
X151955000Y-74157750D02*
X151955000Y-75070250D01*
G75*
G02*
X151711250Y-75314000I-243750J0D01*
G01*
X151223750Y-75314000D01*
G75*
G02*
X150980000Y-75070250I0J243750D01*
G01*
X150980000Y-74157750D01*
G75*
G02*
X151223750Y-73914000I243750J0D01*
G01*
X151711250Y-73914000D01*
G75*
G02*
X151955000Y-74157750I0J-243750D01*
G01*
G37*
G36*
G01*
X153830000Y-74157750D02*
X153830000Y-75070250D01*
G75*
G02*
X153586250Y-75314000I-243750J0D01*
G01*
X153098750Y-75314000D01*
G75*
G02*
X152855000Y-75070250I0J243750D01*
G01*
X152855000Y-74157750D01*
G75*
G02*
X153098750Y-73914000I243750J0D01*
G01*
X153586250Y-73914000D01*
G75*
G02*
X153830000Y-74157750I0J-243750D01*
G01*
G37*
G36*
G01*
X139566000Y-83951250D02*
X139566000Y-83038750D01*
G75*
G02*
X139809750Y-82795000I243750J0D01*
G01*
X140297250Y-82795000D01*
G75*
G02*
X140541000Y-83038750I0J-243750D01*
G01*
X140541000Y-83951250D01*
G75*
G02*
X140297250Y-84195000I-243750J0D01*
G01*
X139809750Y-84195000D01*
G75*
G02*
X139566000Y-83951250I0J243750D01*
G01*
G37*
G36*
G01*
X137691000Y-83951250D02*
X137691000Y-83038750D01*
G75*
G02*
X137934750Y-82795000I243750J0D01*
G01*
X138422250Y-82795000D01*
G75*
G02*
X138666000Y-83038750I0J-243750D01*
G01*
X138666000Y-83951250D01*
G75*
G02*
X138422250Y-84195000I-243750J0D01*
G01*
X137934750Y-84195000D01*
G75*
G02*
X137691000Y-83951250I0J243750D01*
G01*
G37*
G36*
G01*
X139455000Y-74157750D02*
X139455000Y-75070250D01*
G75*
G02*
X139211250Y-75314000I-243750J0D01*
G01*
X138723750Y-75314000D01*
G75*
G02*
X138480000Y-75070250I0J243750D01*
G01*
X138480000Y-74157750D01*
G75*
G02*
X138723750Y-73914000I243750J0D01*
G01*
X139211250Y-73914000D01*
G75*
G02*
X139455000Y-74157750I0J-243750D01*
G01*
G37*
G36*
G01*
X141330000Y-74157750D02*
X141330000Y-75070250D01*
G75*
G02*
X141086250Y-75314000I-243750J0D01*
G01*
X140598750Y-75314000D01*
G75*
G02*
X140355000Y-75070250I0J243750D01*
G01*
X140355000Y-74157750D01*
G75*
G02*
X140598750Y-73914000I243750J0D01*
G01*
X141086250Y-73914000D01*
G75*
G02*
X141330000Y-74157750I0J-243750D01*
G01*
G37*
G36*
G01*
X127120000Y-83951250D02*
X127120000Y-83038750D01*
G75*
G02*
X127363750Y-82795000I243750J0D01*
G01*
X127851250Y-82795000D01*
G75*
G02*
X128095000Y-83038750I0J-243750D01*
G01*
X128095000Y-83951250D01*
G75*
G02*
X127851250Y-84195000I-243750J0D01*
G01*
X127363750Y-84195000D01*
G75*
G02*
X127120000Y-83951250I0J243750D01*
G01*
G37*
G36*
G01*
X125245000Y-83951250D02*
X125245000Y-83038750D01*
G75*
G02*
X125488750Y-82795000I243750J0D01*
G01*
X125976250Y-82795000D01*
G75*
G02*
X126220000Y-83038750I0J-243750D01*
G01*
X126220000Y-83951250D01*
G75*
G02*
X125976250Y-84195000I-243750J0D01*
G01*
X125488750Y-84195000D01*
G75*
G02*
X125245000Y-83951250I0J243750D01*
G01*
G37*
G36*
G01*
X126955000Y-74157750D02*
X126955000Y-75070250D01*
G75*
G02*
X126711250Y-75314000I-243750J0D01*
G01*
X126223750Y-75314000D01*
G75*
G02*
X125980000Y-75070250I0J243750D01*
G01*
X125980000Y-74157750D01*
G75*
G02*
X126223750Y-73914000I243750J0D01*
G01*
X126711250Y-73914000D01*
G75*
G02*
X126955000Y-74157750I0J-243750D01*
G01*
G37*
G36*
G01*
X128830000Y-74157750D02*
X128830000Y-75070250D01*
G75*
G02*
X128586250Y-75314000I-243750J0D01*
G01*
X128098750Y-75314000D01*
G75*
G02*
X127855000Y-75070250I0J243750D01*
G01*
X127855000Y-74157750D01*
G75*
G02*
X128098750Y-73914000I243750J0D01*
G01*
X128586250Y-73914000D01*
G75*
G02*
X128830000Y-74157750I0J-243750D01*
G01*
G37*
G36*
G01*
X160129000Y-76307750D02*
X160129000Y-77220250D01*
G75*
G02*
X159885250Y-77464000I-243750J0D01*
G01*
X159397750Y-77464000D01*
G75*
G02*
X159154000Y-77220250I0J243750D01*
G01*
X159154000Y-76307750D01*
G75*
G02*
X159397750Y-76064000I243750J0D01*
G01*
X159885250Y-76064000D01*
G75*
G02*
X160129000Y-76307750I0J-243750D01*
G01*
G37*
G36*
G01*
X162004000Y-76307750D02*
X162004000Y-77220250D01*
G75*
G02*
X161760250Y-77464000I-243750J0D01*
G01*
X161272750Y-77464000D01*
G75*
G02*
X161029000Y-77220250I0J243750D01*
G01*
X161029000Y-76307750D01*
G75*
G02*
X161272750Y-76064000I243750J0D01*
G01*
X161760250Y-76064000D01*
G75*
G02*
X162004000Y-76307750I0J-243750D01*
G01*
G37*
G36*
G01*
X150494250Y-78981000D02*
X149581750Y-78981000D01*
G75*
G02*
X149338000Y-78737250I0J243750D01*
G01*
X149338000Y-78249750D01*
G75*
G02*
X149581750Y-78006000I243750J0D01*
G01*
X150494250Y-78006000D01*
G75*
G02*
X150738000Y-78249750I0J-243750D01*
G01*
X150738000Y-78737250D01*
G75*
G02*
X150494250Y-78981000I-243750J0D01*
G01*
G37*
G36*
G01*
X150494250Y-80856000D02*
X149581750Y-80856000D01*
G75*
G02*
X149338000Y-80612250I0J243750D01*
G01*
X149338000Y-80124750D01*
G75*
G02*
X149581750Y-79881000I243750J0D01*
G01*
X150494250Y-79881000D01*
G75*
G02*
X150738000Y-80124750I0J-243750D01*
G01*
X150738000Y-80612250D01*
G75*
G02*
X150494250Y-80856000I-243750J0D01*
G01*
G37*
G36*
G01*
X154552000Y-69854250D02*
X154552000Y-68941750D01*
G75*
G02*
X154795750Y-68698000I243750J0D01*
G01*
X155283250Y-68698000D01*
G75*
G02*
X155527000Y-68941750I0J-243750D01*
G01*
X155527000Y-69854250D01*
G75*
G02*
X155283250Y-70098000I-243750J0D01*
G01*
X154795750Y-70098000D01*
G75*
G02*
X154552000Y-69854250I0J243750D01*
G01*
G37*
G36*
G01*
X152677000Y-69854250D02*
X152677000Y-68941750D01*
G75*
G02*
X152920750Y-68698000I243750J0D01*
G01*
X153408250Y-68698000D01*
G75*
G02*
X153652000Y-68941750I0J-243750D01*
G01*
X153652000Y-69854250D01*
G75*
G02*
X153408250Y-70098000I-243750J0D01*
G01*
X152920750Y-70098000D01*
G75*
G02*
X152677000Y-69854250I0J243750D01*
G01*
G37*
G36*
G01*
X150223000Y-68941750D02*
X150223000Y-69854250D01*
G75*
G02*
X149979250Y-70098000I-243750J0D01*
G01*
X149491750Y-70098000D01*
G75*
G02*
X149248000Y-69854250I0J243750D01*
G01*
X149248000Y-68941750D01*
G75*
G02*
X149491750Y-68698000I243750J0D01*
G01*
X149979250Y-68698000D01*
G75*
G02*
X150223000Y-68941750I0J-243750D01*
G01*
G37*
G36*
G01*
X152098000Y-68941750D02*
X152098000Y-69854250D01*
G75*
G02*
X151854250Y-70098000I-243750J0D01*
G01*
X151366750Y-70098000D01*
G75*
G02*
X151123000Y-69854250I0J243750D01*
G01*
X151123000Y-68941750D01*
G75*
G02*
X151366750Y-68698000I243750J0D01*
G01*
X151854250Y-68698000D01*
G75*
G02*
X152098000Y-68941750I0J-243750D01*
G01*
G37*
G36*
G01*
X155161250Y-71664000D02*
X154248750Y-71664000D01*
G75*
G02*
X154005000Y-71420250I0J243750D01*
G01*
X154005000Y-70932750D01*
G75*
G02*
X154248750Y-70689000I243750J0D01*
G01*
X155161250Y-70689000D01*
G75*
G02*
X155405000Y-70932750I0J-243750D01*
G01*
X155405000Y-71420250D01*
G75*
G02*
X155161250Y-71664000I-243750J0D01*
G01*
G37*
G36*
G01*
X155161250Y-73539000D02*
X154248750Y-73539000D01*
G75*
G02*
X154005000Y-73295250I0J243750D01*
G01*
X154005000Y-72807750D01*
G75*
G02*
X154248750Y-72564000I243750J0D01*
G01*
X155161250Y-72564000D01*
G75*
G02*
X155405000Y-72807750I0J-243750D01*
G01*
X155405000Y-73295250D01*
G75*
G02*
X155161250Y-73539000I-243750J0D01*
G01*
G37*
G36*
G01*
X150561250Y-71664000D02*
X149648750Y-71664000D01*
G75*
G02*
X149405000Y-71420250I0J243750D01*
G01*
X149405000Y-70932750D01*
G75*
G02*
X149648750Y-70689000I243750J0D01*
G01*
X150561250Y-70689000D01*
G75*
G02*
X150805000Y-70932750I0J-243750D01*
G01*
X150805000Y-71420250D01*
G75*
G02*
X150561250Y-71664000I-243750J0D01*
G01*
G37*
G36*
G01*
X150561250Y-73539000D02*
X149648750Y-73539000D01*
G75*
G02*
X149405000Y-73295250I0J243750D01*
G01*
X149405000Y-72807750D01*
G75*
G02*
X149648750Y-72564000I243750J0D01*
G01*
X150561250Y-72564000D01*
G75*
G02*
X150805000Y-72807750I0J-243750D01*
G01*
X150805000Y-73295250D01*
G75*
G02*
X150561250Y-73539000I-243750J0D01*
G01*
G37*
G36*
G01*
X138048250Y-78981000D02*
X137135750Y-78981000D01*
G75*
G02*
X136892000Y-78737250I0J243750D01*
G01*
X136892000Y-78249750D01*
G75*
G02*
X137135750Y-78006000I243750J0D01*
G01*
X138048250Y-78006000D01*
G75*
G02*
X138292000Y-78249750I0J-243750D01*
G01*
X138292000Y-78737250D01*
G75*
G02*
X138048250Y-78981000I-243750J0D01*
G01*
G37*
G36*
G01*
X138048250Y-80856000D02*
X137135750Y-80856000D01*
G75*
G02*
X136892000Y-80612250I0J243750D01*
G01*
X136892000Y-80124750D01*
G75*
G02*
X137135750Y-79881000I243750J0D01*
G01*
X138048250Y-79881000D01*
G75*
G02*
X138292000Y-80124750I0J-243750D01*
G01*
X138292000Y-80612250D01*
G75*
G02*
X138048250Y-80856000I-243750J0D01*
G01*
G37*
G36*
G01*
X142106000Y-69854250D02*
X142106000Y-68941750D01*
G75*
G02*
X142349750Y-68698000I243750J0D01*
G01*
X142837250Y-68698000D01*
G75*
G02*
X143081000Y-68941750I0J-243750D01*
G01*
X143081000Y-69854250D01*
G75*
G02*
X142837250Y-70098000I-243750J0D01*
G01*
X142349750Y-70098000D01*
G75*
G02*
X142106000Y-69854250I0J243750D01*
G01*
G37*
G36*
G01*
X140231000Y-69854250D02*
X140231000Y-68941750D01*
G75*
G02*
X140474750Y-68698000I243750J0D01*
G01*
X140962250Y-68698000D01*
G75*
G02*
X141206000Y-68941750I0J-243750D01*
G01*
X141206000Y-69854250D01*
G75*
G02*
X140962250Y-70098000I-243750J0D01*
G01*
X140474750Y-70098000D01*
G75*
G02*
X140231000Y-69854250I0J243750D01*
G01*
G37*
G36*
G01*
X137777000Y-68941750D02*
X137777000Y-69854250D01*
G75*
G02*
X137533250Y-70098000I-243750J0D01*
G01*
X137045750Y-70098000D01*
G75*
G02*
X136802000Y-69854250I0J243750D01*
G01*
X136802000Y-68941750D01*
G75*
G02*
X137045750Y-68698000I243750J0D01*
G01*
X137533250Y-68698000D01*
G75*
G02*
X137777000Y-68941750I0J-243750D01*
G01*
G37*
G36*
G01*
X139652000Y-68941750D02*
X139652000Y-69854250D01*
G75*
G02*
X139408250Y-70098000I-243750J0D01*
G01*
X138920750Y-70098000D01*
G75*
G02*
X138677000Y-69854250I0J243750D01*
G01*
X138677000Y-68941750D01*
G75*
G02*
X138920750Y-68698000I243750J0D01*
G01*
X139408250Y-68698000D01*
G75*
G02*
X139652000Y-68941750I0J-243750D01*
G01*
G37*
G36*
G01*
X142661250Y-71664000D02*
X141748750Y-71664000D01*
G75*
G02*
X141505000Y-71420250I0J243750D01*
G01*
X141505000Y-70932750D01*
G75*
G02*
X141748750Y-70689000I243750J0D01*
G01*
X142661250Y-70689000D01*
G75*
G02*
X142905000Y-70932750I0J-243750D01*
G01*
X142905000Y-71420250D01*
G75*
G02*
X142661250Y-71664000I-243750J0D01*
G01*
G37*
G36*
G01*
X142661250Y-73539000D02*
X141748750Y-73539000D01*
G75*
G02*
X141505000Y-73295250I0J243750D01*
G01*
X141505000Y-72807750D01*
G75*
G02*
X141748750Y-72564000I243750J0D01*
G01*
X142661250Y-72564000D01*
G75*
G02*
X142905000Y-72807750I0J-243750D01*
G01*
X142905000Y-73295250D01*
G75*
G02*
X142661250Y-73539000I-243750J0D01*
G01*
G37*
G36*
G01*
X138061250Y-71664000D02*
X137148750Y-71664000D01*
G75*
G02*
X136905000Y-71420250I0J243750D01*
G01*
X136905000Y-70932750D01*
G75*
G02*
X137148750Y-70689000I243750J0D01*
G01*
X138061250Y-70689000D01*
G75*
G02*
X138305000Y-70932750I0J-243750D01*
G01*
X138305000Y-71420250D01*
G75*
G02*
X138061250Y-71664000I-243750J0D01*
G01*
G37*
G36*
G01*
X138061250Y-73539000D02*
X137148750Y-73539000D01*
G75*
G02*
X136905000Y-73295250I0J243750D01*
G01*
X136905000Y-72807750D01*
G75*
G02*
X137148750Y-72564000I243750J0D01*
G01*
X138061250Y-72564000D01*
G75*
G02*
X138305000Y-72807750I0J-243750D01*
G01*
X138305000Y-73295250D01*
G75*
G02*
X138061250Y-73539000I-243750J0D01*
G01*
G37*
G36*
G01*
X125602250Y-78981000D02*
X124689750Y-78981000D01*
G75*
G02*
X124446000Y-78737250I0J243750D01*
G01*
X124446000Y-78249750D01*
G75*
G02*
X124689750Y-78006000I243750J0D01*
G01*
X125602250Y-78006000D01*
G75*
G02*
X125846000Y-78249750I0J-243750D01*
G01*
X125846000Y-78737250D01*
G75*
G02*
X125602250Y-78981000I-243750J0D01*
G01*
G37*
G36*
G01*
X125602250Y-80856000D02*
X124689750Y-80856000D01*
G75*
G02*
X124446000Y-80612250I0J243750D01*
G01*
X124446000Y-80124750D01*
G75*
G02*
X124689750Y-79881000I243750J0D01*
G01*
X125602250Y-79881000D01*
G75*
G02*
X125846000Y-80124750I0J-243750D01*
G01*
X125846000Y-80612250D01*
G75*
G02*
X125602250Y-80856000I-243750J0D01*
G01*
G37*
G36*
G01*
X129533000Y-69870250D02*
X129533000Y-68957750D01*
G75*
G02*
X129776750Y-68714000I243750J0D01*
G01*
X130264250Y-68714000D01*
G75*
G02*
X130508000Y-68957750I0J-243750D01*
G01*
X130508000Y-69870250D01*
G75*
G02*
X130264250Y-70114000I-243750J0D01*
G01*
X129776750Y-70114000D01*
G75*
G02*
X129533000Y-69870250I0J243750D01*
G01*
G37*
G36*
G01*
X127658000Y-69870250D02*
X127658000Y-68957750D01*
G75*
G02*
X127901750Y-68714000I243750J0D01*
G01*
X128389250Y-68714000D01*
G75*
G02*
X128633000Y-68957750I0J-243750D01*
G01*
X128633000Y-69870250D01*
G75*
G02*
X128389250Y-70114000I-243750J0D01*
G01*
X127901750Y-70114000D01*
G75*
G02*
X127658000Y-69870250I0J243750D01*
G01*
G37*
G36*
G01*
X125204000Y-68957750D02*
X125204000Y-69870250D01*
G75*
G02*
X124960250Y-70114000I-243750J0D01*
G01*
X124472750Y-70114000D01*
G75*
G02*
X124229000Y-69870250I0J243750D01*
G01*
X124229000Y-68957750D01*
G75*
G02*
X124472750Y-68714000I243750J0D01*
G01*
X124960250Y-68714000D01*
G75*
G02*
X125204000Y-68957750I0J-243750D01*
G01*
G37*
G36*
G01*
X127079000Y-68957750D02*
X127079000Y-69870250D01*
G75*
G02*
X126835250Y-70114000I-243750J0D01*
G01*
X126347750Y-70114000D01*
G75*
G02*
X126104000Y-69870250I0J243750D01*
G01*
X126104000Y-68957750D01*
G75*
G02*
X126347750Y-68714000I243750J0D01*
G01*
X126835250Y-68714000D01*
G75*
G02*
X127079000Y-68957750I0J-243750D01*
G01*
G37*
G36*
G01*
X130161250Y-71664000D02*
X129248750Y-71664000D01*
G75*
G02*
X129005000Y-71420250I0J243750D01*
G01*
X129005000Y-70932750D01*
G75*
G02*
X129248750Y-70689000I243750J0D01*
G01*
X130161250Y-70689000D01*
G75*
G02*
X130405000Y-70932750I0J-243750D01*
G01*
X130405000Y-71420250D01*
G75*
G02*
X130161250Y-71664000I-243750J0D01*
G01*
G37*
G36*
G01*
X130161250Y-73539000D02*
X129248750Y-73539000D01*
G75*
G02*
X129005000Y-73295250I0J243750D01*
G01*
X129005000Y-72807750D01*
G75*
G02*
X129248750Y-72564000I243750J0D01*
G01*
X130161250Y-72564000D01*
G75*
G02*
X130405000Y-72807750I0J-243750D01*
G01*
X130405000Y-73295250D01*
G75*
G02*
X130161250Y-73539000I-243750J0D01*
G01*
G37*
G36*
G01*
X125561250Y-71664000D02*
X124648750Y-71664000D01*
G75*
G02*
X124405000Y-71420250I0J243750D01*
G01*
X124405000Y-70932750D01*
G75*
G02*
X124648750Y-70689000I243750J0D01*
G01*
X125561250Y-70689000D01*
G75*
G02*
X125805000Y-70932750I0J-243750D01*
G01*
X125805000Y-71420250D01*
G75*
G02*
X125561250Y-71664000I-243750J0D01*
G01*
G37*
G36*
G01*
X125561250Y-73539000D02*
X124648750Y-73539000D01*
G75*
G02*
X124405000Y-73295250I0J243750D01*
G01*
X124405000Y-72807750D01*
G75*
G02*
X124648750Y-72564000I243750J0D01*
G01*
X125561250Y-72564000D01*
G75*
G02*
X125805000Y-72807750I0J-243750D01*
G01*
X125805000Y-73295250D01*
G75*
G02*
X125561250Y-73539000I-243750J0D01*
G01*
G37*
G36*
G01*
X102725000Y-82403750D02*
X102725000Y-83316250D01*
G75*
G02*
X102481250Y-83560000I-243750J0D01*
G01*
X101993750Y-83560000D01*
G75*
G02*
X101750000Y-83316250I0J243750D01*
G01*
X101750000Y-82403750D01*
G75*
G02*
X101993750Y-82160000I243750J0D01*
G01*
X102481250Y-82160000D01*
G75*
G02*
X102725000Y-82403750I0J-243750D01*
G01*
G37*
G36*
G01*
X104600000Y-82403750D02*
X104600000Y-83316250D01*
G75*
G02*
X104356250Y-83560000I-243750J0D01*
G01*
X103868750Y-83560000D01*
G75*
G02*
X103625000Y-83316250I0J243750D01*
G01*
X103625000Y-82403750D01*
G75*
G02*
X103868750Y-82160000I243750J0D01*
G01*
X104356250Y-82160000D01*
G75*
G02*
X104600000Y-82403750I0J-243750D01*
G01*
G37*
G36*
G01*
X102725000Y-84943750D02*
X102725000Y-85856250D01*
G75*
G02*
X102481250Y-86100000I-243750J0D01*
G01*
X101993750Y-86100000D01*
G75*
G02*
X101750000Y-85856250I0J243750D01*
G01*
X101750000Y-84943750D01*
G75*
G02*
X101993750Y-84700000I243750J0D01*
G01*
X102481250Y-84700000D01*
G75*
G02*
X102725000Y-84943750I0J-243750D01*
G01*
G37*
G36*
G01*
X104600000Y-84943750D02*
X104600000Y-85856250D01*
G75*
G02*
X104356250Y-86100000I-243750J0D01*
G01*
X103868750Y-86100000D01*
G75*
G02*
X103625000Y-85856250I0J243750D01*
G01*
X103625000Y-84943750D01*
G75*
G02*
X103868750Y-84700000I243750J0D01*
G01*
X104356250Y-84700000D01*
G75*
G02*
X104600000Y-84943750I0J-243750D01*
G01*
G37*
G36*
G01*
X102725000Y-69703750D02*
X102725000Y-70616250D01*
G75*
G02*
X102481250Y-70860000I-243750J0D01*
G01*
X101993750Y-70860000D01*
G75*
G02*
X101750000Y-70616250I0J243750D01*
G01*
X101750000Y-69703750D01*
G75*
G02*
X101993750Y-69460000I243750J0D01*
G01*
X102481250Y-69460000D01*
G75*
G02*
X102725000Y-69703750I0J-243750D01*
G01*
G37*
G36*
G01*
X104600000Y-69703750D02*
X104600000Y-70616250D01*
G75*
G02*
X104356250Y-70860000I-243750J0D01*
G01*
X103868750Y-70860000D01*
G75*
G02*
X103625000Y-70616250I0J243750D01*
G01*
X103625000Y-69703750D01*
G75*
G02*
X103868750Y-69460000I243750J0D01*
G01*
X104356250Y-69460000D01*
G75*
G02*
X104600000Y-69703750I0J-243750D01*
G01*
G37*
G36*
G01*
X102725000Y-72243750D02*
X102725000Y-73156250D01*
G75*
G02*
X102481250Y-73400000I-243750J0D01*
G01*
X101993750Y-73400000D01*
G75*
G02*
X101750000Y-73156250I0J243750D01*
G01*
X101750000Y-72243750D01*
G75*
G02*
X101993750Y-72000000I243750J0D01*
G01*
X102481250Y-72000000D01*
G75*
G02*
X102725000Y-72243750I0J-243750D01*
G01*
G37*
G36*
G01*
X104600000Y-72243750D02*
X104600000Y-73156250D01*
G75*
G02*
X104356250Y-73400000I-243750J0D01*
G01*
X103868750Y-73400000D01*
G75*
G02*
X103625000Y-73156250I0J243750D01*
G01*
X103625000Y-72243750D01*
G75*
G02*
X103868750Y-72000000I243750J0D01*
G01*
X104356250Y-72000000D01*
G75*
G02*
X104600000Y-72243750I0J-243750D01*
G01*
G37*
G36*
G01*
X102725000Y-76053750D02*
X102725000Y-76966250D01*
G75*
G02*
X102481250Y-77210000I-243750J0D01*
G01*
X101993750Y-77210000D01*
G75*
G02*
X101750000Y-76966250I0J243750D01*
G01*
X101750000Y-76053750D01*
G75*
G02*
X101993750Y-75810000I243750J0D01*
G01*
X102481250Y-75810000D01*
G75*
G02*
X102725000Y-76053750I0J-243750D01*
G01*
G37*
G36*
G01*
X104600000Y-76053750D02*
X104600000Y-76966250D01*
G75*
G02*
X104356250Y-77210000I-243750J0D01*
G01*
X103868750Y-77210000D01*
G75*
G02*
X103625000Y-76966250I0J243750D01*
G01*
X103625000Y-76053750D01*
G75*
G02*
X103868750Y-75810000I243750J0D01*
G01*
X104356250Y-75810000D01*
G75*
G02*
X104600000Y-76053750I0J-243750D01*
G01*
G37*
G36*
G01*
X102725000Y-78593750D02*
X102725000Y-79506250D01*
G75*
G02*
X102481250Y-79750000I-243750J0D01*
G01*
X101993750Y-79750000D01*
G75*
G02*
X101750000Y-79506250I0J243750D01*
G01*
X101750000Y-78593750D01*
G75*
G02*
X101993750Y-78350000I243750J0D01*
G01*
X102481250Y-78350000D01*
G75*
G02*
X102725000Y-78593750I0J-243750D01*
G01*
G37*
G36*
G01*
X104600000Y-78593750D02*
X104600000Y-79506250D01*
G75*
G02*
X104356250Y-79750000I-243750J0D01*
G01*
X103868750Y-79750000D01*
G75*
G02*
X103625000Y-79506250I0J243750D01*
G01*
X103625000Y-78593750D01*
G75*
G02*
X103868750Y-78350000I243750J0D01*
G01*
X104356250Y-78350000D01*
G75*
G02*
X104600000Y-78593750I0J-243750D01*
G01*
G37*
G36*
G01*
X102725000Y-88753750D02*
X102725000Y-89666250D01*
G75*
G02*
X102481250Y-89910000I-243750J0D01*
G01*
X101993750Y-89910000D01*
G75*
G02*
X101750000Y-89666250I0J243750D01*
G01*
X101750000Y-88753750D01*
G75*
G02*
X101993750Y-88510000I243750J0D01*
G01*
X102481250Y-88510000D01*
G75*
G02*
X102725000Y-88753750I0J-243750D01*
G01*
G37*
G36*
G01*
X104600000Y-88753750D02*
X104600000Y-89666250D01*
G75*
G02*
X104356250Y-89910000I-243750J0D01*
G01*
X103868750Y-89910000D01*
G75*
G02*
X103625000Y-89666250I0J243750D01*
G01*
X103625000Y-88753750D01*
G75*
G02*
X103868750Y-88510000I243750J0D01*
G01*
X104356250Y-88510000D01*
G75*
G02*
X104600000Y-88753750I0J-243750D01*
G01*
G37*
G36*
G01*
X102725000Y-91293750D02*
X102725000Y-92206250D01*
G75*
G02*
X102481250Y-92450000I-243750J0D01*
G01*
X101993750Y-92450000D01*
G75*
G02*
X101750000Y-92206250I0J243750D01*
G01*
X101750000Y-91293750D01*
G75*
G02*
X101993750Y-91050000I243750J0D01*
G01*
X102481250Y-91050000D01*
G75*
G02*
X102725000Y-91293750I0J-243750D01*
G01*
G37*
G36*
G01*
X104600000Y-91293750D02*
X104600000Y-92206250D01*
G75*
G02*
X104356250Y-92450000I-243750J0D01*
G01*
X103868750Y-92450000D01*
G75*
G02*
X103625000Y-92206250I0J243750D01*
G01*
X103625000Y-91293750D01*
G75*
G02*
X103868750Y-91050000I243750J0D01*
G01*
X104356250Y-91050000D01*
G75*
G02*
X104600000Y-91293750I0J-243750D01*
G01*
G37*
G36*
G01*
X112885000Y-103358750D02*
X112885000Y-104271250D01*
G75*
G02*
X112641250Y-104515000I-243750J0D01*
G01*
X112153750Y-104515000D01*
G75*
G02*
X111910000Y-104271250I0J243750D01*
G01*
X111910000Y-103358750D01*
G75*
G02*
X112153750Y-103115000I243750J0D01*
G01*
X112641250Y-103115000D01*
G75*
G02*
X112885000Y-103358750I0J-243750D01*
G01*
G37*
G36*
G01*
X114760000Y-103358750D02*
X114760000Y-104271250D01*
G75*
G02*
X114516250Y-104515000I-243750J0D01*
G01*
X114028750Y-104515000D01*
G75*
G02*
X113785000Y-104271250I0J243750D01*
G01*
X113785000Y-103358750D01*
G75*
G02*
X114028750Y-103115000I243750J0D01*
G01*
X114516250Y-103115000D01*
G75*
G02*
X114760000Y-103358750I0J-243750D01*
G01*
G37*
G36*
G01*
X109703750Y-105535000D02*
X110616250Y-105535000D01*
G75*
G02*
X110860000Y-105778750I0J-243750D01*
G01*
X110860000Y-106266250D01*
G75*
G02*
X110616250Y-106510000I-243750J0D01*
G01*
X109703750Y-106510000D01*
G75*
G02*
X109460000Y-106266250I0J243750D01*
G01*
X109460000Y-105778750D01*
G75*
G02*
X109703750Y-105535000I243750J0D01*
G01*
G37*
G36*
G01*
X109703750Y-103660000D02*
X110616250Y-103660000D01*
G75*
G02*
X110860000Y-103903750I0J-243750D01*
G01*
X110860000Y-104391250D01*
G75*
G02*
X110616250Y-104635000I-243750J0D01*
G01*
X109703750Y-104635000D01*
G75*
G02*
X109460000Y-104391250I0J243750D01*
G01*
X109460000Y-103903750D01*
G75*
G02*
X109703750Y-103660000I243750J0D01*
G01*
G37*
D10*
X154105000Y-77199000D03*
X153605000Y-77199000D03*
X153105000Y-77199000D03*
X152605000Y-77199000D03*
X152105000Y-77199000D03*
X152105000Y-81499000D03*
X152605000Y-81499000D03*
X153105000Y-81499000D03*
X153605000Y-81499000D03*
X154105000Y-81499000D03*
X141605000Y-77199000D03*
X141105000Y-77199000D03*
X140605000Y-77199000D03*
X140105000Y-77199000D03*
X139605000Y-77199000D03*
X139605000Y-81499000D03*
X140105000Y-81499000D03*
X140605000Y-81499000D03*
X141105000Y-81499000D03*
X141605000Y-81499000D03*
X129105000Y-81499000D03*
X128605000Y-81499000D03*
X128105000Y-81499000D03*
X127605000Y-81499000D03*
X127105000Y-81499000D03*
X127105000Y-77199000D03*
X127605000Y-77199000D03*
X128105000Y-77199000D03*
X128605000Y-77199000D03*
X129105000Y-77199000D03*
G36*
G01*
X106596000Y-106192500D02*
X106596000Y-106517500D01*
G75*
G02*
X106433500Y-106680000I-162500J0D01*
G01*
X105008500Y-106680000D01*
G75*
G02*
X104846000Y-106517500I0J162500D01*
G01*
X104846000Y-106192500D01*
G75*
G02*
X105008500Y-106030000I162500J0D01*
G01*
X106433500Y-106030000D01*
G75*
G02*
X106596000Y-106192500I0J-162500D01*
G01*
G37*
G36*
G01*
X106596000Y-104922500D02*
X106596000Y-105247500D01*
G75*
G02*
X106433500Y-105410000I-162500J0D01*
G01*
X105008500Y-105410000D01*
G75*
G02*
X104846000Y-105247500I0J162500D01*
G01*
X104846000Y-104922500D01*
G75*
G02*
X105008500Y-104760000I162500J0D01*
G01*
X106433500Y-104760000D01*
G75*
G02*
X106596000Y-104922500I0J-162500D01*
G01*
G37*
G36*
G01*
X106596000Y-103652500D02*
X106596000Y-103977500D01*
G75*
G02*
X106433500Y-104140000I-162500J0D01*
G01*
X105008500Y-104140000D01*
G75*
G02*
X104846000Y-103977500I0J162500D01*
G01*
X104846000Y-103652500D01*
G75*
G02*
X105008500Y-103490000I162500J0D01*
G01*
X106433500Y-103490000D01*
G75*
G02*
X106596000Y-103652500I0J-162500D01*
G01*
G37*
G36*
G01*
X106596000Y-102382500D02*
X106596000Y-102707500D01*
G75*
G02*
X106433500Y-102870000I-162500J0D01*
G01*
X105008500Y-102870000D01*
G75*
G02*
X104846000Y-102707500I0J162500D01*
G01*
X104846000Y-102382500D01*
G75*
G02*
X105008500Y-102220000I162500J0D01*
G01*
X106433500Y-102220000D01*
G75*
G02*
X106596000Y-102382500I0J-162500D01*
G01*
G37*
G36*
G01*
X100996000Y-102382500D02*
X100996000Y-102707500D01*
G75*
G02*
X100833500Y-102870000I-162500J0D01*
G01*
X99408500Y-102870000D01*
G75*
G02*
X99246000Y-102707500I0J162500D01*
G01*
X99246000Y-102382500D01*
G75*
G02*
X99408500Y-102220000I162500J0D01*
G01*
X100833500Y-102220000D01*
G75*
G02*
X100996000Y-102382500I0J-162500D01*
G01*
G37*
G36*
G01*
X100996000Y-103652500D02*
X100996000Y-103977500D01*
G75*
G02*
X100833500Y-104140000I-162500J0D01*
G01*
X99408500Y-104140000D01*
G75*
G02*
X99246000Y-103977500I0J162500D01*
G01*
X99246000Y-103652500D01*
G75*
G02*
X99408500Y-103490000I162500J0D01*
G01*
X100833500Y-103490000D01*
G75*
G02*
X100996000Y-103652500I0J-162500D01*
G01*
G37*
G36*
G01*
X100996000Y-104922500D02*
X100996000Y-105247500D01*
G75*
G02*
X100833500Y-105410000I-162500J0D01*
G01*
X99408500Y-105410000D01*
G75*
G02*
X99246000Y-105247500I0J162500D01*
G01*
X99246000Y-104922500D01*
G75*
G02*
X99408500Y-104760000I162500J0D01*
G01*
X100833500Y-104760000D01*
G75*
G02*
X100996000Y-104922500I0J-162500D01*
G01*
G37*
G36*
G01*
X100996000Y-106192500D02*
X100996000Y-106517500D01*
G75*
G02*
X100833500Y-106680000I-162500J0D01*
G01*
X99408500Y-106680000D01*
G75*
G02*
X99246000Y-106517500I0J162500D01*
G01*
X99246000Y-106192500D01*
G75*
G02*
X99408500Y-106030000I162500J0D01*
G01*
X100833500Y-106030000D01*
G75*
G02*
X100996000Y-106192500I0J-162500D01*
G01*
G37*
D11*
X159529000Y-74478000D03*
X161629000Y-74478000D03*
M02*
