G04 #@! TF.GenerationSoftware,KiCad,Pcbnew,5.1.6-c6e7f7d~87~ubuntu18.04.1*
G04 #@! TF.CreationDate,2021-04-28T11:05:25+02:00*
G04 #@! TF.ProjectId,MSS,4d53532e-6b69-4636-9164-5f7063625858,2.0*
G04 #@! TF.SameCoordinates,Original*
G04 #@! TF.FileFunction,OtherDrawing,Comment*
%FSLAX46Y46*%
G04 Gerber Fmt 4.6, Leading zero omitted, Abs format (unit mm)*
G04 Created by KiCad (PCBNEW 5.1.6-c6e7f7d~87~ubuntu18.04.1) date 2021-04-28 11:05:25*
%MOMM*%
%LPD*%
G01*
G04 APERTURE LIST*
%ADD10C,0.150000*%
%ADD11C,0.120000*%
G04 APERTURE END LIST*
D10*
X171110380Y-91622547D02*
X171110380Y-92098738D01*
X171586571Y-92146357D01*
X171538952Y-92098738D01*
X171491333Y-92003500D01*
X171491333Y-91765404D01*
X171538952Y-91670166D01*
X171586571Y-91622547D01*
X171681809Y-91574928D01*
X171919904Y-91574928D01*
X172015142Y-91622547D01*
X172062761Y-91670166D01*
X172110380Y-91765404D01*
X172110380Y-92003500D01*
X172062761Y-92098738D01*
X172015142Y-92146357D01*
X171110380Y-90717785D02*
X171110380Y-90908261D01*
X171158000Y-91003500D01*
X171205619Y-91051119D01*
X171348476Y-91146357D01*
X171538952Y-91193976D01*
X171919904Y-91193976D01*
X172015142Y-91146357D01*
X172062761Y-91098738D01*
X172110380Y-91003500D01*
X172110380Y-90813023D01*
X172062761Y-90717785D01*
X172015142Y-90670166D01*
X171919904Y-90622547D01*
X171681809Y-90622547D01*
X171586571Y-90670166D01*
X171538952Y-90717785D01*
X171491333Y-90813023D01*
X171491333Y-91003500D01*
X171538952Y-91098738D01*
X171586571Y-91146357D01*
X171681809Y-91193976D01*
X172062761Y-90146357D02*
X172110380Y-90146357D01*
X172205619Y-90193976D01*
X172253238Y-90241595D01*
X171110380Y-89527309D02*
X171110380Y-89432071D01*
X171158000Y-89336833D01*
X171205619Y-89289214D01*
X171300857Y-89241595D01*
X171491333Y-89193976D01*
X171729428Y-89193976D01*
X171919904Y-89241595D01*
X172015142Y-89289214D01*
X172062761Y-89336833D01*
X172110380Y-89432071D01*
X172110380Y-89527309D01*
X172062761Y-89622547D01*
X172015142Y-89670166D01*
X171919904Y-89717785D01*
X171729428Y-89765404D01*
X171491333Y-89765404D01*
X171300857Y-89717785D01*
X171205619Y-89670166D01*
X171158000Y-89622547D01*
X171110380Y-89527309D01*
X171110380Y-88574928D02*
X171110380Y-88479690D01*
X171158000Y-88384452D01*
X171205619Y-88336833D01*
X171300857Y-88289214D01*
X171491333Y-88241595D01*
X171729428Y-88241595D01*
X171919904Y-88289214D01*
X172015142Y-88336833D01*
X172062761Y-88384452D01*
X172110380Y-88479690D01*
X172110380Y-88574928D01*
X172062761Y-88670166D01*
X172015142Y-88717785D01*
X171919904Y-88765404D01*
X171729428Y-88813023D01*
X171491333Y-88813023D01*
X171300857Y-88765404D01*
X171205619Y-88717785D01*
X171158000Y-88670166D01*
X171110380Y-88574928D01*
X171110380Y-87908261D02*
X171110380Y-87241595D01*
X172110380Y-87670166D01*
X172110380Y-86098738D02*
X171443714Y-86098738D01*
X171538952Y-86098738D02*
X171491333Y-86051119D01*
X171443714Y-85955880D01*
X171443714Y-85813023D01*
X171491333Y-85717785D01*
X171586571Y-85670166D01*
X172110380Y-85670166D01*
X171586571Y-85670166D02*
X171491333Y-85622547D01*
X171443714Y-85527309D01*
X171443714Y-85384452D01*
X171491333Y-85289214D01*
X171586571Y-85241595D01*
X172110380Y-85241595D01*
X172110380Y-84765404D02*
X171443714Y-84765404D01*
X171538952Y-84765404D02*
X171491333Y-84717785D01*
X171443714Y-84622547D01*
X171443714Y-84479690D01*
X171491333Y-84384452D01*
X171586571Y-84336833D01*
X172110380Y-84336833D01*
X171586571Y-84336833D02*
X171491333Y-84289214D01*
X171443714Y-84193976D01*
X171443714Y-84051119D01*
X171491333Y-83955880D01*
X171586571Y-83908261D01*
X172110380Y-83908261D01*
X170358000Y-116007000D02*
X170358000Y-60000000D01*
X164897000Y-116007000D02*
X170944421Y-116007000D01*
X164897000Y-60000000D02*
X170944421Y-60000000D01*
X170358000Y-60000000D02*
X170944421Y-61126504D01*
X170358000Y-60000000D02*
X169771579Y-61126504D01*
X170358000Y-116007000D02*
X170944421Y-114880496D01*
X170358000Y-116007000D02*
X169771579Y-114880496D01*
X117447119Y-121124951D02*
X117351880Y-121077332D01*
X117304261Y-121029713D01*
X117256642Y-120934475D01*
X117256642Y-120886856D01*
X117304261Y-120791618D01*
X117351880Y-120743999D01*
X117447119Y-120696379D01*
X117637595Y-120696379D01*
X117732833Y-120743999D01*
X117780452Y-120791618D01*
X117828071Y-120886856D01*
X117828071Y-120934475D01*
X117780452Y-121029713D01*
X117732833Y-121077332D01*
X117637595Y-121124951D01*
X117447119Y-121124951D01*
X117351880Y-121172570D01*
X117304261Y-121220189D01*
X117256642Y-121315427D01*
X117256642Y-121505903D01*
X117304261Y-121601141D01*
X117351880Y-121648760D01*
X117447119Y-121696379D01*
X117637595Y-121696379D01*
X117732833Y-121648760D01*
X117780452Y-121601141D01*
X117828071Y-121505903D01*
X117828071Y-121315427D01*
X117780452Y-121220189D01*
X117732833Y-121172570D01*
X117637595Y-121124951D01*
X118685214Y-120696379D02*
X118494738Y-120696379D01*
X118399500Y-120743999D01*
X118351880Y-120791618D01*
X118256642Y-120934475D01*
X118209023Y-121124951D01*
X118209023Y-121505903D01*
X118256642Y-121601141D01*
X118304261Y-121648760D01*
X118399500Y-121696379D01*
X118589976Y-121696379D01*
X118685214Y-121648760D01*
X118732833Y-121601141D01*
X118780452Y-121505903D01*
X118780452Y-121267808D01*
X118732833Y-121172570D01*
X118685214Y-121124951D01*
X118589976Y-121077332D01*
X118399500Y-121077332D01*
X118304261Y-121124951D01*
X118256642Y-121172570D01*
X118209023Y-121267808D01*
X119256642Y-121648760D02*
X119256642Y-121696379D01*
X119209023Y-121791618D01*
X119161404Y-121839237D01*
X119732833Y-121696379D02*
X119923309Y-121696379D01*
X120018547Y-121648760D01*
X120066166Y-121601141D01*
X120161404Y-121458284D01*
X120209023Y-121267808D01*
X120209023Y-120886856D01*
X120161404Y-120791618D01*
X120113785Y-120743999D01*
X120018547Y-120696379D01*
X119828071Y-120696379D01*
X119732833Y-120743999D01*
X119685214Y-120791618D01*
X119637595Y-120886856D01*
X119637595Y-121124951D01*
X119685214Y-121220189D01*
X119732833Y-121267808D01*
X119828071Y-121315427D01*
X120018547Y-121315427D01*
X120113785Y-121267808D01*
X120161404Y-121220189D01*
X120209023Y-121124951D01*
X120685214Y-121696379D02*
X120875690Y-121696379D01*
X120970928Y-121648760D01*
X121018547Y-121601141D01*
X121113785Y-121458284D01*
X121161404Y-121267808D01*
X121161404Y-120886856D01*
X121113785Y-120791618D01*
X121066166Y-120743999D01*
X120970928Y-120696379D01*
X120780452Y-120696379D01*
X120685214Y-120743999D01*
X120637595Y-120791618D01*
X120589976Y-120886856D01*
X120589976Y-121124951D01*
X120637595Y-121220189D01*
X120685214Y-121267808D01*
X120780452Y-121315427D01*
X120970928Y-121315427D01*
X121066166Y-121267808D01*
X121113785Y-121220189D01*
X121161404Y-121124951D01*
X122066166Y-120696379D02*
X121589976Y-120696379D01*
X121542357Y-121172570D01*
X121589976Y-121124951D01*
X121685214Y-121077332D01*
X121923309Y-121077332D01*
X122018547Y-121124951D01*
X122066166Y-121172570D01*
X122113785Y-121267808D01*
X122113785Y-121505903D01*
X122066166Y-121601141D01*
X122018547Y-121648760D01*
X121923309Y-121696379D01*
X121685214Y-121696379D01*
X121589976Y-121648760D01*
X121542357Y-121601141D01*
X123304261Y-121696379D02*
X123304261Y-121029713D01*
X123304261Y-121124951D02*
X123351880Y-121077332D01*
X123447119Y-121029713D01*
X123589976Y-121029713D01*
X123685214Y-121077332D01*
X123732833Y-121172570D01*
X123732833Y-121696379D01*
X123732833Y-121172570D02*
X123780452Y-121077332D01*
X123875690Y-121029713D01*
X124018547Y-121029713D01*
X124113785Y-121077332D01*
X124161404Y-121172570D01*
X124161404Y-121696379D01*
X124637595Y-121696379D02*
X124637595Y-121029713D01*
X124637595Y-121124951D02*
X124685214Y-121077332D01*
X124780452Y-121029713D01*
X124923309Y-121029713D01*
X125018547Y-121077332D01*
X125066166Y-121172570D01*
X125066166Y-121696379D01*
X125066166Y-121172570D02*
X125113785Y-121077332D01*
X125209023Y-121029713D01*
X125351880Y-121029713D01*
X125447119Y-121077332D01*
X125494738Y-121172570D01*
X125494738Y-121696379D01*
X77902000Y-119943999D02*
X164897000Y-119943999D01*
X77902000Y-116007000D02*
X77902000Y-120530420D01*
X164897000Y-116007000D02*
X164897000Y-120530420D01*
X164897000Y-119943999D02*
X163770496Y-120530420D01*
X164897000Y-119943999D02*
X163770496Y-119357578D01*
X77902000Y-119943999D02*
X79028504Y-120530420D01*
X77902000Y-119943999D02*
X79028504Y-119357578D01*
D11*
X80348000Y-113855000D02*
X91348000Y-113855000D01*
X80348000Y-98855000D02*
X80348000Y-113855000D01*
X91348000Y-98855000D02*
X80348000Y-98855000D01*
X91348000Y-113855000D02*
X91348000Y-98855000D01*
M02*
