G04 #@! TF.GenerationSoftware,KiCad,Pcbnew,5.1.6-c6e7f7d~87~ubuntu18.04.1*
G04 #@! TF.CreationDate,2021-04-28T11:05:25+02:00*
G04 #@! TF.ProjectId,MSS,4d53532e-6b69-4636-9164-5f7063625858,2.0*
G04 #@! TF.SameCoordinates,Original*
G04 #@! TF.FileFunction,Soldermask,Top*
G04 #@! TF.FilePolarity,Negative*
%FSLAX46Y46*%
G04 Gerber Fmt 4.6, Leading zero omitted, Abs format (unit mm)*
G04 Created by KiCad (PCBNEW 5.1.6-c6e7f7d~87~ubuntu18.04.1) date 2021-04-28 11:05:25*
%MOMM*%
%LPD*%
G01*
G04 APERTURE LIST*
%ADD10C,0.100000*%
G04 APERTURE END LIST*
D10*
G36*
X162477158Y-109278738D02*
G01*
X162983905Y-109488640D01*
X163086820Y-109531269D01*
X163635500Y-109897885D01*
X164102115Y-110364500D01*
X164449914Y-110885018D01*
X164468732Y-110913182D01*
X164721262Y-111522842D01*
X164850000Y-112170052D01*
X164850000Y-112829948D01*
X164721262Y-113477158D01*
X164485182Y-114047104D01*
X164468731Y-114086820D01*
X164102115Y-114635500D01*
X163635500Y-115102115D01*
X163086820Y-115468731D01*
X163086819Y-115468732D01*
X163086818Y-115468732D01*
X162477158Y-115721262D01*
X161829948Y-115850000D01*
X161170052Y-115850000D01*
X160522842Y-115721262D01*
X159913182Y-115468732D01*
X159913181Y-115468732D01*
X159913180Y-115468731D01*
X159364500Y-115102115D01*
X158897885Y-114635500D01*
X158531269Y-114086820D01*
X158514818Y-114047104D01*
X158278738Y-113477158D01*
X158150000Y-112829948D01*
X158150000Y-112170052D01*
X158278738Y-111522842D01*
X158531268Y-110913182D01*
X158550087Y-110885018D01*
X158897885Y-110364500D01*
X159364500Y-109897885D01*
X159913180Y-109531269D01*
X160016095Y-109488640D01*
X160522842Y-109278738D01*
X161170052Y-109150000D01*
X161829948Y-109150000D01*
X162477158Y-109278738D01*
G37*
G36*
X104477158Y-109278738D02*
G01*
X104983905Y-109488640D01*
X105086820Y-109531269D01*
X105635500Y-109897885D01*
X106102115Y-110364500D01*
X106449914Y-110885018D01*
X106468732Y-110913182D01*
X106721262Y-111522842D01*
X106850000Y-112170052D01*
X106850000Y-112829948D01*
X106721262Y-113477158D01*
X106485182Y-114047104D01*
X106468731Y-114086820D01*
X106102115Y-114635500D01*
X105635500Y-115102115D01*
X105086820Y-115468731D01*
X105086819Y-115468732D01*
X105086818Y-115468732D01*
X104477158Y-115721262D01*
X103829948Y-115850000D01*
X103170052Y-115850000D01*
X102522842Y-115721262D01*
X101913182Y-115468732D01*
X101913181Y-115468732D01*
X101913180Y-115468731D01*
X101364500Y-115102115D01*
X100897885Y-114635500D01*
X100531269Y-114086820D01*
X100514818Y-114047104D01*
X100278738Y-113477158D01*
X100150000Y-112829948D01*
X100150000Y-112170052D01*
X100278738Y-111522842D01*
X100531268Y-110913182D01*
X100550087Y-110885018D01*
X100897885Y-110364500D01*
X101364500Y-109897885D01*
X101913180Y-109531269D01*
X102016095Y-109488640D01*
X102522842Y-109278738D01*
X103170052Y-109150000D01*
X103829948Y-109150000D01*
X104477158Y-109278738D01*
G37*
G36*
X146613569Y-112829946D02*
G01*
X146747105Y-112856508D01*
X146919994Y-112928121D01*
X147075590Y-113032087D01*
X147207913Y-113164410D01*
X147311879Y-113320006D01*
X147383492Y-113492895D01*
X147420000Y-113676433D01*
X147420000Y-113863567D01*
X147383492Y-114047105D01*
X147311879Y-114219994D01*
X147207913Y-114375590D01*
X147075590Y-114507913D01*
X146919994Y-114611879D01*
X146747105Y-114683492D01*
X146655336Y-114701746D01*
X146563568Y-114720000D01*
X146376432Y-114720000D01*
X146284664Y-114701746D01*
X146192895Y-114683492D01*
X146020006Y-114611879D01*
X145864410Y-114507913D01*
X145732087Y-114375590D01*
X145628121Y-114219994D01*
X145556508Y-114047105D01*
X145520000Y-113863567D01*
X145520000Y-113676433D01*
X145556508Y-113492895D01*
X145628121Y-113320006D01*
X145732087Y-113164410D01*
X145864410Y-113032087D01*
X146020006Y-112928121D01*
X146192895Y-112856508D01*
X146326431Y-112829946D01*
X146376432Y-112820000D01*
X146563568Y-112820000D01*
X146613569Y-112829946D01*
G37*
G36*
X133913569Y-112829946D02*
G01*
X134047105Y-112856508D01*
X134219994Y-112928121D01*
X134375590Y-113032087D01*
X134507913Y-113164410D01*
X134611879Y-113320006D01*
X134683492Y-113492895D01*
X134720000Y-113676433D01*
X134720000Y-113863567D01*
X134683492Y-114047105D01*
X134611879Y-114219994D01*
X134507913Y-114375590D01*
X134375590Y-114507913D01*
X134219994Y-114611879D01*
X134047105Y-114683492D01*
X133955336Y-114701746D01*
X133863568Y-114720000D01*
X133676432Y-114720000D01*
X133584664Y-114701746D01*
X133492895Y-114683492D01*
X133320006Y-114611879D01*
X133164410Y-114507913D01*
X133032087Y-114375590D01*
X132928121Y-114219994D01*
X132856508Y-114047105D01*
X132820000Y-113863567D01*
X132820000Y-113676433D01*
X132856508Y-113492895D01*
X132928121Y-113320006D01*
X133032087Y-113164410D01*
X133164410Y-113032087D01*
X133320006Y-112928121D01*
X133492895Y-112856508D01*
X133626431Y-112829946D01*
X133676432Y-112820000D01*
X133863568Y-112820000D01*
X133913569Y-112829946D01*
G37*
G36*
X136453569Y-112829946D02*
G01*
X136587105Y-112856508D01*
X136759994Y-112928121D01*
X136915590Y-113032087D01*
X137047913Y-113164410D01*
X137151879Y-113320006D01*
X137223492Y-113492895D01*
X137260000Y-113676433D01*
X137260000Y-113863567D01*
X137223492Y-114047105D01*
X137151879Y-114219994D01*
X137047913Y-114375590D01*
X136915590Y-114507913D01*
X136759994Y-114611879D01*
X136587105Y-114683492D01*
X136495336Y-114701746D01*
X136403568Y-114720000D01*
X136216432Y-114720000D01*
X136124664Y-114701746D01*
X136032895Y-114683492D01*
X135860006Y-114611879D01*
X135704410Y-114507913D01*
X135572087Y-114375590D01*
X135468121Y-114219994D01*
X135396508Y-114047105D01*
X135360000Y-113863567D01*
X135360000Y-113676433D01*
X135396508Y-113492895D01*
X135468121Y-113320006D01*
X135572087Y-113164410D01*
X135704410Y-113032087D01*
X135860006Y-112928121D01*
X136032895Y-112856508D01*
X136166431Y-112829946D01*
X136216432Y-112820000D01*
X136403568Y-112820000D01*
X136453569Y-112829946D01*
G37*
G36*
X138993569Y-112829946D02*
G01*
X139127105Y-112856508D01*
X139299994Y-112928121D01*
X139455590Y-113032087D01*
X139587913Y-113164410D01*
X139691879Y-113320006D01*
X139763492Y-113492895D01*
X139800000Y-113676433D01*
X139800000Y-113863567D01*
X139763492Y-114047105D01*
X139691879Y-114219994D01*
X139587913Y-114375590D01*
X139455590Y-114507913D01*
X139299994Y-114611879D01*
X139127105Y-114683492D01*
X139035336Y-114701746D01*
X138943568Y-114720000D01*
X138756432Y-114720000D01*
X138664664Y-114701746D01*
X138572895Y-114683492D01*
X138400006Y-114611879D01*
X138244410Y-114507913D01*
X138112087Y-114375590D01*
X138008121Y-114219994D01*
X137936508Y-114047105D01*
X137900000Y-113863567D01*
X137900000Y-113676433D01*
X137936508Y-113492895D01*
X138008121Y-113320006D01*
X138112087Y-113164410D01*
X138244410Y-113032087D01*
X138400006Y-112928121D01*
X138572895Y-112856508D01*
X138706431Y-112829946D01*
X138756432Y-112820000D01*
X138943568Y-112820000D01*
X138993569Y-112829946D01*
G37*
G36*
X141533569Y-112829946D02*
G01*
X141667105Y-112856508D01*
X141839994Y-112928121D01*
X141995590Y-113032087D01*
X142127913Y-113164410D01*
X142231879Y-113320006D01*
X142303492Y-113492895D01*
X142340000Y-113676433D01*
X142340000Y-113863567D01*
X142303492Y-114047105D01*
X142231879Y-114219994D01*
X142127913Y-114375590D01*
X141995590Y-114507913D01*
X141839994Y-114611879D01*
X141667105Y-114683492D01*
X141575336Y-114701746D01*
X141483568Y-114720000D01*
X141296432Y-114720000D01*
X141204664Y-114701746D01*
X141112895Y-114683492D01*
X140940006Y-114611879D01*
X140784410Y-114507913D01*
X140652087Y-114375590D01*
X140548121Y-114219994D01*
X140476508Y-114047105D01*
X140440000Y-113863567D01*
X140440000Y-113676433D01*
X140476508Y-113492895D01*
X140548121Y-113320006D01*
X140652087Y-113164410D01*
X140784410Y-113032087D01*
X140940006Y-112928121D01*
X141112895Y-112856508D01*
X141246431Y-112829946D01*
X141296432Y-112820000D01*
X141483568Y-112820000D01*
X141533569Y-112829946D01*
G37*
G36*
X144073569Y-112829946D02*
G01*
X144207105Y-112856508D01*
X144379994Y-112928121D01*
X144535590Y-113032087D01*
X144667913Y-113164410D01*
X144771879Y-113320006D01*
X144843492Y-113492895D01*
X144880000Y-113676433D01*
X144880000Y-113863567D01*
X144843492Y-114047105D01*
X144771879Y-114219994D01*
X144667913Y-114375590D01*
X144535590Y-114507913D01*
X144379994Y-114611879D01*
X144207105Y-114683492D01*
X144115336Y-114701746D01*
X144023568Y-114720000D01*
X143836432Y-114720000D01*
X143744664Y-114701746D01*
X143652895Y-114683492D01*
X143480006Y-114611879D01*
X143324410Y-114507913D01*
X143192087Y-114375590D01*
X143088121Y-114219994D01*
X143016508Y-114047105D01*
X142980000Y-113863567D01*
X142980000Y-113676433D01*
X143016508Y-113492895D01*
X143088121Y-113320006D01*
X143192087Y-113164410D01*
X143324410Y-113032087D01*
X143480006Y-112928121D01*
X143652895Y-112856508D01*
X143786431Y-112829946D01*
X143836432Y-112820000D01*
X144023568Y-112820000D01*
X144073569Y-112829946D01*
G37*
G36*
X149153569Y-112829946D02*
G01*
X149287105Y-112856508D01*
X149459994Y-112928121D01*
X149615590Y-113032087D01*
X149747913Y-113164410D01*
X149851879Y-113320006D01*
X149923492Y-113492895D01*
X149960000Y-113676433D01*
X149960000Y-113863567D01*
X149923492Y-114047105D01*
X149851879Y-114219994D01*
X149747913Y-114375590D01*
X149615590Y-114507913D01*
X149459994Y-114611879D01*
X149287105Y-114683492D01*
X149195336Y-114701746D01*
X149103568Y-114720000D01*
X148916432Y-114720000D01*
X148824664Y-114701746D01*
X148732895Y-114683492D01*
X148560006Y-114611879D01*
X148404410Y-114507913D01*
X148272087Y-114375590D01*
X148168121Y-114219994D01*
X148096508Y-114047105D01*
X148060000Y-113863567D01*
X148060000Y-113676433D01*
X148096508Y-113492895D01*
X148168121Y-113320006D01*
X148272087Y-113164410D01*
X148404410Y-113032087D01*
X148560006Y-112928121D01*
X148732895Y-112856508D01*
X148866431Y-112829946D01*
X148916432Y-112820000D01*
X149103568Y-112820000D01*
X149153569Y-112829946D01*
G37*
G36*
X151693569Y-112829946D02*
G01*
X151827105Y-112856508D01*
X151999994Y-112928121D01*
X152155590Y-113032087D01*
X152287913Y-113164410D01*
X152391879Y-113320006D01*
X152463492Y-113492895D01*
X152500000Y-113676433D01*
X152500000Y-113863567D01*
X152463492Y-114047105D01*
X152391879Y-114219994D01*
X152287913Y-114375590D01*
X152155590Y-114507913D01*
X151999994Y-114611879D01*
X151827105Y-114683492D01*
X151735336Y-114701746D01*
X151643568Y-114720000D01*
X151456432Y-114720000D01*
X151364664Y-114701746D01*
X151272895Y-114683492D01*
X151100006Y-114611879D01*
X150944410Y-114507913D01*
X150812087Y-114375590D01*
X150708121Y-114219994D01*
X150636508Y-114047105D01*
X150600000Y-113863567D01*
X150600000Y-113676433D01*
X150636508Y-113492895D01*
X150708121Y-113320006D01*
X150812087Y-113164410D01*
X150944410Y-113032087D01*
X151100006Y-112928121D01*
X151272895Y-112856508D01*
X151406431Y-112829946D01*
X151456432Y-112820000D01*
X151643568Y-112820000D01*
X151693569Y-112829946D01*
G37*
G36*
X154233569Y-112829946D02*
G01*
X154367105Y-112856508D01*
X154539994Y-112928121D01*
X154695590Y-113032087D01*
X154827913Y-113164410D01*
X154931879Y-113320006D01*
X155003492Y-113492895D01*
X155040000Y-113676433D01*
X155040000Y-113863567D01*
X155003492Y-114047105D01*
X154931879Y-114219994D01*
X154827913Y-114375590D01*
X154695590Y-114507913D01*
X154539994Y-114611879D01*
X154367105Y-114683492D01*
X154275336Y-114701746D01*
X154183568Y-114720000D01*
X153996432Y-114720000D01*
X153904664Y-114701746D01*
X153812895Y-114683492D01*
X153640006Y-114611879D01*
X153484410Y-114507913D01*
X153352087Y-114375590D01*
X153248121Y-114219994D01*
X153176508Y-114047105D01*
X153140000Y-113863567D01*
X153140000Y-113676433D01*
X153176508Y-113492895D01*
X153248121Y-113320006D01*
X153352087Y-113164410D01*
X153484410Y-113032087D01*
X153640006Y-112928121D01*
X153812895Y-112856508D01*
X153946431Y-112829946D01*
X153996432Y-112820000D01*
X154183568Y-112820000D01*
X154233569Y-112829946D01*
G37*
G36*
X131373569Y-112829946D02*
G01*
X131507105Y-112856508D01*
X131679994Y-112928121D01*
X131835590Y-113032087D01*
X131967913Y-113164410D01*
X132071879Y-113320006D01*
X132143492Y-113492895D01*
X132180000Y-113676433D01*
X132180000Y-113863567D01*
X132143492Y-114047105D01*
X132071879Y-114219994D01*
X131967913Y-114375590D01*
X131835590Y-114507913D01*
X131679994Y-114611879D01*
X131507105Y-114683492D01*
X131415336Y-114701746D01*
X131323568Y-114720000D01*
X131136432Y-114720000D01*
X131044664Y-114701746D01*
X130952895Y-114683492D01*
X130780006Y-114611879D01*
X130624410Y-114507913D01*
X130492087Y-114375590D01*
X130388121Y-114219994D01*
X130316508Y-114047105D01*
X130280000Y-113863567D01*
X130280000Y-113676433D01*
X130316508Y-113492895D01*
X130388121Y-113320006D01*
X130492087Y-113164410D01*
X130624410Y-113032087D01*
X130780006Y-112928121D01*
X130952895Y-112856508D01*
X131086431Y-112829946D01*
X131136432Y-112820000D01*
X131323568Y-112820000D01*
X131373569Y-112829946D01*
G37*
G36*
X118673569Y-112829946D02*
G01*
X118807105Y-112856508D01*
X118979994Y-112928121D01*
X119135590Y-113032087D01*
X119267913Y-113164410D01*
X119371879Y-113320006D01*
X119443492Y-113492895D01*
X119480000Y-113676433D01*
X119480000Y-113863567D01*
X119443492Y-114047105D01*
X119371879Y-114219994D01*
X119267913Y-114375590D01*
X119135590Y-114507913D01*
X118979994Y-114611879D01*
X118807105Y-114683492D01*
X118715336Y-114701746D01*
X118623568Y-114720000D01*
X118436432Y-114720000D01*
X118344664Y-114701746D01*
X118252895Y-114683492D01*
X118080006Y-114611879D01*
X117924410Y-114507913D01*
X117792087Y-114375590D01*
X117688121Y-114219994D01*
X117616508Y-114047105D01*
X117580000Y-113863567D01*
X117580000Y-113676433D01*
X117616508Y-113492895D01*
X117688121Y-113320006D01*
X117792087Y-113164410D01*
X117924410Y-113032087D01*
X118080006Y-112928121D01*
X118252895Y-112856508D01*
X118386431Y-112829946D01*
X118436432Y-112820000D01*
X118623568Y-112820000D01*
X118673569Y-112829946D01*
G37*
G36*
X156773569Y-112829946D02*
G01*
X156907105Y-112856508D01*
X157079994Y-112928121D01*
X157235590Y-113032087D01*
X157367913Y-113164410D01*
X157471879Y-113320006D01*
X157543492Y-113492895D01*
X157580000Y-113676433D01*
X157580000Y-113863567D01*
X157543492Y-114047105D01*
X157471879Y-114219994D01*
X157367913Y-114375590D01*
X157235590Y-114507913D01*
X157079994Y-114611879D01*
X156907105Y-114683492D01*
X156815336Y-114701746D01*
X156723568Y-114720000D01*
X156536432Y-114720000D01*
X156444664Y-114701746D01*
X156352895Y-114683492D01*
X156180006Y-114611879D01*
X156024410Y-114507913D01*
X155892087Y-114375590D01*
X155788121Y-114219994D01*
X155716508Y-114047105D01*
X155680000Y-113863567D01*
X155680000Y-113676433D01*
X155716508Y-113492895D01*
X155788121Y-113320006D01*
X155892087Y-113164410D01*
X156024410Y-113032087D01*
X156180006Y-112928121D01*
X156352895Y-112856508D01*
X156486431Y-112829946D01*
X156536432Y-112820000D01*
X156723568Y-112820000D01*
X156773569Y-112829946D01*
G37*
G36*
X123753569Y-112829946D02*
G01*
X123887105Y-112856508D01*
X124059994Y-112928121D01*
X124215590Y-113032087D01*
X124347913Y-113164410D01*
X124451879Y-113320006D01*
X124523492Y-113492895D01*
X124560000Y-113676433D01*
X124560000Y-113863567D01*
X124523492Y-114047105D01*
X124451879Y-114219994D01*
X124347913Y-114375590D01*
X124215590Y-114507913D01*
X124059994Y-114611879D01*
X123887105Y-114683492D01*
X123795336Y-114701746D01*
X123703568Y-114720000D01*
X123516432Y-114720000D01*
X123424664Y-114701746D01*
X123332895Y-114683492D01*
X123160006Y-114611879D01*
X123004410Y-114507913D01*
X122872087Y-114375590D01*
X122768121Y-114219994D01*
X122696508Y-114047105D01*
X122660000Y-113863567D01*
X122660000Y-113676433D01*
X122696508Y-113492895D01*
X122768121Y-113320006D01*
X122872087Y-113164410D01*
X123004410Y-113032087D01*
X123160006Y-112928121D01*
X123332895Y-112856508D01*
X123466431Y-112829946D01*
X123516432Y-112820000D01*
X123703568Y-112820000D01*
X123753569Y-112829946D01*
G37*
G36*
X126293569Y-112829946D02*
G01*
X126427105Y-112856508D01*
X126599994Y-112928121D01*
X126755590Y-113032087D01*
X126887913Y-113164410D01*
X126991879Y-113320006D01*
X127063492Y-113492895D01*
X127100000Y-113676433D01*
X127100000Y-113863567D01*
X127063492Y-114047105D01*
X126991879Y-114219994D01*
X126887913Y-114375590D01*
X126755590Y-114507913D01*
X126599994Y-114611879D01*
X126427105Y-114683492D01*
X126335336Y-114701746D01*
X126243568Y-114720000D01*
X126056432Y-114720000D01*
X125964664Y-114701746D01*
X125872895Y-114683492D01*
X125700006Y-114611879D01*
X125544410Y-114507913D01*
X125412087Y-114375590D01*
X125308121Y-114219994D01*
X125236508Y-114047105D01*
X125200000Y-113863567D01*
X125200000Y-113676433D01*
X125236508Y-113492895D01*
X125308121Y-113320006D01*
X125412087Y-113164410D01*
X125544410Y-113032087D01*
X125700006Y-112928121D01*
X125872895Y-112856508D01*
X126006431Y-112829946D01*
X126056432Y-112820000D01*
X126243568Y-112820000D01*
X126293569Y-112829946D01*
G37*
G36*
X128833569Y-112829946D02*
G01*
X128967105Y-112856508D01*
X129139994Y-112928121D01*
X129295590Y-113032087D01*
X129427913Y-113164410D01*
X129531879Y-113320006D01*
X129603492Y-113492895D01*
X129640000Y-113676433D01*
X129640000Y-113863567D01*
X129603492Y-114047105D01*
X129531879Y-114219994D01*
X129427913Y-114375590D01*
X129295590Y-114507913D01*
X129139994Y-114611879D01*
X128967105Y-114683492D01*
X128875336Y-114701746D01*
X128783568Y-114720000D01*
X128596432Y-114720000D01*
X128504664Y-114701746D01*
X128412895Y-114683492D01*
X128240006Y-114611879D01*
X128084410Y-114507913D01*
X127952087Y-114375590D01*
X127848121Y-114219994D01*
X127776508Y-114047105D01*
X127740000Y-113863567D01*
X127740000Y-113676433D01*
X127776508Y-113492895D01*
X127848121Y-113320006D01*
X127952087Y-113164410D01*
X128084410Y-113032087D01*
X128240006Y-112928121D01*
X128412895Y-112856508D01*
X128546431Y-112829946D01*
X128596432Y-112820000D01*
X128783568Y-112820000D01*
X128833569Y-112829946D01*
G37*
G36*
X108513569Y-112829946D02*
G01*
X108647105Y-112856508D01*
X108819994Y-112928121D01*
X108975590Y-113032087D01*
X109107913Y-113164410D01*
X109211879Y-113320006D01*
X109283492Y-113492895D01*
X109320000Y-113676433D01*
X109320000Y-113863567D01*
X109283492Y-114047105D01*
X109211879Y-114219994D01*
X109107913Y-114375590D01*
X108975590Y-114507913D01*
X108819994Y-114611879D01*
X108647105Y-114683492D01*
X108555336Y-114701746D01*
X108463568Y-114720000D01*
X108276432Y-114720000D01*
X108184664Y-114701746D01*
X108092895Y-114683492D01*
X107920006Y-114611879D01*
X107764410Y-114507913D01*
X107632087Y-114375590D01*
X107528121Y-114219994D01*
X107456508Y-114047105D01*
X107420000Y-113863567D01*
X107420000Y-113676433D01*
X107456508Y-113492895D01*
X107528121Y-113320006D01*
X107632087Y-113164410D01*
X107764410Y-113032087D01*
X107920006Y-112928121D01*
X108092895Y-112856508D01*
X108226431Y-112829946D01*
X108276432Y-112820000D01*
X108463568Y-112820000D01*
X108513569Y-112829946D01*
G37*
G36*
X111053569Y-112829946D02*
G01*
X111187105Y-112856508D01*
X111359994Y-112928121D01*
X111515590Y-113032087D01*
X111647913Y-113164410D01*
X111751879Y-113320006D01*
X111823492Y-113492895D01*
X111860000Y-113676433D01*
X111860000Y-113863567D01*
X111823492Y-114047105D01*
X111751879Y-114219994D01*
X111647913Y-114375590D01*
X111515590Y-114507913D01*
X111359994Y-114611879D01*
X111187105Y-114683492D01*
X111095336Y-114701746D01*
X111003568Y-114720000D01*
X110816432Y-114720000D01*
X110724664Y-114701746D01*
X110632895Y-114683492D01*
X110460006Y-114611879D01*
X110304410Y-114507913D01*
X110172087Y-114375590D01*
X110068121Y-114219994D01*
X109996508Y-114047105D01*
X109960000Y-113863567D01*
X109960000Y-113676433D01*
X109996508Y-113492895D01*
X110068121Y-113320006D01*
X110172087Y-113164410D01*
X110304410Y-113032087D01*
X110460006Y-112928121D01*
X110632895Y-112856508D01*
X110766431Y-112829946D01*
X110816432Y-112820000D01*
X111003568Y-112820000D01*
X111053569Y-112829946D01*
G37*
G36*
X113593569Y-112829946D02*
G01*
X113727105Y-112856508D01*
X113899994Y-112928121D01*
X114055590Y-113032087D01*
X114187913Y-113164410D01*
X114291879Y-113320006D01*
X114363492Y-113492895D01*
X114400000Y-113676433D01*
X114400000Y-113863567D01*
X114363492Y-114047105D01*
X114291879Y-114219994D01*
X114187913Y-114375590D01*
X114055590Y-114507913D01*
X113899994Y-114611879D01*
X113727105Y-114683492D01*
X113635336Y-114701746D01*
X113543568Y-114720000D01*
X113356432Y-114720000D01*
X113264664Y-114701746D01*
X113172895Y-114683492D01*
X113000006Y-114611879D01*
X112844410Y-114507913D01*
X112712087Y-114375590D01*
X112608121Y-114219994D01*
X112536508Y-114047105D01*
X112500000Y-113863567D01*
X112500000Y-113676433D01*
X112536508Y-113492895D01*
X112608121Y-113320006D01*
X112712087Y-113164410D01*
X112844410Y-113032087D01*
X113000006Y-112928121D01*
X113172895Y-112856508D01*
X113306431Y-112829946D01*
X113356432Y-112820000D01*
X113543568Y-112820000D01*
X113593569Y-112829946D01*
G37*
G36*
X116133569Y-112829946D02*
G01*
X116267105Y-112856508D01*
X116439994Y-112928121D01*
X116595590Y-113032087D01*
X116727913Y-113164410D01*
X116831879Y-113320006D01*
X116903492Y-113492895D01*
X116940000Y-113676433D01*
X116940000Y-113863567D01*
X116903492Y-114047105D01*
X116831879Y-114219994D01*
X116727913Y-114375590D01*
X116595590Y-114507913D01*
X116439994Y-114611879D01*
X116267105Y-114683492D01*
X116175336Y-114701746D01*
X116083568Y-114720000D01*
X115896432Y-114720000D01*
X115804664Y-114701746D01*
X115712895Y-114683492D01*
X115540006Y-114611879D01*
X115384410Y-114507913D01*
X115252087Y-114375590D01*
X115148121Y-114219994D01*
X115076508Y-114047105D01*
X115040000Y-113863567D01*
X115040000Y-113676433D01*
X115076508Y-113492895D01*
X115148121Y-113320006D01*
X115252087Y-113164410D01*
X115384410Y-113032087D01*
X115540006Y-112928121D01*
X115712895Y-112856508D01*
X115846431Y-112829946D01*
X115896432Y-112820000D01*
X116083568Y-112820000D01*
X116133569Y-112829946D01*
G37*
G36*
X121213569Y-112829946D02*
G01*
X121347105Y-112856508D01*
X121519994Y-112928121D01*
X121675590Y-113032087D01*
X121807913Y-113164410D01*
X121911879Y-113320006D01*
X121983492Y-113492895D01*
X122020000Y-113676433D01*
X122020000Y-113863567D01*
X121983492Y-114047105D01*
X121911879Y-114219994D01*
X121807913Y-114375590D01*
X121675590Y-114507913D01*
X121519994Y-114611879D01*
X121347105Y-114683492D01*
X121255336Y-114701746D01*
X121163568Y-114720000D01*
X120976432Y-114720000D01*
X120884664Y-114701746D01*
X120792895Y-114683492D01*
X120620006Y-114611879D01*
X120464410Y-114507913D01*
X120332087Y-114375590D01*
X120228121Y-114219994D01*
X120156508Y-114047105D01*
X120120000Y-113863567D01*
X120120000Y-113676433D01*
X120156508Y-113492895D01*
X120228121Y-113320006D01*
X120332087Y-113164410D01*
X120464410Y-113032087D01*
X120620006Y-112928121D01*
X120792895Y-112856508D01*
X120926431Y-112829946D01*
X120976432Y-112820000D01*
X121163568Y-112820000D01*
X121213569Y-112829946D01*
G37*
G36*
X146655336Y-110298254D02*
G01*
X146747105Y-110316508D01*
X146919994Y-110388121D01*
X147075590Y-110492087D01*
X147207913Y-110624410D01*
X147311879Y-110780006D01*
X147383492Y-110952895D01*
X147420000Y-111136433D01*
X147420000Y-111323567D01*
X147383492Y-111507105D01*
X147311879Y-111679994D01*
X147207913Y-111835590D01*
X147075590Y-111967913D01*
X146919994Y-112071879D01*
X146747105Y-112143492D01*
X146655336Y-112161746D01*
X146563568Y-112180000D01*
X146376432Y-112180000D01*
X146284664Y-112161746D01*
X146192895Y-112143492D01*
X146020006Y-112071879D01*
X145864410Y-111967913D01*
X145732087Y-111835590D01*
X145628121Y-111679994D01*
X145556508Y-111507105D01*
X145520000Y-111323567D01*
X145520000Y-111136433D01*
X145556508Y-110952895D01*
X145628121Y-110780006D01*
X145732087Y-110624410D01*
X145864410Y-110492087D01*
X146020006Y-110388121D01*
X146192895Y-110316508D01*
X146284664Y-110298254D01*
X146376432Y-110280000D01*
X146563568Y-110280000D01*
X146655336Y-110298254D01*
G37*
G36*
X108555336Y-110298254D02*
G01*
X108647105Y-110316508D01*
X108819994Y-110388121D01*
X108975590Y-110492087D01*
X109107913Y-110624410D01*
X109211879Y-110780006D01*
X109283492Y-110952895D01*
X109320000Y-111136433D01*
X109320000Y-111323567D01*
X109283492Y-111507105D01*
X109211879Y-111679994D01*
X109107913Y-111835590D01*
X108975590Y-111967913D01*
X108819994Y-112071879D01*
X108647105Y-112143492D01*
X108555336Y-112161746D01*
X108463568Y-112180000D01*
X108276432Y-112180000D01*
X108184664Y-112161746D01*
X108092895Y-112143492D01*
X107920006Y-112071879D01*
X107764410Y-111967913D01*
X107632087Y-111835590D01*
X107528121Y-111679994D01*
X107456508Y-111507105D01*
X107420000Y-111323567D01*
X107420000Y-111136433D01*
X107456508Y-110952895D01*
X107528121Y-110780006D01*
X107632087Y-110624410D01*
X107764410Y-110492087D01*
X107920006Y-110388121D01*
X108092895Y-110316508D01*
X108184664Y-110298254D01*
X108276432Y-110280000D01*
X108463568Y-110280000D01*
X108555336Y-110298254D01*
G37*
G36*
X111095336Y-110298254D02*
G01*
X111187105Y-110316508D01*
X111359994Y-110388121D01*
X111515590Y-110492087D01*
X111647913Y-110624410D01*
X111751879Y-110780006D01*
X111823492Y-110952895D01*
X111860000Y-111136433D01*
X111860000Y-111323567D01*
X111823492Y-111507105D01*
X111751879Y-111679994D01*
X111647913Y-111835590D01*
X111515590Y-111967913D01*
X111359994Y-112071879D01*
X111187105Y-112143492D01*
X111095336Y-112161746D01*
X111003568Y-112180000D01*
X110816432Y-112180000D01*
X110724664Y-112161746D01*
X110632895Y-112143492D01*
X110460006Y-112071879D01*
X110304410Y-111967913D01*
X110172087Y-111835590D01*
X110068121Y-111679994D01*
X109996508Y-111507105D01*
X109960000Y-111323567D01*
X109960000Y-111136433D01*
X109996508Y-110952895D01*
X110068121Y-110780006D01*
X110172087Y-110624410D01*
X110304410Y-110492087D01*
X110460006Y-110388121D01*
X110632895Y-110316508D01*
X110724664Y-110298254D01*
X110816432Y-110280000D01*
X111003568Y-110280000D01*
X111095336Y-110298254D01*
G37*
G36*
X144115336Y-110298254D02*
G01*
X144207105Y-110316508D01*
X144379994Y-110388121D01*
X144535590Y-110492087D01*
X144667913Y-110624410D01*
X144771879Y-110780006D01*
X144843492Y-110952895D01*
X144880000Y-111136433D01*
X144880000Y-111323567D01*
X144843492Y-111507105D01*
X144771879Y-111679994D01*
X144667913Y-111835590D01*
X144535590Y-111967913D01*
X144379994Y-112071879D01*
X144207105Y-112143492D01*
X144115336Y-112161746D01*
X144023568Y-112180000D01*
X143836432Y-112180000D01*
X143744664Y-112161746D01*
X143652895Y-112143492D01*
X143480006Y-112071879D01*
X143324410Y-111967913D01*
X143192087Y-111835590D01*
X143088121Y-111679994D01*
X143016508Y-111507105D01*
X142980000Y-111323567D01*
X142980000Y-111136433D01*
X143016508Y-110952895D01*
X143088121Y-110780006D01*
X143192087Y-110624410D01*
X143324410Y-110492087D01*
X143480006Y-110388121D01*
X143652895Y-110316508D01*
X143744664Y-110298254D01*
X143836432Y-110280000D01*
X144023568Y-110280000D01*
X144115336Y-110298254D01*
G37*
G36*
X139035336Y-110298254D02*
G01*
X139127105Y-110316508D01*
X139299994Y-110388121D01*
X139455590Y-110492087D01*
X139587913Y-110624410D01*
X139691879Y-110780006D01*
X139763492Y-110952895D01*
X139800000Y-111136433D01*
X139800000Y-111323567D01*
X139763492Y-111507105D01*
X139691879Y-111679994D01*
X139587913Y-111835590D01*
X139455590Y-111967913D01*
X139299994Y-112071879D01*
X139127105Y-112143492D01*
X139035336Y-112161746D01*
X138943568Y-112180000D01*
X138756432Y-112180000D01*
X138664664Y-112161746D01*
X138572895Y-112143492D01*
X138400006Y-112071879D01*
X138244410Y-111967913D01*
X138112087Y-111835590D01*
X138008121Y-111679994D01*
X137936508Y-111507105D01*
X137900000Y-111323567D01*
X137900000Y-111136433D01*
X137936508Y-110952895D01*
X138008121Y-110780006D01*
X138112087Y-110624410D01*
X138244410Y-110492087D01*
X138400006Y-110388121D01*
X138572895Y-110316508D01*
X138664664Y-110298254D01*
X138756432Y-110280000D01*
X138943568Y-110280000D01*
X139035336Y-110298254D01*
G37*
G36*
X149195336Y-110298254D02*
G01*
X149287105Y-110316508D01*
X149459994Y-110388121D01*
X149615590Y-110492087D01*
X149747913Y-110624410D01*
X149851879Y-110780006D01*
X149923492Y-110952895D01*
X149960000Y-111136433D01*
X149960000Y-111323567D01*
X149923492Y-111507105D01*
X149851879Y-111679994D01*
X149747913Y-111835590D01*
X149615590Y-111967913D01*
X149459994Y-112071879D01*
X149287105Y-112143492D01*
X149195336Y-112161746D01*
X149103568Y-112180000D01*
X148916432Y-112180000D01*
X148824664Y-112161746D01*
X148732895Y-112143492D01*
X148560006Y-112071879D01*
X148404410Y-111967913D01*
X148272087Y-111835590D01*
X148168121Y-111679994D01*
X148096508Y-111507105D01*
X148060000Y-111323567D01*
X148060000Y-111136433D01*
X148096508Y-110952895D01*
X148168121Y-110780006D01*
X148272087Y-110624410D01*
X148404410Y-110492087D01*
X148560006Y-110388121D01*
X148732895Y-110316508D01*
X148824664Y-110298254D01*
X148916432Y-110280000D01*
X149103568Y-110280000D01*
X149195336Y-110298254D01*
G37*
G36*
X151735336Y-110298254D02*
G01*
X151827105Y-110316508D01*
X151999994Y-110388121D01*
X152155590Y-110492087D01*
X152287913Y-110624410D01*
X152391879Y-110780006D01*
X152463492Y-110952895D01*
X152500000Y-111136433D01*
X152500000Y-111323567D01*
X152463492Y-111507105D01*
X152391879Y-111679994D01*
X152287913Y-111835590D01*
X152155590Y-111967913D01*
X151999994Y-112071879D01*
X151827105Y-112143492D01*
X151735336Y-112161746D01*
X151643568Y-112180000D01*
X151456432Y-112180000D01*
X151364664Y-112161746D01*
X151272895Y-112143492D01*
X151100006Y-112071879D01*
X150944410Y-111967913D01*
X150812087Y-111835590D01*
X150708121Y-111679994D01*
X150636508Y-111507105D01*
X150600000Y-111323567D01*
X150600000Y-111136433D01*
X150636508Y-110952895D01*
X150708121Y-110780006D01*
X150812087Y-110624410D01*
X150944410Y-110492087D01*
X151100006Y-110388121D01*
X151272895Y-110316508D01*
X151364664Y-110298254D01*
X151456432Y-110280000D01*
X151643568Y-110280000D01*
X151735336Y-110298254D01*
G37*
G36*
X154275336Y-110298254D02*
G01*
X154367105Y-110316508D01*
X154539994Y-110388121D01*
X154695590Y-110492087D01*
X154827913Y-110624410D01*
X154931879Y-110780006D01*
X155003492Y-110952895D01*
X155040000Y-111136433D01*
X155040000Y-111323567D01*
X155003492Y-111507105D01*
X154931879Y-111679994D01*
X154827913Y-111835590D01*
X154695590Y-111967913D01*
X154539994Y-112071879D01*
X154367105Y-112143492D01*
X154275336Y-112161746D01*
X154183568Y-112180000D01*
X153996432Y-112180000D01*
X153904664Y-112161746D01*
X153812895Y-112143492D01*
X153640006Y-112071879D01*
X153484410Y-111967913D01*
X153352087Y-111835590D01*
X153248121Y-111679994D01*
X153176508Y-111507105D01*
X153140000Y-111323567D01*
X153140000Y-111136433D01*
X153176508Y-110952895D01*
X153248121Y-110780006D01*
X153352087Y-110624410D01*
X153484410Y-110492087D01*
X153640006Y-110388121D01*
X153812895Y-110316508D01*
X153904664Y-110298254D01*
X153996432Y-110280000D01*
X154183568Y-110280000D01*
X154275336Y-110298254D01*
G37*
G36*
X136495336Y-110298254D02*
G01*
X136587105Y-110316508D01*
X136759994Y-110388121D01*
X136915590Y-110492087D01*
X137047913Y-110624410D01*
X137151879Y-110780006D01*
X137223492Y-110952895D01*
X137260000Y-111136433D01*
X137260000Y-111323567D01*
X137223492Y-111507105D01*
X137151879Y-111679994D01*
X137047913Y-111835590D01*
X136915590Y-111967913D01*
X136759994Y-112071879D01*
X136587105Y-112143492D01*
X136495336Y-112161746D01*
X136403568Y-112180000D01*
X136216432Y-112180000D01*
X136124664Y-112161746D01*
X136032895Y-112143492D01*
X135860006Y-112071879D01*
X135704410Y-111967913D01*
X135572087Y-111835590D01*
X135468121Y-111679994D01*
X135396508Y-111507105D01*
X135360000Y-111323567D01*
X135360000Y-111136433D01*
X135396508Y-110952895D01*
X135468121Y-110780006D01*
X135572087Y-110624410D01*
X135704410Y-110492087D01*
X135860006Y-110388121D01*
X136032895Y-110316508D01*
X136124664Y-110298254D01*
X136216432Y-110280000D01*
X136403568Y-110280000D01*
X136495336Y-110298254D01*
G37*
G36*
X157580000Y-112180000D02*
G01*
X155680000Y-112180000D01*
X155680000Y-110280000D01*
X157580000Y-110280000D01*
X157580000Y-112180000D01*
G37*
G36*
X133955336Y-110298254D02*
G01*
X134047105Y-110316508D01*
X134219994Y-110388121D01*
X134375590Y-110492087D01*
X134507913Y-110624410D01*
X134611879Y-110780006D01*
X134683492Y-110952895D01*
X134720000Y-111136433D01*
X134720000Y-111323567D01*
X134683492Y-111507105D01*
X134611879Y-111679994D01*
X134507913Y-111835590D01*
X134375590Y-111967913D01*
X134219994Y-112071879D01*
X134047105Y-112143492D01*
X133955336Y-112161746D01*
X133863568Y-112180000D01*
X133676432Y-112180000D01*
X133584664Y-112161746D01*
X133492895Y-112143492D01*
X133320006Y-112071879D01*
X133164410Y-111967913D01*
X133032087Y-111835590D01*
X132928121Y-111679994D01*
X132856508Y-111507105D01*
X132820000Y-111323567D01*
X132820000Y-111136433D01*
X132856508Y-110952895D01*
X132928121Y-110780006D01*
X133032087Y-110624410D01*
X133164410Y-110492087D01*
X133320006Y-110388121D01*
X133492895Y-110316508D01*
X133584664Y-110298254D01*
X133676432Y-110280000D01*
X133863568Y-110280000D01*
X133955336Y-110298254D01*
G37*
G36*
X141575336Y-110298254D02*
G01*
X141667105Y-110316508D01*
X141839994Y-110388121D01*
X141995590Y-110492087D01*
X142127913Y-110624410D01*
X142231879Y-110780006D01*
X142303492Y-110952895D01*
X142340000Y-111136433D01*
X142340000Y-111323567D01*
X142303492Y-111507105D01*
X142231879Y-111679994D01*
X142127913Y-111835590D01*
X141995590Y-111967913D01*
X141839994Y-112071879D01*
X141667105Y-112143492D01*
X141575336Y-112161746D01*
X141483568Y-112180000D01*
X141296432Y-112180000D01*
X141204664Y-112161746D01*
X141112895Y-112143492D01*
X140940006Y-112071879D01*
X140784410Y-111967913D01*
X140652087Y-111835590D01*
X140548121Y-111679994D01*
X140476508Y-111507105D01*
X140440000Y-111323567D01*
X140440000Y-111136433D01*
X140476508Y-110952895D01*
X140548121Y-110780006D01*
X140652087Y-110624410D01*
X140784410Y-110492087D01*
X140940006Y-110388121D01*
X141112895Y-110316508D01*
X141204664Y-110298254D01*
X141296432Y-110280000D01*
X141483568Y-110280000D01*
X141575336Y-110298254D01*
G37*
G36*
X126335336Y-110298254D02*
G01*
X126427105Y-110316508D01*
X126599994Y-110388121D01*
X126755590Y-110492087D01*
X126887913Y-110624410D01*
X126991879Y-110780006D01*
X127063492Y-110952895D01*
X127100000Y-111136433D01*
X127100000Y-111323567D01*
X127063492Y-111507105D01*
X126991879Y-111679994D01*
X126887913Y-111835590D01*
X126755590Y-111967913D01*
X126599994Y-112071879D01*
X126427105Y-112143492D01*
X126335336Y-112161746D01*
X126243568Y-112180000D01*
X126056432Y-112180000D01*
X125964664Y-112161746D01*
X125872895Y-112143492D01*
X125700006Y-112071879D01*
X125544410Y-111967913D01*
X125412087Y-111835590D01*
X125308121Y-111679994D01*
X125236508Y-111507105D01*
X125200000Y-111323567D01*
X125200000Y-111136433D01*
X125236508Y-110952895D01*
X125308121Y-110780006D01*
X125412087Y-110624410D01*
X125544410Y-110492087D01*
X125700006Y-110388121D01*
X125872895Y-110316508D01*
X125964664Y-110298254D01*
X126056432Y-110280000D01*
X126243568Y-110280000D01*
X126335336Y-110298254D01*
G37*
G36*
X113635336Y-110298254D02*
G01*
X113727105Y-110316508D01*
X113899994Y-110388121D01*
X114055590Y-110492087D01*
X114187913Y-110624410D01*
X114291879Y-110780006D01*
X114363492Y-110952895D01*
X114400000Y-111136433D01*
X114400000Y-111323567D01*
X114363492Y-111507105D01*
X114291879Y-111679994D01*
X114187913Y-111835590D01*
X114055590Y-111967913D01*
X113899994Y-112071879D01*
X113727105Y-112143492D01*
X113635336Y-112161746D01*
X113543568Y-112180000D01*
X113356432Y-112180000D01*
X113264664Y-112161746D01*
X113172895Y-112143492D01*
X113000006Y-112071879D01*
X112844410Y-111967913D01*
X112712087Y-111835590D01*
X112608121Y-111679994D01*
X112536508Y-111507105D01*
X112500000Y-111323567D01*
X112500000Y-111136433D01*
X112536508Y-110952895D01*
X112608121Y-110780006D01*
X112712087Y-110624410D01*
X112844410Y-110492087D01*
X113000006Y-110388121D01*
X113172895Y-110316508D01*
X113264664Y-110298254D01*
X113356432Y-110280000D01*
X113543568Y-110280000D01*
X113635336Y-110298254D01*
G37*
G36*
X128875336Y-110298254D02*
G01*
X128967105Y-110316508D01*
X129139994Y-110388121D01*
X129295590Y-110492087D01*
X129427913Y-110624410D01*
X129531879Y-110780006D01*
X129603492Y-110952895D01*
X129640000Y-111136433D01*
X129640000Y-111323567D01*
X129603492Y-111507105D01*
X129531879Y-111679994D01*
X129427913Y-111835590D01*
X129295590Y-111967913D01*
X129139994Y-112071879D01*
X128967105Y-112143492D01*
X128875336Y-112161746D01*
X128783568Y-112180000D01*
X128596432Y-112180000D01*
X128504664Y-112161746D01*
X128412895Y-112143492D01*
X128240006Y-112071879D01*
X128084410Y-111967913D01*
X127952087Y-111835590D01*
X127848121Y-111679994D01*
X127776508Y-111507105D01*
X127740000Y-111323567D01*
X127740000Y-111136433D01*
X127776508Y-110952895D01*
X127848121Y-110780006D01*
X127952087Y-110624410D01*
X128084410Y-110492087D01*
X128240006Y-110388121D01*
X128412895Y-110316508D01*
X128504664Y-110298254D01*
X128596432Y-110280000D01*
X128783568Y-110280000D01*
X128875336Y-110298254D01*
G37*
G36*
X123795336Y-110298254D02*
G01*
X123887105Y-110316508D01*
X124059994Y-110388121D01*
X124215590Y-110492087D01*
X124347913Y-110624410D01*
X124451879Y-110780006D01*
X124523492Y-110952895D01*
X124560000Y-111136433D01*
X124560000Y-111323567D01*
X124523492Y-111507105D01*
X124451879Y-111679994D01*
X124347913Y-111835590D01*
X124215590Y-111967913D01*
X124059994Y-112071879D01*
X123887105Y-112143492D01*
X123795336Y-112161746D01*
X123703568Y-112180000D01*
X123516432Y-112180000D01*
X123424664Y-112161746D01*
X123332895Y-112143492D01*
X123160006Y-112071879D01*
X123004410Y-111967913D01*
X122872087Y-111835590D01*
X122768121Y-111679994D01*
X122696508Y-111507105D01*
X122660000Y-111323567D01*
X122660000Y-111136433D01*
X122696508Y-110952895D01*
X122768121Y-110780006D01*
X122872087Y-110624410D01*
X123004410Y-110492087D01*
X123160006Y-110388121D01*
X123332895Y-110316508D01*
X123424664Y-110298254D01*
X123516432Y-110280000D01*
X123703568Y-110280000D01*
X123795336Y-110298254D01*
G37*
G36*
X131415336Y-110298254D02*
G01*
X131507105Y-110316508D01*
X131679994Y-110388121D01*
X131835590Y-110492087D01*
X131967913Y-110624410D01*
X132071879Y-110780006D01*
X132143492Y-110952895D01*
X132180000Y-111136433D01*
X132180000Y-111323567D01*
X132143492Y-111507105D01*
X132071879Y-111679994D01*
X131967913Y-111835590D01*
X131835590Y-111967913D01*
X131679994Y-112071879D01*
X131507105Y-112143492D01*
X131415336Y-112161746D01*
X131323568Y-112180000D01*
X131136432Y-112180000D01*
X131044664Y-112161746D01*
X130952895Y-112143492D01*
X130780006Y-112071879D01*
X130624410Y-111967913D01*
X130492087Y-111835590D01*
X130388121Y-111679994D01*
X130316508Y-111507105D01*
X130280000Y-111323567D01*
X130280000Y-111136433D01*
X130316508Y-110952895D01*
X130388121Y-110780006D01*
X130492087Y-110624410D01*
X130624410Y-110492087D01*
X130780006Y-110388121D01*
X130952895Y-110316508D01*
X131044664Y-110298254D01*
X131136432Y-110280000D01*
X131323568Y-110280000D01*
X131415336Y-110298254D01*
G37*
G36*
X118715336Y-110298254D02*
G01*
X118807105Y-110316508D01*
X118979994Y-110388121D01*
X119135590Y-110492087D01*
X119267913Y-110624410D01*
X119371879Y-110780006D01*
X119443492Y-110952895D01*
X119480000Y-111136433D01*
X119480000Y-111323567D01*
X119443492Y-111507105D01*
X119371879Y-111679994D01*
X119267913Y-111835590D01*
X119135590Y-111967913D01*
X118979994Y-112071879D01*
X118807105Y-112143492D01*
X118715336Y-112161746D01*
X118623568Y-112180000D01*
X118436432Y-112180000D01*
X118344664Y-112161746D01*
X118252895Y-112143492D01*
X118080006Y-112071879D01*
X117924410Y-111967913D01*
X117792087Y-111835590D01*
X117688121Y-111679994D01*
X117616508Y-111507105D01*
X117580000Y-111323567D01*
X117580000Y-111136433D01*
X117616508Y-110952895D01*
X117688121Y-110780006D01*
X117792087Y-110624410D01*
X117924410Y-110492087D01*
X118080006Y-110388121D01*
X118252895Y-110316508D01*
X118344664Y-110298254D01*
X118436432Y-110280000D01*
X118623568Y-110280000D01*
X118715336Y-110298254D01*
G37*
G36*
X121255336Y-110298254D02*
G01*
X121347105Y-110316508D01*
X121519994Y-110388121D01*
X121675590Y-110492087D01*
X121807913Y-110624410D01*
X121911879Y-110780006D01*
X121983492Y-110952895D01*
X122020000Y-111136433D01*
X122020000Y-111323567D01*
X121983492Y-111507105D01*
X121911879Y-111679994D01*
X121807913Y-111835590D01*
X121675590Y-111967913D01*
X121519994Y-112071879D01*
X121347105Y-112143492D01*
X121255336Y-112161746D01*
X121163568Y-112180000D01*
X120976432Y-112180000D01*
X120884664Y-112161746D01*
X120792895Y-112143492D01*
X120620006Y-112071879D01*
X120464410Y-111967913D01*
X120332087Y-111835590D01*
X120228121Y-111679994D01*
X120156508Y-111507105D01*
X120120000Y-111323567D01*
X120120000Y-111136433D01*
X120156508Y-110952895D01*
X120228121Y-110780006D01*
X120332087Y-110624410D01*
X120464410Y-110492087D01*
X120620006Y-110388121D01*
X120792895Y-110316508D01*
X120884664Y-110298254D01*
X120976432Y-110280000D01*
X121163568Y-110280000D01*
X121255336Y-110298254D01*
G37*
G36*
X116175336Y-110298254D02*
G01*
X116267105Y-110316508D01*
X116439994Y-110388121D01*
X116595590Y-110492087D01*
X116727913Y-110624410D01*
X116831879Y-110780006D01*
X116903492Y-110952895D01*
X116940000Y-111136433D01*
X116940000Y-111323567D01*
X116903492Y-111507105D01*
X116831879Y-111679994D01*
X116727913Y-111835590D01*
X116595590Y-111967913D01*
X116439994Y-112071879D01*
X116267105Y-112143492D01*
X116175336Y-112161746D01*
X116083568Y-112180000D01*
X115896432Y-112180000D01*
X115804664Y-112161746D01*
X115712895Y-112143492D01*
X115540006Y-112071879D01*
X115384410Y-111967913D01*
X115252087Y-111835590D01*
X115148121Y-111679994D01*
X115076508Y-111507105D01*
X115040000Y-111323567D01*
X115040000Y-111136433D01*
X115076508Y-110952895D01*
X115148121Y-110780006D01*
X115252087Y-110624410D01*
X115384410Y-110492087D01*
X115540006Y-110388121D01*
X115712895Y-110316508D01*
X115804664Y-110298254D01*
X115896432Y-110280000D01*
X116083568Y-110280000D01*
X116175336Y-110298254D01*
G37*
G36*
X96754757Y-109058903D02*
G01*
X96835780Y-109083481D01*
X96910449Y-109123393D01*
X96975896Y-109177104D01*
X97029607Y-109242551D01*
X97069519Y-109317220D01*
X97094097Y-109398243D01*
X97103000Y-109488640D01*
X97103000Y-110591360D01*
X97094097Y-110681757D01*
X97069519Y-110762780D01*
X97029607Y-110837449D01*
X96975896Y-110902896D01*
X96910449Y-110956607D01*
X96835780Y-110996519D01*
X96754757Y-111021097D01*
X96664360Y-111030000D01*
X94191640Y-111030000D01*
X94101243Y-111021097D01*
X94020220Y-110996519D01*
X93945551Y-110956607D01*
X93880104Y-110902896D01*
X93826393Y-110837449D01*
X93786481Y-110762780D01*
X93761903Y-110681757D01*
X93753000Y-110591360D01*
X93753000Y-109488640D01*
X93761903Y-109398243D01*
X93786481Y-109317220D01*
X93826393Y-109242551D01*
X93880104Y-109177104D01*
X93945551Y-109123393D01*
X94020220Y-109083481D01*
X94101243Y-109058903D01*
X94191640Y-109050000D01*
X96664360Y-109050000D01*
X96754757Y-109058903D01*
G37*
G36*
X91210000Y-111027000D02*
G01*
X89486000Y-111027000D01*
X89486000Y-109303000D01*
X91210000Y-109303000D01*
X91210000Y-111027000D01*
G37*
G36*
X90599433Y-106796125D02*
G01*
X90599435Y-106796126D01*
X90599436Y-106796126D01*
X90756310Y-106861105D01*
X90897493Y-106955441D01*
X91017559Y-107075507D01*
X91111895Y-107216690D01*
X91173211Y-107364721D01*
X91176875Y-107373567D01*
X91193334Y-107456314D01*
X91210000Y-107540100D01*
X91210000Y-107709900D01*
X91176874Y-107876436D01*
X91111895Y-108033310D01*
X91017559Y-108174493D01*
X90897493Y-108294559D01*
X90756310Y-108388895D01*
X90599436Y-108453874D01*
X90599435Y-108453874D01*
X90599433Y-108453875D01*
X90432901Y-108487000D01*
X90263099Y-108487000D01*
X90096567Y-108453875D01*
X90096565Y-108453874D01*
X90096564Y-108453874D01*
X89939690Y-108388895D01*
X89798507Y-108294559D01*
X89678441Y-108174493D01*
X89584105Y-108033310D01*
X89519126Y-107876436D01*
X89486000Y-107709900D01*
X89486000Y-107540100D01*
X89502666Y-107456314D01*
X89519125Y-107373567D01*
X89522789Y-107364721D01*
X89584105Y-107216690D01*
X89678441Y-107075507D01*
X89798507Y-106955441D01*
X89939690Y-106861105D01*
X90096564Y-106796126D01*
X90096565Y-106796126D01*
X90096567Y-106796125D01*
X90263099Y-106763000D01*
X90432901Y-106763000D01*
X90599433Y-106796125D01*
G37*
G36*
X158476223Y-105271078D02*
G01*
X158539423Y-105290250D01*
X158597672Y-105321384D01*
X158648721Y-105363279D01*
X158690616Y-105414328D01*
X158721750Y-105472577D01*
X158740922Y-105535777D01*
X158748000Y-105607640D01*
X158748000Y-107120360D01*
X158740922Y-107192223D01*
X158721750Y-107255423D01*
X158690616Y-107313672D01*
X158648721Y-107364721D01*
X158597672Y-107406616D01*
X158539423Y-107437750D01*
X158476223Y-107456922D01*
X158404360Y-107464000D01*
X157491640Y-107464000D01*
X157419777Y-107456922D01*
X157356577Y-107437750D01*
X157298328Y-107406616D01*
X157247279Y-107364721D01*
X157205384Y-107313672D01*
X157174250Y-107255423D01*
X157155078Y-107192223D01*
X157148000Y-107120360D01*
X157148000Y-105607640D01*
X157155078Y-105535777D01*
X157174250Y-105472577D01*
X157205384Y-105414328D01*
X157247279Y-105363279D01*
X157298328Y-105321384D01*
X157356577Y-105290250D01*
X157419777Y-105271078D01*
X157491640Y-105264000D01*
X158404360Y-105264000D01*
X158476223Y-105271078D01*
G37*
G36*
X162976223Y-105271078D02*
G01*
X163039423Y-105290250D01*
X163097672Y-105321384D01*
X163148721Y-105363279D01*
X163190616Y-105414328D01*
X163221750Y-105472577D01*
X163240922Y-105535777D01*
X163248000Y-105607640D01*
X163248000Y-107120360D01*
X163240922Y-107192223D01*
X163221750Y-107255423D01*
X163190616Y-107313672D01*
X163148721Y-107364721D01*
X163097672Y-107406616D01*
X163039423Y-107437750D01*
X162976223Y-107456922D01*
X162904360Y-107464000D01*
X161991640Y-107464000D01*
X161919777Y-107456922D01*
X161856577Y-107437750D01*
X161798328Y-107406616D01*
X161747279Y-107364721D01*
X161705384Y-107313672D01*
X161674250Y-107255423D01*
X161655078Y-107192223D01*
X161648000Y-107120360D01*
X161648000Y-105607640D01*
X161655078Y-105535777D01*
X161674250Y-105472577D01*
X161705384Y-105414328D01*
X161747279Y-105363279D01*
X161798328Y-105321384D01*
X161856577Y-105290250D01*
X161919777Y-105271078D01*
X161991640Y-105264000D01*
X162904360Y-105264000D01*
X162976223Y-105271078D01*
G37*
G36*
X106575144Y-105933475D02*
G01*
X106603171Y-105941977D01*
X106629000Y-105955783D01*
X106651638Y-105974362D01*
X106670217Y-105997000D01*
X106684023Y-106022829D01*
X106692525Y-106050856D01*
X106696000Y-106086140D01*
X106696000Y-106623860D01*
X106692525Y-106659144D01*
X106684023Y-106687171D01*
X106670217Y-106713000D01*
X106651638Y-106735638D01*
X106629000Y-106754217D01*
X106603171Y-106768023D01*
X106575144Y-106776525D01*
X106539860Y-106780000D01*
X104902140Y-106780000D01*
X104866856Y-106776525D01*
X104838829Y-106768023D01*
X104813000Y-106754217D01*
X104790362Y-106735638D01*
X104771783Y-106713000D01*
X104757977Y-106687171D01*
X104749475Y-106659144D01*
X104746000Y-106623860D01*
X104746000Y-106086140D01*
X104749475Y-106050856D01*
X104757977Y-106022829D01*
X104771783Y-105997000D01*
X104790362Y-105974362D01*
X104813000Y-105955783D01*
X104838829Y-105941977D01*
X104866856Y-105933475D01*
X104902140Y-105930000D01*
X106539860Y-105930000D01*
X106575144Y-105933475D01*
G37*
G36*
X100975144Y-105933475D02*
G01*
X101003171Y-105941977D01*
X101029000Y-105955783D01*
X101051638Y-105974362D01*
X101070217Y-105997000D01*
X101084023Y-106022829D01*
X101092525Y-106050856D01*
X101096000Y-106086140D01*
X101096000Y-106623860D01*
X101092525Y-106659144D01*
X101084023Y-106687171D01*
X101070217Y-106713000D01*
X101051638Y-106735638D01*
X101029000Y-106754217D01*
X101003171Y-106768023D01*
X100975144Y-106776525D01*
X100939860Y-106780000D01*
X99302140Y-106780000D01*
X99266856Y-106776525D01*
X99238829Y-106768023D01*
X99213000Y-106754217D01*
X99190362Y-106735638D01*
X99171783Y-106713000D01*
X99157977Y-106687171D01*
X99149475Y-106659144D01*
X99146000Y-106623860D01*
X99146000Y-106086140D01*
X99149475Y-106050856D01*
X99157977Y-106022829D01*
X99171783Y-105997000D01*
X99190362Y-105974362D01*
X99213000Y-105955783D01*
X99238829Y-105941977D01*
X99266856Y-105933475D01*
X99302140Y-105930000D01*
X100939860Y-105930000D01*
X100975144Y-105933475D01*
G37*
G36*
X110773748Y-105440036D02*
G01*
X110817011Y-105453160D01*
X110856890Y-105474476D01*
X110891841Y-105503159D01*
X110920524Y-105538110D01*
X110941840Y-105577989D01*
X110954964Y-105621252D01*
X110960000Y-105672390D01*
X110960000Y-106372610D01*
X110954964Y-106423748D01*
X110941840Y-106467011D01*
X110920524Y-106506890D01*
X110891841Y-106541841D01*
X110856890Y-106570524D01*
X110817011Y-106591840D01*
X110773748Y-106604964D01*
X110722610Y-106610000D01*
X109597390Y-106610000D01*
X109546252Y-106604964D01*
X109502989Y-106591840D01*
X109463110Y-106570524D01*
X109428159Y-106541841D01*
X109399476Y-106506890D01*
X109378160Y-106467011D01*
X109365036Y-106423748D01*
X109360000Y-106372610D01*
X109360000Y-105672390D01*
X109365036Y-105621252D01*
X109378160Y-105577989D01*
X109399476Y-105538110D01*
X109428159Y-105503159D01*
X109463110Y-105474476D01*
X109502989Y-105453160D01*
X109546252Y-105440036D01*
X109597390Y-105435000D01*
X110722610Y-105435000D01*
X110773748Y-105440036D01*
G37*
G36*
X96754757Y-104228903D02*
G01*
X96835780Y-104253481D01*
X96910449Y-104293393D01*
X96975896Y-104347104D01*
X97029607Y-104412551D01*
X97069519Y-104487220D01*
X97094097Y-104568243D01*
X97103000Y-104658640D01*
X97103000Y-105761360D01*
X97094097Y-105851757D01*
X97069519Y-105932780D01*
X97029607Y-106007449D01*
X96975896Y-106072896D01*
X96910449Y-106126607D01*
X96835780Y-106166519D01*
X96754757Y-106191097D01*
X96664360Y-106200000D01*
X94191640Y-106200000D01*
X94101243Y-106191097D01*
X94020220Y-106166519D01*
X93945551Y-106126607D01*
X93880104Y-106072896D01*
X93826393Y-106007449D01*
X93786481Y-105932780D01*
X93761903Y-105851757D01*
X93753000Y-105761360D01*
X93753000Y-104658640D01*
X93761903Y-104568243D01*
X93786481Y-104487220D01*
X93826393Y-104412551D01*
X93880104Y-104347104D01*
X93945551Y-104293393D01*
X94020220Y-104253481D01*
X94101243Y-104228903D01*
X94191640Y-104220000D01*
X96664360Y-104220000D01*
X96754757Y-104228903D01*
G37*
G36*
X90599433Y-104256125D02*
G01*
X90599435Y-104256126D01*
X90599436Y-104256126D01*
X90756310Y-104321105D01*
X90897493Y-104415441D01*
X91017559Y-104535507D01*
X91111895Y-104676690D01*
X91175830Y-104831043D01*
X91176875Y-104833567D01*
X91210000Y-105000099D01*
X91210000Y-105169901D01*
X91177874Y-105331412D01*
X91176874Y-105336436D01*
X91111895Y-105493310D01*
X91017559Y-105634493D01*
X90897493Y-105754559D01*
X90756310Y-105848895D01*
X90599436Y-105913874D01*
X90599435Y-105913874D01*
X90599433Y-105913875D01*
X90432901Y-105947000D01*
X90263099Y-105947000D01*
X90096567Y-105913875D01*
X90096565Y-105913874D01*
X90096564Y-105913874D01*
X89939690Y-105848895D01*
X89798507Y-105754559D01*
X89678441Y-105634493D01*
X89584105Y-105493310D01*
X89519126Y-105336436D01*
X89518127Y-105331412D01*
X89486000Y-105169901D01*
X89486000Y-105000099D01*
X89519125Y-104833567D01*
X89520170Y-104831043D01*
X89584105Y-104676690D01*
X89678441Y-104535507D01*
X89798507Y-104415441D01*
X89939690Y-104321105D01*
X90096564Y-104256126D01*
X90096565Y-104256126D01*
X90096567Y-104256125D01*
X90263099Y-104223000D01*
X90432901Y-104223000D01*
X90599433Y-104256125D01*
G37*
G36*
X100975144Y-104663475D02*
G01*
X101003171Y-104671977D01*
X101029000Y-104685783D01*
X101051638Y-104704362D01*
X101070217Y-104727000D01*
X101084023Y-104752829D01*
X101092525Y-104780856D01*
X101096000Y-104816140D01*
X101096000Y-105353860D01*
X101092525Y-105389144D01*
X101084023Y-105417171D01*
X101070217Y-105443000D01*
X101051638Y-105465638D01*
X101029000Y-105484217D01*
X101003171Y-105498023D01*
X100975144Y-105506525D01*
X100939860Y-105510000D01*
X99302140Y-105510000D01*
X99266856Y-105506525D01*
X99238829Y-105498023D01*
X99213000Y-105484217D01*
X99190362Y-105465638D01*
X99171783Y-105443000D01*
X99157977Y-105417171D01*
X99149475Y-105389144D01*
X99146000Y-105353860D01*
X99146000Y-104816140D01*
X99149475Y-104780856D01*
X99157977Y-104752829D01*
X99171783Y-104727000D01*
X99190362Y-104704362D01*
X99213000Y-104685783D01*
X99238829Y-104671977D01*
X99266856Y-104663475D01*
X99302140Y-104660000D01*
X100939860Y-104660000D01*
X100975144Y-104663475D01*
G37*
G36*
X106575144Y-104663475D02*
G01*
X106603171Y-104671977D01*
X106629000Y-104685783D01*
X106651638Y-104704362D01*
X106670217Y-104727000D01*
X106684023Y-104752829D01*
X106692525Y-104780856D01*
X106696000Y-104816140D01*
X106696000Y-105353860D01*
X106692525Y-105389144D01*
X106684023Y-105417171D01*
X106670217Y-105443000D01*
X106651638Y-105465638D01*
X106629000Y-105484217D01*
X106603171Y-105498023D01*
X106575144Y-105506525D01*
X106539860Y-105510000D01*
X104902140Y-105510000D01*
X104866856Y-105506525D01*
X104838829Y-105498023D01*
X104813000Y-105484217D01*
X104790362Y-105465638D01*
X104771783Y-105443000D01*
X104757977Y-105417171D01*
X104749475Y-105389144D01*
X104746000Y-105353860D01*
X104746000Y-104816140D01*
X104749475Y-104780856D01*
X104757977Y-104752829D01*
X104771783Y-104727000D01*
X104790362Y-104704362D01*
X104813000Y-104685783D01*
X104838829Y-104671977D01*
X104866856Y-104663475D01*
X104902140Y-104660000D01*
X106539860Y-104660000D01*
X106575144Y-104663475D01*
G37*
G36*
X110773748Y-103565036D02*
G01*
X110817011Y-103578160D01*
X110856890Y-103599476D01*
X110891841Y-103628159D01*
X110920524Y-103663110D01*
X110941840Y-103702989D01*
X110954964Y-103746252D01*
X110960000Y-103797390D01*
X110960000Y-104497610D01*
X110954964Y-104548748D01*
X110941840Y-104592011D01*
X110920524Y-104631890D01*
X110891841Y-104666841D01*
X110856890Y-104695524D01*
X110817011Y-104716840D01*
X110773748Y-104729964D01*
X110722610Y-104735000D01*
X109597390Y-104735000D01*
X109546252Y-104729964D01*
X109502989Y-104716840D01*
X109463110Y-104695524D01*
X109428159Y-104666841D01*
X109399476Y-104631890D01*
X109378160Y-104592011D01*
X109365036Y-104548748D01*
X109360000Y-104497610D01*
X109360000Y-103797390D01*
X109365036Y-103746252D01*
X109378160Y-103702989D01*
X109399476Y-103663110D01*
X109428159Y-103628159D01*
X109463110Y-103599476D01*
X109502989Y-103578160D01*
X109546252Y-103565036D01*
X109597390Y-103560000D01*
X110722610Y-103560000D01*
X110773748Y-103565036D01*
G37*
G36*
X112798748Y-103020036D02*
G01*
X112842011Y-103033160D01*
X112881890Y-103054476D01*
X112916841Y-103083159D01*
X112945524Y-103118110D01*
X112966840Y-103157989D01*
X112979964Y-103201252D01*
X112985000Y-103252390D01*
X112985000Y-104377610D01*
X112979964Y-104428748D01*
X112966840Y-104472011D01*
X112945524Y-104511890D01*
X112916841Y-104546841D01*
X112881890Y-104575524D01*
X112842011Y-104596840D01*
X112798748Y-104609964D01*
X112747610Y-104615000D01*
X112047390Y-104615000D01*
X111996252Y-104609964D01*
X111952989Y-104596840D01*
X111913110Y-104575524D01*
X111878159Y-104546841D01*
X111849476Y-104511890D01*
X111828160Y-104472011D01*
X111815036Y-104428748D01*
X111810000Y-104377610D01*
X111810000Y-103252390D01*
X111815036Y-103201252D01*
X111828160Y-103157989D01*
X111849476Y-103118110D01*
X111878159Y-103083159D01*
X111913110Y-103054476D01*
X111952989Y-103033160D01*
X111996252Y-103020036D01*
X112047390Y-103015000D01*
X112747610Y-103015000D01*
X112798748Y-103020036D01*
G37*
G36*
X114673748Y-103020036D02*
G01*
X114717011Y-103033160D01*
X114756890Y-103054476D01*
X114791841Y-103083159D01*
X114820524Y-103118110D01*
X114841840Y-103157989D01*
X114854964Y-103201252D01*
X114860000Y-103252390D01*
X114860000Y-104377610D01*
X114854964Y-104428748D01*
X114841840Y-104472011D01*
X114820524Y-104511890D01*
X114791841Y-104546841D01*
X114756890Y-104575524D01*
X114717011Y-104596840D01*
X114673748Y-104609964D01*
X114622610Y-104615000D01*
X113922390Y-104615000D01*
X113871252Y-104609964D01*
X113827989Y-104596840D01*
X113788110Y-104575524D01*
X113753159Y-104546841D01*
X113724476Y-104511890D01*
X113703160Y-104472011D01*
X113690036Y-104428748D01*
X113685000Y-104377610D01*
X113685000Y-103252390D01*
X113690036Y-103201252D01*
X113703160Y-103157989D01*
X113724476Y-103118110D01*
X113753159Y-103083159D01*
X113788110Y-103054476D01*
X113827989Y-103033160D01*
X113871252Y-103020036D01*
X113922390Y-103015000D01*
X114622610Y-103015000D01*
X114673748Y-103020036D01*
G37*
G36*
X106575144Y-103393475D02*
G01*
X106603171Y-103401977D01*
X106629000Y-103415783D01*
X106651638Y-103434362D01*
X106670217Y-103457000D01*
X106684023Y-103482829D01*
X106692525Y-103510856D01*
X106696000Y-103546140D01*
X106696000Y-104083860D01*
X106692525Y-104119144D01*
X106684023Y-104147171D01*
X106670217Y-104173000D01*
X106651638Y-104195638D01*
X106629000Y-104214217D01*
X106603171Y-104228023D01*
X106575144Y-104236525D01*
X106539860Y-104240000D01*
X104902140Y-104240000D01*
X104866856Y-104236525D01*
X104838829Y-104228023D01*
X104813000Y-104214217D01*
X104790362Y-104195638D01*
X104771783Y-104173000D01*
X104757977Y-104147171D01*
X104749475Y-104119144D01*
X104746000Y-104083860D01*
X104746000Y-103546140D01*
X104749475Y-103510856D01*
X104757977Y-103482829D01*
X104771783Y-103457000D01*
X104790362Y-103434362D01*
X104813000Y-103415783D01*
X104838829Y-103401977D01*
X104866856Y-103393475D01*
X104902140Y-103390000D01*
X106539860Y-103390000D01*
X106575144Y-103393475D01*
G37*
G36*
X100975144Y-103393475D02*
G01*
X101003171Y-103401977D01*
X101029000Y-103415783D01*
X101051638Y-103434362D01*
X101070217Y-103457000D01*
X101084023Y-103482829D01*
X101092525Y-103510856D01*
X101096000Y-103546140D01*
X101096000Y-104083860D01*
X101092525Y-104119144D01*
X101084023Y-104147171D01*
X101070217Y-104173000D01*
X101051638Y-104195638D01*
X101029000Y-104214217D01*
X101003171Y-104228023D01*
X100975144Y-104236525D01*
X100939860Y-104240000D01*
X99302140Y-104240000D01*
X99266856Y-104236525D01*
X99238829Y-104228023D01*
X99213000Y-104214217D01*
X99190362Y-104195638D01*
X99171783Y-104173000D01*
X99157977Y-104147171D01*
X99149475Y-104119144D01*
X99146000Y-104083860D01*
X99146000Y-103546140D01*
X99149475Y-103510856D01*
X99157977Y-103482829D01*
X99171783Y-103457000D01*
X99190362Y-103434362D01*
X99213000Y-103415783D01*
X99238829Y-103401977D01*
X99266856Y-103393475D01*
X99302140Y-103390000D01*
X100939860Y-103390000D01*
X100975144Y-103393475D01*
G37*
G36*
X90599433Y-101716125D02*
G01*
X90599435Y-101716126D01*
X90599436Y-101716126D01*
X90756310Y-101781105D01*
X90897493Y-101875441D01*
X91017559Y-101995507D01*
X91111895Y-102136690D01*
X91176874Y-102293564D01*
X91210000Y-102460100D01*
X91210000Y-102629900D01*
X91176874Y-102796436D01*
X91111895Y-102953310D01*
X91017559Y-103094493D01*
X90897493Y-103214559D01*
X90756310Y-103308895D01*
X90599436Y-103373874D01*
X90599435Y-103373874D01*
X90599433Y-103373875D01*
X90432901Y-103407000D01*
X90263099Y-103407000D01*
X90096567Y-103373875D01*
X90096565Y-103373874D01*
X90096564Y-103373874D01*
X89939690Y-103308895D01*
X89798507Y-103214559D01*
X89678441Y-103094493D01*
X89584105Y-102953310D01*
X89519126Y-102796436D01*
X89486000Y-102629900D01*
X89486000Y-102460100D01*
X89519126Y-102293564D01*
X89584105Y-102136690D01*
X89678441Y-101995507D01*
X89798507Y-101875441D01*
X89939690Y-101781105D01*
X90096564Y-101716126D01*
X90096565Y-101716126D01*
X90096567Y-101716125D01*
X90263099Y-101683000D01*
X90432901Y-101683000D01*
X90599433Y-101716125D01*
G37*
G36*
X106575144Y-102123475D02*
G01*
X106603171Y-102131977D01*
X106629000Y-102145783D01*
X106651638Y-102164362D01*
X106670217Y-102187000D01*
X106684023Y-102212829D01*
X106692525Y-102240856D01*
X106696000Y-102276140D01*
X106696000Y-102813860D01*
X106692525Y-102849144D01*
X106684023Y-102877171D01*
X106670217Y-102903000D01*
X106651638Y-102925638D01*
X106629000Y-102944217D01*
X106603171Y-102958023D01*
X106575144Y-102966525D01*
X106539860Y-102970000D01*
X104902140Y-102970000D01*
X104866856Y-102966525D01*
X104838829Y-102958023D01*
X104813000Y-102944217D01*
X104790362Y-102925638D01*
X104771783Y-102903000D01*
X104757977Y-102877171D01*
X104749475Y-102849144D01*
X104746000Y-102813860D01*
X104746000Y-102276140D01*
X104749475Y-102240856D01*
X104757977Y-102212829D01*
X104771783Y-102187000D01*
X104790362Y-102164362D01*
X104813000Y-102145783D01*
X104838829Y-102131977D01*
X104866856Y-102123475D01*
X104902140Y-102120000D01*
X106539860Y-102120000D01*
X106575144Y-102123475D01*
G37*
G36*
X100975144Y-102123475D02*
G01*
X101003171Y-102131977D01*
X101029000Y-102145783D01*
X101051638Y-102164362D01*
X101070217Y-102187000D01*
X101084023Y-102212829D01*
X101092525Y-102240856D01*
X101096000Y-102276140D01*
X101096000Y-102813860D01*
X101092525Y-102849144D01*
X101084023Y-102877171D01*
X101070217Y-102903000D01*
X101051638Y-102925638D01*
X101029000Y-102944217D01*
X101003171Y-102958023D01*
X100975144Y-102966525D01*
X100939860Y-102970000D01*
X99302140Y-102970000D01*
X99266856Y-102966525D01*
X99238829Y-102958023D01*
X99213000Y-102944217D01*
X99190362Y-102925638D01*
X99171783Y-102903000D01*
X99157977Y-102877171D01*
X99149475Y-102849144D01*
X99146000Y-102813860D01*
X99146000Y-102276140D01*
X99149475Y-102240856D01*
X99157977Y-102212829D01*
X99171783Y-102187000D01*
X99190362Y-102164362D01*
X99213000Y-102145783D01*
X99238829Y-102131977D01*
X99266856Y-102123475D01*
X99302140Y-102120000D01*
X100939860Y-102120000D01*
X100975144Y-102123475D01*
G37*
G36*
X162976223Y-96871078D02*
G01*
X163039423Y-96890250D01*
X163097672Y-96921384D01*
X163148721Y-96963279D01*
X163190616Y-97014328D01*
X163221750Y-97072577D01*
X163240922Y-97135777D01*
X163248000Y-97207640D01*
X163248000Y-98720360D01*
X163240922Y-98792223D01*
X163221750Y-98855423D01*
X163190616Y-98913672D01*
X163148721Y-98964721D01*
X163097672Y-99006616D01*
X163039423Y-99037750D01*
X162976223Y-99056922D01*
X162904360Y-99064000D01*
X161991640Y-99064000D01*
X161919777Y-99056922D01*
X161856577Y-99037750D01*
X161798328Y-99006616D01*
X161747279Y-98964721D01*
X161705384Y-98913672D01*
X161674250Y-98855423D01*
X161655078Y-98792223D01*
X161648000Y-98720360D01*
X161648000Y-97207640D01*
X161655078Y-97135777D01*
X161674250Y-97072577D01*
X161705384Y-97014328D01*
X161747279Y-96963279D01*
X161798328Y-96921384D01*
X161856577Y-96890250D01*
X161919777Y-96871078D01*
X161991640Y-96864000D01*
X162904360Y-96864000D01*
X162976223Y-96871078D01*
G37*
G36*
X158476223Y-96871078D02*
G01*
X158539423Y-96890250D01*
X158597672Y-96921384D01*
X158648721Y-96963279D01*
X158690616Y-97014328D01*
X158721750Y-97072577D01*
X158740922Y-97135777D01*
X158748000Y-97207640D01*
X158748000Y-98720360D01*
X158740922Y-98792223D01*
X158721750Y-98855423D01*
X158690616Y-98913672D01*
X158648721Y-98964721D01*
X158597672Y-99006616D01*
X158539423Y-99037750D01*
X158476223Y-99056922D01*
X158404360Y-99064000D01*
X157491640Y-99064000D01*
X157419777Y-99056922D01*
X157356577Y-99037750D01*
X157298328Y-99006616D01*
X157247279Y-98964721D01*
X157205384Y-98913672D01*
X157174250Y-98855423D01*
X157155078Y-98792223D01*
X157148000Y-98720360D01*
X157148000Y-97207640D01*
X157155078Y-97135777D01*
X157174250Y-97072577D01*
X157205384Y-97014328D01*
X157247279Y-96963279D01*
X157298328Y-96921384D01*
X157356577Y-96890250D01*
X157419777Y-96871078D01*
X157491640Y-96864000D01*
X158404360Y-96864000D01*
X158476223Y-96871078D01*
G37*
G36*
X102638748Y-90955036D02*
G01*
X102682011Y-90968160D01*
X102721890Y-90989476D01*
X102756841Y-91018159D01*
X102785524Y-91053110D01*
X102806840Y-91092989D01*
X102819964Y-91136252D01*
X102825000Y-91187390D01*
X102825000Y-92312610D01*
X102819964Y-92363748D01*
X102806840Y-92407011D01*
X102785524Y-92446890D01*
X102756841Y-92481841D01*
X102721890Y-92510524D01*
X102682011Y-92531840D01*
X102638748Y-92544964D01*
X102587610Y-92550000D01*
X101887390Y-92550000D01*
X101836252Y-92544964D01*
X101792989Y-92531840D01*
X101753110Y-92510524D01*
X101718159Y-92481841D01*
X101689476Y-92446890D01*
X101668160Y-92407011D01*
X101655036Y-92363748D01*
X101650000Y-92312610D01*
X101650000Y-91187390D01*
X101655036Y-91136252D01*
X101668160Y-91092989D01*
X101689476Y-91053110D01*
X101718159Y-91018159D01*
X101753110Y-90989476D01*
X101792989Y-90968160D01*
X101836252Y-90955036D01*
X101887390Y-90950000D01*
X102587610Y-90950000D01*
X102638748Y-90955036D01*
G37*
G36*
X104513748Y-90955036D02*
G01*
X104557011Y-90968160D01*
X104596890Y-90989476D01*
X104631841Y-91018159D01*
X104660524Y-91053110D01*
X104681840Y-91092989D01*
X104694964Y-91136252D01*
X104700000Y-91187390D01*
X104700000Y-92312610D01*
X104694964Y-92363748D01*
X104681840Y-92407011D01*
X104660524Y-92446890D01*
X104631841Y-92481841D01*
X104596890Y-92510524D01*
X104557011Y-92531840D01*
X104513748Y-92544964D01*
X104462610Y-92550000D01*
X103762390Y-92550000D01*
X103711252Y-92544964D01*
X103667989Y-92531840D01*
X103628110Y-92510524D01*
X103593159Y-92481841D01*
X103564476Y-92446890D01*
X103543160Y-92407011D01*
X103530036Y-92363748D01*
X103525000Y-92312610D01*
X103525000Y-91187390D01*
X103530036Y-91136252D01*
X103543160Y-91092989D01*
X103564476Y-91053110D01*
X103593159Y-91018159D01*
X103628110Y-90989476D01*
X103667989Y-90968160D01*
X103711252Y-90955036D01*
X103762390Y-90950000D01*
X104462610Y-90950000D01*
X104513748Y-90955036D01*
G37*
G36*
X98138715Y-89185156D02*
G01*
X98183155Y-89198637D01*
X98224113Y-89220530D01*
X98260011Y-89249989D01*
X98289470Y-89285887D01*
X98311363Y-89326845D01*
X98324844Y-89371285D01*
X98330000Y-89423640D01*
X98330000Y-90136360D01*
X98324844Y-90188715D01*
X98311363Y-90233155D01*
X98289470Y-90274113D01*
X98260011Y-90310011D01*
X98224113Y-90339470D01*
X98180182Y-90362952D01*
X98163742Y-90369762D01*
X98143368Y-90383376D01*
X98126041Y-90400703D01*
X98112428Y-90421078D01*
X98103051Y-90443717D01*
X98098271Y-90467750D01*
X98098271Y-90492254D01*
X98103052Y-90516288D01*
X98112430Y-90538926D01*
X98126044Y-90559300D01*
X98143371Y-90576627D01*
X98163746Y-90590240D01*
X98180183Y-90597049D01*
X98224113Y-90620530D01*
X98260011Y-90649989D01*
X98289470Y-90685887D01*
X98311363Y-90726845D01*
X98324844Y-90771285D01*
X98330000Y-90823640D01*
X98330000Y-91536360D01*
X98324844Y-91588715D01*
X98311363Y-91633155D01*
X98289470Y-91674113D01*
X98260011Y-91710011D01*
X98224113Y-91739470D01*
X98183155Y-91761363D01*
X98138715Y-91774844D01*
X98086360Y-91780000D01*
X97373640Y-91780000D01*
X97321285Y-91774844D01*
X97276845Y-91761363D01*
X97235887Y-91739470D01*
X97199989Y-91710011D01*
X97170530Y-91674113D01*
X97148637Y-91633155D01*
X97135156Y-91588715D01*
X97130000Y-91536360D01*
X97130000Y-90823640D01*
X97135156Y-90771285D01*
X97148637Y-90726845D01*
X97170530Y-90685887D01*
X97199989Y-90649989D01*
X97235887Y-90620530D01*
X97279818Y-90597048D01*
X97296258Y-90590238D01*
X97316632Y-90576624D01*
X97333959Y-90559297D01*
X97347572Y-90538922D01*
X97356949Y-90516283D01*
X97361729Y-90492250D01*
X97361729Y-90467746D01*
X97356948Y-90443712D01*
X97347570Y-90421074D01*
X97333956Y-90400700D01*
X97316629Y-90383373D01*
X97296254Y-90369760D01*
X97279817Y-90362951D01*
X97235887Y-90339470D01*
X97199989Y-90310011D01*
X97170530Y-90274113D01*
X97148637Y-90233155D01*
X97135156Y-90188715D01*
X97130000Y-90136360D01*
X97130000Y-89423640D01*
X97135156Y-89371285D01*
X97148637Y-89326845D01*
X97170530Y-89285887D01*
X97199989Y-89249989D01*
X97235887Y-89220530D01*
X97276845Y-89198637D01*
X97321285Y-89185156D01*
X97373640Y-89180000D01*
X98086360Y-89180000D01*
X98138715Y-89185156D01*
G37*
G36*
X100138715Y-89185156D02*
G01*
X100183155Y-89198637D01*
X100224113Y-89220530D01*
X100260011Y-89249989D01*
X100289470Y-89285887D01*
X100311363Y-89326845D01*
X100324844Y-89371285D01*
X100330000Y-89423640D01*
X100330000Y-90136360D01*
X100324844Y-90188715D01*
X100311363Y-90233155D01*
X100289470Y-90274113D01*
X100260011Y-90310011D01*
X100224113Y-90339470D01*
X100180182Y-90362952D01*
X100163742Y-90369762D01*
X100143368Y-90383376D01*
X100126041Y-90400703D01*
X100112428Y-90421078D01*
X100103051Y-90443717D01*
X100098271Y-90467750D01*
X100098271Y-90492254D01*
X100103052Y-90516288D01*
X100112430Y-90538926D01*
X100126044Y-90559300D01*
X100143371Y-90576627D01*
X100163746Y-90590240D01*
X100180183Y-90597049D01*
X100224113Y-90620530D01*
X100260011Y-90649989D01*
X100289470Y-90685887D01*
X100311363Y-90726845D01*
X100324844Y-90771285D01*
X100330000Y-90823640D01*
X100330000Y-91536360D01*
X100324844Y-91588715D01*
X100311363Y-91633155D01*
X100289470Y-91674113D01*
X100260011Y-91710011D01*
X100224113Y-91739470D01*
X100183155Y-91761363D01*
X100138715Y-91774844D01*
X100086360Y-91780000D01*
X99373640Y-91780000D01*
X99321285Y-91774844D01*
X99276845Y-91761363D01*
X99235887Y-91739470D01*
X99199989Y-91710011D01*
X99170530Y-91674113D01*
X99148637Y-91633155D01*
X99135156Y-91588715D01*
X99130000Y-91536360D01*
X99130000Y-90823640D01*
X99135156Y-90771285D01*
X99148637Y-90726845D01*
X99170530Y-90685887D01*
X99199989Y-90649989D01*
X99235887Y-90620530D01*
X99279818Y-90597048D01*
X99296258Y-90590238D01*
X99316632Y-90576624D01*
X99333959Y-90559297D01*
X99347572Y-90538922D01*
X99356949Y-90516283D01*
X99361729Y-90492250D01*
X99361729Y-90467746D01*
X99356948Y-90443712D01*
X99347570Y-90421074D01*
X99333956Y-90400700D01*
X99316629Y-90383373D01*
X99296254Y-90369760D01*
X99279817Y-90362951D01*
X99235887Y-90339470D01*
X99199989Y-90310011D01*
X99170530Y-90274113D01*
X99148637Y-90233155D01*
X99135156Y-90188715D01*
X99130000Y-90136360D01*
X99130000Y-89423640D01*
X99135156Y-89371285D01*
X99148637Y-89326845D01*
X99170530Y-89285887D01*
X99199989Y-89249989D01*
X99235887Y-89220530D01*
X99276845Y-89198637D01*
X99321285Y-89185156D01*
X99373640Y-89180000D01*
X100086360Y-89180000D01*
X100138715Y-89185156D01*
G37*
G36*
X104513748Y-88415036D02*
G01*
X104557011Y-88428160D01*
X104596890Y-88449476D01*
X104631841Y-88478159D01*
X104660524Y-88513110D01*
X104681840Y-88552989D01*
X104694964Y-88596252D01*
X104700000Y-88647390D01*
X104700000Y-89772610D01*
X104694964Y-89823748D01*
X104681840Y-89867011D01*
X104660524Y-89906890D01*
X104631841Y-89941841D01*
X104596890Y-89970524D01*
X104557011Y-89991840D01*
X104513748Y-90004964D01*
X104462610Y-90010000D01*
X103762390Y-90010000D01*
X103711252Y-90004964D01*
X103667989Y-89991840D01*
X103628110Y-89970524D01*
X103593159Y-89941841D01*
X103564476Y-89906890D01*
X103543160Y-89867011D01*
X103530036Y-89823748D01*
X103525000Y-89772610D01*
X103525000Y-88647390D01*
X103530036Y-88596252D01*
X103543160Y-88552989D01*
X103564476Y-88513110D01*
X103593159Y-88478159D01*
X103628110Y-88449476D01*
X103667989Y-88428160D01*
X103711252Y-88415036D01*
X103762390Y-88410000D01*
X104462610Y-88410000D01*
X104513748Y-88415036D01*
G37*
G36*
X102638748Y-88415036D02*
G01*
X102682011Y-88428160D01*
X102721890Y-88449476D01*
X102756841Y-88478159D01*
X102785524Y-88513110D01*
X102806840Y-88552989D01*
X102819964Y-88596252D01*
X102825000Y-88647390D01*
X102825000Y-89772610D01*
X102819964Y-89823748D01*
X102806840Y-89867011D01*
X102785524Y-89906890D01*
X102756841Y-89941841D01*
X102721890Y-89970524D01*
X102682011Y-89991840D01*
X102638748Y-90004964D01*
X102587610Y-90010000D01*
X101887390Y-90010000D01*
X101836252Y-90004964D01*
X101792989Y-89991840D01*
X101753110Y-89970524D01*
X101718159Y-89941841D01*
X101689476Y-89906890D01*
X101668160Y-89867011D01*
X101655036Y-89823748D01*
X101650000Y-89772610D01*
X101650000Y-88647390D01*
X101655036Y-88596252D01*
X101668160Y-88552989D01*
X101689476Y-88513110D01*
X101718159Y-88478159D01*
X101753110Y-88449476D01*
X101792989Y-88428160D01*
X101836252Y-88415036D01*
X101887390Y-88410000D01*
X102587610Y-88410000D01*
X102638748Y-88415036D01*
G37*
G36*
X104513748Y-84605036D02*
G01*
X104557011Y-84618160D01*
X104596890Y-84639476D01*
X104631841Y-84668159D01*
X104660524Y-84703110D01*
X104681840Y-84742989D01*
X104694964Y-84786252D01*
X104700000Y-84837390D01*
X104700000Y-85962610D01*
X104694964Y-86013748D01*
X104681840Y-86057011D01*
X104660524Y-86096890D01*
X104631841Y-86131841D01*
X104596890Y-86160524D01*
X104557011Y-86181840D01*
X104513748Y-86194964D01*
X104462610Y-86200000D01*
X103762390Y-86200000D01*
X103711252Y-86194964D01*
X103667989Y-86181840D01*
X103628110Y-86160524D01*
X103593159Y-86131841D01*
X103564476Y-86096890D01*
X103543160Y-86057011D01*
X103530036Y-86013748D01*
X103525000Y-85962610D01*
X103525000Y-84837390D01*
X103530036Y-84786252D01*
X103543160Y-84742989D01*
X103564476Y-84703110D01*
X103593159Y-84668159D01*
X103628110Y-84639476D01*
X103667989Y-84618160D01*
X103711252Y-84605036D01*
X103762390Y-84600000D01*
X104462610Y-84600000D01*
X104513748Y-84605036D01*
G37*
G36*
X102638748Y-84605036D02*
G01*
X102682011Y-84618160D01*
X102721890Y-84639476D01*
X102756841Y-84668159D01*
X102785524Y-84703110D01*
X102806840Y-84742989D01*
X102819964Y-84786252D01*
X102825000Y-84837390D01*
X102825000Y-85962610D01*
X102819964Y-86013748D01*
X102806840Y-86057011D01*
X102785524Y-86096890D01*
X102756841Y-86131841D01*
X102721890Y-86160524D01*
X102682011Y-86181840D01*
X102638748Y-86194964D01*
X102587610Y-86200000D01*
X101887390Y-86200000D01*
X101836252Y-86194964D01*
X101792989Y-86181840D01*
X101753110Y-86160524D01*
X101718159Y-86131841D01*
X101689476Y-86096890D01*
X101668160Y-86057011D01*
X101655036Y-86013748D01*
X101650000Y-85962610D01*
X101650000Y-84837390D01*
X101655036Y-84786252D01*
X101668160Y-84742989D01*
X101689476Y-84703110D01*
X101718159Y-84668159D01*
X101753110Y-84639476D01*
X101792989Y-84618160D01*
X101836252Y-84605036D01*
X101887390Y-84600000D01*
X102587610Y-84600000D01*
X102638748Y-84605036D01*
G37*
G36*
X98138715Y-82835156D02*
G01*
X98183155Y-82848637D01*
X98224113Y-82870530D01*
X98260011Y-82899989D01*
X98289470Y-82935887D01*
X98311363Y-82976845D01*
X98324844Y-83021285D01*
X98330000Y-83073640D01*
X98330000Y-83786360D01*
X98324844Y-83838715D01*
X98311363Y-83883155D01*
X98289470Y-83924113D01*
X98260011Y-83960011D01*
X98224113Y-83989470D01*
X98180182Y-84012952D01*
X98163742Y-84019762D01*
X98143368Y-84033376D01*
X98126041Y-84050703D01*
X98112428Y-84071078D01*
X98103051Y-84093717D01*
X98098271Y-84117750D01*
X98098271Y-84142254D01*
X98103052Y-84166288D01*
X98112430Y-84188926D01*
X98126044Y-84209300D01*
X98143371Y-84226627D01*
X98163746Y-84240240D01*
X98180183Y-84247049D01*
X98224113Y-84270530D01*
X98260011Y-84299989D01*
X98289470Y-84335887D01*
X98311363Y-84376845D01*
X98324844Y-84421285D01*
X98330000Y-84473640D01*
X98330000Y-85186360D01*
X98324844Y-85238715D01*
X98311363Y-85283155D01*
X98289470Y-85324113D01*
X98260011Y-85360011D01*
X98224113Y-85389470D01*
X98183155Y-85411363D01*
X98138715Y-85424844D01*
X98086360Y-85430000D01*
X97373640Y-85430000D01*
X97321285Y-85424844D01*
X97276845Y-85411363D01*
X97235887Y-85389470D01*
X97199989Y-85360011D01*
X97170530Y-85324113D01*
X97148637Y-85283155D01*
X97135156Y-85238715D01*
X97130000Y-85186360D01*
X97130000Y-84473640D01*
X97135156Y-84421285D01*
X97148637Y-84376845D01*
X97170530Y-84335887D01*
X97199989Y-84299989D01*
X97235887Y-84270530D01*
X97279818Y-84247048D01*
X97296258Y-84240238D01*
X97316632Y-84226624D01*
X97333959Y-84209297D01*
X97347572Y-84188922D01*
X97356949Y-84166283D01*
X97361729Y-84142250D01*
X97361729Y-84117746D01*
X97356948Y-84093712D01*
X97347570Y-84071074D01*
X97333956Y-84050700D01*
X97316629Y-84033373D01*
X97296254Y-84019760D01*
X97279817Y-84012951D01*
X97235887Y-83989470D01*
X97199989Y-83960011D01*
X97170530Y-83924113D01*
X97148637Y-83883155D01*
X97135156Y-83838715D01*
X97130000Y-83786360D01*
X97130000Y-83073640D01*
X97135156Y-83021285D01*
X97148637Y-82976845D01*
X97170530Y-82935887D01*
X97199989Y-82899989D01*
X97235887Y-82870530D01*
X97276845Y-82848637D01*
X97321285Y-82835156D01*
X97373640Y-82830000D01*
X98086360Y-82830000D01*
X98138715Y-82835156D01*
G37*
G36*
X100138715Y-82835156D02*
G01*
X100183155Y-82848637D01*
X100224113Y-82870530D01*
X100260011Y-82899989D01*
X100289470Y-82935887D01*
X100311363Y-82976845D01*
X100324844Y-83021285D01*
X100330000Y-83073640D01*
X100330000Y-83786360D01*
X100324844Y-83838715D01*
X100311363Y-83883155D01*
X100289470Y-83924113D01*
X100260011Y-83960011D01*
X100224113Y-83989470D01*
X100180182Y-84012952D01*
X100163742Y-84019762D01*
X100143368Y-84033376D01*
X100126041Y-84050703D01*
X100112428Y-84071078D01*
X100103051Y-84093717D01*
X100098271Y-84117750D01*
X100098271Y-84142254D01*
X100103052Y-84166288D01*
X100112430Y-84188926D01*
X100126044Y-84209300D01*
X100143371Y-84226627D01*
X100163746Y-84240240D01*
X100180183Y-84247049D01*
X100224113Y-84270530D01*
X100260011Y-84299989D01*
X100289470Y-84335887D01*
X100311363Y-84376845D01*
X100324844Y-84421285D01*
X100330000Y-84473640D01*
X100330000Y-85186360D01*
X100324844Y-85238715D01*
X100311363Y-85283155D01*
X100289470Y-85324113D01*
X100260011Y-85360011D01*
X100224113Y-85389470D01*
X100183155Y-85411363D01*
X100138715Y-85424844D01*
X100086360Y-85430000D01*
X99373640Y-85430000D01*
X99321285Y-85424844D01*
X99276845Y-85411363D01*
X99235887Y-85389470D01*
X99199989Y-85360011D01*
X99170530Y-85324113D01*
X99148637Y-85283155D01*
X99135156Y-85238715D01*
X99130000Y-85186360D01*
X99130000Y-84473640D01*
X99135156Y-84421285D01*
X99148637Y-84376845D01*
X99170530Y-84335887D01*
X99199989Y-84299989D01*
X99235887Y-84270530D01*
X99279818Y-84247048D01*
X99296258Y-84240238D01*
X99316632Y-84226624D01*
X99333959Y-84209297D01*
X99347572Y-84188922D01*
X99356949Y-84166283D01*
X99361729Y-84142250D01*
X99361729Y-84117746D01*
X99356948Y-84093712D01*
X99347570Y-84071074D01*
X99333956Y-84050700D01*
X99316629Y-84033373D01*
X99296254Y-84019760D01*
X99279817Y-84012951D01*
X99235887Y-83989470D01*
X99199989Y-83960011D01*
X99170530Y-83924113D01*
X99148637Y-83883155D01*
X99135156Y-83838715D01*
X99130000Y-83786360D01*
X99130000Y-83073640D01*
X99135156Y-83021285D01*
X99148637Y-82976845D01*
X99170530Y-82935887D01*
X99199989Y-82899989D01*
X99235887Y-82870530D01*
X99276845Y-82848637D01*
X99321285Y-82835156D01*
X99373640Y-82830000D01*
X100086360Y-82830000D01*
X100138715Y-82835156D01*
G37*
G36*
X152900748Y-82700036D02*
G01*
X152944011Y-82713160D01*
X152983890Y-82734476D01*
X153018841Y-82763159D01*
X153047524Y-82798110D01*
X153068840Y-82837989D01*
X153081964Y-82881252D01*
X153087000Y-82932390D01*
X153087000Y-84057610D01*
X153081964Y-84108748D01*
X153068840Y-84152011D01*
X153047524Y-84191890D01*
X153018841Y-84226841D01*
X152983890Y-84255524D01*
X152944011Y-84276840D01*
X152900748Y-84289964D01*
X152849610Y-84295000D01*
X152149390Y-84295000D01*
X152098252Y-84289964D01*
X152054989Y-84276840D01*
X152015110Y-84255524D01*
X151980159Y-84226841D01*
X151951476Y-84191890D01*
X151930160Y-84152011D01*
X151917036Y-84108748D01*
X151912000Y-84057610D01*
X151912000Y-82932390D01*
X151917036Y-82881252D01*
X151930160Y-82837989D01*
X151951476Y-82798110D01*
X151980159Y-82763159D01*
X152015110Y-82734476D01*
X152054989Y-82713160D01*
X152098252Y-82700036D01*
X152149390Y-82695000D01*
X152849610Y-82695000D01*
X152900748Y-82700036D01*
G37*
G36*
X126133748Y-82700036D02*
G01*
X126177011Y-82713160D01*
X126216890Y-82734476D01*
X126251841Y-82763159D01*
X126280524Y-82798110D01*
X126301840Y-82837989D01*
X126314964Y-82881252D01*
X126320000Y-82932390D01*
X126320000Y-84057610D01*
X126314964Y-84108748D01*
X126301840Y-84152011D01*
X126280524Y-84191890D01*
X126251841Y-84226841D01*
X126216890Y-84255524D01*
X126177011Y-84276840D01*
X126133748Y-84289964D01*
X126082610Y-84295000D01*
X125382390Y-84295000D01*
X125331252Y-84289964D01*
X125287989Y-84276840D01*
X125248110Y-84255524D01*
X125213159Y-84226841D01*
X125184476Y-84191890D01*
X125163160Y-84152011D01*
X125150036Y-84108748D01*
X125145000Y-84057610D01*
X125145000Y-82932390D01*
X125150036Y-82881252D01*
X125163160Y-82837989D01*
X125184476Y-82798110D01*
X125213159Y-82763159D01*
X125248110Y-82734476D01*
X125287989Y-82713160D01*
X125331252Y-82700036D01*
X125382390Y-82695000D01*
X126082610Y-82695000D01*
X126133748Y-82700036D01*
G37*
G36*
X140454748Y-82700036D02*
G01*
X140498011Y-82713160D01*
X140537890Y-82734476D01*
X140572841Y-82763159D01*
X140601524Y-82798110D01*
X140622840Y-82837989D01*
X140635964Y-82881252D01*
X140641000Y-82932390D01*
X140641000Y-84057610D01*
X140635964Y-84108748D01*
X140622840Y-84152011D01*
X140601524Y-84191890D01*
X140572841Y-84226841D01*
X140537890Y-84255524D01*
X140498011Y-84276840D01*
X140454748Y-84289964D01*
X140403610Y-84295000D01*
X139703390Y-84295000D01*
X139652252Y-84289964D01*
X139608989Y-84276840D01*
X139569110Y-84255524D01*
X139534159Y-84226841D01*
X139505476Y-84191890D01*
X139484160Y-84152011D01*
X139471036Y-84108748D01*
X139466000Y-84057610D01*
X139466000Y-82932390D01*
X139471036Y-82881252D01*
X139484160Y-82837989D01*
X139505476Y-82798110D01*
X139534159Y-82763159D01*
X139569110Y-82734476D01*
X139608989Y-82713160D01*
X139652252Y-82700036D01*
X139703390Y-82695000D01*
X140403610Y-82695000D01*
X140454748Y-82700036D01*
G37*
G36*
X128008748Y-82700036D02*
G01*
X128052011Y-82713160D01*
X128091890Y-82734476D01*
X128126841Y-82763159D01*
X128155524Y-82798110D01*
X128176840Y-82837989D01*
X128189964Y-82881252D01*
X128195000Y-82932390D01*
X128195000Y-84057610D01*
X128189964Y-84108748D01*
X128176840Y-84152011D01*
X128155524Y-84191890D01*
X128126841Y-84226841D01*
X128091890Y-84255524D01*
X128052011Y-84276840D01*
X128008748Y-84289964D01*
X127957610Y-84295000D01*
X127257390Y-84295000D01*
X127206252Y-84289964D01*
X127162989Y-84276840D01*
X127123110Y-84255524D01*
X127088159Y-84226841D01*
X127059476Y-84191890D01*
X127038160Y-84152011D01*
X127025036Y-84108748D01*
X127020000Y-84057610D01*
X127020000Y-82932390D01*
X127025036Y-82881252D01*
X127038160Y-82837989D01*
X127059476Y-82798110D01*
X127088159Y-82763159D01*
X127123110Y-82734476D01*
X127162989Y-82713160D01*
X127206252Y-82700036D01*
X127257390Y-82695000D01*
X127957610Y-82695000D01*
X128008748Y-82700036D01*
G37*
G36*
X138579748Y-82700036D02*
G01*
X138623011Y-82713160D01*
X138662890Y-82734476D01*
X138697841Y-82763159D01*
X138726524Y-82798110D01*
X138747840Y-82837989D01*
X138760964Y-82881252D01*
X138766000Y-82932390D01*
X138766000Y-84057610D01*
X138760964Y-84108748D01*
X138747840Y-84152011D01*
X138726524Y-84191890D01*
X138697841Y-84226841D01*
X138662890Y-84255524D01*
X138623011Y-84276840D01*
X138579748Y-84289964D01*
X138528610Y-84295000D01*
X137828390Y-84295000D01*
X137777252Y-84289964D01*
X137733989Y-84276840D01*
X137694110Y-84255524D01*
X137659159Y-84226841D01*
X137630476Y-84191890D01*
X137609160Y-84152011D01*
X137596036Y-84108748D01*
X137591000Y-84057610D01*
X137591000Y-82932390D01*
X137596036Y-82881252D01*
X137609160Y-82837989D01*
X137630476Y-82798110D01*
X137659159Y-82763159D01*
X137694110Y-82734476D01*
X137733989Y-82713160D01*
X137777252Y-82700036D01*
X137828390Y-82695000D01*
X138528610Y-82695000D01*
X138579748Y-82700036D01*
G37*
G36*
X151025748Y-82700036D02*
G01*
X151069011Y-82713160D01*
X151108890Y-82734476D01*
X151143841Y-82763159D01*
X151172524Y-82798110D01*
X151193840Y-82837989D01*
X151206964Y-82881252D01*
X151212000Y-82932390D01*
X151212000Y-84057610D01*
X151206964Y-84108748D01*
X151193840Y-84152011D01*
X151172524Y-84191890D01*
X151143841Y-84226841D01*
X151108890Y-84255524D01*
X151069011Y-84276840D01*
X151025748Y-84289964D01*
X150974610Y-84295000D01*
X150274390Y-84295000D01*
X150223252Y-84289964D01*
X150179989Y-84276840D01*
X150140110Y-84255524D01*
X150105159Y-84226841D01*
X150076476Y-84191890D01*
X150055160Y-84152011D01*
X150042036Y-84108748D01*
X150037000Y-84057610D01*
X150037000Y-82932390D01*
X150042036Y-82881252D01*
X150055160Y-82837989D01*
X150076476Y-82798110D01*
X150105159Y-82763159D01*
X150140110Y-82734476D01*
X150179989Y-82713160D01*
X150223252Y-82700036D01*
X150274390Y-82695000D01*
X150974610Y-82695000D01*
X151025748Y-82700036D01*
G37*
G36*
X104513748Y-82065036D02*
G01*
X104557011Y-82078160D01*
X104596890Y-82099476D01*
X104631841Y-82128159D01*
X104660524Y-82163110D01*
X104681840Y-82202989D01*
X104694964Y-82246252D01*
X104700000Y-82297390D01*
X104700000Y-83422610D01*
X104694964Y-83473748D01*
X104681840Y-83517011D01*
X104660524Y-83556890D01*
X104631841Y-83591841D01*
X104596890Y-83620524D01*
X104557011Y-83641840D01*
X104513748Y-83654964D01*
X104462610Y-83660000D01*
X103762390Y-83660000D01*
X103711252Y-83654964D01*
X103667989Y-83641840D01*
X103628110Y-83620524D01*
X103593159Y-83591841D01*
X103564476Y-83556890D01*
X103543160Y-83517011D01*
X103530036Y-83473748D01*
X103525000Y-83422610D01*
X103525000Y-82297390D01*
X103530036Y-82246252D01*
X103543160Y-82202989D01*
X103564476Y-82163110D01*
X103593159Y-82128159D01*
X103628110Y-82099476D01*
X103667989Y-82078160D01*
X103711252Y-82065036D01*
X103762390Y-82060000D01*
X104462610Y-82060000D01*
X104513748Y-82065036D01*
G37*
G36*
X102638748Y-82065036D02*
G01*
X102682011Y-82078160D01*
X102721890Y-82099476D01*
X102756841Y-82128159D01*
X102785524Y-82163110D01*
X102806840Y-82202989D01*
X102819964Y-82246252D01*
X102825000Y-82297390D01*
X102825000Y-83422610D01*
X102819964Y-83473748D01*
X102806840Y-83517011D01*
X102785524Y-83556890D01*
X102756841Y-83591841D01*
X102721890Y-83620524D01*
X102682011Y-83641840D01*
X102638748Y-83654964D01*
X102587610Y-83660000D01*
X101887390Y-83660000D01*
X101836252Y-83654964D01*
X101792989Y-83641840D01*
X101753110Y-83620524D01*
X101718159Y-83591841D01*
X101689476Y-83556890D01*
X101668160Y-83517011D01*
X101655036Y-83473748D01*
X101650000Y-83422610D01*
X101650000Y-82297390D01*
X101655036Y-82246252D01*
X101668160Y-82202989D01*
X101689476Y-82163110D01*
X101718159Y-82128159D01*
X101753110Y-82099476D01*
X101792989Y-82078160D01*
X101836252Y-82065036D01*
X101887390Y-82060000D01*
X102587610Y-82060000D01*
X102638748Y-82065036D01*
G37*
G36*
X129330000Y-82149000D02*
G01*
X126880000Y-82149000D01*
X126880000Y-80849000D01*
X129330000Y-80849000D01*
X129330000Y-82149000D01*
G37*
G36*
X141830000Y-82149000D02*
G01*
X139380000Y-82149000D01*
X139380000Y-80849000D01*
X141830000Y-80849000D01*
X141830000Y-82149000D01*
G37*
G36*
X154330000Y-82149000D02*
G01*
X151880000Y-82149000D01*
X151880000Y-80849000D01*
X154330000Y-80849000D01*
X154330000Y-82149000D01*
G37*
G36*
X150651748Y-79786036D02*
G01*
X150695011Y-79799160D01*
X150734890Y-79820476D01*
X150769841Y-79849159D01*
X150798524Y-79884110D01*
X150819840Y-79923989D01*
X150832964Y-79967252D01*
X150838000Y-80018390D01*
X150838000Y-80718610D01*
X150832964Y-80769748D01*
X150819840Y-80813011D01*
X150798524Y-80852890D01*
X150769841Y-80887841D01*
X150734890Y-80916524D01*
X150695011Y-80937840D01*
X150651748Y-80950964D01*
X150600610Y-80956000D01*
X149475390Y-80956000D01*
X149424252Y-80950964D01*
X149380989Y-80937840D01*
X149341110Y-80916524D01*
X149306159Y-80887841D01*
X149277476Y-80852890D01*
X149256160Y-80813011D01*
X149243036Y-80769748D01*
X149238000Y-80718610D01*
X149238000Y-80018390D01*
X149243036Y-79967252D01*
X149256160Y-79923989D01*
X149277476Y-79884110D01*
X149306159Y-79849159D01*
X149341110Y-79820476D01*
X149380989Y-79799160D01*
X149424252Y-79786036D01*
X149475390Y-79781000D01*
X150600610Y-79781000D01*
X150651748Y-79786036D01*
G37*
G36*
X138205748Y-79786036D02*
G01*
X138249011Y-79799160D01*
X138288890Y-79820476D01*
X138323841Y-79849159D01*
X138352524Y-79884110D01*
X138373840Y-79923989D01*
X138386964Y-79967252D01*
X138392000Y-80018390D01*
X138392000Y-80718610D01*
X138386964Y-80769748D01*
X138373840Y-80813011D01*
X138352524Y-80852890D01*
X138323841Y-80887841D01*
X138288890Y-80916524D01*
X138249011Y-80937840D01*
X138205748Y-80950964D01*
X138154610Y-80956000D01*
X137029390Y-80956000D01*
X136978252Y-80950964D01*
X136934989Y-80937840D01*
X136895110Y-80916524D01*
X136860159Y-80887841D01*
X136831476Y-80852890D01*
X136810160Y-80813011D01*
X136797036Y-80769748D01*
X136792000Y-80718610D01*
X136792000Y-80018390D01*
X136797036Y-79967252D01*
X136810160Y-79923989D01*
X136831476Y-79884110D01*
X136860159Y-79849159D01*
X136895110Y-79820476D01*
X136934989Y-79799160D01*
X136978252Y-79786036D01*
X137029390Y-79781000D01*
X138154610Y-79781000D01*
X138205748Y-79786036D01*
G37*
G36*
X125759748Y-79786036D02*
G01*
X125803011Y-79799160D01*
X125842890Y-79820476D01*
X125877841Y-79849159D01*
X125906524Y-79884110D01*
X125927840Y-79923989D01*
X125940964Y-79967252D01*
X125946000Y-80018390D01*
X125946000Y-80718610D01*
X125940964Y-80769748D01*
X125927840Y-80813011D01*
X125906524Y-80852890D01*
X125877841Y-80887841D01*
X125842890Y-80916524D01*
X125803011Y-80937840D01*
X125759748Y-80950964D01*
X125708610Y-80956000D01*
X124583390Y-80956000D01*
X124532252Y-80950964D01*
X124488989Y-80937840D01*
X124449110Y-80916524D01*
X124414159Y-80887841D01*
X124385476Y-80852890D01*
X124364160Y-80813011D01*
X124351036Y-80769748D01*
X124346000Y-80718610D01*
X124346000Y-80018390D01*
X124351036Y-79967252D01*
X124364160Y-79923989D01*
X124385476Y-79884110D01*
X124414159Y-79849159D01*
X124449110Y-79820476D01*
X124488989Y-79799160D01*
X124532252Y-79786036D01*
X124583390Y-79781000D01*
X125708610Y-79781000D01*
X125759748Y-79786036D01*
G37*
G36*
X104513748Y-78255036D02*
G01*
X104557011Y-78268160D01*
X104596890Y-78289476D01*
X104631841Y-78318159D01*
X104660524Y-78353110D01*
X104681840Y-78392989D01*
X104694964Y-78436252D01*
X104700000Y-78487390D01*
X104700000Y-79612610D01*
X104694964Y-79663748D01*
X104681840Y-79707011D01*
X104660524Y-79746890D01*
X104631841Y-79781841D01*
X104596890Y-79810524D01*
X104557011Y-79831840D01*
X104513748Y-79844964D01*
X104462610Y-79850000D01*
X103762390Y-79850000D01*
X103711252Y-79844964D01*
X103667989Y-79831840D01*
X103628110Y-79810524D01*
X103593159Y-79781841D01*
X103564476Y-79746890D01*
X103543160Y-79707011D01*
X103530036Y-79663748D01*
X103525000Y-79612610D01*
X103525000Y-78487390D01*
X103530036Y-78436252D01*
X103543160Y-78392989D01*
X103564476Y-78353110D01*
X103593159Y-78318159D01*
X103628110Y-78289476D01*
X103667989Y-78268160D01*
X103711252Y-78255036D01*
X103762390Y-78250000D01*
X104462610Y-78250000D01*
X104513748Y-78255036D01*
G37*
G36*
X102638748Y-78255036D02*
G01*
X102682011Y-78268160D01*
X102721890Y-78289476D01*
X102756841Y-78318159D01*
X102785524Y-78353110D01*
X102806840Y-78392989D01*
X102819964Y-78436252D01*
X102825000Y-78487390D01*
X102825000Y-79612610D01*
X102819964Y-79663748D01*
X102806840Y-79707011D01*
X102785524Y-79746890D01*
X102756841Y-79781841D01*
X102721890Y-79810524D01*
X102682011Y-79831840D01*
X102638748Y-79844964D01*
X102587610Y-79850000D01*
X101887390Y-79850000D01*
X101836252Y-79844964D01*
X101792989Y-79831840D01*
X101753110Y-79810524D01*
X101718159Y-79781841D01*
X101689476Y-79746890D01*
X101668160Y-79707011D01*
X101655036Y-79663748D01*
X101650000Y-79612610D01*
X101650000Y-78487390D01*
X101655036Y-78436252D01*
X101668160Y-78392989D01*
X101689476Y-78353110D01*
X101718159Y-78318159D01*
X101753110Y-78289476D01*
X101792989Y-78268160D01*
X101836252Y-78255036D01*
X101887390Y-78250000D01*
X102587610Y-78250000D01*
X102638748Y-78255036D01*
G37*
G36*
X125759748Y-77911036D02*
G01*
X125803011Y-77924160D01*
X125842890Y-77945476D01*
X125877841Y-77974159D01*
X125906524Y-78009110D01*
X125927840Y-78048989D01*
X125940964Y-78092252D01*
X125946000Y-78143390D01*
X125946000Y-78843610D01*
X125940964Y-78894748D01*
X125927840Y-78938011D01*
X125906524Y-78977890D01*
X125877841Y-79012841D01*
X125842890Y-79041524D01*
X125803011Y-79062840D01*
X125759748Y-79075964D01*
X125708610Y-79081000D01*
X124583390Y-79081000D01*
X124532252Y-79075964D01*
X124488989Y-79062840D01*
X124449110Y-79041524D01*
X124414159Y-79012841D01*
X124385476Y-78977890D01*
X124364160Y-78938011D01*
X124351036Y-78894748D01*
X124346000Y-78843610D01*
X124346000Y-78143390D01*
X124351036Y-78092252D01*
X124364160Y-78048989D01*
X124385476Y-78009110D01*
X124414159Y-77974159D01*
X124449110Y-77945476D01*
X124488989Y-77924160D01*
X124532252Y-77911036D01*
X124583390Y-77906000D01*
X125708610Y-77906000D01*
X125759748Y-77911036D01*
G37*
G36*
X150651748Y-77911036D02*
G01*
X150695011Y-77924160D01*
X150734890Y-77945476D01*
X150769841Y-77974159D01*
X150798524Y-78009110D01*
X150819840Y-78048989D01*
X150832964Y-78092252D01*
X150838000Y-78143390D01*
X150838000Y-78843610D01*
X150832964Y-78894748D01*
X150819840Y-78938011D01*
X150798524Y-78977890D01*
X150769841Y-79012841D01*
X150734890Y-79041524D01*
X150695011Y-79062840D01*
X150651748Y-79075964D01*
X150600610Y-79081000D01*
X149475390Y-79081000D01*
X149424252Y-79075964D01*
X149380989Y-79062840D01*
X149341110Y-79041524D01*
X149306159Y-79012841D01*
X149277476Y-78977890D01*
X149256160Y-78938011D01*
X149243036Y-78894748D01*
X149238000Y-78843610D01*
X149238000Y-78143390D01*
X149243036Y-78092252D01*
X149256160Y-78048989D01*
X149277476Y-78009110D01*
X149306159Y-77974159D01*
X149341110Y-77945476D01*
X149380989Y-77924160D01*
X149424252Y-77911036D01*
X149475390Y-77906000D01*
X150600610Y-77906000D01*
X150651748Y-77911036D01*
G37*
G36*
X138205748Y-77911036D02*
G01*
X138249011Y-77924160D01*
X138288890Y-77945476D01*
X138323841Y-77974159D01*
X138352524Y-78009110D01*
X138373840Y-78048989D01*
X138386964Y-78092252D01*
X138392000Y-78143390D01*
X138392000Y-78843610D01*
X138386964Y-78894748D01*
X138373840Y-78938011D01*
X138352524Y-78977890D01*
X138323841Y-79012841D01*
X138288890Y-79041524D01*
X138249011Y-79062840D01*
X138205748Y-79075964D01*
X138154610Y-79081000D01*
X137029390Y-79081000D01*
X136978252Y-79075964D01*
X136934989Y-79062840D01*
X136895110Y-79041524D01*
X136860159Y-79012841D01*
X136831476Y-78977890D01*
X136810160Y-78938011D01*
X136797036Y-78894748D01*
X136792000Y-78843610D01*
X136792000Y-78143390D01*
X136797036Y-78092252D01*
X136810160Y-78048989D01*
X136831476Y-78009110D01*
X136860159Y-77974159D01*
X136895110Y-77945476D01*
X136934989Y-77924160D01*
X136978252Y-77911036D01*
X137029390Y-77906000D01*
X138154610Y-77906000D01*
X138205748Y-77911036D01*
G37*
G36*
X100138715Y-76485156D02*
G01*
X100183155Y-76498637D01*
X100224113Y-76520530D01*
X100260011Y-76549989D01*
X100289470Y-76585887D01*
X100311363Y-76626845D01*
X100324844Y-76671285D01*
X100330000Y-76723640D01*
X100330000Y-77436360D01*
X100324844Y-77488715D01*
X100311363Y-77533155D01*
X100289470Y-77574113D01*
X100260011Y-77610011D01*
X100224113Y-77639470D01*
X100180182Y-77662952D01*
X100163742Y-77669762D01*
X100143368Y-77683376D01*
X100126041Y-77700703D01*
X100112428Y-77721078D01*
X100103051Y-77743717D01*
X100098271Y-77767750D01*
X100098271Y-77792254D01*
X100103052Y-77816288D01*
X100112430Y-77838926D01*
X100126044Y-77859300D01*
X100143371Y-77876627D01*
X100163746Y-77890240D01*
X100180183Y-77897049D01*
X100224113Y-77920530D01*
X100260011Y-77949989D01*
X100289470Y-77985887D01*
X100311363Y-78026845D01*
X100324844Y-78071285D01*
X100330000Y-78123640D01*
X100330000Y-78836360D01*
X100324844Y-78888715D01*
X100311363Y-78933155D01*
X100289470Y-78974113D01*
X100260011Y-79010011D01*
X100224113Y-79039470D01*
X100183155Y-79061363D01*
X100138715Y-79074844D01*
X100086360Y-79080000D01*
X99373640Y-79080000D01*
X99321285Y-79074844D01*
X99276845Y-79061363D01*
X99235887Y-79039470D01*
X99199989Y-79010011D01*
X99170530Y-78974113D01*
X99148637Y-78933155D01*
X99135156Y-78888715D01*
X99130000Y-78836360D01*
X99130000Y-78123640D01*
X99135156Y-78071285D01*
X99148637Y-78026845D01*
X99170530Y-77985887D01*
X99199989Y-77949989D01*
X99235887Y-77920530D01*
X99279818Y-77897048D01*
X99296258Y-77890238D01*
X99316632Y-77876624D01*
X99333959Y-77859297D01*
X99347572Y-77838922D01*
X99356949Y-77816283D01*
X99361729Y-77792250D01*
X99361729Y-77767746D01*
X99356948Y-77743712D01*
X99347570Y-77721074D01*
X99333956Y-77700700D01*
X99316629Y-77683373D01*
X99296254Y-77669760D01*
X99279817Y-77662951D01*
X99235887Y-77639470D01*
X99199989Y-77610011D01*
X99170530Y-77574113D01*
X99148637Y-77533155D01*
X99135156Y-77488715D01*
X99130000Y-77436360D01*
X99130000Y-76723640D01*
X99135156Y-76671285D01*
X99148637Y-76626845D01*
X99170530Y-76585887D01*
X99199989Y-76549989D01*
X99235887Y-76520530D01*
X99276845Y-76498637D01*
X99321285Y-76485156D01*
X99373640Y-76480000D01*
X100086360Y-76480000D01*
X100138715Y-76485156D01*
G37*
G36*
X98138715Y-76485156D02*
G01*
X98183155Y-76498637D01*
X98224113Y-76520530D01*
X98260011Y-76549989D01*
X98289470Y-76585887D01*
X98311363Y-76626845D01*
X98324844Y-76671285D01*
X98330000Y-76723640D01*
X98330000Y-77436360D01*
X98324844Y-77488715D01*
X98311363Y-77533155D01*
X98289470Y-77574113D01*
X98260011Y-77610011D01*
X98224113Y-77639470D01*
X98180182Y-77662952D01*
X98163742Y-77669762D01*
X98143368Y-77683376D01*
X98126041Y-77700703D01*
X98112428Y-77721078D01*
X98103051Y-77743717D01*
X98098271Y-77767750D01*
X98098271Y-77792254D01*
X98103052Y-77816288D01*
X98112430Y-77838926D01*
X98126044Y-77859300D01*
X98143371Y-77876627D01*
X98163746Y-77890240D01*
X98180183Y-77897049D01*
X98224113Y-77920530D01*
X98260011Y-77949989D01*
X98289470Y-77985887D01*
X98311363Y-78026845D01*
X98324844Y-78071285D01*
X98330000Y-78123640D01*
X98330000Y-78836360D01*
X98324844Y-78888715D01*
X98311363Y-78933155D01*
X98289470Y-78974113D01*
X98260011Y-79010011D01*
X98224113Y-79039470D01*
X98183155Y-79061363D01*
X98138715Y-79074844D01*
X98086360Y-79080000D01*
X97373640Y-79080000D01*
X97321285Y-79074844D01*
X97276845Y-79061363D01*
X97235887Y-79039470D01*
X97199989Y-79010011D01*
X97170530Y-78974113D01*
X97148637Y-78933155D01*
X97135156Y-78888715D01*
X97130000Y-78836360D01*
X97130000Y-78123640D01*
X97135156Y-78071285D01*
X97148637Y-78026845D01*
X97170530Y-77985887D01*
X97199989Y-77949989D01*
X97235887Y-77920530D01*
X97279818Y-77897048D01*
X97296258Y-77890238D01*
X97316632Y-77876624D01*
X97333959Y-77859297D01*
X97347572Y-77838922D01*
X97356949Y-77816283D01*
X97361729Y-77792250D01*
X97361729Y-77767746D01*
X97356948Y-77743712D01*
X97347570Y-77721074D01*
X97333956Y-77700700D01*
X97316629Y-77683373D01*
X97296254Y-77669760D01*
X97279817Y-77662951D01*
X97235887Y-77639470D01*
X97199989Y-77610011D01*
X97170530Y-77574113D01*
X97148637Y-77533155D01*
X97135156Y-77488715D01*
X97130000Y-77436360D01*
X97130000Y-76723640D01*
X97135156Y-76671285D01*
X97148637Y-76626845D01*
X97170530Y-76585887D01*
X97199989Y-76549989D01*
X97235887Y-76520530D01*
X97276845Y-76498637D01*
X97321285Y-76485156D01*
X97373640Y-76480000D01*
X98086360Y-76480000D01*
X98138715Y-76485156D01*
G37*
G36*
X129330000Y-77849000D02*
G01*
X126880000Y-77849000D01*
X126880000Y-76549000D01*
X129330000Y-76549000D01*
X129330000Y-77849000D01*
G37*
G36*
X154330000Y-77849000D02*
G01*
X151880000Y-77849000D01*
X151880000Y-76549000D01*
X154330000Y-76549000D01*
X154330000Y-77849000D01*
G37*
G36*
X141830000Y-77849000D02*
G01*
X139380000Y-77849000D01*
X139380000Y-76549000D01*
X141830000Y-76549000D01*
X141830000Y-77849000D01*
G37*
G36*
X160042748Y-75969036D02*
G01*
X160086011Y-75982160D01*
X160125890Y-76003476D01*
X160160841Y-76032159D01*
X160189524Y-76067110D01*
X160210840Y-76106989D01*
X160223964Y-76150252D01*
X160229000Y-76201390D01*
X160229000Y-77326610D01*
X160223964Y-77377748D01*
X160210840Y-77421011D01*
X160189524Y-77460890D01*
X160160841Y-77495841D01*
X160125890Y-77524524D01*
X160086011Y-77545840D01*
X160042748Y-77558964D01*
X159991610Y-77564000D01*
X159291390Y-77564000D01*
X159240252Y-77558964D01*
X159196989Y-77545840D01*
X159157110Y-77524524D01*
X159122159Y-77495841D01*
X159093476Y-77460890D01*
X159072160Y-77421011D01*
X159059036Y-77377748D01*
X159054000Y-77326610D01*
X159054000Y-76201390D01*
X159059036Y-76150252D01*
X159072160Y-76106989D01*
X159093476Y-76067110D01*
X159122159Y-76032159D01*
X159157110Y-76003476D01*
X159196989Y-75982160D01*
X159240252Y-75969036D01*
X159291390Y-75964000D01*
X159991610Y-75964000D01*
X160042748Y-75969036D01*
G37*
G36*
X161917748Y-75969036D02*
G01*
X161961011Y-75982160D01*
X162000890Y-76003476D01*
X162035841Y-76032159D01*
X162064524Y-76067110D01*
X162085840Y-76106989D01*
X162098964Y-76150252D01*
X162104000Y-76201390D01*
X162104000Y-77326610D01*
X162098964Y-77377748D01*
X162085840Y-77421011D01*
X162064524Y-77460890D01*
X162035841Y-77495841D01*
X162000890Y-77524524D01*
X161961011Y-77545840D01*
X161917748Y-77558964D01*
X161866610Y-77564000D01*
X161166390Y-77564000D01*
X161115252Y-77558964D01*
X161071989Y-77545840D01*
X161032110Y-77524524D01*
X160997159Y-77495841D01*
X160968476Y-77460890D01*
X160947160Y-77421011D01*
X160934036Y-77377748D01*
X160929000Y-77326610D01*
X160929000Y-76201390D01*
X160934036Y-76150252D01*
X160947160Y-76106989D01*
X160968476Y-76067110D01*
X160997159Y-76032159D01*
X161032110Y-76003476D01*
X161071989Y-75982160D01*
X161115252Y-75969036D01*
X161166390Y-75964000D01*
X161866610Y-75964000D01*
X161917748Y-75969036D01*
G37*
G36*
X104513748Y-75715036D02*
G01*
X104557011Y-75728160D01*
X104596890Y-75749476D01*
X104631841Y-75778159D01*
X104660524Y-75813110D01*
X104681840Y-75852989D01*
X104694964Y-75896252D01*
X104700000Y-75947390D01*
X104700000Y-77072610D01*
X104694964Y-77123748D01*
X104681840Y-77167011D01*
X104660524Y-77206890D01*
X104631841Y-77241841D01*
X104596890Y-77270524D01*
X104557011Y-77291840D01*
X104513748Y-77304964D01*
X104462610Y-77310000D01*
X103762390Y-77310000D01*
X103711252Y-77304964D01*
X103667989Y-77291840D01*
X103628110Y-77270524D01*
X103593159Y-77241841D01*
X103564476Y-77206890D01*
X103543160Y-77167011D01*
X103530036Y-77123748D01*
X103525000Y-77072610D01*
X103525000Y-75947390D01*
X103530036Y-75896252D01*
X103543160Y-75852989D01*
X103564476Y-75813110D01*
X103593159Y-75778159D01*
X103628110Y-75749476D01*
X103667989Y-75728160D01*
X103711252Y-75715036D01*
X103762390Y-75710000D01*
X104462610Y-75710000D01*
X104513748Y-75715036D01*
G37*
G36*
X102638748Y-75715036D02*
G01*
X102682011Y-75728160D01*
X102721890Y-75749476D01*
X102756841Y-75778159D01*
X102785524Y-75813110D01*
X102806840Y-75852989D01*
X102819964Y-75896252D01*
X102825000Y-75947390D01*
X102825000Y-77072610D01*
X102819964Y-77123748D01*
X102806840Y-77167011D01*
X102785524Y-77206890D01*
X102756841Y-77241841D01*
X102721890Y-77270524D01*
X102682011Y-77291840D01*
X102638748Y-77304964D01*
X102587610Y-77310000D01*
X101887390Y-77310000D01*
X101836252Y-77304964D01*
X101792989Y-77291840D01*
X101753110Y-77270524D01*
X101718159Y-77241841D01*
X101689476Y-77206890D01*
X101668160Y-77167011D01*
X101655036Y-77123748D01*
X101650000Y-77072610D01*
X101650000Y-75947390D01*
X101655036Y-75896252D01*
X101668160Y-75852989D01*
X101689476Y-75813110D01*
X101718159Y-75778159D01*
X101753110Y-75749476D01*
X101792989Y-75728160D01*
X101836252Y-75715036D01*
X101887390Y-75710000D01*
X102587610Y-75710000D01*
X102638748Y-75715036D01*
G37*
G36*
X128743748Y-73819036D02*
G01*
X128787011Y-73832160D01*
X128826890Y-73853476D01*
X128861841Y-73882159D01*
X128890524Y-73917110D01*
X128911840Y-73956989D01*
X128924964Y-74000252D01*
X128930000Y-74051390D01*
X128930000Y-75176610D01*
X128924964Y-75227748D01*
X128911840Y-75271011D01*
X128890524Y-75310890D01*
X128861841Y-75345841D01*
X128826890Y-75374524D01*
X128787011Y-75395840D01*
X128743748Y-75408964D01*
X128692610Y-75414000D01*
X127992390Y-75414000D01*
X127941252Y-75408964D01*
X127897989Y-75395840D01*
X127858110Y-75374524D01*
X127823159Y-75345841D01*
X127794476Y-75310890D01*
X127773160Y-75271011D01*
X127760036Y-75227748D01*
X127755000Y-75176610D01*
X127755000Y-74051390D01*
X127760036Y-74000252D01*
X127773160Y-73956989D01*
X127794476Y-73917110D01*
X127823159Y-73882159D01*
X127858110Y-73853476D01*
X127897989Y-73832160D01*
X127941252Y-73819036D01*
X127992390Y-73814000D01*
X128692610Y-73814000D01*
X128743748Y-73819036D01*
G37*
G36*
X139368748Y-73819036D02*
G01*
X139412011Y-73832160D01*
X139451890Y-73853476D01*
X139486841Y-73882159D01*
X139515524Y-73917110D01*
X139536840Y-73956989D01*
X139549964Y-74000252D01*
X139555000Y-74051390D01*
X139555000Y-75176610D01*
X139549964Y-75227748D01*
X139536840Y-75271011D01*
X139515524Y-75310890D01*
X139486841Y-75345841D01*
X139451890Y-75374524D01*
X139412011Y-75395840D01*
X139368748Y-75408964D01*
X139317610Y-75414000D01*
X138617390Y-75414000D01*
X138566252Y-75408964D01*
X138522989Y-75395840D01*
X138483110Y-75374524D01*
X138448159Y-75345841D01*
X138419476Y-75310890D01*
X138398160Y-75271011D01*
X138385036Y-75227748D01*
X138380000Y-75176610D01*
X138380000Y-74051390D01*
X138385036Y-74000252D01*
X138398160Y-73956989D01*
X138419476Y-73917110D01*
X138448159Y-73882159D01*
X138483110Y-73853476D01*
X138522989Y-73832160D01*
X138566252Y-73819036D01*
X138617390Y-73814000D01*
X139317610Y-73814000D01*
X139368748Y-73819036D01*
G37*
G36*
X126868748Y-73819036D02*
G01*
X126912011Y-73832160D01*
X126951890Y-73853476D01*
X126986841Y-73882159D01*
X127015524Y-73917110D01*
X127036840Y-73956989D01*
X127049964Y-74000252D01*
X127055000Y-74051390D01*
X127055000Y-75176610D01*
X127049964Y-75227748D01*
X127036840Y-75271011D01*
X127015524Y-75310890D01*
X126986841Y-75345841D01*
X126951890Y-75374524D01*
X126912011Y-75395840D01*
X126868748Y-75408964D01*
X126817610Y-75414000D01*
X126117390Y-75414000D01*
X126066252Y-75408964D01*
X126022989Y-75395840D01*
X125983110Y-75374524D01*
X125948159Y-75345841D01*
X125919476Y-75310890D01*
X125898160Y-75271011D01*
X125885036Y-75227748D01*
X125880000Y-75176610D01*
X125880000Y-74051390D01*
X125885036Y-74000252D01*
X125898160Y-73956989D01*
X125919476Y-73917110D01*
X125948159Y-73882159D01*
X125983110Y-73853476D01*
X126022989Y-73832160D01*
X126066252Y-73819036D01*
X126117390Y-73814000D01*
X126817610Y-73814000D01*
X126868748Y-73819036D01*
G37*
G36*
X153743748Y-73819036D02*
G01*
X153787011Y-73832160D01*
X153826890Y-73853476D01*
X153861841Y-73882159D01*
X153890524Y-73917110D01*
X153911840Y-73956989D01*
X153924964Y-74000252D01*
X153930000Y-74051390D01*
X153930000Y-75176610D01*
X153924964Y-75227748D01*
X153911840Y-75271011D01*
X153890524Y-75310890D01*
X153861841Y-75345841D01*
X153826890Y-75374524D01*
X153787011Y-75395840D01*
X153743748Y-75408964D01*
X153692610Y-75414000D01*
X152992390Y-75414000D01*
X152941252Y-75408964D01*
X152897989Y-75395840D01*
X152858110Y-75374524D01*
X152823159Y-75345841D01*
X152794476Y-75310890D01*
X152773160Y-75271011D01*
X152760036Y-75227748D01*
X152755000Y-75176610D01*
X152755000Y-74051390D01*
X152760036Y-74000252D01*
X152773160Y-73956989D01*
X152794476Y-73917110D01*
X152823159Y-73882159D01*
X152858110Y-73853476D01*
X152897989Y-73832160D01*
X152941252Y-73819036D01*
X152992390Y-73814000D01*
X153692610Y-73814000D01*
X153743748Y-73819036D01*
G37*
G36*
X141243748Y-73819036D02*
G01*
X141287011Y-73832160D01*
X141326890Y-73853476D01*
X141361841Y-73882159D01*
X141390524Y-73917110D01*
X141411840Y-73956989D01*
X141424964Y-74000252D01*
X141430000Y-74051390D01*
X141430000Y-75176610D01*
X141424964Y-75227748D01*
X141411840Y-75271011D01*
X141390524Y-75310890D01*
X141361841Y-75345841D01*
X141326890Y-75374524D01*
X141287011Y-75395840D01*
X141243748Y-75408964D01*
X141192610Y-75414000D01*
X140492390Y-75414000D01*
X140441252Y-75408964D01*
X140397989Y-75395840D01*
X140358110Y-75374524D01*
X140323159Y-75345841D01*
X140294476Y-75310890D01*
X140273160Y-75271011D01*
X140260036Y-75227748D01*
X140255000Y-75176610D01*
X140255000Y-74051390D01*
X140260036Y-74000252D01*
X140273160Y-73956989D01*
X140294476Y-73917110D01*
X140323159Y-73882159D01*
X140358110Y-73853476D01*
X140397989Y-73832160D01*
X140441252Y-73819036D01*
X140492390Y-73814000D01*
X141192610Y-73814000D01*
X141243748Y-73819036D01*
G37*
G36*
X151868748Y-73819036D02*
G01*
X151912011Y-73832160D01*
X151951890Y-73853476D01*
X151986841Y-73882159D01*
X152015524Y-73917110D01*
X152036840Y-73956989D01*
X152049964Y-74000252D01*
X152055000Y-74051390D01*
X152055000Y-75176610D01*
X152049964Y-75227748D01*
X152036840Y-75271011D01*
X152015524Y-75310890D01*
X151986841Y-75345841D01*
X151951890Y-75374524D01*
X151912011Y-75395840D01*
X151868748Y-75408964D01*
X151817610Y-75414000D01*
X151117390Y-75414000D01*
X151066252Y-75408964D01*
X151022989Y-75395840D01*
X150983110Y-75374524D01*
X150948159Y-75345841D01*
X150919476Y-75310890D01*
X150898160Y-75271011D01*
X150885036Y-75227748D01*
X150880000Y-75176610D01*
X150880000Y-74051390D01*
X150885036Y-74000252D01*
X150898160Y-73956989D01*
X150919476Y-73917110D01*
X150948159Y-73882159D01*
X150983110Y-73853476D01*
X151022989Y-73832160D01*
X151066252Y-73819036D01*
X151117390Y-73814000D01*
X151817610Y-73814000D01*
X151868748Y-73819036D01*
G37*
G36*
X159929000Y-74803000D02*
G01*
X159129000Y-74803000D01*
X159129000Y-74153000D01*
X159929000Y-74153000D01*
X159929000Y-74803000D01*
G37*
G36*
X162029000Y-74803000D02*
G01*
X161229000Y-74803000D01*
X161229000Y-74153000D01*
X162029000Y-74153000D01*
X162029000Y-74803000D01*
G37*
G36*
X130318748Y-72469036D02*
G01*
X130362011Y-72482160D01*
X130401890Y-72503476D01*
X130436841Y-72532159D01*
X130465524Y-72567110D01*
X130486840Y-72606989D01*
X130499964Y-72650252D01*
X130505000Y-72701390D01*
X130505000Y-73401610D01*
X130499964Y-73452748D01*
X130486840Y-73496011D01*
X130465524Y-73535890D01*
X130436841Y-73570841D01*
X130401890Y-73599524D01*
X130362011Y-73620840D01*
X130318748Y-73633964D01*
X130267610Y-73639000D01*
X129142390Y-73639000D01*
X129091252Y-73633964D01*
X129047989Y-73620840D01*
X129008110Y-73599524D01*
X128973159Y-73570841D01*
X128944476Y-73535890D01*
X128923160Y-73496011D01*
X128910036Y-73452748D01*
X128905000Y-73401610D01*
X128905000Y-72701390D01*
X128910036Y-72650252D01*
X128923160Y-72606989D01*
X128944476Y-72567110D01*
X128973159Y-72532159D01*
X129008110Y-72503476D01*
X129047989Y-72482160D01*
X129091252Y-72469036D01*
X129142390Y-72464000D01*
X130267610Y-72464000D01*
X130318748Y-72469036D01*
G37*
G36*
X138218748Y-72469036D02*
G01*
X138262011Y-72482160D01*
X138301890Y-72503476D01*
X138336841Y-72532159D01*
X138365524Y-72567110D01*
X138386840Y-72606989D01*
X138399964Y-72650252D01*
X138405000Y-72701390D01*
X138405000Y-73401610D01*
X138399964Y-73452748D01*
X138386840Y-73496011D01*
X138365524Y-73535890D01*
X138336841Y-73570841D01*
X138301890Y-73599524D01*
X138262011Y-73620840D01*
X138218748Y-73633964D01*
X138167610Y-73639000D01*
X137042390Y-73639000D01*
X136991252Y-73633964D01*
X136947989Y-73620840D01*
X136908110Y-73599524D01*
X136873159Y-73570841D01*
X136844476Y-73535890D01*
X136823160Y-73496011D01*
X136810036Y-73452748D01*
X136805000Y-73401610D01*
X136805000Y-72701390D01*
X136810036Y-72650252D01*
X136823160Y-72606989D01*
X136844476Y-72567110D01*
X136873159Y-72532159D01*
X136908110Y-72503476D01*
X136947989Y-72482160D01*
X136991252Y-72469036D01*
X137042390Y-72464000D01*
X138167610Y-72464000D01*
X138218748Y-72469036D01*
G37*
G36*
X142818748Y-72469036D02*
G01*
X142862011Y-72482160D01*
X142901890Y-72503476D01*
X142936841Y-72532159D01*
X142965524Y-72567110D01*
X142986840Y-72606989D01*
X142999964Y-72650252D01*
X143005000Y-72701390D01*
X143005000Y-73401610D01*
X142999964Y-73452748D01*
X142986840Y-73496011D01*
X142965524Y-73535890D01*
X142936841Y-73570841D01*
X142901890Y-73599524D01*
X142862011Y-73620840D01*
X142818748Y-73633964D01*
X142767610Y-73639000D01*
X141642390Y-73639000D01*
X141591252Y-73633964D01*
X141547989Y-73620840D01*
X141508110Y-73599524D01*
X141473159Y-73570841D01*
X141444476Y-73535890D01*
X141423160Y-73496011D01*
X141410036Y-73452748D01*
X141405000Y-73401610D01*
X141405000Y-72701390D01*
X141410036Y-72650252D01*
X141423160Y-72606989D01*
X141444476Y-72567110D01*
X141473159Y-72532159D01*
X141508110Y-72503476D01*
X141547989Y-72482160D01*
X141591252Y-72469036D01*
X141642390Y-72464000D01*
X142767610Y-72464000D01*
X142818748Y-72469036D01*
G37*
G36*
X150718748Y-72469036D02*
G01*
X150762011Y-72482160D01*
X150801890Y-72503476D01*
X150836841Y-72532159D01*
X150865524Y-72567110D01*
X150886840Y-72606989D01*
X150899964Y-72650252D01*
X150905000Y-72701390D01*
X150905000Y-73401610D01*
X150899964Y-73452748D01*
X150886840Y-73496011D01*
X150865524Y-73535890D01*
X150836841Y-73570841D01*
X150801890Y-73599524D01*
X150762011Y-73620840D01*
X150718748Y-73633964D01*
X150667610Y-73639000D01*
X149542390Y-73639000D01*
X149491252Y-73633964D01*
X149447989Y-73620840D01*
X149408110Y-73599524D01*
X149373159Y-73570841D01*
X149344476Y-73535890D01*
X149323160Y-73496011D01*
X149310036Y-73452748D01*
X149305000Y-73401610D01*
X149305000Y-72701390D01*
X149310036Y-72650252D01*
X149323160Y-72606989D01*
X149344476Y-72567110D01*
X149373159Y-72532159D01*
X149408110Y-72503476D01*
X149447989Y-72482160D01*
X149491252Y-72469036D01*
X149542390Y-72464000D01*
X150667610Y-72464000D01*
X150718748Y-72469036D01*
G37*
G36*
X155318748Y-72469036D02*
G01*
X155362011Y-72482160D01*
X155401890Y-72503476D01*
X155436841Y-72532159D01*
X155465524Y-72567110D01*
X155486840Y-72606989D01*
X155499964Y-72650252D01*
X155505000Y-72701390D01*
X155505000Y-73401610D01*
X155499964Y-73452748D01*
X155486840Y-73496011D01*
X155465524Y-73535890D01*
X155436841Y-73570841D01*
X155401890Y-73599524D01*
X155362011Y-73620840D01*
X155318748Y-73633964D01*
X155267610Y-73639000D01*
X154142390Y-73639000D01*
X154091252Y-73633964D01*
X154047989Y-73620840D01*
X154008110Y-73599524D01*
X153973159Y-73570841D01*
X153944476Y-73535890D01*
X153923160Y-73496011D01*
X153910036Y-73452748D01*
X153905000Y-73401610D01*
X153905000Y-72701390D01*
X153910036Y-72650252D01*
X153923160Y-72606989D01*
X153944476Y-72567110D01*
X153973159Y-72532159D01*
X154008110Y-72503476D01*
X154047989Y-72482160D01*
X154091252Y-72469036D01*
X154142390Y-72464000D01*
X155267610Y-72464000D01*
X155318748Y-72469036D01*
G37*
G36*
X125718748Y-72469036D02*
G01*
X125762011Y-72482160D01*
X125801890Y-72503476D01*
X125836841Y-72532159D01*
X125865524Y-72567110D01*
X125886840Y-72606989D01*
X125899964Y-72650252D01*
X125905000Y-72701390D01*
X125905000Y-73401610D01*
X125899964Y-73452748D01*
X125886840Y-73496011D01*
X125865524Y-73535890D01*
X125836841Y-73570841D01*
X125801890Y-73599524D01*
X125762011Y-73620840D01*
X125718748Y-73633964D01*
X125667610Y-73639000D01*
X124542390Y-73639000D01*
X124491252Y-73633964D01*
X124447989Y-73620840D01*
X124408110Y-73599524D01*
X124373159Y-73570841D01*
X124344476Y-73535890D01*
X124323160Y-73496011D01*
X124310036Y-73452748D01*
X124305000Y-73401610D01*
X124305000Y-72701390D01*
X124310036Y-72650252D01*
X124323160Y-72606989D01*
X124344476Y-72567110D01*
X124373159Y-72532159D01*
X124408110Y-72503476D01*
X124447989Y-72482160D01*
X124491252Y-72469036D01*
X124542390Y-72464000D01*
X125667610Y-72464000D01*
X125718748Y-72469036D01*
G37*
G36*
X102638748Y-71905036D02*
G01*
X102682011Y-71918160D01*
X102721890Y-71939476D01*
X102756841Y-71968159D01*
X102785524Y-72003110D01*
X102806840Y-72042989D01*
X102819964Y-72086252D01*
X102825000Y-72137390D01*
X102825000Y-73262610D01*
X102819964Y-73313748D01*
X102806840Y-73357011D01*
X102785524Y-73396890D01*
X102756841Y-73431841D01*
X102721890Y-73460524D01*
X102682011Y-73481840D01*
X102638748Y-73494964D01*
X102587610Y-73500000D01*
X101887390Y-73500000D01*
X101836252Y-73494964D01*
X101792989Y-73481840D01*
X101753110Y-73460524D01*
X101718159Y-73431841D01*
X101689476Y-73396890D01*
X101668160Y-73357011D01*
X101655036Y-73313748D01*
X101650000Y-73262610D01*
X101650000Y-72137390D01*
X101655036Y-72086252D01*
X101668160Y-72042989D01*
X101689476Y-72003110D01*
X101718159Y-71968159D01*
X101753110Y-71939476D01*
X101792989Y-71918160D01*
X101836252Y-71905036D01*
X101887390Y-71900000D01*
X102587610Y-71900000D01*
X102638748Y-71905036D01*
G37*
G36*
X104513748Y-71905036D02*
G01*
X104557011Y-71918160D01*
X104596890Y-71939476D01*
X104631841Y-71968159D01*
X104660524Y-72003110D01*
X104681840Y-72042989D01*
X104694964Y-72086252D01*
X104700000Y-72137390D01*
X104700000Y-73262610D01*
X104694964Y-73313748D01*
X104681840Y-73357011D01*
X104660524Y-73396890D01*
X104631841Y-73431841D01*
X104596890Y-73460524D01*
X104557011Y-73481840D01*
X104513748Y-73494964D01*
X104462610Y-73500000D01*
X103762390Y-73500000D01*
X103711252Y-73494964D01*
X103667989Y-73481840D01*
X103628110Y-73460524D01*
X103593159Y-73431841D01*
X103564476Y-73396890D01*
X103543160Y-73357011D01*
X103530036Y-73313748D01*
X103525000Y-73262610D01*
X103525000Y-72137390D01*
X103530036Y-72086252D01*
X103543160Y-72042989D01*
X103564476Y-72003110D01*
X103593159Y-71968159D01*
X103628110Y-71939476D01*
X103667989Y-71918160D01*
X103711252Y-71905036D01*
X103762390Y-71900000D01*
X104462610Y-71900000D01*
X104513748Y-71905036D01*
G37*
G36*
X161917748Y-71397036D02*
G01*
X161961011Y-71410160D01*
X162000890Y-71431476D01*
X162035841Y-71460159D01*
X162064524Y-71495110D01*
X162085840Y-71534989D01*
X162098964Y-71578252D01*
X162104000Y-71629390D01*
X162104000Y-72754610D01*
X162098964Y-72805748D01*
X162085840Y-72849011D01*
X162064524Y-72888890D01*
X162035841Y-72923841D01*
X162000890Y-72952524D01*
X161961011Y-72973840D01*
X161917748Y-72986964D01*
X161866610Y-72992000D01*
X161166390Y-72992000D01*
X161115252Y-72986964D01*
X161071989Y-72973840D01*
X161032110Y-72952524D01*
X160997159Y-72923841D01*
X160968476Y-72888890D01*
X160947160Y-72849011D01*
X160934036Y-72805748D01*
X160929000Y-72754610D01*
X160929000Y-71629390D01*
X160934036Y-71578252D01*
X160947160Y-71534989D01*
X160968476Y-71495110D01*
X160997159Y-71460159D01*
X161032110Y-71431476D01*
X161071989Y-71410160D01*
X161115252Y-71397036D01*
X161166390Y-71392000D01*
X161866610Y-71392000D01*
X161917748Y-71397036D01*
G37*
G36*
X160042748Y-71397036D02*
G01*
X160086011Y-71410160D01*
X160125890Y-71431476D01*
X160160841Y-71460159D01*
X160189524Y-71495110D01*
X160210840Y-71534989D01*
X160223964Y-71578252D01*
X160229000Y-71629390D01*
X160229000Y-72754610D01*
X160223964Y-72805748D01*
X160210840Y-72849011D01*
X160189524Y-72888890D01*
X160160841Y-72923841D01*
X160125890Y-72952524D01*
X160086011Y-72973840D01*
X160042748Y-72986964D01*
X159991610Y-72992000D01*
X159291390Y-72992000D01*
X159240252Y-72986964D01*
X159196989Y-72973840D01*
X159157110Y-72952524D01*
X159122159Y-72923841D01*
X159093476Y-72888890D01*
X159072160Y-72849011D01*
X159059036Y-72805748D01*
X159054000Y-72754610D01*
X159054000Y-71629390D01*
X159059036Y-71578252D01*
X159072160Y-71534989D01*
X159093476Y-71495110D01*
X159122159Y-71460159D01*
X159157110Y-71431476D01*
X159196989Y-71410160D01*
X159240252Y-71397036D01*
X159291390Y-71392000D01*
X159991610Y-71392000D01*
X160042748Y-71397036D01*
G37*
G36*
X98138715Y-70135156D02*
G01*
X98183155Y-70148637D01*
X98224113Y-70170530D01*
X98260011Y-70199989D01*
X98289470Y-70235887D01*
X98311363Y-70276845D01*
X98324844Y-70321285D01*
X98330000Y-70373640D01*
X98330000Y-71086360D01*
X98324844Y-71138715D01*
X98311363Y-71183155D01*
X98289470Y-71224113D01*
X98260011Y-71260011D01*
X98224113Y-71289470D01*
X98180182Y-71312952D01*
X98163742Y-71319762D01*
X98143368Y-71333376D01*
X98126041Y-71350703D01*
X98112428Y-71371078D01*
X98103051Y-71393717D01*
X98098271Y-71417750D01*
X98098271Y-71442254D01*
X98103052Y-71466288D01*
X98112430Y-71488926D01*
X98126044Y-71509300D01*
X98143371Y-71526627D01*
X98163746Y-71540240D01*
X98180183Y-71547049D01*
X98224113Y-71570530D01*
X98260011Y-71599989D01*
X98289470Y-71635887D01*
X98311363Y-71676845D01*
X98324844Y-71721285D01*
X98330000Y-71773640D01*
X98330000Y-72486360D01*
X98324844Y-72538715D01*
X98311363Y-72583155D01*
X98289470Y-72624113D01*
X98260011Y-72660011D01*
X98224113Y-72689470D01*
X98183155Y-72711363D01*
X98138715Y-72724844D01*
X98086360Y-72730000D01*
X97373640Y-72730000D01*
X97321285Y-72724844D01*
X97276845Y-72711363D01*
X97235887Y-72689470D01*
X97199989Y-72660011D01*
X97170530Y-72624113D01*
X97148637Y-72583155D01*
X97135156Y-72538715D01*
X97130000Y-72486360D01*
X97130000Y-71773640D01*
X97135156Y-71721285D01*
X97148637Y-71676845D01*
X97170530Y-71635887D01*
X97199989Y-71599989D01*
X97235887Y-71570530D01*
X97279818Y-71547048D01*
X97296258Y-71540238D01*
X97316632Y-71526624D01*
X97333959Y-71509297D01*
X97347572Y-71488922D01*
X97356949Y-71466283D01*
X97361729Y-71442250D01*
X97361729Y-71417746D01*
X97356948Y-71393712D01*
X97347570Y-71371074D01*
X97333956Y-71350700D01*
X97316629Y-71333373D01*
X97296254Y-71319760D01*
X97279817Y-71312951D01*
X97235887Y-71289470D01*
X97199989Y-71260011D01*
X97170530Y-71224113D01*
X97148637Y-71183155D01*
X97135156Y-71138715D01*
X97130000Y-71086360D01*
X97130000Y-70373640D01*
X97135156Y-70321285D01*
X97148637Y-70276845D01*
X97170530Y-70235887D01*
X97199989Y-70199989D01*
X97235887Y-70170530D01*
X97276845Y-70148637D01*
X97321285Y-70135156D01*
X97373640Y-70130000D01*
X98086360Y-70130000D01*
X98138715Y-70135156D01*
G37*
G36*
X100138715Y-70135156D02*
G01*
X100183155Y-70148637D01*
X100224113Y-70170530D01*
X100260011Y-70199989D01*
X100289470Y-70235887D01*
X100311363Y-70276845D01*
X100324844Y-70321285D01*
X100330000Y-70373640D01*
X100330000Y-71086360D01*
X100324844Y-71138715D01*
X100311363Y-71183155D01*
X100289470Y-71224113D01*
X100260011Y-71260011D01*
X100224113Y-71289470D01*
X100180182Y-71312952D01*
X100163742Y-71319762D01*
X100143368Y-71333376D01*
X100126041Y-71350703D01*
X100112428Y-71371078D01*
X100103051Y-71393717D01*
X100098271Y-71417750D01*
X100098271Y-71442254D01*
X100103052Y-71466288D01*
X100112430Y-71488926D01*
X100126044Y-71509300D01*
X100143371Y-71526627D01*
X100163746Y-71540240D01*
X100180183Y-71547049D01*
X100224113Y-71570530D01*
X100260011Y-71599989D01*
X100289470Y-71635887D01*
X100311363Y-71676845D01*
X100324844Y-71721285D01*
X100330000Y-71773640D01*
X100330000Y-72486360D01*
X100324844Y-72538715D01*
X100311363Y-72583155D01*
X100289470Y-72624113D01*
X100260011Y-72660011D01*
X100224113Y-72689470D01*
X100183155Y-72711363D01*
X100138715Y-72724844D01*
X100086360Y-72730000D01*
X99373640Y-72730000D01*
X99321285Y-72724844D01*
X99276845Y-72711363D01*
X99235887Y-72689470D01*
X99199989Y-72660011D01*
X99170530Y-72624113D01*
X99148637Y-72583155D01*
X99135156Y-72538715D01*
X99130000Y-72486360D01*
X99130000Y-71773640D01*
X99135156Y-71721285D01*
X99148637Y-71676845D01*
X99170530Y-71635887D01*
X99199989Y-71599989D01*
X99235887Y-71570530D01*
X99279818Y-71547048D01*
X99296258Y-71540238D01*
X99316632Y-71526624D01*
X99333959Y-71509297D01*
X99347572Y-71488922D01*
X99356949Y-71466283D01*
X99361729Y-71442250D01*
X99361729Y-71417746D01*
X99356948Y-71393712D01*
X99347570Y-71371074D01*
X99333956Y-71350700D01*
X99316629Y-71333373D01*
X99296254Y-71319760D01*
X99279817Y-71312951D01*
X99235887Y-71289470D01*
X99199989Y-71260011D01*
X99170530Y-71224113D01*
X99148637Y-71183155D01*
X99135156Y-71138715D01*
X99130000Y-71086360D01*
X99130000Y-70373640D01*
X99135156Y-70321285D01*
X99148637Y-70276845D01*
X99170530Y-70235887D01*
X99199989Y-70199989D01*
X99235887Y-70170530D01*
X99276845Y-70148637D01*
X99321285Y-70135156D01*
X99373640Y-70130000D01*
X100086360Y-70130000D01*
X100138715Y-70135156D01*
G37*
G36*
X150718748Y-70594036D02*
G01*
X150762011Y-70607160D01*
X150801890Y-70628476D01*
X150836841Y-70657159D01*
X150865524Y-70692110D01*
X150886840Y-70731989D01*
X150899964Y-70775252D01*
X150905000Y-70826390D01*
X150905000Y-71526610D01*
X150899964Y-71577748D01*
X150886840Y-71621011D01*
X150865524Y-71660890D01*
X150836841Y-71695841D01*
X150801890Y-71724524D01*
X150762011Y-71745840D01*
X150718748Y-71758964D01*
X150667610Y-71764000D01*
X149542390Y-71764000D01*
X149491252Y-71758964D01*
X149447989Y-71745840D01*
X149408110Y-71724524D01*
X149373159Y-71695841D01*
X149344476Y-71660890D01*
X149323160Y-71621011D01*
X149310036Y-71577748D01*
X149305000Y-71526610D01*
X149305000Y-70826390D01*
X149310036Y-70775252D01*
X149323160Y-70731989D01*
X149344476Y-70692110D01*
X149373159Y-70657159D01*
X149408110Y-70628476D01*
X149447989Y-70607160D01*
X149491252Y-70594036D01*
X149542390Y-70589000D01*
X150667610Y-70589000D01*
X150718748Y-70594036D01*
G37*
G36*
X130318748Y-70594036D02*
G01*
X130362011Y-70607160D01*
X130401890Y-70628476D01*
X130436841Y-70657159D01*
X130465524Y-70692110D01*
X130486840Y-70731989D01*
X130499964Y-70775252D01*
X130505000Y-70826390D01*
X130505000Y-71526610D01*
X130499964Y-71577748D01*
X130486840Y-71621011D01*
X130465524Y-71660890D01*
X130436841Y-71695841D01*
X130401890Y-71724524D01*
X130362011Y-71745840D01*
X130318748Y-71758964D01*
X130267610Y-71764000D01*
X129142390Y-71764000D01*
X129091252Y-71758964D01*
X129047989Y-71745840D01*
X129008110Y-71724524D01*
X128973159Y-71695841D01*
X128944476Y-71660890D01*
X128923160Y-71621011D01*
X128910036Y-71577748D01*
X128905000Y-71526610D01*
X128905000Y-70826390D01*
X128910036Y-70775252D01*
X128923160Y-70731989D01*
X128944476Y-70692110D01*
X128973159Y-70657159D01*
X129008110Y-70628476D01*
X129047989Y-70607160D01*
X129091252Y-70594036D01*
X129142390Y-70589000D01*
X130267610Y-70589000D01*
X130318748Y-70594036D01*
G37*
G36*
X138218748Y-70594036D02*
G01*
X138262011Y-70607160D01*
X138301890Y-70628476D01*
X138336841Y-70657159D01*
X138365524Y-70692110D01*
X138386840Y-70731989D01*
X138399964Y-70775252D01*
X138405000Y-70826390D01*
X138405000Y-71526610D01*
X138399964Y-71577748D01*
X138386840Y-71621011D01*
X138365524Y-71660890D01*
X138336841Y-71695841D01*
X138301890Y-71724524D01*
X138262011Y-71745840D01*
X138218748Y-71758964D01*
X138167610Y-71764000D01*
X137042390Y-71764000D01*
X136991252Y-71758964D01*
X136947989Y-71745840D01*
X136908110Y-71724524D01*
X136873159Y-71695841D01*
X136844476Y-71660890D01*
X136823160Y-71621011D01*
X136810036Y-71577748D01*
X136805000Y-71526610D01*
X136805000Y-70826390D01*
X136810036Y-70775252D01*
X136823160Y-70731989D01*
X136844476Y-70692110D01*
X136873159Y-70657159D01*
X136908110Y-70628476D01*
X136947989Y-70607160D01*
X136991252Y-70594036D01*
X137042390Y-70589000D01*
X138167610Y-70589000D01*
X138218748Y-70594036D01*
G37*
G36*
X125718748Y-70594036D02*
G01*
X125762011Y-70607160D01*
X125801890Y-70628476D01*
X125836841Y-70657159D01*
X125865524Y-70692110D01*
X125886840Y-70731989D01*
X125899964Y-70775252D01*
X125905000Y-70826390D01*
X125905000Y-71526610D01*
X125899964Y-71577748D01*
X125886840Y-71621011D01*
X125865524Y-71660890D01*
X125836841Y-71695841D01*
X125801890Y-71724524D01*
X125762011Y-71745840D01*
X125718748Y-71758964D01*
X125667610Y-71764000D01*
X124542390Y-71764000D01*
X124491252Y-71758964D01*
X124447989Y-71745840D01*
X124408110Y-71724524D01*
X124373159Y-71695841D01*
X124344476Y-71660890D01*
X124323160Y-71621011D01*
X124310036Y-71577748D01*
X124305000Y-71526610D01*
X124305000Y-70826390D01*
X124310036Y-70775252D01*
X124323160Y-70731989D01*
X124344476Y-70692110D01*
X124373159Y-70657159D01*
X124408110Y-70628476D01*
X124447989Y-70607160D01*
X124491252Y-70594036D01*
X124542390Y-70589000D01*
X125667610Y-70589000D01*
X125718748Y-70594036D01*
G37*
G36*
X142818748Y-70594036D02*
G01*
X142862011Y-70607160D01*
X142901890Y-70628476D01*
X142936841Y-70657159D01*
X142965524Y-70692110D01*
X142986840Y-70731989D01*
X142999964Y-70775252D01*
X143005000Y-70826390D01*
X143005000Y-71526610D01*
X142999964Y-71577748D01*
X142986840Y-71621011D01*
X142965524Y-71660890D01*
X142936841Y-71695841D01*
X142901890Y-71724524D01*
X142862011Y-71745840D01*
X142818748Y-71758964D01*
X142767610Y-71764000D01*
X141642390Y-71764000D01*
X141591252Y-71758964D01*
X141547989Y-71745840D01*
X141508110Y-71724524D01*
X141473159Y-71695841D01*
X141444476Y-71660890D01*
X141423160Y-71621011D01*
X141410036Y-71577748D01*
X141405000Y-71526610D01*
X141405000Y-70826390D01*
X141410036Y-70775252D01*
X141423160Y-70731989D01*
X141444476Y-70692110D01*
X141473159Y-70657159D01*
X141508110Y-70628476D01*
X141547989Y-70607160D01*
X141591252Y-70594036D01*
X141642390Y-70589000D01*
X142767610Y-70589000D01*
X142818748Y-70594036D01*
G37*
G36*
X155318748Y-70594036D02*
G01*
X155362011Y-70607160D01*
X155401890Y-70628476D01*
X155436841Y-70657159D01*
X155465524Y-70692110D01*
X155486840Y-70731989D01*
X155499964Y-70775252D01*
X155505000Y-70826390D01*
X155505000Y-71526610D01*
X155499964Y-71577748D01*
X155486840Y-71621011D01*
X155465524Y-71660890D01*
X155436841Y-71695841D01*
X155401890Y-71724524D01*
X155362011Y-71745840D01*
X155318748Y-71758964D01*
X155267610Y-71764000D01*
X154142390Y-71764000D01*
X154091252Y-71758964D01*
X154047989Y-71745840D01*
X154008110Y-71724524D01*
X153973159Y-71695841D01*
X153944476Y-71660890D01*
X153923160Y-71621011D01*
X153910036Y-71577748D01*
X153905000Y-71526610D01*
X153905000Y-70826390D01*
X153910036Y-70775252D01*
X153923160Y-70731989D01*
X153944476Y-70692110D01*
X153973159Y-70657159D01*
X154008110Y-70628476D01*
X154047989Y-70607160D01*
X154091252Y-70594036D01*
X154142390Y-70589000D01*
X155267610Y-70589000D01*
X155318748Y-70594036D01*
G37*
G36*
X104513748Y-69365036D02*
G01*
X104557011Y-69378160D01*
X104596890Y-69399476D01*
X104631841Y-69428159D01*
X104660524Y-69463110D01*
X104681840Y-69502989D01*
X104694964Y-69546252D01*
X104700000Y-69597390D01*
X104700000Y-70722610D01*
X104694964Y-70773748D01*
X104681840Y-70817011D01*
X104660524Y-70856890D01*
X104631841Y-70891841D01*
X104596890Y-70920524D01*
X104557011Y-70941840D01*
X104513748Y-70954964D01*
X104462610Y-70960000D01*
X103762390Y-70960000D01*
X103711252Y-70954964D01*
X103667989Y-70941840D01*
X103628110Y-70920524D01*
X103593159Y-70891841D01*
X103564476Y-70856890D01*
X103543160Y-70817011D01*
X103530036Y-70773748D01*
X103525000Y-70722610D01*
X103525000Y-69597390D01*
X103530036Y-69546252D01*
X103543160Y-69502989D01*
X103564476Y-69463110D01*
X103593159Y-69428159D01*
X103628110Y-69399476D01*
X103667989Y-69378160D01*
X103711252Y-69365036D01*
X103762390Y-69360000D01*
X104462610Y-69360000D01*
X104513748Y-69365036D01*
G37*
G36*
X102638748Y-69365036D02*
G01*
X102682011Y-69378160D01*
X102721890Y-69399476D01*
X102756841Y-69428159D01*
X102785524Y-69463110D01*
X102806840Y-69502989D01*
X102819964Y-69546252D01*
X102825000Y-69597390D01*
X102825000Y-70722610D01*
X102819964Y-70773748D01*
X102806840Y-70817011D01*
X102785524Y-70856890D01*
X102756841Y-70891841D01*
X102721890Y-70920524D01*
X102682011Y-70941840D01*
X102638748Y-70954964D01*
X102587610Y-70960000D01*
X101887390Y-70960000D01*
X101836252Y-70954964D01*
X101792989Y-70941840D01*
X101753110Y-70920524D01*
X101718159Y-70891841D01*
X101689476Y-70856890D01*
X101668160Y-70817011D01*
X101655036Y-70773748D01*
X101650000Y-70722610D01*
X101650000Y-69597390D01*
X101655036Y-69546252D01*
X101668160Y-69502989D01*
X101689476Y-69463110D01*
X101718159Y-69428159D01*
X101753110Y-69399476D01*
X101792989Y-69378160D01*
X101836252Y-69365036D01*
X101887390Y-69360000D01*
X102587610Y-69360000D01*
X102638748Y-69365036D01*
G37*
G36*
X130421748Y-68619036D02*
G01*
X130465011Y-68632160D01*
X130504890Y-68653476D01*
X130539841Y-68682159D01*
X130568524Y-68717110D01*
X130589840Y-68756989D01*
X130602964Y-68800252D01*
X130608000Y-68851390D01*
X130608000Y-69976610D01*
X130602964Y-70027748D01*
X130589840Y-70071011D01*
X130568524Y-70110890D01*
X130539841Y-70145841D01*
X130504890Y-70174524D01*
X130465011Y-70195840D01*
X130421748Y-70208964D01*
X130370610Y-70214000D01*
X129670390Y-70214000D01*
X129619252Y-70208964D01*
X129575989Y-70195840D01*
X129536110Y-70174524D01*
X129501159Y-70145841D01*
X129472476Y-70110890D01*
X129451160Y-70071011D01*
X129438036Y-70027748D01*
X129433000Y-69976610D01*
X129433000Y-68851390D01*
X129438036Y-68800252D01*
X129451160Y-68756989D01*
X129472476Y-68717110D01*
X129501159Y-68682159D01*
X129536110Y-68653476D01*
X129575989Y-68632160D01*
X129619252Y-68619036D01*
X129670390Y-68614000D01*
X130370610Y-68614000D01*
X130421748Y-68619036D01*
G37*
G36*
X125117748Y-68619036D02*
G01*
X125161011Y-68632160D01*
X125200890Y-68653476D01*
X125235841Y-68682159D01*
X125264524Y-68717110D01*
X125285840Y-68756989D01*
X125298964Y-68800252D01*
X125304000Y-68851390D01*
X125304000Y-69976610D01*
X125298964Y-70027748D01*
X125285840Y-70071011D01*
X125264524Y-70110890D01*
X125235841Y-70145841D01*
X125200890Y-70174524D01*
X125161011Y-70195840D01*
X125117748Y-70208964D01*
X125066610Y-70214000D01*
X124366390Y-70214000D01*
X124315252Y-70208964D01*
X124271989Y-70195840D01*
X124232110Y-70174524D01*
X124197159Y-70145841D01*
X124168476Y-70110890D01*
X124147160Y-70071011D01*
X124134036Y-70027748D01*
X124129000Y-69976610D01*
X124129000Y-68851390D01*
X124134036Y-68800252D01*
X124147160Y-68756989D01*
X124168476Y-68717110D01*
X124197159Y-68682159D01*
X124232110Y-68653476D01*
X124271989Y-68632160D01*
X124315252Y-68619036D01*
X124366390Y-68614000D01*
X125066610Y-68614000D01*
X125117748Y-68619036D01*
G37*
G36*
X126992748Y-68619036D02*
G01*
X127036011Y-68632160D01*
X127075890Y-68653476D01*
X127110841Y-68682159D01*
X127139524Y-68717110D01*
X127160840Y-68756989D01*
X127173964Y-68800252D01*
X127179000Y-68851390D01*
X127179000Y-69976610D01*
X127173964Y-70027748D01*
X127160840Y-70071011D01*
X127139524Y-70110890D01*
X127110841Y-70145841D01*
X127075890Y-70174524D01*
X127036011Y-70195840D01*
X126992748Y-70208964D01*
X126941610Y-70214000D01*
X126241390Y-70214000D01*
X126190252Y-70208964D01*
X126146989Y-70195840D01*
X126107110Y-70174524D01*
X126072159Y-70145841D01*
X126043476Y-70110890D01*
X126022160Y-70071011D01*
X126009036Y-70027748D01*
X126004000Y-69976610D01*
X126004000Y-68851390D01*
X126009036Y-68800252D01*
X126022160Y-68756989D01*
X126043476Y-68717110D01*
X126072159Y-68682159D01*
X126107110Y-68653476D01*
X126146989Y-68632160D01*
X126190252Y-68619036D01*
X126241390Y-68614000D01*
X126941610Y-68614000D01*
X126992748Y-68619036D01*
G37*
G36*
X128546748Y-68619036D02*
G01*
X128590011Y-68632160D01*
X128629890Y-68653476D01*
X128664841Y-68682159D01*
X128693524Y-68717110D01*
X128714840Y-68756989D01*
X128727964Y-68800252D01*
X128733000Y-68851390D01*
X128733000Y-69976610D01*
X128727964Y-70027748D01*
X128714840Y-70071011D01*
X128693524Y-70110890D01*
X128664841Y-70145841D01*
X128629890Y-70174524D01*
X128590011Y-70195840D01*
X128546748Y-70208964D01*
X128495610Y-70214000D01*
X127795390Y-70214000D01*
X127744252Y-70208964D01*
X127700989Y-70195840D01*
X127661110Y-70174524D01*
X127626159Y-70145841D01*
X127597476Y-70110890D01*
X127576160Y-70071011D01*
X127563036Y-70027748D01*
X127558000Y-69976610D01*
X127558000Y-68851390D01*
X127563036Y-68800252D01*
X127576160Y-68756989D01*
X127597476Y-68717110D01*
X127626159Y-68682159D01*
X127661110Y-68653476D01*
X127700989Y-68632160D01*
X127744252Y-68619036D01*
X127795390Y-68614000D01*
X128495610Y-68614000D01*
X128546748Y-68619036D01*
G37*
G36*
X141119748Y-68603036D02*
G01*
X141163011Y-68616160D01*
X141202890Y-68637476D01*
X141237841Y-68666159D01*
X141266524Y-68701110D01*
X141287840Y-68740989D01*
X141300964Y-68784252D01*
X141306000Y-68835390D01*
X141306000Y-69960610D01*
X141300964Y-70011748D01*
X141287840Y-70055011D01*
X141266524Y-70094890D01*
X141237841Y-70129841D01*
X141202890Y-70158524D01*
X141163011Y-70179840D01*
X141119748Y-70192964D01*
X141068610Y-70198000D01*
X140368390Y-70198000D01*
X140317252Y-70192964D01*
X140273989Y-70179840D01*
X140234110Y-70158524D01*
X140199159Y-70129841D01*
X140170476Y-70094890D01*
X140149160Y-70055011D01*
X140136036Y-70011748D01*
X140131000Y-69960610D01*
X140131000Y-68835390D01*
X140136036Y-68784252D01*
X140149160Y-68740989D01*
X140170476Y-68701110D01*
X140199159Y-68666159D01*
X140234110Y-68637476D01*
X140273989Y-68616160D01*
X140317252Y-68603036D01*
X140368390Y-68598000D01*
X141068610Y-68598000D01*
X141119748Y-68603036D01*
G37*
G36*
X137690748Y-68603036D02*
G01*
X137734011Y-68616160D01*
X137773890Y-68637476D01*
X137808841Y-68666159D01*
X137837524Y-68701110D01*
X137858840Y-68740989D01*
X137871964Y-68784252D01*
X137877000Y-68835390D01*
X137877000Y-69960610D01*
X137871964Y-70011748D01*
X137858840Y-70055011D01*
X137837524Y-70094890D01*
X137808841Y-70129841D01*
X137773890Y-70158524D01*
X137734011Y-70179840D01*
X137690748Y-70192964D01*
X137639610Y-70198000D01*
X136939390Y-70198000D01*
X136888252Y-70192964D01*
X136844989Y-70179840D01*
X136805110Y-70158524D01*
X136770159Y-70129841D01*
X136741476Y-70094890D01*
X136720160Y-70055011D01*
X136707036Y-70011748D01*
X136702000Y-69960610D01*
X136702000Y-68835390D01*
X136707036Y-68784252D01*
X136720160Y-68740989D01*
X136741476Y-68701110D01*
X136770159Y-68666159D01*
X136805110Y-68637476D01*
X136844989Y-68616160D01*
X136888252Y-68603036D01*
X136939390Y-68598000D01*
X137639610Y-68598000D01*
X137690748Y-68603036D01*
G37*
G36*
X150136748Y-68603036D02*
G01*
X150180011Y-68616160D01*
X150219890Y-68637476D01*
X150254841Y-68666159D01*
X150283524Y-68701110D01*
X150304840Y-68740989D01*
X150317964Y-68784252D01*
X150323000Y-68835390D01*
X150323000Y-69960610D01*
X150317964Y-70011748D01*
X150304840Y-70055011D01*
X150283524Y-70094890D01*
X150254841Y-70129841D01*
X150219890Y-70158524D01*
X150180011Y-70179840D01*
X150136748Y-70192964D01*
X150085610Y-70198000D01*
X149385390Y-70198000D01*
X149334252Y-70192964D01*
X149290989Y-70179840D01*
X149251110Y-70158524D01*
X149216159Y-70129841D01*
X149187476Y-70094890D01*
X149166160Y-70055011D01*
X149153036Y-70011748D01*
X149148000Y-69960610D01*
X149148000Y-68835390D01*
X149153036Y-68784252D01*
X149166160Y-68740989D01*
X149187476Y-68701110D01*
X149216159Y-68666159D01*
X149251110Y-68637476D01*
X149290989Y-68616160D01*
X149334252Y-68603036D01*
X149385390Y-68598000D01*
X150085610Y-68598000D01*
X150136748Y-68603036D01*
G37*
G36*
X152011748Y-68603036D02*
G01*
X152055011Y-68616160D01*
X152094890Y-68637476D01*
X152129841Y-68666159D01*
X152158524Y-68701110D01*
X152179840Y-68740989D01*
X152192964Y-68784252D01*
X152198000Y-68835390D01*
X152198000Y-69960610D01*
X152192964Y-70011748D01*
X152179840Y-70055011D01*
X152158524Y-70094890D01*
X152129841Y-70129841D01*
X152094890Y-70158524D01*
X152055011Y-70179840D01*
X152011748Y-70192964D01*
X151960610Y-70198000D01*
X151260390Y-70198000D01*
X151209252Y-70192964D01*
X151165989Y-70179840D01*
X151126110Y-70158524D01*
X151091159Y-70129841D01*
X151062476Y-70094890D01*
X151041160Y-70055011D01*
X151028036Y-70011748D01*
X151023000Y-69960610D01*
X151023000Y-68835390D01*
X151028036Y-68784252D01*
X151041160Y-68740989D01*
X151062476Y-68701110D01*
X151091159Y-68666159D01*
X151126110Y-68637476D01*
X151165989Y-68616160D01*
X151209252Y-68603036D01*
X151260390Y-68598000D01*
X151960610Y-68598000D01*
X152011748Y-68603036D01*
G37*
G36*
X153565748Y-68603036D02*
G01*
X153609011Y-68616160D01*
X153648890Y-68637476D01*
X153683841Y-68666159D01*
X153712524Y-68701110D01*
X153733840Y-68740989D01*
X153746964Y-68784252D01*
X153752000Y-68835390D01*
X153752000Y-69960610D01*
X153746964Y-70011748D01*
X153733840Y-70055011D01*
X153712524Y-70094890D01*
X153683841Y-70129841D01*
X153648890Y-70158524D01*
X153609011Y-70179840D01*
X153565748Y-70192964D01*
X153514610Y-70198000D01*
X152814390Y-70198000D01*
X152763252Y-70192964D01*
X152719989Y-70179840D01*
X152680110Y-70158524D01*
X152645159Y-70129841D01*
X152616476Y-70094890D01*
X152595160Y-70055011D01*
X152582036Y-70011748D01*
X152577000Y-69960610D01*
X152577000Y-68835390D01*
X152582036Y-68784252D01*
X152595160Y-68740989D01*
X152616476Y-68701110D01*
X152645159Y-68666159D01*
X152680110Y-68637476D01*
X152719989Y-68616160D01*
X152763252Y-68603036D01*
X152814390Y-68598000D01*
X153514610Y-68598000D01*
X153565748Y-68603036D01*
G37*
G36*
X155440748Y-68603036D02*
G01*
X155484011Y-68616160D01*
X155523890Y-68637476D01*
X155558841Y-68666159D01*
X155587524Y-68701110D01*
X155608840Y-68740989D01*
X155621964Y-68784252D01*
X155627000Y-68835390D01*
X155627000Y-69960610D01*
X155621964Y-70011748D01*
X155608840Y-70055011D01*
X155587524Y-70094890D01*
X155558841Y-70129841D01*
X155523890Y-70158524D01*
X155484011Y-70179840D01*
X155440748Y-70192964D01*
X155389610Y-70198000D01*
X154689390Y-70198000D01*
X154638252Y-70192964D01*
X154594989Y-70179840D01*
X154555110Y-70158524D01*
X154520159Y-70129841D01*
X154491476Y-70094890D01*
X154470160Y-70055011D01*
X154457036Y-70011748D01*
X154452000Y-69960610D01*
X154452000Y-68835390D01*
X154457036Y-68784252D01*
X154470160Y-68740989D01*
X154491476Y-68701110D01*
X154520159Y-68666159D01*
X154555110Y-68637476D01*
X154594989Y-68616160D01*
X154638252Y-68603036D01*
X154689390Y-68598000D01*
X155389610Y-68598000D01*
X155440748Y-68603036D01*
G37*
G36*
X139565748Y-68603036D02*
G01*
X139609011Y-68616160D01*
X139648890Y-68637476D01*
X139683841Y-68666159D01*
X139712524Y-68701110D01*
X139733840Y-68740989D01*
X139746964Y-68784252D01*
X139752000Y-68835390D01*
X139752000Y-69960610D01*
X139746964Y-70011748D01*
X139733840Y-70055011D01*
X139712524Y-70094890D01*
X139683841Y-70129841D01*
X139648890Y-70158524D01*
X139609011Y-70179840D01*
X139565748Y-70192964D01*
X139514610Y-70198000D01*
X138814390Y-70198000D01*
X138763252Y-70192964D01*
X138719989Y-70179840D01*
X138680110Y-70158524D01*
X138645159Y-70129841D01*
X138616476Y-70094890D01*
X138595160Y-70055011D01*
X138582036Y-70011748D01*
X138577000Y-69960610D01*
X138577000Y-68835390D01*
X138582036Y-68784252D01*
X138595160Y-68740989D01*
X138616476Y-68701110D01*
X138645159Y-68666159D01*
X138680110Y-68637476D01*
X138719989Y-68616160D01*
X138763252Y-68603036D01*
X138814390Y-68598000D01*
X139514610Y-68598000D01*
X139565748Y-68603036D01*
G37*
G36*
X142994748Y-68603036D02*
G01*
X143038011Y-68616160D01*
X143077890Y-68637476D01*
X143112841Y-68666159D01*
X143141524Y-68701110D01*
X143162840Y-68740989D01*
X143175964Y-68784252D01*
X143181000Y-68835390D01*
X143181000Y-69960610D01*
X143175964Y-70011748D01*
X143162840Y-70055011D01*
X143141524Y-70094890D01*
X143112841Y-70129841D01*
X143077890Y-70158524D01*
X143038011Y-70179840D01*
X142994748Y-70192964D01*
X142943610Y-70198000D01*
X142243390Y-70198000D01*
X142192252Y-70192964D01*
X142148989Y-70179840D01*
X142109110Y-70158524D01*
X142074159Y-70129841D01*
X142045476Y-70094890D01*
X142024160Y-70055011D01*
X142011036Y-70011748D01*
X142006000Y-69960610D01*
X142006000Y-68835390D01*
X142011036Y-68784252D01*
X142024160Y-68740989D01*
X142045476Y-68701110D01*
X142074159Y-68666159D01*
X142109110Y-68637476D01*
X142148989Y-68616160D01*
X142192252Y-68603036D01*
X142243390Y-68598000D01*
X142943610Y-68598000D01*
X142994748Y-68603036D01*
G37*
G36*
X104477158Y-60278738D02*
G01*
X105086818Y-60531268D01*
X105086820Y-60531269D01*
X105635500Y-60897885D01*
X106102115Y-61364500D01*
X106468732Y-61913182D01*
X106721262Y-62522842D01*
X106850000Y-63170052D01*
X106850000Y-63829948D01*
X106721262Y-64477158D01*
X106470771Y-65081895D01*
X106468731Y-65086820D01*
X106102115Y-65635500D01*
X105635500Y-66102115D01*
X105086820Y-66468731D01*
X105086819Y-66468732D01*
X105086818Y-66468732D01*
X104477158Y-66721262D01*
X103829948Y-66850000D01*
X103170052Y-66850000D01*
X102522842Y-66721262D01*
X101913182Y-66468732D01*
X101913181Y-66468732D01*
X101913180Y-66468731D01*
X101364500Y-66102115D01*
X100897885Y-65635500D01*
X100531269Y-65086820D01*
X100529229Y-65081895D01*
X100278738Y-64477158D01*
X100150000Y-63829948D01*
X100150000Y-63170052D01*
X100278738Y-62522842D01*
X100531268Y-61913182D01*
X100897885Y-61364500D01*
X101364500Y-60897885D01*
X101913180Y-60531269D01*
X101913182Y-60531268D01*
X102522842Y-60278738D01*
X103170052Y-60150000D01*
X103829948Y-60150000D01*
X104477158Y-60278738D01*
G37*
G36*
X162477158Y-60278738D02*
G01*
X163086818Y-60531268D01*
X163086820Y-60531269D01*
X163635500Y-60897885D01*
X164102115Y-61364500D01*
X164468732Y-61913182D01*
X164721262Y-62522842D01*
X164850000Y-63170052D01*
X164850000Y-63829948D01*
X164721262Y-64477158D01*
X164470771Y-65081895D01*
X164468731Y-65086820D01*
X164102115Y-65635500D01*
X163635500Y-66102115D01*
X163086820Y-66468731D01*
X163086819Y-66468732D01*
X163086818Y-66468732D01*
X162477158Y-66721262D01*
X161829948Y-66850000D01*
X161170052Y-66850000D01*
X160522842Y-66721262D01*
X159913182Y-66468732D01*
X159913181Y-66468732D01*
X159913180Y-66468731D01*
X159364500Y-66102115D01*
X158897885Y-65635500D01*
X158531269Y-65086820D01*
X158529229Y-65081895D01*
X158278738Y-64477158D01*
X158150000Y-63829948D01*
X158150000Y-63170052D01*
X158278738Y-62522842D01*
X158531268Y-61913182D01*
X158897885Y-61364500D01*
X159364500Y-60897885D01*
X159913180Y-60531269D01*
X159913182Y-60531268D01*
X160522842Y-60278738D01*
X161170052Y-60150000D01*
X161829948Y-60150000D01*
X162477158Y-60278738D01*
G37*
G36*
X151916000Y-65180000D02*
G01*
X150192000Y-65180000D01*
X150192000Y-63456000D01*
X151916000Y-63456000D01*
X151916000Y-65180000D01*
G37*
G36*
X153845433Y-63489125D02*
G01*
X153845435Y-63489126D01*
X153845436Y-63489126D01*
X154002310Y-63554105D01*
X154143493Y-63648441D01*
X154263559Y-63768507D01*
X154357895Y-63909690D01*
X154386645Y-63979100D01*
X154422875Y-64066567D01*
X154456000Y-64233099D01*
X154456000Y-64402901D01*
X154448137Y-64442433D01*
X154422874Y-64569436D01*
X154357895Y-64726310D01*
X154263559Y-64867493D01*
X154143493Y-64987559D01*
X154002310Y-65081895D01*
X153845436Y-65146874D01*
X153845435Y-65146874D01*
X153845433Y-65146875D01*
X153678901Y-65180000D01*
X153509099Y-65180000D01*
X153342567Y-65146875D01*
X153342565Y-65146874D01*
X153342564Y-65146874D01*
X153185690Y-65081895D01*
X153044507Y-64987559D01*
X152924441Y-64867493D01*
X152830105Y-64726310D01*
X152765126Y-64569436D01*
X152739864Y-64442433D01*
X152732000Y-64402901D01*
X152732000Y-64233099D01*
X152765125Y-64066567D01*
X152801355Y-63979100D01*
X152830105Y-63909690D01*
X152924441Y-63768507D01*
X153044507Y-63648441D01*
X153185690Y-63554105D01*
X153342564Y-63489126D01*
X153342565Y-63489126D01*
X153342567Y-63489125D01*
X153509099Y-63456000D01*
X153678901Y-63456000D01*
X153845433Y-63489125D01*
G37*
G36*
X141399433Y-63362125D02*
G01*
X141399435Y-63362126D01*
X141399436Y-63362126D01*
X141556310Y-63427105D01*
X141697493Y-63521441D01*
X141817559Y-63641507D01*
X141911895Y-63782690D01*
X141976874Y-63939564D01*
X141976875Y-63939567D01*
X142010000Y-64106099D01*
X142010000Y-64275901D01*
X141977308Y-64440258D01*
X141976874Y-64442436D01*
X141911895Y-64599310D01*
X141817559Y-64740493D01*
X141697493Y-64860559D01*
X141556310Y-64954895D01*
X141399436Y-65019874D01*
X141399435Y-65019874D01*
X141399433Y-65019875D01*
X141232901Y-65053000D01*
X141063099Y-65053000D01*
X140896567Y-65019875D01*
X140896565Y-65019874D01*
X140896564Y-65019874D01*
X140739690Y-64954895D01*
X140598507Y-64860559D01*
X140478441Y-64740493D01*
X140384105Y-64599310D01*
X140319126Y-64442436D01*
X140318693Y-64440258D01*
X140286000Y-64275901D01*
X140286000Y-64106099D01*
X140319125Y-63939567D01*
X140319126Y-63939564D01*
X140384105Y-63782690D01*
X140478441Y-63641507D01*
X140598507Y-63521441D01*
X140739690Y-63427105D01*
X140896564Y-63362126D01*
X140896565Y-63362126D01*
X140896567Y-63362125D01*
X141063099Y-63329000D01*
X141232901Y-63329000D01*
X141399433Y-63362125D01*
G37*
G36*
X139470000Y-65053000D02*
G01*
X137746000Y-65053000D01*
X137746000Y-63329000D01*
X139470000Y-63329000D01*
X139470000Y-65053000D01*
G37*
G36*
X128953433Y-63235125D02*
G01*
X128953435Y-63235126D01*
X128953436Y-63235126D01*
X129110310Y-63300105D01*
X129251493Y-63394441D01*
X129371559Y-63514507D01*
X129465895Y-63655690D01*
X129530874Y-63812564D01*
X129530875Y-63812567D01*
X129564000Y-63979099D01*
X129564000Y-64148901D01*
X129538739Y-64275900D01*
X129530874Y-64315436D01*
X129465895Y-64472310D01*
X129371559Y-64613493D01*
X129251493Y-64733559D01*
X129110310Y-64827895D01*
X128953436Y-64892874D01*
X128953435Y-64892874D01*
X128953433Y-64892875D01*
X128786901Y-64926000D01*
X128617099Y-64926000D01*
X128450567Y-64892875D01*
X128450565Y-64892874D01*
X128450564Y-64892874D01*
X128293690Y-64827895D01*
X128152507Y-64733559D01*
X128032441Y-64613493D01*
X127938105Y-64472310D01*
X127873126Y-64315436D01*
X127865262Y-64275900D01*
X127840000Y-64148901D01*
X127840000Y-63979099D01*
X127873125Y-63812567D01*
X127873126Y-63812564D01*
X127938105Y-63655690D01*
X128032441Y-63514507D01*
X128152507Y-63394441D01*
X128293690Y-63300105D01*
X128450564Y-63235126D01*
X128450565Y-63235126D01*
X128450567Y-63235125D01*
X128617099Y-63202000D01*
X128786901Y-63202000D01*
X128953433Y-63235125D01*
G37*
G36*
X127024000Y-64926000D02*
G01*
X125300000Y-64926000D01*
X125300000Y-63202000D01*
X127024000Y-63202000D01*
X127024000Y-64926000D01*
G37*
M02*
